<svg width="157" height="30" viewBox="0 0 157 30" fill="none" xmlns="http://www.w3.org/2000/svg">
<path d="M11.0506 0.6H5.65059V0.5H11.0506V0.6ZM11.0506 5.75H5.65059V0.65H11.0506V5.75ZM11.0506 5.8V5.9H5.65059V5.8H11.0506ZM16.0506 0.6H10.6506V0.5H16.0506V0.6ZM16.0506 5.75H10.6506V0.65H16.0506V5.75ZM16.0506 5.8V5.9H10.6506V5.8H16.0506ZM21.0506 0.6H15.6506V0.5H21.0506V0.6ZM21.0506 5.75H15.6506V0.65H21.0506V5.75ZM21.0506 5.8V5.9H15.6506V5.8H21.0506ZM26.0506 0.6H20.6506V0.5H26.0506V0.6ZM26.0506 5.75H20.6506V0.65H26.0506V5.75ZM26.0506 5.8V5.9H20.6506V5.8H26.0506ZM31.0506 0.6H25.6506V0.5H31.0506V0.6ZM31.0506 5.75H25.6506V0.65H31.0506V5.75ZM31.0506 5.8V5.9H25.6506V5.8H31.0506ZM71.0506 0.6H65.6506V0.5H71.0506V0.6ZM71.0506 5.75H65.6506V0.65H71.0506V5.75ZM71.0506 5.8V5.9H65.6506V5.8H71.0506ZM76.0506 0.6H70.6506V0.5H76.0506V0.6ZM76.0506 5.75H70.6506V0.65H76.0506V5.75ZM76.0506 5.8V5.9H70.6506V5.8H76.0506ZM91.0506 0.6H85.6506V0.5H91.0506V0.6ZM91.0506 5.75H85.6506V0.65H91.0506V5.75ZM91.0506 5.8V5.9H85.6506V5.8H91.0506ZM96.0506 0.6H90.6506V0.5H96.0506V0.6ZM96.0506 5.75H90.6506V0.65H96.0506V5.75ZM96.0506 5.8V5.9H90.6506V5.8H96.0506ZM101.051 0.6H95.6506V0.5H101.051V0.6ZM101.051 5.75H95.6506V0.65H101.051V5.75ZM101.051 5.8V5.9H95.6506V5.8H101.051ZM106.051 0.6H100.651V0.5H106.051V0.6ZM106.051 5.75H100.651V0.65H106.051V5.75ZM106.051 5.8V5.9H100.651V5.8H106.051ZM111.051 0.6H105.651V0.5H111.051V0.6ZM111.051 5.75H105.651V0.65H111.051V5.75ZM111.051 5.8V5.9H105.651V5.8H111.051ZM126.051 0.6H120.651V0.5H126.051V0.6ZM126.051 5.75H120.651V0.65H126.051V5.75ZM126.051 5.8V5.9H120.651V5.8H126.051ZM131.051 0.6H125.651V0.5H131.051V0.6ZM131.051 5.75H125.651V0.65H131.051V5.75ZM131.051 5.8V5.9H125.651V5.8H131.051ZM151.051 0.6H145.651V0.5H151.051V0.6ZM151.051 5.75H145.651V0.65H151.051V5.75ZM151.051 5.8V5.9H145.651V5.8H151.051ZM156.051 0.6H150.651V0.5H156.051V0.6ZM156.051 5.75H150.651V0.65H156.051V5.75ZM156.051 5.8V5.9H150.651V5.8H156.051ZM6.05059 6.6H0.650586V6.5H6.05059V6.6ZM6.05059 11.75H0.650586V6.65H6.05059V11.75ZM6.05059 11.8V11.9H0.650586V11.8H6.05059ZM11.0506 6.6H5.65059V6.5H11.0506V6.6ZM11.0506 11.75H5.65059V6.65H11.0506V11.75ZM11.0506 11.8V11.9H5.65059V11.8H11.0506ZM31.0506 6.6H25.6506V6.5H31.0506V6.6ZM31.0506 11.75H25.6506V6.65H31.0506V11.75ZM31.0506 11.8V11.9H25.6506V11.8H31.0506ZM36.0506 6.6H30.6506V6.5H36.0506V6.6ZM36.0506 11.75H30.6506V6.65H36.0506V11.75ZM36.0506 11.8V11.9H30.6506V11.8H36.0506ZM71.0506 6.6H65.6506V6.5H71.0506V6.6ZM71.0506 11.75H65.6506V6.65H71.0506V11.75ZM71.0506 11.8V11.9H65.6506V11.8H71.0506ZM76.0506 6.6H70.6506V6.5H76.0506V6.6ZM76.0506 11.75H70.6506V6.65H76.0506V11.75ZM76.0506 11.8V11.9H70.6506V11.8H76.0506ZM86.0506 6.6H80.6506V6.5H86.0506V6.6ZM86.0506 11.75H80.6506V6.65H86.0506V11.75ZM86.0506 11.8V11.9H80.6506V11.8H86.0506ZM91.0506 6.6H85.6506V6.5H91.0506V6.6ZM91.0506 11.75H85.6506V6.65H91.0506V11.75ZM91.0506 11.8V11.9H85.6506V11.8H91.0506ZM111.051 6.6H105.651V6.5H111.051V6.6ZM111.051 11.75H105.651V6.65H111.051V11.75ZM111.051 11.8V11.9H105.651V11.8H111.051ZM116.051 6.6H110.651V6.5H116.051V6.6ZM116.051 11.75H110.651V6.65H116.051V11.75ZM116.051 11.8V11.9H110.651V11.8H116.051ZM131.051 6.6H125.651V6.5H131.051V6.6ZM131.051 11.75H125.651V6.65H131.051V11.75ZM131.051 11.8V11.9H125.651V11.8H131.051ZM136.051 6.6H130.651V6.5H136.051V6.6ZM136.051 11.75H130.651V6.65H136.051V11.75ZM136.051 11.8V11.9H130.651V11.8H136.051ZM146.051 6.6H140.651V6.5H146.051V6.6ZM146.051 11.75H140.651V6.65H146.051V11.75ZM146.051 11.8V11.9H140.651V11.8H146.051ZM151.051 6.6H145.651V6.5H151.051V6.6ZM151.051 11.75H145.651V6.65H151.051V11.75ZM151.051 11.8V11.9H145.651V11.8H151.051ZM6.05059 12.6H0.650586V12.5H6.05059V12.6ZM6.05059 17.75H0.650586V12.65H6.05059V17.75ZM6.05059 17.8V17.9H0.650586V17.8H6.05059ZM11.0506 12.6H5.65059V12.5H11.0506V12.6ZM11.0506 17.75H5.65059V12.65H11.0506V17.75ZM11.0506 17.8V17.9H5.65059V17.8H11.0506ZM16.0506 12.6H10.6506V12.5H16.0506V12.6ZM16.0506 17.75H10.6506V12.65H16.0506V17.75ZM16.0506 17.8V17.9H10.6506V17.8H16.0506ZM21.0506 12.6H15.6506V12.5H21.0506V12.6ZM21.0506 17.75H15.6506V12.65H21.0506V17.75ZM21.0506 17.8V17.9H15.6506V17.8H21.0506ZM26.0506 12.6H20.6506V12.5H26.0506V12.6ZM26.0506 17.75H20.6506V12.65H26.0506V17.75ZM26.0506 17.8V17.9H20.6506V17.8H26.0506ZM31.0506 12.6H25.6506V12.5H31.0506V12.6ZM31.0506 17.75H25.6506V12.65H31.0506V17.75ZM31.0506 17.8V17.9H25.6506V17.8H31.0506ZM36.0506 12.6H30.6506V12.5H36.0506V12.6ZM36.0506 17.75H30.6506V12.65H36.0506V17.75ZM36.0506 17.8V17.9H30.6506V17.8H36.0506ZM71.0506 12.6H65.6506V12.5H71.0506V12.6ZM71.0506 17.75H65.6506V12.65H71.0506V17.75ZM71.0506 17.8V17.9H65.6506V17.8H71.0506ZM76.0506 12.6H70.6506V12.5H76.0506V12.6ZM76.0506 17.75H70.6506V12.65H76.0506V17.75ZM76.0506 17.8V17.9H70.6506V17.8H76.0506ZM86.0506 12.6H80.6506V12.5H86.0506V12.6ZM86.0506 17.75H80.6506V12.65H86.0506V17.75ZM86.0506 17.8V17.9H80.6506V17.8H86.0506ZM91.0506 12.6H85.6506V12.5H91.0506V12.6ZM91.0506 17.75H85.6506V12.65H91.0506V17.75ZM91.0506 17.8V17.9H85.6506V17.8H91.0506ZM96.0506 12.6H90.6506V12.5H96.0506V12.6ZM96.0506 17.75H90.6506V12.65H96.0506V17.75ZM96.0506 17.8V17.9H90.6506V17.8H96.0506ZM101.051 12.6H95.6506V12.5H101.051V12.6ZM101.051 17.75H95.6506V12.65H101.051V17.75ZM101.051 17.8V17.9H95.6506V17.8H101.051ZM106.051 12.6H100.651V12.5H106.051V12.6ZM106.051 17.75H100.651V12.65H106.051V17.75ZM106.051 17.8V17.9H100.651V17.8H106.051ZM111.051 12.6H105.651V12.5H111.051V12.6ZM111.051 17.75H105.651V12.65H111.051V17.75ZM111.051 17.8V17.9H105.651V17.8H111.051ZM116.051 12.6H110.651V12.5H116.051V12.6ZM116.051 17.75H110.651V12.65H116.051V17.75ZM116.051 17.8V17.9H110.651V17.8H116.051ZM136.051 12.6H130.651V12.5H136.051V12.6ZM136.051 17.75H130.651V12.65H136.051V17.75ZM136.051 17.8V17.9H130.651V17.8H136.051ZM141.051 12.6H135.651V12.5H141.051V12.6ZM141.051 17.75H135.651V12.65H141.051V17.75ZM141.051 17.8V17.9H135.651V17.8H141.051ZM146.051 12.6H140.651V12.5H146.051V12.6ZM146.051 17.75H140.651V12.65H146.051V17.75ZM146.051 17.8V17.9H140.651V17.8H146.051ZM6.05059 18.6H0.650586V18.5H6.05059V18.6ZM6.05059 23.75H0.650586V18.65H6.05059V23.75ZM6.05059 23.8V23.9H0.650586V23.8H6.05059ZM11.0506 18.6H5.65059V18.5H11.0506V18.6ZM11.0506 23.75H5.65059V18.65H11.0506V23.75ZM11.0506 23.8V23.9H5.65059V23.8H11.0506ZM31.0506 18.6H25.6506V18.5H31.0506V18.6ZM31.0506 23.75H25.6506V18.65H31.0506V23.75ZM31.0506 23.8V23.9H25.6506V23.8H31.0506ZM36.0506 18.6H30.6506V18.5H36.0506V18.6ZM36.0506 23.75H30.6506V18.65H36.0506V23.75ZM36.0506 23.8V23.9H30.6506V23.8H36.0506ZM46.0506 18.6H40.6506V18.5H46.0506V18.6ZM46.0506 23.75H40.6506V18.65H46.0506V23.75ZM46.0506 23.8V23.9H40.6506V23.8H46.0506ZM51.0506 18.6H45.6506V18.5H51.0506V18.6ZM51.0506 23.75H45.6506V18.65H51.0506V23.75ZM51.0506 23.8V23.9H45.6506V23.8H51.0506ZM71.0506 18.6H65.6506V18.5H71.0506V18.6ZM71.0506 23.75H65.6506V18.65H71.0506V23.75ZM71.0506 23.8V23.9H65.6506V23.8H71.0506ZM76.0506 18.6H70.6506V18.5H76.0506V18.6ZM76.0506 23.75H70.6506V18.65H76.0506V23.75ZM76.0506 23.8V23.9H70.6506V23.8H76.0506ZM86.0506 18.6H80.6506V18.5H86.0506V18.6ZM86.0506 23.75H80.6506V18.65H86.0506V23.75ZM86.0506 23.8V23.9H80.6506V23.8H86.0506ZM91.0506 18.6H85.6506V18.5H91.0506V18.6ZM91.0506 23.75H85.6506V18.65H91.0506V23.75ZM91.0506 23.8V23.9H85.6506V23.8H91.0506ZM111.051 18.6H105.651V18.5H111.051V18.6ZM111.051 23.75H105.651V18.65H111.051V23.75ZM111.051 23.8V23.9H105.651V23.8H111.051ZM116.051 18.6H110.651V18.5H116.051V18.6ZM116.051 23.75H110.651V18.65H116.051V23.75ZM116.051 23.8V23.9H110.651V23.8H116.051ZM131.051 18.6H125.651V18.5H131.051V18.6ZM131.051 23.75H125.651V18.65H131.051V23.75ZM131.051 23.8V23.9H125.651V23.8H131.051ZM136.051 18.6H130.651V18.5H136.051V18.6ZM136.051 23.75H130.651V18.65H136.051V23.75ZM136.051 23.8V23.9H130.651V23.8H136.051ZM146.051 18.6H140.651V18.5H146.051V18.6ZM146.051 23.75H140.651V18.65H146.051V23.75ZM146.051 23.8V23.9H140.651V23.8H146.051ZM151.051 18.6H145.651V18.5H151.051V18.6ZM151.051 23.75H145.651V18.65H151.051V23.75ZM151.051 23.8V23.9H145.651V23.8H151.051ZM6.05059 24.6H0.650586V24.5H6.05059V24.6ZM6.05059 29.75H0.650586V24.65H6.05059V29.75ZM6.05059 29.8V29.9H0.650586V29.8H6.05059ZM11.0506 24.6H5.65059V24.5H11.0506V24.6ZM11.0506 29.75H5.65059V24.65H11.0506V29.75ZM11.0506 29.8V29.9H5.65059V29.8H11.0506ZM31.0506 24.6H25.6506V24.5H31.0506V24.6ZM31.0506 29.75H25.6506V24.65H31.0506V29.75ZM31.0506 29.8V29.9H25.6506V29.8H31.0506ZM36.0506 24.6H30.6506V24.5H36.0506V24.6ZM36.0506 29.75H30.6506V24.65H36.0506V29.75ZM36.0506 29.8V29.9H30.6506V29.8H36.0506ZM51.0506 24.6H45.6506V24.5H51.0506V24.6ZM51.0506 29.75H45.6506V24.65H51.0506V29.75ZM51.0506 29.8V29.9H45.6506V29.8H51.0506ZM56.0506 24.6H50.6506V24.5H56.0506V24.6ZM56.0506 29.75H50.6506V24.65H56.0506V29.75ZM56.0506 29.8V29.9H50.6506V29.8H56.0506ZM61.0506 24.6H55.6506V24.5H61.0506V24.6ZM61.0506 29.75H55.6506V24.65H61.0506V29.75ZM61.0506 29.8V29.9H55.6506V29.8H61.0506ZM66.0506 24.6H60.6506V24.5H66.0506V24.6ZM66.0506 29.75H60.6506V24.65H66.0506V29.75ZM66.0506 29.8V29.9H60.6506V29.8H66.0506ZM71.0506 24.6H65.6506V24.5H71.0506V24.6ZM71.0506 29.75H65.6506V24.65H71.0506V29.75ZM71.0506 29.8V29.9H65.6506V29.8H71.0506ZM86.0506 24.6H80.6506V24.5H86.0506V24.6ZM86.0506 29.75H80.6506V24.65H86.0506V29.75ZM86.0506 29.8V29.9H80.6506V29.8H86.0506ZM91.0506 24.6H85.6506V24.5H91.0506V24.6ZM91.0506 29.75H85.6506V24.65H91.0506V29.75ZM91.0506 29.8V29.9H85.6506V29.8H91.0506ZM111.051 24.6H105.651V24.5H111.051V24.6ZM111.051 29.75H105.651V24.65H111.051V29.75ZM111.051 29.8V29.9H105.651V29.8H111.051ZM116.051 24.6H110.651V24.5H116.051V24.6ZM116.051 29.75H110.651V24.65H116.051V29.75ZM116.051 29.8V29.9H110.651V29.8H116.051ZM126.051 24.6H120.651V24.5H126.051V24.6ZM126.051 29.75H120.651V24.65H126.051V29.75ZM126.051 29.8V29.9H120.651V29.8H126.051ZM131.051 24.6H125.651V24.5H131.051V24.6ZM131.051 29.75H125.651V24.65H131.051V29.75ZM131.051 29.8V29.9H125.651V29.8H131.051ZM151.051 24.6H145.651V24.5H151.051V24.6ZM151.051 29.75H145.651V24.65H151.051V29.75ZM151.051 29.8V29.9H145.651V29.8H151.051ZM156.051 24.6H150.651V24.5H156.051V24.6ZM156.051 29.75H150.651V24.65H156.051V29.75ZM156.051 29.8V29.9H150.651V29.8H156.051Z" fill="#FFE76B"/>
</svg>
