<svg width="367" height="38" viewBox="0 0 367 38" fill="none" xmlns="http://www.w3.org/2000/svg">
<path d="M6.70566 0.913482L1.3069 0.797715L1.30847 0.697727L6.70723 0.813495L6.70566 0.913482ZM6.62471 6.06284L1.22594 5.94708L1.30611 0.847709L6.70487 0.963476L6.62471 6.06284ZM6.62392 6.11284L6.62235 6.21283L1.22359 6.09706L1.22516 5.99707L6.62392 6.11284ZM11.7045 1.02067L6.30575 0.904907L6.30732 0.804919L11.7061 0.920686L11.7045 1.02067ZM11.6236 6.17004L6.2248 6.05427L6.30497 0.954901L11.7037 1.07067L11.6236 6.17004ZM11.6228 6.22003L11.6212 6.32002L6.22244 6.20425L6.22401 6.10426L11.6228 6.22003ZM16.7034 1.12787L11.3046 1.0121L11.3062 0.912111L16.7049 1.02788L16.7034 1.12787ZM16.6224 6.27723L11.2237 6.16146L11.3038 1.06209L16.7026 1.17786L16.6224 6.27723ZM16.6216 6.32722L16.6201 6.42721L11.2213 6.31144L11.2229 6.21146L16.6216 6.32722ZM21.7022 1.23506L16.3035 1.11929L16.305 1.0193L21.7038 1.13507L21.7022 1.23506ZM21.6213 6.38442L16.2225 6.26865L16.3027 1.16928L21.7014 1.28505L21.6213 6.38442ZM21.6205 6.43441L21.6189 6.5344L16.2201 6.41863L16.2217 6.31865L21.6205 6.43441ZM26.7011 1.34225L21.3023 1.22648L21.3039 1.12649L26.7026 1.24226L26.7011 1.34225ZM26.6201 6.49161L21.2214 6.37585L21.3015 1.27648L26.7003 1.39224L26.6201 6.49161ZM26.6193 6.54161L26.6178 6.64159L21.219 6.52583L21.2206 6.42584L26.6193 6.54161ZM31.6999 1.44944L26.3012 1.33367L26.3027 1.23369L31.7015 1.34945L31.6999 1.44944ZM31.619 6.5988L26.2202 6.48304L26.3004 1.38367L31.6991 1.49944L31.619 6.5988ZM31.6182 6.6488L31.6166 6.74879L26.2179 6.63302L26.2194 6.53303L31.6182 6.6488ZM51.6953 1.87821L46.2966 1.76244L46.2982 1.66245L51.6969 1.77822L51.6953 1.87821ZM51.6144 7.02757L46.2156 6.9118L46.2958 1.81244L51.6946 1.9282L51.6144 7.02757ZM51.6136 7.07757L51.612 7.17755L46.2133 7.06179L46.2148 6.9618L51.6136 7.07757ZM56.6942 1.9854L51.2954 1.86963L51.297 1.76965L56.6958 1.88541L56.6942 1.9854ZM56.6132 7.13476L51.2145 7.019L51.2946 1.91963L56.6934 2.03539L56.6132 7.13476ZM56.6125 7.18476L56.6109 7.28474L51.2121 7.16898L51.2137 7.06899L56.6125 7.18476ZM61.6931 2.09259L56.2943 1.97683L56.2959 1.87684L61.6946 1.9926L61.6931 2.09259ZM61.6121 7.24196L56.2133 7.12619L56.2935 2.02682L61.6923 2.14259L61.6121 7.24196ZM61.6113 7.29195L61.6097 7.39194L56.211 7.27617L56.2125 7.17618L61.6113 7.29195ZM66.6919 2.19978L61.2931 2.08402L61.2947 1.98403L66.6935 2.0998L66.6919 2.19978ZM66.611 7.34915L61.2122 7.23338L61.2924 2.13401L66.6911 2.24978L66.611 7.34915ZM66.6102 7.39914L66.6086 7.49913L61.2098 7.38336L61.2114 7.28337L66.6102 7.39914ZM71.6908 2.30698L66.292 2.19121L66.2936 2.09122L71.6923 2.20699L71.6908 2.30698ZM71.6098 7.45634L66.211 7.34057L66.2912 2.2412L71.69 2.35697L71.6098 7.45634ZM71.609 7.50633L71.6074 7.60632L66.2087 7.49055L66.2103 7.39057L71.609 7.50633ZM91.6862 2.73574L86.2874 2.61998L86.289 2.51999L91.6877 2.63576L91.6862 2.73574ZM91.6052 7.88511L86.2065 7.76934L86.2866 2.66997L91.6854 2.78574L91.6052 7.88511ZM91.6044 7.9351L91.6029 8.03509L86.2041 7.91932L86.2057 7.81933L91.6044 7.9351ZM96.685 2.84294L91.2863 2.72717L91.2878 2.62718L96.6866 2.74295L96.685 2.84294ZM96.6041 7.9923L91.2053 7.87653L91.2855 2.77716L96.6842 2.89293L96.6041 7.9923ZM96.6033 8.04229L96.6017 8.14228L91.203 8.02651L91.2045 7.92652L96.6033 8.04229ZM101.684 2.95013L96.2851 2.83436L96.2867 2.73437L101.685 2.85014L101.684 2.95013ZM101.603 8.09949L96.2042 7.98372L96.2843 2.88435L101.683 3.00012L101.603 8.09949ZM101.602 8.14948L101.601 8.24947L96.2018 8.1337L96.2034 8.03372L101.602 8.14948ZM106.683 3.05732L101.284 2.94155L101.286 2.84156L106.684 2.95733L106.683 3.05732ZM106.602 8.20668L101.203 8.09091L101.283 2.99155L106.682 3.10731L106.602 8.20668ZM106.601 8.25668L106.599 8.35666L101.201 8.2409L101.202 8.14091L106.601 8.25668ZM111.682 3.16451L106.283 3.04874L106.284 2.94876L111.683 3.06452L111.682 3.16451ZM111.601 8.31387L106.202 8.19811L106.282 3.09874L111.681 3.2145L111.601 8.31387ZM111.6 8.36387L111.598 8.46386L106.2 8.34809L106.201 8.2481L111.6 8.36387ZM126.678 3.48609L121.279 3.37032L121.281 3.27033L126.68 3.3861L126.678 3.48609ZM126.597 8.63545L121.198 8.51968L121.279 3.42031L126.677 3.53608L126.597 8.63545ZM126.596 8.68544L126.595 8.78543L121.196 8.66966L121.198 8.56968L126.596 8.68544ZM131.677 3.59328L126.278 3.47751L126.28 3.37752L131.679 3.49329L131.677 3.59328ZM131.596 8.74264L126.197 8.62687L126.277 3.5275L131.676 3.64327L131.596 8.74264ZM131.595 8.79263L131.594 8.89262L126.195 8.77686L126.197 8.67687L131.595 8.79263ZM136.676 3.70047L131.277 3.5847L131.279 3.48472L136.677 3.60048L136.676 3.70047ZM136.595 8.84983L131.196 8.73407L131.276 3.6347L136.675 3.75046L136.595 8.84983ZM136.594 8.89983L136.593 8.99981L131.194 8.88405L131.195 8.78406L136.594 8.89983ZM141.675 3.80766L136.276 3.69189L136.278 3.59191L141.676 3.70767L141.675 3.80766ZM141.594 8.95702L136.195 8.84126L136.275 3.74189L141.674 3.85766L141.594 8.95702ZM141.593 9.00702L141.591 9.10701L136.193 8.99124L136.194 8.89125L141.593 9.00702ZM146.674 3.91485L141.275 3.79909L141.276 3.6991L146.675 3.81487L146.674 3.91485ZM146.593 9.06422L141.194 8.94845L141.274 3.84908L146.673 3.96485L146.593 9.06422ZM146.592 9.11421L146.59 9.2142L141.191 9.09843L141.193 8.99844L146.592 9.11421ZM151.672 4.02205L146.274 3.90628L146.275 3.80629L151.674 3.92206L151.672 4.02205ZM151.591 9.17141L146.193 9.05564L146.273 3.95627L151.672 4.07204L151.591 9.17141ZM151.591 9.2214L151.589 9.32139L146.19 9.20562L146.192 9.10564L151.591 9.2214ZM156.671 4.12924L151.273 4.01347L151.274 3.91348L156.673 4.02925L156.671 4.12924ZM156.59 9.2786L151.192 9.16283L151.272 4.06346L156.67 4.17923L156.59 9.2786ZM156.59 9.32859L156.588 9.42858L151.189 9.31281L151.191 9.21283L156.59 9.32859ZM161.67 4.23643L156.271 4.12066L156.273 4.02067L161.672 4.13644L161.67 4.23643ZM161.589 9.38579L156.19 9.27002L156.271 4.17066L161.669 4.28642L161.589 9.38579ZM161.588 9.43579L161.587 9.53577L156.188 9.42001L156.19 9.32002L161.588 9.43579ZM176.667 4.558L171.268 4.44224L171.269 4.34225L176.668 4.45802L176.667 4.558ZM176.586 9.70737L171.187 9.5916L171.267 4.49223L176.666 4.608L176.586 9.70737ZM176.585 9.75736L176.583 9.85735L171.185 9.74158L171.186 9.64159L176.585 9.75736ZM181.666 4.6652L176.267 4.54943L176.268 4.44944L181.667 4.56521L181.666 4.6652ZM181.585 9.81456L176.186 9.69879L176.266 4.59942L181.665 4.71519L181.585 9.81456ZM181.584 9.86455L181.582 9.96454L176.183 9.84877L176.185 9.74879L181.584 9.86455ZM186.664 4.77239L181.266 4.65662L181.267 4.55663L186.666 4.6724L186.664 4.77239ZM186.583 9.92175L181.185 9.80598L181.265 4.70662L186.664 4.82238L186.583 9.92175ZM186.583 9.97175L186.581 10.0717L181.182 9.95597L181.184 9.85598L186.583 9.97175ZM191.663 4.87958L186.264 4.76381L186.266 4.66383L191.665 4.77959L191.663 4.87958ZM191.582 10.0289L186.184 9.91318L186.264 4.81381L191.662 4.92957L191.582 10.0289ZM191.582 10.0789L191.58 10.1789L186.181 10.0632L186.183 9.96317L191.582 10.0789ZM196.662 4.98677L191.263 4.87101L191.265 4.77102L196.664 4.88678L196.662 4.98677ZM196.581 10.1361L191.182 10.0204L191.263 4.921L196.661 5.03677L196.581 10.1361ZM196.58 10.1861L196.579 10.2861L191.18 10.1703L191.182 10.0704L196.58 10.1861ZM201.661 5.09396L196.262 4.9782L196.264 4.87821L201.663 4.99398L201.661 5.09396ZM201.58 10.2433L196.181 10.1276L196.261 5.02819L201.66 5.14396L201.58 10.2433ZM201.579 10.2933L201.578 10.3933L196.179 10.2775L196.18 10.1776L201.579 10.2933ZM211.659 5.30835L206.26 5.19258L206.261 5.09259L211.66 5.20836L211.659 5.30835ZM211.578 10.4577L206.179 10.3419L206.259 5.24257L211.658 5.35834L211.578 10.4577ZM211.577 10.5077L211.575 10.6077L206.177 10.4919L206.178 10.3919L211.577 10.5077ZM216.658 5.41554L211.259 5.29977L211.26 5.19978L216.659 5.31555L216.658 5.41554ZM216.577 10.5649L211.178 10.4491L211.258 5.34977L216.657 5.46553L216.577 10.5649ZM216.576 10.6149L216.574 10.7149L211.175 10.5991L211.177 10.4991L216.576 10.6149ZM221.656 5.52273L216.258 5.40696L216.259 5.30698L221.658 5.42274L221.656 5.52273ZM221.575 10.6721L216.177 10.5563L216.257 5.45696L221.656 5.57273L221.575 10.6721ZM221.575 10.7221L221.573 10.8221L216.174 10.7063L216.176 10.6063L221.575 10.7221ZM226.655 5.62992L221.256 5.51416L221.258 5.41417L226.657 5.52994L226.655 5.62992ZM226.574 10.7793L221.176 10.6635L221.256 5.56415L226.654 5.67992L226.574 10.7793ZM226.573 10.8293L226.572 10.9293L221.173 10.8135L221.175 10.7135L226.573 10.8293ZM231.654 5.73712L226.255 5.62135L226.257 5.52136L231.656 5.63713L231.654 5.73712ZM231.573 10.8865L226.174 10.7707L226.255 5.67134L231.653 5.78711L231.573 10.8865ZM231.572 10.9365L231.571 11.0365L226.172 10.9207L226.174 10.8207L231.572 10.9365ZM236.653 5.84431L231.254 5.72854L231.256 5.62855L236.655 5.74432L236.653 5.84431ZM236.572 10.9937L231.173 10.8779L231.253 5.77853L236.652 5.8943L236.572 10.9937ZM236.571 11.0437L236.57 11.1437L231.171 11.0279L231.172 10.9279L236.571 11.0437ZM241.652 5.9515L236.253 5.83573L236.255 5.73574L241.653 5.85151L241.652 5.9515ZM241.571 11.1009L236.172 10.9851L236.252 5.88573L241.651 6.00149L241.571 11.1009ZM241.57 11.1509L241.568 11.2508L236.17 11.1351L236.171 11.0351L241.57 11.1509ZM246.651 6.05869L241.252 5.94292L241.253 5.84294L246.652 5.9587L246.651 6.05869ZM246.57 11.2081L241.171 11.0923L241.251 5.99292L246.65 6.10868L246.57 11.2081ZM246.569 11.258L246.567 11.358L241.169 11.2423L241.17 11.1423L246.569 11.258ZM256.648 6.27307L251.25 6.15731L251.251 6.05732L256.65 6.17309L256.648 6.27307ZM256.567 11.4224L251.169 11.3067L251.249 6.2073L256.648 6.32307L256.567 11.4224ZM256.567 11.4724L256.565 11.5724L251.166 11.4567L251.168 11.3567L256.567 11.4724ZM261.647 6.38027L256.248 6.2645L256.25 6.16451L261.649 6.28028L261.647 6.38027ZM261.566 11.5296L256.167 11.4139L256.248 6.31449L261.646 6.43026L261.566 11.5296ZM261.565 11.5796L261.564 11.6796L256.165 11.5638L256.167 11.4639L261.565 11.5796ZM266.646 6.48746L261.247 6.37169L261.249 6.2717L266.648 6.38747L266.646 6.48746ZM266.565 11.6368L261.166 11.5211L261.247 6.42168L266.645 6.53745L266.565 11.6368ZM266.564 11.6868L266.563 11.7868L261.164 11.671L261.166 11.571L266.564 11.6868ZM271.645 6.59465L266.246 6.47888L266.248 6.3789L271.646 6.49466L271.645 6.59465ZM271.564 11.744L266.165 11.6282L266.245 6.52888L271.644 6.64464L271.564 11.744ZM271.563 11.794L271.562 11.894L266.163 11.7782L266.164 11.6782L271.563 11.794ZM276.644 6.70184L271.245 6.58607L271.247 6.48609L276.645 6.60185L276.644 6.70184ZM276.563 11.8512L271.164 11.7354L271.244 6.63607L276.643 6.75184L276.563 11.8512ZM276.562 11.9012L276.56 12.0012L271.162 11.8854L271.163 11.7854L276.562 11.9012ZM281.643 6.80903L276.244 6.69327L276.245 6.59328L281.644 6.70905L281.643 6.80903ZM281.562 11.9584L276.163 11.8426L276.243 6.74326L281.642 6.85903L281.562 11.9584ZM281.561 12.0084L281.559 12.1084L276.161 11.9926L276.162 11.8926L281.561 12.0084ZM301.638 7.2378L296.239 7.12203L296.241 7.02205L301.64 7.13781L301.638 7.2378ZM301.557 12.3872L296.158 12.2714L296.238 7.17203L301.637 7.28779L301.557 12.3872ZM301.556 12.4372L301.555 12.5371L296.156 12.4214L296.158 12.3214L301.556 12.4372ZM306.637 7.34499L301.238 7.22923L301.24 7.12924L306.638 7.24501L306.637 7.34499ZM306.556 12.4944L301.157 12.3786L301.237 7.27922L306.636 7.39499L306.556 12.4944ZM306.555 12.5443L306.554 12.6443L301.155 12.5286L301.156 12.4286L306.555 12.5443ZM311.636 7.45218L306.237 7.33642L306.239 7.23643L311.637 7.3522L311.636 7.45218ZM311.555 12.6015L306.156 12.4858L306.236 7.38641L311.635 7.50218L311.555 12.6015ZM311.554 12.6515L311.552 12.7515L306.154 12.6358L306.155 12.5358L311.554 12.6515ZM316.635 7.55938L311.236 7.44361L311.237 7.34362L316.636 7.45939L316.635 7.55938ZM316.554 12.7087L311.155 12.593L311.235 7.4936L316.634 7.60937L316.554 12.7087ZM316.553 12.7587L316.551 12.8587L311.153 12.743L311.154 12.643L316.553 12.7587ZM321.633 7.66657L316.235 7.5508L316.236 7.45081L321.635 7.56658L321.633 7.66657ZM321.552 12.8159L316.154 12.7002L316.234 7.6008L321.633 7.71656L321.552 12.8159ZM321.552 12.8659L321.55 12.9659L316.151 12.8501L316.153 12.7502L321.552 12.8659ZM336.63 7.98814L331.231 7.87238L331.233 7.77239L336.632 7.88816L336.63 7.98814ZM336.549 13.1375L331.15 13.0217L331.23 7.92237L336.629 8.03814L336.549 13.1375ZM336.548 13.1875L336.547 13.2875L331.148 13.1717L331.15 13.0717L336.548 13.1875ZM341.629 8.09534L336.23 7.97957L336.232 7.87958L341.63 7.99535L341.629 8.09534ZM341.548 13.2447L336.149 13.1289L336.229 8.02956L341.628 8.14533L341.548 13.2447ZM341.547 13.2947L341.546 13.3947L336.147 13.2789L336.148 13.1789L341.547 13.2947ZM346.628 8.20253L341.229 8.08676L341.231 7.98677L346.629 8.10254L346.628 8.20253ZM346.547 13.3519L341.148 13.2361L341.228 8.13675L346.627 8.25252L346.547 13.3519ZM346.546 13.4019L346.544 13.5019L341.146 13.3861L341.147 13.2861L346.546 13.4019ZM351.627 8.30972L346.228 8.19395L346.229 8.09396L351.628 8.20973L351.627 8.30972ZM351.546 13.4591L346.147 13.3433L346.227 8.24395L351.626 8.35971L351.546 13.4591ZM351.545 13.5091L351.543 13.6091L346.144 13.4933L346.146 13.3933L351.545 13.5091ZM356.625 8.41691L351.227 8.30114L351.228 8.20116L356.627 8.31692L356.625 8.41691ZM356.544 13.5663L351.146 13.4505L351.226 8.35114L356.625 8.46691L356.544 13.5663ZM356.544 13.6163L356.542 13.7163L351.143 13.6005L351.145 13.5005L356.544 13.6163ZM361.624 8.5241L356.226 8.40834L356.227 8.30835L361.626 8.42412L361.624 8.5241ZM361.543 13.6735L356.145 13.5577L356.225 8.45833L361.623 8.5741L361.543 13.6735ZM361.543 13.7235L361.541 13.8234L356.142 13.7077L356.144 13.6077L361.543 13.7235ZM6.61134 6.91274L1.21258 6.79697L1.21415 6.69698L6.61292 6.81275L6.61134 6.91274ZM6.53039 12.0621L1.13163 11.9463L1.2118 6.84697L6.61056 6.96273L6.53039 12.0621ZM6.5296 12.1121L6.52803 12.2121L1.12927 12.0963L1.13084 11.9963L6.5296 12.1121ZM11.6102 7.01993L6.21144 6.90416L6.21301 6.80418L11.6118 6.91994L11.6102 7.01993ZM11.5292 12.1693L6.13048 12.0535L6.21065 6.95416L11.6094 7.06992L11.5292 12.1693ZM11.5285 12.2193L11.5269 12.3193L6.12812 12.2035L6.1297 12.1035L11.5285 12.2193ZM31.6056 7.4487L26.2069 7.33293L26.2084 7.23294L31.6072 7.34871L31.6056 7.4487ZM31.5247 12.5981L26.1259 12.4823L26.2061 7.38293L31.6048 7.49869L31.5247 12.5981ZM31.5239 12.6481L31.5223 12.748L26.1235 12.6323L26.1251 12.5323L31.5239 12.6481ZM36.6045 7.55589L31.2057 7.44012L31.2073 7.34014L36.606 7.4559L36.6045 7.55589ZM36.5235 12.7053L31.1248 12.5895L31.2049 7.49012L36.6037 7.60588L36.5235 12.7053ZM36.5227 12.7552L36.5212 12.8552L31.1224 12.7395L31.124 12.6395L36.5227 12.7552ZM46.6022 7.77027L41.2034 7.65451L41.205 7.55452L46.6037 7.67029L46.6022 7.77027ZM46.5212 12.9196L41.1225 12.8039L41.2026 7.7045L46.6014 7.82027L46.5212 12.9196ZM46.5204 12.9696L46.5189 13.0696L41.1201 12.9539L41.1217 12.8539L46.5204 12.9696ZM51.601 7.87747L46.2023 7.7617L46.2038 7.66171L51.6026 7.77748L51.601 7.87747ZM51.5201 13.0268L46.1213 12.9111L46.2015 7.81169L51.6002 7.92746L51.5201 13.0268ZM51.5193 13.0768L51.5177 13.1768L46.119 13.061L46.1205 12.9611L51.5193 13.0768ZM71.5964 8.30623L66.1977 8.19047L66.1993 8.09048L71.598 8.20625L71.5964 8.30623ZM71.5155 13.4556L66.1167 13.3398L66.1969 8.24046L71.5957 8.35623L71.5155 13.4556ZM71.5147 13.5056L71.5131 13.6056L66.1144 13.4898L66.1159 13.3898L71.5147 13.5056ZM76.5953 8.41343L71.1965 8.29766L71.1981 8.19767L76.5969 8.31344L76.5953 8.41343ZM76.5143 13.5628L71.1156 13.447L71.1957 8.34765L76.5945 8.46342L76.5143 13.5628ZM76.5136 13.6128L76.512 13.7128L71.1132 13.597L71.1148 13.497L76.5136 13.6128ZM86.593 8.62781L81.1942 8.51204L81.1958 8.41205L86.5946 8.52782L86.593 8.62781ZM86.5121 13.7772L81.1133 13.6614L81.1935 8.56204L86.5922 8.6778L86.5121 13.7772ZM86.5113 13.8272L86.5097 13.9272L81.1109 13.8114L81.1125 13.7114L86.5113 13.8272ZM91.5919 8.735L86.1931 8.61923L86.1947 8.51925L91.5934 8.63501L91.5919 8.735ZM91.5109 13.8844L86.1121 13.7686L86.1923 8.66923L91.5911 8.78499L91.5109 13.8844ZM91.5101 13.9344L91.5085 14.0343L86.1098 13.9186L86.1114 13.8186L91.5101 13.9344ZM111.587 9.16377L106.189 9.048L106.19 8.94801L111.589 9.06378L111.587 9.16377ZM111.506 14.3131L106.108 14.1974L106.188 9.09799L111.586 9.21376L111.506 14.3131ZM111.506 14.3631L111.504 14.4631L106.105 14.3473L106.107 14.2474L111.506 14.3631ZM116.586 9.27096L111.187 9.15519L111.189 9.05521L116.588 9.17097L116.586 9.27096ZM116.505 14.4203L111.106 14.3046L111.187 9.20519L116.585 9.32095L116.505 14.4203ZM116.504 14.4703L116.503 14.5703L111.104 14.4545L111.106 14.3545L116.504 14.4703ZM141.58 9.80692L136.182 9.69115L136.183 9.59116L141.582 9.70693L141.58 9.80692ZM141.499 14.9563L136.101 14.8405L136.181 9.74115L141.58 9.85691L141.499 14.9563ZM141.499 15.0063L141.497 15.1063L136.098 14.9905L136.1 14.8905L141.499 15.0063ZM146.579 9.91411L141.18 9.79834L141.182 9.69836L146.581 9.81412L146.579 9.91411ZM146.498 15.0635L141.1 14.9477L141.18 9.84834L146.578 9.9641L146.498 15.0635ZM146.498 15.1135L146.496 15.2135L141.097 15.0977L141.099 14.9977L146.498 15.1135ZM171.574 10.4501L166.175 10.3343L166.176 10.2343L171.575 10.3501L171.574 10.4501ZM171.493 15.5994L166.094 15.4837L166.174 10.3843L171.573 10.5001L171.493 15.5994ZM171.492 15.6494L171.49 15.7494L166.091 15.6336L166.093 15.5337L171.492 15.6494ZM176.572 10.5573L171.174 10.4415L171.175 10.3415L176.574 10.4573L176.572 10.5573ZM176.491 15.7066L171.093 15.5909L171.173 10.4915L176.572 10.6073L176.491 15.7066ZM176.491 15.7566L176.489 15.8566L171.09 15.7408L171.092 15.6409L176.491 15.7566ZM226.561 11.6292L221.162 11.5134L221.164 11.4134L226.562 11.5292L226.561 11.6292ZM226.48 16.7785L221.081 16.6628L221.161 11.5634L226.56 11.6792L226.48 16.7785ZM226.479 16.8285L226.478 16.9285L221.079 16.8128L221.08 16.7128L226.479 16.8285ZM231.56 11.7364L226.161 11.6206L226.163 11.5206L231.561 11.6364L231.56 11.7364ZM231.479 16.8857L226.08 16.77L226.16 11.6706L231.559 11.7864L231.479 16.8857ZM231.478 16.9357L231.476 17.0357L226.078 16.9199L226.079 16.82L231.478 16.9357ZM256.554 12.2723L251.155 12.1566L251.157 12.0566L256.556 12.1723L256.554 12.2723ZM256.473 17.4217L251.074 17.3059L251.154 12.2066L256.553 12.3223L256.473 17.4217ZM256.472 17.4717L256.471 17.5717L251.072 17.4559L251.074 17.3559L256.472 17.4717ZM261.553 12.3795L256.154 12.2638L256.156 12.1638L261.554 12.2795L261.553 12.3795ZM261.472 17.5289L256.073 17.4131L256.153 12.3138L261.552 12.4295L261.472 17.5289ZM261.471 17.5789L261.47 17.6789L256.071 17.5631L256.072 17.4631L261.471 17.5789ZM281.548 12.8083L276.15 12.6925L276.151 12.5925L281.55 12.7083L281.548 12.8083ZM281.467 17.9577L276.069 17.8419L276.149 12.7425L281.548 12.8583L281.467 17.9577ZM281.467 18.0076L281.465 18.1076L276.066 17.9919L276.068 17.8919L281.467 18.0076ZM286.547 12.9155L281.148 12.7997L281.15 12.6997L286.549 12.8155L286.547 12.9155ZM286.466 18.0648L281.067 17.9491L281.148 12.8497L286.546 12.9655L286.466 18.0648ZM286.465 18.1148L286.464 18.2148L281.065 18.0991L281.067 17.9991L286.465 18.1148ZM296.545 13.1299L291.146 13.0141L291.148 12.9141L296.546 13.0299L296.545 13.1299ZM296.464 18.2792L291.065 18.1635L291.145 13.0641L296.544 13.1799L296.464 18.2792ZM296.463 18.3292L296.462 18.4292L291.063 18.3134L291.064 18.2135L296.463 18.3292ZM301.544 13.2371L296.145 13.1213L296.147 13.0213L301.545 13.1371L301.544 13.2371ZM301.463 18.3864L296.064 18.2707L296.144 13.1713L301.543 13.2871L301.463 18.3864ZM301.462 18.4364L301.46 18.5364L296.062 18.4206L296.063 18.3206L301.462 18.4364ZM321.539 13.6658L316.14 13.5501L316.142 13.4501L321.541 13.5658L321.539 13.6658ZM321.458 18.8152L316.059 18.6994L316.14 13.6001L321.538 13.7158L321.458 18.8152ZM321.457 18.8652L321.456 18.9652L316.057 18.8494L316.059 18.7494L321.457 18.8652ZM326.538 13.773L321.139 13.6573L321.141 13.5573L326.54 13.673L326.538 13.773ZM326.457 18.9224L321.058 18.8066L321.138 13.7072L326.537 13.823L326.457 18.9224ZM326.456 18.9724L326.455 19.0724L321.056 18.9566L321.057 18.8566L326.456 18.9724ZM336.536 13.9874L331.137 13.8716L331.139 13.7716L336.537 13.8874L336.536 13.9874ZM336.455 19.1368L331.056 19.021L331.136 13.9216L336.535 14.0374L336.455 19.1368ZM336.454 19.1868L336.452 19.2867L331.054 19.171L331.055 19.071L336.454 19.1868ZM341.535 14.0946L336.136 13.9788L336.137 13.8788L341.536 13.9946L341.535 14.0946ZM341.454 19.244L336.055 19.1282L336.135 14.0288L341.534 14.1446L341.454 19.244ZM341.453 19.2939L341.451 19.3939L336.052 19.2782L336.054 19.1782L341.453 19.2939ZM361.53 14.5234L356.131 14.4076L356.133 14.3076L361.532 14.4234L361.53 14.5234ZM361.449 19.6727L356.05 19.557L356.13 14.4576L361.529 14.5734L361.449 19.6727ZM361.448 19.7227L361.447 19.8227L356.048 19.7069L356.049 19.6069L361.448 19.7227ZM366.529 14.6306L361.13 14.5148L361.132 14.4148L366.53 14.5306L366.529 14.6306ZM366.448 19.7799L361.049 19.6641L361.129 14.5648L366.528 14.6805L366.448 19.7799ZM366.447 19.8299L366.446 19.9299L361.047 19.8141L361.048 19.7141L366.447 19.8299ZM6.51703 12.912L1.11827 12.7962L1.11984 12.6962L6.5186 12.812L6.51703 12.912ZM6.43608 18.0614L1.03731 17.9456L1.11748 12.8462L6.51624 12.962L6.43608 18.0614ZM6.43529 18.1114L6.43372 18.2113L1.03496 18.0956L1.03653 17.9956L6.43529 18.1114ZM11.5159 13.0192L6.11712 12.9034L6.11869 12.8034L11.5175 12.9192L11.5159 13.0192ZM11.4349 18.1686L6.03617 18.0528L6.11633 12.9534L11.5151 13.0692L11.4349 18.1686ZM11.4341 18.2185L11.4326 18.3185L6.03381 18.2028L6.03538 18.1028L11.4341 18.2185ZM16.5147 13.1264L11.116 13.0106L11.1175 12.9106L16.5163 13.0264L16.5147 13.1264ZM16.4338 18.2757L11.035 18.16L11.1152 13.0606L16.514 13.1764L16.4338 18.2757ZM16.433 18.3257L16.4314 18.4257L11.0327 18.31L11.0342 18.21L16.433 18.3257ZM21.5136 13.2336L16.1148 13.1178L16.1164 13.0178L21.5152 13.1336L21.5136 13.2336ZM21.4326 18.3829L16.0339 18.2672L16.114 13.1678L21.5128 13.2836L21.4326 18.3829ZM21.4319 18.4329L21.4303 18.5329L16.0315 18.4171L16.0331 18.3172L21.4319 18.4329ZM26.5124 13.3408L21.1137 13.225L21.1153 13.125L26.514 13.2408L26.5124 13.3408ZM26.4315 18.4901L21.0327 18.3744L21.1129 13.275L26.5117 13.3908L26.4315 18.4901ZM26.4307 18.5401L26.4291 18.6401L21.0304 18.5243L21.0319 18.4244L26.4307 18.5401ZM31.5113 13.448L26.1125 13.3322L26.1141 13.2322L31.5129 13.348L31.5113 13.448ZM31.4303 18.5973L26.0316 18.4816L26.1117 13.3822L31.5105 13.4979L31.4303 18.5973ZM31.4296 18.6473L31.428 18.7473L26.0292 18.6315L26.0308 18.5315L31.4296 18.6473ZM46.5079 13.7695L41.1091 13.6538L41.1107 13.5538L46.5094 13.6695L46.5079 13.7695ZM46.4269 18.9189L41.0281 18.8031L41.1083 13.7038L46.5071 13.8195L46.4269 18.9189ZM46.4261 18.9689L46.4245 19.0689L41.0258 18.9531L41.0274 18.8531L46.4261 18.9689ZM51.5067 13.8767L46.108 13.761L46.1095 13.661L51.5083 13.7767L51.5067 13.8767ZM51.4258 19.0261L46.027 18.9103L46.1072 13.8109L51.5059 13.9267L51.4258 19.0261ZM51.425 19.0761L51.4234 19.1761L46.0246 19.0603L46.0262 18.9603L51.425 19.0761ZM71.5021 14.3055L66.1034 14.1897L66.1049 14.0897L71.5037 14.2055L71.5021 14.3055ZM71.4212 19.4549L66.0224 19.3391L66.1026 14.2397L71.5013 14.3555L71.4212 19.4549ZM71.4204 19.5048L71.4188 19.6048L66.0201 19.4891L66.0216 19.3891L71.4204 19.5048ZM76.501 14.4127L71.1022 14.2969L71.1038 14.1969L76.5026 14.3127L76.501 14.4127ZM76.42 19.562L71.0213 19.4463L71.1014 14.3469L76.5002 14.4627L76.42 19.562ZM76.4192 19.612L76.4177 19.712L71.0189 19.5963L71.0205 19.4963L76.4192 19.612ZM86.4987 14.6271L81.0999 14.5113L81.1015 14.4113L86.5003 14.5271L86.4987 14.6271ZM86.4177 19.7764L81.019 19.6607L81.0991 14.5613L86.4979 14.6771L86.4177 19.7764ZM86.417 19.8264L86.4154 19.9264L81.0166 19.8106L81.0182 19.7107L86.417 19.8264ZM91.4975 14.7343L86.0988 14.6185L86.1004 14.5185L91.4991 14.6343L91.4975 14.7343ZM91.4166 19.8836L86.0178 19.7679L86.098 14.6685L91.4968 14.7843L91.4166 19.8836ZM91.4158 19.9336L91.4142 20.0336L86.0155 19.9178L86.017 19.8178L91.4158 19.9336ZM111.493 15.163L106.094 15.0473L106.096 14.9473L111.495 15.063L111.493 15.163ZM111.412 20.3124L106.013 20.1966L106.093 15.0973L111.492 15.213L111.412 20.3124ZM111.411 20.3624L111.41 20.4624L106.011 20.3466L106.012 20.2466L111.411 20.3624ZM116.492 15.2702L111.093 15.1544L111.095 15.0545L116.493 15.1702L116.492 15.2702ZM116.411 20.4196L111.012 20.3038L111.092 15.2044L116.491 15.3202L116.411 20.4196ZM116.41 20.4696L116.409 20.5696L111.01 20.4538L111.011 20.3538L116.41 20.4696ZM141.486 15.8062L136.087 15.6904L136.089 15.5904L141.488 15.7062L141.486 15.8062ZM141.405 20.9555L136.006 20.8398L136.087 15.7404L141.485 15.8562L141.405 20.9555ZM141.404 21.0055L141.403 21.1055L136.004 20.9898L136.006 20.8898L141.404 21.0055ZM146.485 15.9134L141.086 15.7976L141.088 15.6976L146.487 15.8134L146.485 15.9134ZM146.404 21.0627L141.005 20.947L141.085 15.8476L146.484 15.9634L146.404 21.0627ZM146.403 21.1127L146.402 21.2127L141.003 21.0969L141.004 20.997L146.403 21.1127ZM176.478 16.5565L171.079 16.4408L171.081 16.3408L176.48 16.4565L176.478 16.5565ZM176.397 21.7059L170.998 21.5901L171.079 16.4907L176.477 16.6065L176.397 21.7059ZM176.396 21.7559L176.395 21.8559L170.996 21.7401L170.998 21.6401L176.396 21.7559ZM181.477 16.6637L176.078 16.5479L176.08 16.448L181.478 16.5637L181.477 16.6637ZM181.396 21.8131L175.997 21.6973L176.077 16.5979L181.476 16.7137L181.396 21.8131ZM181.395 21.8631L181.394 21.9631L175.995 21.8473L175.996 21.7473L181.395 21.8631ZM186.476 16.7709L181.077 16.6551L181.079 16.5551L186.477 16.6709L186.476 16.7709ZM186.395 21.9203L180.996 21.8045L181.076 16.7051L186.475 16.8209L186.395 21.9203ZM186.394 21.9703L186.392 22.0702L180.994 21.9545L180.995 21.8545L186.394 21.9703ZM191.475 16.8781L186.076 16.7623L186.077 16.6623L191.476 16.7781L191.475 16.8781ZM191.394 22.0275L185.995 21.9117L186.075 16.8123L191.474 16.9281L191.394 22.0275ZM191.393 22.0775L191.391 22.1774L185.993 22.0617L185.994 21.9617L191.393 22.0775ZM196.473 16.9853L191.075 16.8695L191.076 16.7695L196.475 16.8853L196.473 16.9853ZM196.393 22.1346L190.994 22.0189L191.074 16.9195L196.473 17.0353L196.393 22.1346ZM196.392 22.1846L196.39 22.2846L190.991 22.1689L190.993 22.0689L196.392 22.1846ZM226.467 17.6284L221.068 17.5127L221.069 17.4127L226.468 17.5285L226.467 17.6284ZM226.386 22.7778L220.987 22.662L221.067 17.5627L226.466 17.6784L226.386 22.7778ZM226.385 22.8278L226.383 22.9278L220.985 22.812L220.986 22.712L226.385 22.8278ZM231.465 17.7356L226.067 17.6199L226.068 17.5199L231.467 17.6356L231.465 17.7356ZM231.384 22.885L225.986 22.7692L226.066 17.6699L231.465 17.7856L231.384 22.885ZM231.384 22.935L231.382 23.035L225.983 22.9192L225.985 22.8192L231.384 22.935ZM256.46 18.2716L251.061 18.1558L251.063 18.0558L256.461 18.1716L256.46 18.2716ZM256.379 23.421L250.98 23.3052L251.06 18.2058L256.459 18.3216L256.379 23.421ZM256.378 23.4709L256.376 23.5709L250.978 23.4552L250.979 23.3552L256.378 23.4709ZM261.459 18.3788L256.06 18.263L256.061 18.163L261.46 18.2788L261.459 18.3788ZM261.378 23.5281L255.979 23.4124L256.059 18.313L261.458 18.4288L261.378 23.5281ZM261.377 23.5781L261.375 23.6781L255.976 23.5624L255.978 23.4624L261.377 23.5781ZM266.457 18.486L261.059 18.3702L261.06 18.2702L266.459 18.386L266.457 18.486ZM266.376 23.6353L260.978 23.5196L261.058 18.4202L266.457 18.536L266.376 23.6353ZM266.376 23.6853L266.374 23.7853L260.975 23.6695L260.977 23.5696L266.376 23.6853ZM271.456 18.5932L266.058 18.4774L266.059 18.3774L271.458 18.4932L271.456 18.5932ZM271.375 23.7425L265.977 23.6268L266.057 18.5274L271.455 18.6432L271.375 23.7425ZM271.375 23.7925L271.373 23.8925L265.974 23.7767L265.976 23.6768L271.375 23.7925ZM276.455 18.7004L271.056 18.5846L271.058 18.4846L276.457 18.6004L276.455 18.7004ZM276.374 23.8497L270.975 23.734L271.056 18.6346L276.454 18.7504L276.374 23.8497ZM276.373 23.8997L276.372 23.9997L270.973 23.8839L270.975 23.7839L276.373 23.8997ZM281.454 18.8075L276.055 18.6918L276.057 18.5918L281.456 18.7076L281.454 18.8075ZM281.373 23.9569L275.974 23.8411L276.054 18.7418L281.453 18.8575L281.373 23.9569ZM281.372 24.0069L281.371 24.1069L275.972 23.9911L275.973 23.8911L281.372 24.0069ZM296.451 19.1291L291.052 19.0134L291.053 18.9134L296.452 19.0291L296.451 19.1291ZM296.37 24.2785L290.971 24.1627L291.051 19.0634L296.45 19.1791L296.37 24.2785ZM296.369 24.3285L296.367 24.4285L290.968 24.3127L290.97 24.2127L296.369 24.3285ZM301.449 19.2363L296.051 19.1205L296.052 19.0206L301.451 19.1363L301.449 19.2363ZM301.368 24.3857L295.97 24.2699L296.05 19.1705L301.449 19.2863L301.368 24.3857ZM301.368 24.4357L301.366 24.5357L295.967 24.4199L295.969 24.3199L301.368 24.4357ZM306.448 19.3435L301.049 19.2277L301.051 19.1278L306.45 19.2435L306.448 19.3435ZM306.367 24.4929L300.969 24.3771L301.049 19.2777L306.447 19.3935L306.367 24.4929ZM306.367 24.5429L306.365 24.6429L300.966 24.5271L300.968 24.4271L306.367 24.5429ZM311.447 19.4507L306.048 19.3349L306.05 19.2349L311.449 19.3507L311.447 19.4507ZM311.366 24.6001L305.967 24.4843L306.048 19.3849L311.446 19.5007L311.366 24.6001ZM311.365 24.6501L311.364 24.75L305.965 24.6343L305.967 24.5343L311.365 24.6501ZM316.446 19.5579L311.047 19.4421L311.049 19.3421L316.448 19.4579L316.446 19.5579ZM316.365 24.7073L310.966 24.5915L311.046 19.4921L316.445 19.6079L316.365 24.7073ZM316.364 24.7572L316.363 24.8572L310.964 24.7415L310.965 24.6415L316.364 24.7572ZM321.445 19.6651L316.046 19.5493L316.048 19.4493L321.446 19.5651L321.445 19.6651ZM321.364 24.8144L315.965 24.6987L316.045 19.5993L321.444 19.7151L321.364 24.8144ZM321.363 24.8644L321.362 24.9644L315.963 24.8487L315.964 24.7487L321.363 24.8644ZM326.444 19.7723L321.045 19.6565L321.046 19.5565L326.445 19.6723L326.444 19.7723ZM326.363 24.9216L320.964 24.8059L321.044 19.7065L326.443 19.8223L326.363 24.9216ZM326.362 24.9716L326.36 25.0716L320.962 24.9559L320.963 24.8559L326.362 24.9716ZM336.441 19.9867L331.043 19.8709L331.044 19.7709L336.443 19.8867L336.441 19.9867ZM336.36 25.136L330.962 25.0203L331.042 19.9209L336.441 20.0367L336.36 25.136ZM336.36 25.186L336.358 25.286L330.959 25.1702L330.961 25.0702L336.36 25.186ZM341.44 20.0939L336.041 19.9781L336.043 19.8781L341.442 19.9939L341.44 20.0939ZM341.359 25.2432L335.961 25.1274L336.041 20.0281L341.439 20.1438L341.359 25.2432ZM341.358 25.2932L341.357 25.3932L335.958 25.2774L335.96 25.1774L341.358 25.2932ZM346.439 20.201L341.04 20.0853L341.042 19.9853L346.441 20.1011L346.439 20.201ZM346.358 25.3504L340.959 25.2346L341.04 20.1353L346.438 20.251L346.358 25.3504ZM346.357 25.4004L346.356 25.5004L340.957 25.3846L340.959 25.2846L346.357 25.4004ZM351.438 20.3082L346.039 20.1925L346.041 20.0925L351.44 20.2082L351.438 20.3082ZM351.357 25.4576L345.958 25.3418L346.038 20.2425L351.437 20.3582L351.357 25.4576ZM351.356 25.5076L351.355 25.6076L345.956 25.4918L345.957 25.3918L351.356 25.5076ZM356.437 20.4154L351.038 20.2997L351.04 20.1997L356.438 20.3154L356.437 20.4154ZM356.356 25.5648L350.957 25.449L351.037 20.3497L356.436 20.4654L356.356 25.5648ZM356.355 25.6148L356.353 25.7148L350.955 25.599L350.956 25.499L356.355 25.6148ZM361.436 20.5226L356.037 20.4069L356.038 20.3069L361.437 20.4226L361.436 20.5226ZM361.355 25.672L355.956 25.5562L356.036 20.4568L361.435 20.5726L361.355 25.672ZM361.354 25.722L361.352 25.822L355.954 25.7062L355.955 25.6062L361.354 25.722ZM6.42271 18.9113L1.02395 18.7955L1.02552 18.6955L6.42429 18.8113L6.42271 18.9113ZM6.34176 24.0606L0.942998 23.9448L1.02317 18.8455L6.42193 18.9612L6.34176 24.0606ZM6.34097 24.1106L6.3394 24.2106L0.94064 24.0948L0.942212 23.9948L6.34097 24.1106ZM11.4216 19.0184L6.02281 18.9027L6.02438 18.8027L11.4231 18.9185L11.4216 19.0184ZM11.3406 24.1678L5.94185 24.052L6.02202 18.9527L11.4208 19.0684L11.3406 24.1678ZM11.3398 24.2178L11.3383 24.3178L5.93949 24.202L5.94107 24.102L11.3398 24.2178ZM31.417 19.4472L26.0182 19.3314L26.0198 19.2315L31.4186 19.3472L31.417 19.4472ZM31.336 24.5966L25.9373 24.4808L26.0174 19.3814L31.4162 19.4972L31.336 24.5966ZM31.3352 24.6466L31.3337 24.7466L25.9349 24.6308L25.9365 24.5308L31.3352 24.6466ZM36.4158 19.5544L31.0171 19.4386L31.0186 19.3387L36.4174 19.4544L36.4158 19.5544ZM36.3349 24.7038L30.9361 24.588L31.0163 19.4886L36.4151 19.6044L36.3349 24.7038ZM36.3341 24.7538L36.3325 24.8537L30.9338 24.738L30.9353 24.638L36.3341 24.7538ZM46.4135 19.7688L41.0148 19.653L41.0164 19.553L46.4151 19.6688L46.4135 19.7688ZM46.3326 24.9182L40.9338 24.8024L41.014 19.703L46.4128 19.8188L46.3326 24.9182ZM46.3318 24.9681L46.3302 25.0681L40.9315 24.9524L40.933 24.8524L46.3318 24.9681ZM51.4124 19.876L46.0136 19.7602L46.0152 19.6602L51.414 19.776L51.4124 19.876ZM51.3314 25.0253L45.9327 24.9096L46.0128 19.8102L51.4116 19.926L51.3314 25.0253ZM51.3307 25.0753L51.3291 25.1753L45.9303 25.0596L45.9319 24.9596L51.3307 25.0753ZM71.4078 20.3047L66.0091 20.189L66.0106 20.089L71.4094 20.2048L71.4078 20.3047ZM71.3269 25.4541L65.9281 25.3383L66.0083 20.239L71.407 20.3547L71.3269 25.4541ZM71.3261 25.5041L71.3245 25.6041L65.9257 25.4883L65.9273 25.3883L71.3261 25.5041ZM76.4067 20.4119L71.0079 20.2962L71.0095 20.1962L76.4082 20.312L76.4067 20.4119ZM76.3257 25.5613L70.927 25.4455L71.0071 20.3462L76.4059 20.4619L76.3257 25.5613ZM76.3249 25.6113L76.3234 25.7113L70.9246 25.5955L70.9262 25.4955L76.3249 25.6113ZM86.4044 20.6263L81.0056 20.5106L81.0072 20.4106L86.4059 20.5263L86.4044 20.6263ZM86.3234 25.7757L80.9247 25.6599L81.0048 20.5605L86.4036 20.6763L86.3234 25.7757ZM86.3226 25.8257L86.3211 25.9257L80.9223 25.8099L80.9239 25.7099L86.3226 25.8257ZM91.4032 20.7335L86.0045 20.6177L86.006 20.5178L91.4048 20.6335L91.4032 20.7335ZM91.3223 25.8829L85.9235 25.7671L86.0037 20.6677L91.4024 20.7835L91.3223 25.8829ZM91.3215 25.9329L91.3199 26.0329L85.9212 25.9171L85.9227 25.8171L91.3215 25.9329ZM111.399 21.1623L106 21.0465L106.001 20.9465L111.4 21.0623L111.399 21.1623ZM111.318 26.3116L105.919 26.1959L105.999 21.0965L111.398 21.2123L111.318 26.3116ZM111.317 26.3616L111.315 26.4616L105.917 26.3459L105.918 26.2459L111.317 26.3616ZM116.397 21.2695L110.999 21.1537L111 21.0537L116.399 21.1695L116.397 21.2695ZM116.317 26.4188L110.918 26.3031L110.998 21.2037L116.397 21.3195L116.317 26.4188ZM116.316 26.4688L116.314 26.5688L110.915 26.4531L110.917 26.3531L116.316 26.4688ZM141.392 21.8054L135.993 21.6897L135.995 21.5897L141.393 21.7054L141.392 21.8054ZM141.311 26.9548L135.912 26.839L135.992 21.7397L141.391 21.8554L141.311 26.9548ZM141.31 27.0048L141.308 27.1048L135.91 26.989L135.911 26.889L141.31 27.0048ZM146.391 21.9126L140.992 21.7969L140.993 21.6969L146.392 21.8126L146.391 21.9126ZM146.31 27.062L140.911 26.9462L140.991 21.8469L146.39 21.9626L146.31 27.062ZM146.309 27.112L146.307 27.212L140.909 27.0962L140.91 26.9962L146.309 27.112ZM196.379 22.9845L190.98 22.8688L190.982 22.7688L196.381 22.8846L196.379 22.9845ZM196.298 28.1339L190.899 28.0181L190.98 22.9188L196.378 23.0345L196.298 28.1339ZM196.297 28.1839L196.296 28.2839L190.897 28.1681L190.899 28.0681L196.297 28.1839ZM201.378 23.0917L195.979 22.976L195.981 22.876L201.38 22.9917L201.378 23.0917ZM201.297 28.2411L195.898 28.1253L195.978 23.026L201.377 23.1417L201.297 28.2411ZM201.296 28.2911L201.295 28.3911L195.896 28.2753L195.898 28.1753L201.296 28.2911ZM226.372 23.6277L220.974 23.5119L220.975 23.4119L226.374 23.5277L226.372 23.6277ZM226.291 28.7771L220.893 28.6613L220.973 23.5619L226.371 23.6777L226.291 28.7771ZM226.291 28.8271L226.289 28.927L220.89 28.8113L220.892 28.7113L226.291 28.8271ZM231.371 23.7349L225.972 23.6191L225.974 23.5191L231.373 23.6349L231.371 23.7349ZM231.29 28.8842L225.891 28.7685L225.972 23.6691L231.37 23.7849L231.29 28.8842ZM231.289 28.9342L231.288 29.0342L225.889 28.9185L225.891 28.8185L231.289 28.9342ZM256.365 24.2708L250.967 24.1551L250.968 24.0551L256.367 24.1709L256.365 24.2708ZM256.284 29.4202L250.886 29.3044L250.966 24.2051L256.365 24.3208L256.284 29.4202ZM256.284 29.4702L256.282 29.5702L250.883 29.4544L250.885 29.3544L256.284 29.4702ZM261.364 24.378L255.965 24.2623L255.967 24.1623L261.366 24.2781L261.364 24.378ZM261.283 29.5274L255.885 29.4116L255.965 24.3123L261.363 24.428L261.283 29.5274ZM261.283 29.5774L261.281 29.6774L255.882 29.5616L255.884 29.4616L261.283 29.5774ZM281.36 24.8068L275.961 24.691L275.962 24.5911L281.361 24.7068L281.36 24.8068ZM281.279 29.9562L275.88 29.8404L275.96 24.741L281.359 24.8568L281.279 29.9562ZM281.278 30.0062L281.276 30.1061L275.878 29.9904L275.879 29.8904L281.278 30.0062ZM286.359 24.914L280.96 24.7982L280.961 24.6982L286.36 24.814L286.359 24.914ZM286.278 30.0634L280.879 29.9476L280.959 24.8482L286.358 24.964L286.278 30.0634ZM286.277 30.1134L286.275 30.2133L280.876 30.0976L280.878 29.9976L286.277 30.1134ZM296.356 25.1284L290.957 25.0126L290.959 24.9126L296.358 25.0284L296.356 25.1284ZM296.275 30.2777L290.877 30.162L290.957 25.0626L296.355 25.1784L296.275 30.2777ZM296.274 30.3277L296.273 30.4277L290.874 30.312L290.876 30.212L296.274 30.3277ZM301.355 25.2356L295.956 25.1198L295.958 25.0198L301.357 25.1356L301.355 25.2356ZM301.274 30.3849L295.875 30.2692L295.956 25.1698L301.354 25.2856L301.274 30.3849ZM301.273 30.4349L301.272 30.5349L295.873 30.4191L295.875 30.3192L301.273 30.4349ZM321.351 25.6643L315.952 25.5486L315.953 25.4486L321.352 25.5644L321.351 25.6643ZM321.27 30.8137L315.871 30.6979L315.951 25.5986L321.35 25.7143L321.27 30.8137ZM321.269 30.8637L321.267 30.9637L315.868 30.8479L315.87 30.7479L321.269 30.8637ZM326.349 25.7715L320.951 25.6558L320.952 25.5558L326.351 25.6715L326.349 25.7715ZM326.268 30.9209L320.87 30.8051L320.95 25.7058L326.349 25.8215L326.268 30.9209ZM326.268 30.9709L326.266 31.0709L320.867 30.9551L320.869 30.8551L326.268 30.9709ZM336.347 25.9859L330.948 25.8701L330.95 25.7702L336.349 25.8859L336.347 25.9859ZM336.266 31.1353L330.867 31.0195L330.948 25.9201L336.346 26.0359L336.266 31.1353ZM336.265 31.1853L336.264 31.2853L330.865 31.1695L330.867 31.0695L336.265 31.1853ZM341.346 26.0931L335.947 25.9773L335.949 25.8774L341.347 25.9931L341.346 26.0931ZM341.265 31.2425L335.866 31.1267L335.946 26.0273L341.345 26.1431L341.265 31.2425ZM341.264 31.2925L341.263 31.3925L335.864 31.2767L335.865 31.1767L341.264 31.2925ZM6.3284 24.9105L0.929637 24.7947L0.931208 24.6948L6.32997 24.8105L6.3284 24.9105ZM6.24745 30.0599L0.848683 29.9441L0.928851 24.8447L6.32761 24.9605L6.24745 30.0599ZM6.24666 30.1099L6.24509 30.2099L0.846325 30.0941L0.847897 29.9941L6.24666 30.1099ZM11.3273 25.0177L5.92849 24.9019L5.93006 24.8019L11.3288 24.9177L11.3273 25.0177ZM11.2463 30.1671L5.84754 30.0513L5.9277 24.9519L11.3265 25.0677L11.2463 30.1671ZM11.2455 30.2171L11.2439 30.317L5.84518 30.2013L5.84675 30.1013L11.2455 30.2171ZM16.3261 25.1249L10.9273 25.0091L10.9289 24.9091L16.3277 25.0249L16.3261 25.1249ZM16.2452 30.2743L10.8464 30.1585L10.9266 25.0591L16.3253 25.1749L16.2452 30.2743ZM16.2444 30.3243L16.2428 30.4242L10.844 30.3085L10.8456 30.2085L16.2444 30.3243ZM21.325 25.2321L15.9262 25.1163L15.9278 25.0163L21.3265 25.1321L21.325 25.2321ZM21.244 30.3814L15.8452 30.2657L15.9254 25.1663L21.3242 25.2821L21.244 30.3814ZM21.2432 30.4314L21.2416 30.5314L15.8429 30.4157L15.8445 30.3157L21.2432 30.4314ZM26.3238 25.3393L20.9251 25.2235L20.9266 25.1235L26.3254 25.2393L26.3238 25.3393ZM26.2429 30.4886L20.8441 30.3729L20.9243 25.2735L26.323 25.3893L26.2429 30.4886ZM26.2421 30.5386L26.2405 30.6386L20.8417 30.5229L20.8433 30.4229L26.2421 30.5386ZM31.3227 25.4465L25.9239 25.3307L25.9255 25.2307L31.3242 25.3465L31.3227 25.4465ZM31.2417 30.5958L25.843 30.4801L25.9231 25.3807L31.3219 25.4965L31.2417 30.5958ZM31.2409 30.6458L31.2394 30.7458L25.8406 30.63L25.8422 30.5301L31.2409 30.6458ZM51.3181 25.8752L45.9193 25.7595L45.9209 25.6595L51.3197 25.7753L51.3181 25.8752ZM51.2371 31.0246L45.8384 30.9088L45.9185 25.8095L51.3173 25.9252L51.2371 31.0246ZM51.2363 31.0746L51.2348 31.1746L45.836 31.0588L45.8376 30.9588L51.2363 31.0746ZM56.3169 25.9824L50.9182 25.8667L50.9197 25.7667L56.3185 25.8824L56.3169 25.9824ZM56.236 31.1318L50.8372 31.016L50.9174 25.9167L56.3162 26.0324L56.236 31.1318ZM56.2352 31.1818L56.2336 31.2818L50.8349 31.166L50.8364 31.066L56.2352 31.1818ZM61.3158 26.0896L55.917 25.9739L55.9186 25.8739L61.3174 25.9896L61.3158 26.0896ZM61.2348 31.239L55.8361 31.1232L55.9162 26.0238L61.315 26.1396L61.2348 31.239ZM61.2341 31.289L61.2325 31.389L55.8337 31.2732L55.8353 31.1732L61.2341 31.289ZM66.3146 26.1968L60.9159 26.081L60.9175 25.9811L66.3162 26.0968L66.3146 26.1968ZM66.2337 31.3462L60.8349 31.2304L60.9151 26.131L66.3139 26.2468L66.2337 31.3462ZM66.2329 31.3962L66.2313 31.4962L60.8326 31.3804L60.8341 31.2804L66.2329 31.3962ZM71.3135 26.304L65.9147 26.1882L65.9163 26.0883L71.3151 26.204L71.3135 26.304ZM71.2325 31.4534L65.8338 31.3376L65.914 26.2382L71.3127 26.354L71.2325 31.4534ZM71.2318 31.5034L71.2302 31.6033L65.8314 31.4876L65.833 31.3876L71.2318 31.5034ZM91.3089 26.7328L85.9102 26.617L85.9117 26.517L91.3105 26.6328L91.3089 26.7328ZM91.228 31.8821L85.8292 31.7664L85.9094 26.667L91.3081 26.7828L91.228 31.8821ZM91.2272 31.9321L91.2256 32.0321L85.8268 31.9163L85.8284 31.8164L91.2272 31.9321ZM96.3078 26.84L90.909 26.7242L90.9106 26.6242L96.3093 26.74L96.3078 26.84ZM96.2268 31.9893L90.8281 31.8736L90.9082 26.7742L96.307 26.89L96.2268 31.9893ZM96.226 32.0393L96.2245 32.1393L90.8257 32.0235L90.8273 31.9236L96.226 32.0393ZM101.307 26.9472L95.9079 26.8314L95.9094 26.7314L101.308 26.8472L101.307 26.9472ZM101.226 32.0965L95.8269 31.9808L95.9071 26.8814L101.306 26.9971L101.226 32.0965ZM101.225 32.1465L101.223 32.2465L95.8245 32.1307L95.8261 32.0307L101.225 32.1465ZM106.305 27.0543L100.907 26.9386L100.908 26.8386L106.307 26.9544L106.305 27.0543ZM106.225 32.2037L100.826 32.0879L100.906 26.9886L106.305 27.1043L106.225 32.2037ZM106.224 32.2537L106.222 32.3537L100.823 32.2379L100.825 32.1379L106.224 32.2537ZM111.304 27.1615L105.906 27.0458L105.907 26.9458L111.306 27.0616L111.304 27.1615ZM111.223 32.3109L105.825 32.1951L105.905 27.0958L111.304 27.2115L111.223 32.3109ZM111.223 32.3609L111.221 32.4609L105.822 32.3451L105.824 32.2451L111.223 32.3609ZM141.297 27.8047L135.899 27.6889L135.9 27.5889L141.299 27.7047L141.297 27.8047ZM141.216 32.9541L135.818 32.8383L135.898 27.7389L141.297 27.8547L141.216 32.9541ZM141.216 33.004L141.214 33.104L135.815 32.9883L135.817 32.8883L141.216 33.004ZM146.296 27.9119L140.898 27.7961L140.899 27.6961L146.298 27.8119L146.296 27.9119ZM146.215 33.0612L140.817 32.9455L140.897 27.8461L146.296 27.9619L146.215 33.0612ZM146.215 33.1112L146.213 33.2112L140.814 33.0955L140.816 32.9955L146.215 33.1112ZM171.291 28.4478L165.892 28.3321L165.893 28.2321L171.292 28.3479L171.291 28.4478ZM171.21 33.5972L165.811 33.4814L165.891 28.3821L171.29 28.4978L171.21 33.5972ZM171.209 33.6472L171.207 33.7472L165.809 33.6314L165.81 33.5314L171.209 33.6472ZM176.289 28.555L170.891 28.4393L170.892 28.3393L176.291 28.455L176.289 28.555ZM176.208 33.7044L170.81 33.5886L170.89 28.4893L176.289 28.605L176.208 33.7044ZM176.208 33.7544L176.206 33.8544L170.807 33.7386L170.809 33.6386L176.208 33.7544ZM181.288 28.6622L175.89 28.5465L175.891 28.4465L181.29 28.5622L181.288 28.6622ZM181.207 33.8116L175.809 33.6958L175.889 28.5965L181.287 28.7122L181.207 33.8116ZM181.207 33.8616L181.205 33.9616L175.806 33.8458L175.808 33.7458L181.207 33.8616ZM186.287 28.7694L180.888 28.6537L180.89 28.5537L186.289 28.6694L186.287 28.7694ZM186.206 33.9188L180.807 33.803L180.888 28.7036L186.286 28.8194L186.206 33.9188ZM186.205 33.9688L186.204 34.0688L180.805 33.953L180.807 33.853L186.205 33.9688ZM191.286 28.8766L185.887 28.7608L185.889 28.6609L191.288 28.7766L191.286 28.8766ZM191.205 34.026L185.806 33.9102L185.886 28.8108L191.285 28.9266L191.205 34.026ZM191.204 34.076L191.203 34.176L185.804 34.0602L185.805 33.9602L191.204 34.076ZM196.285 28.9838L190.886 28.868L190.888 28.768L196.286 28.8838L196.285 28.9838ZM196.204 34.1332L190.805 34.0174L190.885 28.918L196.284 29.0338L196.204 34.1332ZM196.203 34.1832L196.202 34.2831L190.803 34.1674L190.804 34.0674L196.203 34.1832ZM226.278 29.627L220.879 29.5112L220.881 29.4112L226.28 29.527L226.278 29.627ZM226.197 34.7763L220.798 34.6605L220.878 29.5612L226.277 29.6769L226.197 34.7763ZM226.196 34.8263L226.195 34.9263L220.796 34.8105L220.797 34.7105L226.196 34.8263ZM231.277 29.7341L225.878 29.6184L225.88 29.5184L231.278 29.6342L231.277 29.7341ZM231.196 34.8835L225.797 34.7677L225.877 29.6684L231.276 29.7841L231.196 34.8835ZM231.195 34.9335L231.194 35.0335L225.795 34.9177L225.796 34.8177L231.195 34.9335ZM256.271 30.2701L250.872 30.1543L250.874 30.0543L256.273 30.1701L256.271 30.2701ZM256.19 35.4195L250.791 35.3037L250.872 30.2043L256.27 30.3201L256.19 35.4195ZM256.189 35.4695L256.188 35.5694L250.789 35.4537L250.791 35.3537L256.189 35.4695ZM261.27 30.3773L255.871 30.2615L255.873 30.1615L261.272 30.2773L261.27 30.3773ZM261.189 35.5267L255.79 35.4109L255.87 30.3115L261.269 30.4273L261.189 35.5267ZM261.188 35.5767L261.187 35.6766L255.788 35.5609L255.789 35.4609L261.188 35.5767ZM281.265 30.8061L275.867 30.6903L275.868 30.5903L281.267 30.7061L281.265 30.8061ZM281.184 35.9554L275.786 35.8397L275.866 30.7403L281.265 30.8561L281.184 35.9554ZM281.184 36.0054L281.182 36.1054L275.783 35.9896L275.785 35.8897L281.184 36.0054ZM286.264 30.9133L280.865 30.7975L280.867 30.6975L286.266 30.8133L286.264 30.9133ZM286.183 36.0626L280.784 35.9468L280.865 30.8475L286.263 30.9632L286.183 36.0626ZM286.182 36.1126L286.181 36.2126L280.782 36.0968L280.784 35.9968L286.182 36.1126ZM296.262 31.1276L290.863 31.0119L290.865 30.9119L296.263 31.0277L296.262 31.1276ZM296.181 36.277L290.782 36.1612L290.862 31.0619L296.261 31.1776L296.181 36.277ZM296.18 36.327L296.179 36.427L290.78 36.3112L290.781 36.2112L296.18 36.327ZM301.261 31.2348L295.862 31.1191L295.864 31.0191L301.262 31.1348L301.261 31.2348ZM301.18 36.3842L295.781 36.2684L295.861 31.1691L301.26 31.2848L301.18 36.3842ZM301.179 36.4342L301.177 36.5342L295.779 36.4184L295.78 36.3184L301.179 36.4342ZM321.256 31.6636L315.857 31.5478L315.859 31.4478L321.258 31.5636L321.256 31.6636ZM321.175 36.813L315.776 36.6972L315.857 31.5978L321.255 31.7136L321.175 36.813ZM321.174 36.863L321.173 36.9629L315.774 36.8472L315.776 36.7472L321.174 36.863ZM326.255 31.7708L320.856 31.655L320.858 31.555L326.257 31.6708L326.255 31.7708ZM326.174 36.9202L320.775 36.8044L320.855 31.705L326.254 31.8208L326.174 36.9202ZM326.173 36.9701L326.172 37.0701L320.773 36.9544L320.775 36.8544L326.173 36.9701ZM336.253 31.9852L330.854 31.8694L330.856 31.7694L336.254 31.8852L336.253 31.9852ZM336.172 37.1345L330.773 37.0188L330.853 31.9194L336.252 32.0352L336.172 37.1345ZM336.171 37.1845L336.169 37.2845L330.771 37.1687L330.772 37.0688L336.171 37.1845ZM341.252 32.0924L335.853 31.9766L335.854 31.8766L341.253 31.9924L341.252 32.0924ZM341.171 37.2417L335.772 37.126L335.852 32.0266L341.251 32.1424L341.171 37.2417ZM341.17 37.2917L341.168 37.3917L335.77 37.2759L335.771 37.176L341.17 37.2917Z" fill="url(#paint0_linear_80_525)"/>
<defs>
<linearGradient id="paint0_linear_80_525" x1="40.1043" y1="-27.3531" x2="148.989" y2="-25.8982" gradientUnits="userSpaceOnUse">
<stop stop-color="#B87CFF"/>
<stop offset="1" stop-color="#8912FB"/>
</linearGradient>
</defs>
</svg>
