<svg width="234" height="25" viewBox="0 0 234 25" fill="none" xmlns="http://www.w3.org/2000/svg">
<path d="M9.14047 0.48H4.82047V0.4H9.14047V0.48ZM9.14047 4.6H4.82047V0.52H9.14047V4.6ZM9.14047 4.64V4.72H4.82047V4.64H9.14047ZM13.1405 0.48H8.82047V0.4H13.1405V0.48ZM13.1405 4.6H8.82047V0.52H13.1405V4.6ZM13.1405 4.64V4.72H8.82047V4.64H13.1405ZM17.1405 0.48H12.8205V0.4H17.1405V0.48ZM17.1405 4.6H12.8205V0.52H17.1405V4.6ZM17.1405 4.64V4.72H12.8205V4.64H17.1405ZM21.1405 0.48H16.8205V0.4H21.1405V0.48ZM21.1405 4.6H16.8205V0.52H21.1405V4.6ZM21.1405 4.64V4.72H16.8205V4.64H21.1405ZM25.1405 0.48H20.8205V0.4H25.1405V0.48ZM25.1405 4.6H20.8205V0.52H25.1405V4.6ZM25.1405 4.64V4.72H20.8205V4.64H25.1405ZM41.1405 0.48H36.8205V0.4H41.1405V0.48ZM41.1405 4.6H36.8205V0.52H41.1405V4.6ZM41.1405 4.64V4.72H36.8205V4.64H41.1405ZM45.1405 0.48H40.8205V0.4H45.1405V0.48ZM45.1405 4.6H40.8205V0.52H45.1405V4.6ZM45.1405 4.64V4.72H40.8205V4.64H45.1405ZM49.1405 0.48H44.8205V0.4H49.1405V0.48ZM49.1405 4.6H44.8205V0.52H49.1405V4.6ZM49.1405 4.64V4.72H44.8205V4.64H49.1405ZM53.1405 0.48H48.8205V0.4H53.1405V0.48ZM53.1405 4.6H48.8205V0.52H53.1405V4.6ZM53.1405 4.64V4.72H48.8205V4.64H53.1405ZM57.1405 0.48H52.8205V0.4H57.1405V0.48ZM57.1405 4.6H52.8205V0.52H57.1405V4.6ZM57.1405 4.64V4.72H52.8205V4.64H57.1405ZM69.1405 0.48H64.8205V0.4H69.1405V0.48ZM69.1405 4.6H64.8205V0.52H69.1405V4.6ZM69.1405 4.64V4.72H64.8205V4.64H69.1405ZM73.1405 0.48H68.8205V0.4H73.1405V0.48ZM73.1405 4.6H68.8205V0.52H73.1405V4.6ZM73.1405 4.64V4.72H68.8205V4.64H73.1405ZM77.1405 0.48H72.8205V0.4H77.1405V0.48ZM77.1405 4.6H72.8205V0.52H77.1405V4.6ZM77.1405 4.64V4.72H72.8205V4.64H77.1405ZM93.1405 0.48H88.8205V0.4H93.1405V0.48ZM93.1405 4.6H88.8205V0.52H93.1405V4.6ZM93.1405 4.64V4.72H88.8205V4.64H93.1405ZM97.1405 0.48H92.8205V0.4H97.1405V0.48ZM97.1405 4.6H92.8205V0.52H97.1405V4.6ZM97.1405 4.64V4.72H92.8205V4.64H97.1405ZM105.14 0.48H100.82V0.4H105.14V0.48ZM105.14 4.6H100.82V0.52H105.14V4.6ZM105.14 4.64V4.72H100.82V4.64H105.14ZM109.14 0.48H104.82V0.4H109.14V0.48ZM109.14 4.6H104.82V0.52H109.14V4.6ZM109.14 4.64V4.72H104.82V4.64H109.14ZM113.14 0.48H108.82V0.4H113.14V0.48ZM113.14 4.6H108.82V0.52H113.14V4.6ZM113.14 4.64V4.72H108.82V4.64H113.14ZM117.14 0.48H112.82V0.4H117.14V0.48ZM117.14 4.6H112.82V0.52H117.14V4.6ZM117.14 4.64V4.72H112.82V4.64H117.14ZM121.14 0.48H116.82V0.4H121.14V0.48ZM121.14 4.6H116.82V0.52H121.14V4.6ZM121.14 4.64V4.72H116.82V4.64H121.14ZM125.14 0.48H120.82V0.4H125.14V0.48ZM125.14 4.6H120.82V0.52H125.14V4.6ZM125.14 4.64V4.72H120.82V4.64H125.14ZM129.14 0.48H124.82V0.4H129.14V0.48ZM129.14 4.6H124.82V0.52H129.14V4.6ZM129.14 4.64V4.72H124.82V4.64H129.14ZM133.14 0.48H128.82V0.4H133.14V0.48ZM133.14 4.6H128.82V0.52H133.14V4.6ZM133.14 4.64V4.72H128.82V4.64H133.14ZM145.14 0.48H140.82V0.4H145.14V0.48ZM145.14 4.6H140.82V0.52H145.14V4.6ZM145.14 4.64V4.72H140.82V4.64H145.14ZM149.14 0.48H144.82V0.4H149.14V0.48ZM149.14 4.6H144.82V0.52H149.14V4.6ZM149.14 4.64V4.72H144.82V4.64H149.14ZM153.14 0.48H148.82V0.4H153.14V0.48ZM153.14 4.6H148.82V0.52H153.14V4.6ZM153.14 4.64V4.72H148.82V4.64H153.14ZM157.14 0.48H152.82V0.4H157.14V0.48ZM157.14 4.6H152.82V0.52H157.14V4.6ZM157.14 4.64V4.72H152.82V4.64H157.14ZM161.14 0.48H156.82V0.4H161.14V0.48ZM161.14 4.6H156.82V0.52H161.14V4.6ZM161.14 4.64V4.72H156.82V4.64H161.14ZM177.14 0.48H172.82V0.4H177.14V0.48ZM177.14 4.6H172.82V0.52H177.14V4.6ZM177.14 4.64V4.72H172.82V4.64H177.14ZM181.14 0.48H176.82V0.4H181.14V0.48ZM181.14 4.6H176.82V0.52H181.14V4.6ZM181.14 4.64V4.72H176.82V4.64H181.14ZM185.14 0.48H180.82V0.4H185.14V0.48ZM185.14 4.6H180.82V0.52H185.14V4.6ZM185.14 4.64V4.72H180.82V4.64H185.14ZM189.14 0.48H184.82V0.4H189.14V0.48ZM189.14 4.6H184.82V0.52H189.14V4.6ZM189.14 4.64V4.72H184.82V4.64H189.14ZM193.14 0.48H188.82V0.4H193.14V0.48ZM193.14 4.6H188.82V0.52H193.14V4.6ZM193.14 4.64V4.72H188.82V4.64H193.14ZM205.14 0.48H200.82V0.4H205.14V0.48ZM205.14 4.6H200.82V0.52H205.14V4.6ZM205.14 4.64V4.72H200.82V4.64H205.14ZM209.14 0.48H204.82V0.4H209.14V0.48ZM209.14 4.6H204.82V0.52H209.14V4.6ZM209.14 4.64V4.72H204.82V4.64H209.14ZM213.14 0.48H208.82V0.4H213.14V0.48ZM213.14 4.6H208.82V0.52H213.14V4.6ZM213.14 4.64V4.72H208.82V4.64H213.14ZM217.14 0.48H212.82V0.4H217.14V0.48ZM217.14 4.6H212.82V0.52H217.14V4.6ZM217.14 4.64V4.72H212.82V4.64H217.14ZM221.14 0.48H216.82V0.4H221.14V0.48ZM221.14 4.6H216.82V0.52H221.14V4.6ZM221.14 4.64V4.72H216.82V4.64H221.14ZM225.14 0.48H220.82V0.4H225.14V0.48ZM225.14 4.6H220.82V0.52H225.14V4.6ZM225.14 4.64V4.72H220.82V4.64H225.14ZM229.14 0.48H224.82V0.4H229.14V0.48ZM229.14 4.6H224.82V0.52H229.14V4.6ZM229.14 4.64V4.72H224.82V4.64H229.14ZM233.14 0.48H228.82V0.4H233.14V0.48ZM233.14 4.6H228.82V0.52H233.14V4.6ZM233.14 4.64V4.72H228.82V4.64H233.14ZM5.14047 5.48H0.820469V5.4H5.14047V5.48ZM5.14047 9.6H0.820469V5.52H5.14047V9.6ZM5.14047 9.64V9.72H0.820469V9.64H5.14047ZM9.14047 5.48H4.82047V5.4H9.14047V5.48ZM9.14047 9.6H4.82047V5.52H9.14047V9.6ZM9.14047 9.64V9.72H4.82047V9.64H9.14047ZM25.1405 5.48H20.8205V5.4H25.1405V5.48ZM25.1405 9.6H20.8205V5.52H25.1405V9.6ZM25.1405 9.64V9.72H20.8205V9.64H25.1405ZM29.1405 5.48H24.8205V5.4H29.1405V5.48ZM29.1405 9.6H24.8205V5.52H29.1405V9.6ZM29.1405 9.64V9.72H24.8205V9.64H29.1405ZM37.1405 5.48H32.8205V5.4H37.1405V5.48ZM37.1405 9.6H32.8205V5.52H37.1405V9.6ZM37.1405 9.64V9.72H32.8205V9.64H37.1405ZM41.1405 5.48H36.8205V5.4H41.1405V5.48ZM41.1405 9.6H36.8205V5.52H41.1405V9.6ZM41.1405 9.64V9.72H36.8205V9.64H41.1405ZM57.1405 5.48H52.8205V5.4H57.1405V5.48ZM57.1405 9.6H52.8205V5.52H57.1405V9.6ZM57.1405 9.64V9.72H52.8205V9.64H57.1405ZM61.1405 5.48H56.8205V5.4H61.1405V5.48ZM61.1405 9.6H56.8205V5.52H61.1405V9.6ZM61.1405 9.64V9.72H56.8205V9.64H61.1405ZM69.1405 5.48H64.8205V5.4H69.1405V5.48ZM69.1405 9.6H64.8205V5.52H69.1405V9.6ZM69.1405 9.64V9.72H64.8205V9.64H69.1405ZM73.1405 5.48H68.8205V5.4H73.1405V5.48ZM73.1405 9.6H68.8205V5.52H73.1405V9.6ZM73.1405 9.64V9.72H68.8205V9.64H73.1405ZM77.1405 5.48H72.8205V5.4H77.1405V5.48ZM77.1405 9.6H72.8205V5.52H77.1405V9.6ZM77.1405 9.64V9.72H72.8205V9.64H77.1405ZM81.1405 5.48H76.8205V5.4H81.1405V5.48ZM81.1405 9.6H76.8205V5.52H81.1405V9.6ZM81.1405 9.64V9.72H76.8205V9.64H81.1405ZM93.1405 5.48H88.8205V5.4H93.1405V5.48ZM93.1405 9.6H88.8205V5.52H93.1405V9.6ZM93.1405 9.64V9.72H88.8205V9.64H93.1405ZM97.1405 5.48H92.8205V5.4H97.1405V5.48ZM97.1405 9.6H92.8205V5.52H97.1405V9.6ZM97.1405 9.64V9.72H92.8205V9.64H97.1405ZM117.14 5.48H112.82V5.4H117.14V5.48ZM117.14 9.6H112.82V5.52H117.14V9.6ZM117.14 9.64V9.72H112.82V9.64H117.14ZM121.14 5.48H116.82V5.4H121.14V5.48ZM121.14 9.6H116.82V5.52H121.14V9.6ZM121.14 9.64V9.72H116.82V9.64H121.14ZM141.14 5.48H136.82V5.4H141.14V5.48ZM141.14 9.6H136.82V5.52H141.14V9.6ZM141.14 9.64V9.72H136.82V9.64H141.14ZM145.14 5.48H140.82V5.4H145.14V5.48ZM145.14 9.6H140.82V5.52H145.14V9.6ZM145.14 9.64V9.72H140.82V9.64H145.14ZM161.14 5.48H156.82V5.4H161.14V5.48ZM161.14 9.6H156.82V5.52H161.14V9.6ZM161.14 9.64V9.72H156.82V9.64H161.14ZM165.14 5.48H160.82V5.4H165.14V5.48ZM165.14 9.6H160.82V5.52H165.14V9.6ZM165.14 9.64V9.72H160.82V9.64H165.14ZM173.14 5.48H168.82V5.4H173.14V5.48ZM173.14 9.6H168.82V5.52H173.14V9.6ZM173.14 9.64V9.72H168.82V9.64H173.14ZM177.14 5.48H172.82V5.4H177.14V5.48ZM177.14 9.6H172.82V5.52H177.14V9.6ZM177.14 9.64V9.72H172.82V9.64H177.14ZM193.14 5.48H188.82V5.4H193.14V5.48ZM193.14 9.6H188.82V5.52H193.14V9.6ZM193.14 9.64V9.72H188.82V9.64H193.14ZM197.14 5.48H192.82V5.4H197.14V5.48ZM197.14 9.6H192.82V5.52H197.14V9.6ZM197.14 9.64V9.72H192.82V9.64H197.14ZM217.14 5.48H212.82V5.4H217.14V5.48ZM217.14 9.6H212.82V5.52H217.14V9.6ZM217.14 9.64V9.72H212.82V9.64H217.14ZM221.14 5.48H216.82V5.4H221.14V5.48ZM221.14 9.6H216.82V5.52H221.14V9.6ZM221.14 9.64V9.72H216.82V9.64H221.14ZM5.14047 10.48H0.820469V10.4H5.14047V10.48ZM5.14047 14.6H0.820469V10.52H5.14047V14.6ZM5.14047 14.64V14.72H0.820469V14.64H5.14047ZM9.14047 10.48H4.82047V10.4H9.14047V10.48ZM9.14047 14.6H4.82047V10.52H9.14047V14.6ZM9.14047 14.64V14.72H4.82047V14.64H9.14047ZM37.1405 10.48H32.8205V10.4H37.1405V10.48ZM37.1405 14.6H32.8205V10.52H37.1405V14.6ZM37.1405 14.64V14.72H32.8205V14.64H37.1405ZM41.1405 10.48H36.8205V10.4H41.1405V10.48ZM41.1405 14.6H36.8205V10.52H41.1405V14.6ZM41.1405 14.64V14.72H36.8205V14.64H41.1405ZM57.1405 10.48H52.8205V10.4H57.1405V10.48ZM57.1405 14.6H52.8205V10.52H57.1405V14.6ZM57.1405 14.64V14.72H52.8205V14.64H57.1405ZM61.1405 10.48H56.8205V10.4H61.1405V10.48ZM61.1405 14.6H56.8205V10.52H61.1405V14.6ZM61.1405 14.64V14.72H56.8205V14.64H61.1405ZM69.1405 10.48H64.8205V10.4H69.1405V10.48ZM69.1405 14.6H64.8205V10.52H69.1405V14.6ZM69.1405 14.64V14.72H64.8205V14.64H69.1405ZM73.1405 10.48H68.8205V10.4H73.1405V10.48ZM73.1405 14.6H68.8205V10.52H73.1405V14.6ZM73.1405 14.64V14.72H68.8205V14.64H73.1405ZM81.1405 10.48H76.8205V10.4H81.1405V10.48ZM81.1405 14.6H76.8205V10.52H81.1405V14.6ZM81.1405 14.64V14.72H76.8205V14.64H81.1405ZM85.1405 10.48H80.8205V10.4H85.1405V10.48ZM85.1405 14.6H80.8205V10.52H85.1405V14.6ZM85.1405 14.64V14.72H80.8205V14.64H85.1405ZM93.1405 10.48H88.8205V10.4H93.1405V10.48ZM93.1405 14.6H88.8205V10.52H93.1405V14.6ZM93.1405 14.64V14.72H88.8205V14.64H93.1405ZM97.1405 10.48H92.8205V10.4H97.1405V10.48ZM97.1405 14.6H92.8205V10.52H97.1405V14.6ZM97.1405 14.64V14.72H92.8205V14.64H97.1405ZM117.14 10.48H112.82V10.4H117.14V10.48ZM117.14 14.6H112.82V10.52H117.14V14.6ZM117.14 14.64V14.72H112.82V14.64H117.14ZM121.14 10.48H116.82V10.4H121.14V10.48ZM121.14 14.6H116.82V10.52H121.14V14.6ZM121.14 14.64V14.72H116.82V14.64H121.14ZM141.14 10.48H136.82V10.4H141.14V10.48ZM141.14 14.6H136.82V10.52H141.14V14.6ZM141.14 14.64V14.72H136.82V14.64H141.14ZM145.14 10.48H140.82V10.4H145.14V10.48ZM145.14 14.6H140.82V10.52H145.14V14.6ZM145.14 14.64V14.72H140.82V14.64H145.14ZM149.14 10.48H144.82V10.4H149.14V10.48ZM149.14 14.6H144.82V10.52H149.14V14.6ZM149.14 14.64V14.72H144.82V14.64H149.14ZM153.14 10.48H148.82V10.4H153.14V10.48ZM153.14 14.6H148.82V10.52H153.14V14.6ZM153.14 14.64V14.72H148.82V14.64H153.14ZM157.14 10.48H152.82V10.4H157.14V10.48ZM157.14 14.6H152.82V10.52H157.14V14.6ZM157.14 14.64V14.72H152.82V14.64H157.14ZM161.14 10.48H156.82V10.4H161.14V10.48ZM161.14 14.6H156.82V10.52H161.14V14.6ZM161.14 14.64V14.72H156.82V14.64H161.14ZM165.14 10.48H160.82V10.4H165.14V10.48ZM165.14 14.6H160.82V10.52H165.14V14.6ZM165.14 14.64V14.72H160.82V14.64H165.14ZM173.14 10.48H168.82V10.4H173.14V10.48ZM173.14 14.6H168.82V10.52H173.14V14.6ZM173.14 14.64V14.72H168.82V14.64H173.14ZM177.14 10.48H172.82V10.4H177.14V10.48ZM177.14 14.6H172.82V10.52H177.14V14.6ZM177.14 14.64V14.72H172.82V14.64H177.14ZM217.14 10.48H212.82V10.4H217.14V10.48ZM217.14 14.6H212.82V10.52H217.14V14.6ZM217.14 14.64V14.72H212.82V14.64H217.14ZM221.14 10.48H216.82V10.4H221.14V10.48ZM221.14 14.6H216.82V10.52H221.14V14.6ZM221.14 14.64V14.72H216.82V14.64H221.14ZM5.14047 15.48H0.820469V15.4H5.14047V15.48ZM5.14047 19.6H0.820469V15.52H5.14047V19.6ZM5.14047 19.64V19.72H0.820469V19.64H5.14047ZM9.14047 15.48H4.82047V15.4H9.14047V15.48ZM9.14047 19.6H4.82047V15.52H9.14047V19.6ZM9.14047 19.64V19.72H4.82047V19.64H9.14047ZM25.1405 15.48H20.8205V15.4H25.1405V15.48ZM25.1405 19.6H20.8205V15.52H25.1405V19.6ZM25.1405 19.64V19.72H20.8205V19.64H25.1405ZM29.1405 15.48H24.8205V15.4H29.1405V15.48ZM29.1405 19.6H24.8205V15.52H29.1405V19.6ZM29.1405 19.64V19.72H24.8205V19.64H29.1405ZM37.1405 15.48H32.8205V15.4H37.1405V15.48ZM37.1405 19.6H32.8205V15.52H37.1405V19.6ZM37.1405 19.64V19.72H32.8205V19.64H37.1405ZM41.1405 15.48H36.8205V15.4H41.1405V15.48ZM41.1405 19.6H36.8205V15.52H41.1405V19.6ZM41.1405 19.64V19.72H36.8205V19.64H41.1405ZM57.1405 15.48H52.8205V15.4H57.1405V15.48ZM57.1405 19.6H52.8205V15.52H57.1405V19.6ZM57.1405 19.64V19.72H52.8205V19.64H57.1405ZM61.1405 15.48H56.8205V15.4H61.1405V15.48ZM61.1405 19.6H56.8205V15.52H61.1405V19.6ZM61.1405 19.64V19.72H56.8205V19.64H61.1405ZM69.1405 15.48H64.8205V15.4H69.1405V15.48ZM69.1405 19.6H64.8205V15.52H69.1405V19.6ZM69.1405 19.64V19.72H64.8205V19.64H69.1405ZM73.1405 15.48H68.8205V15.4H73.1405V15.48ZM73.1405 19.6H68.8205V15.52H73.1405V19.6ZM73.1405 19.64V19.72H68.8205V19.64H73.1405ZM85.1405 15.48H80.8205V15.4H85.1405V15.48ZM85.1405 19.6H80.8205V15.52H85.1405V19.6ZM85.1405 19.64V19.72H80.8205V19.64H85.1405ZM89.1405 15.48H84.8205V15.4H89.1405V15.48ZM89.1405 19.6H84.8205V15.52H89.1405V19.6ZM89.1405 19.64V19.72H84.8205V19.64H89.1405ZM93.1405 15.48H88.8205V15.4H93.1405V15.48ZM93.1405 19.6H88.8205V15.52H93.1405V19.6ZM93.1405 19.64V19.72H88.8205V19.64H93.1405ZM97.1405 15.48H92.8205V15.4H97.1405V15.48ZM97.1405 19.6H92.8205V15.52H97.1405V19.6ZM97.1405 19.64V19.72H92.8205V19.64H97.1405ZM117.14 15.48H112.82V15.4H117.14V15.48ZM117.14 19.6H112.82V15.52H117.14V19.6ZM117.14 19.64V19.72H112.82V19.64H117.14ZM121.14 15.48H116.82V15.4H121.14V15.48ZM121.14 19.6H116.82V15.52H121.14V19.6ZM121.14 19.64V19.72H116.82V19.64H121.14ZM141.14 15.48H136.82V15.4H141.14V15.48ZM141.14 19.6H136.82V15.52H141.14V19.6ZM141.14 19.64V19.72H136.82V19.64H141.14ZM145.14 15.48H140.82V15.4H145.14V15.48ZM145.14 19.6H140.82V15.52H145.14V19.6ZM145.14 19.64V19.72H140.82V19.64H145.14ZM161.14 15.48H156.82V15.4H161.14V15.48ZM161.14 19.6H156.82V15.52H161.14V19.6ZM161.14 19.64V19.72H156.82V19.64H161.14ZM165.14 15.48H160.82V15.4H165.14V15.48ZM165.14 19.6H160.82V15.52H165.14V19.6ZM165.14 19.64V19.72H160.82V19.64H165.14ZM173.14 15.48H168.82V15.4H173.14V15.48ZM173.14 19.6H168.82V15.52H173.14V19.6ZM173.14 19.64V19.72H168.82V19.64H173.14ZM177.14 15.48H172.82V15.4H177.14V15.48ZM177.14 19.6H172.82V15.52H177.14V19.6ZM177.14 19.64V19.72H172.82V19.64H177.14ZM193.14 15.48H188.82V15.4H193.14V15.48ZM193.14 19.6H188.82V15.52H193.14V19.6ZM193.14 19.64V19.72H188.82V19.64H193.14ZM197.14 15.48H192.82V15.4H197.14V15.48ZM197.14 19.6H192.82V15.52H197.14V19.6ZM197.14 19.64V19.72H192.82V19.64H197.14ZM217.14 15.48H212.82V15.4H217.14V15.48ZM217.14 19.6H212.82V15.52H217.14V19.6ZM217.14 19.64V19.72H212.82V19.64H217.14ZM221.14 15.48H216.82V15.4H221.14V15.48ZM221.14 19.6H216.82V15.52H221.14V19.6ZM221.14 19.64V19.72H216.82V19.64H221.14ZM9.14047 20.48H4.82047V20.4H9.14047V20.48ZM9.14047 24.6H4.82047V20.52H9.14047V24.6ZM9.14047 24.64V24.72H4.82047V24.64H9.14047ZM13.1405 20.48H8.82047V20.4H13.1405V20.48ZM13.1405 24.6H8.82047V20.52H13.1405V24.6ZM13.1405 24.64V24.72H8.82047V24.64H13.1405ZM17.1405 20.48H12.8205V20.4H17.1405V20.48ZM17.1405 24.6H12.8205V20.52H17.1405V24.6ZM17.1405 24.64V24.72H12.8205V24.64H17.1405ZM21.1405 20.48H16.8205V20.4H21.1405V20.48ZM21.1405 24.6H16.8205V20.52H21.1405V24.6ZM21.1405 24.64V24.72H16.8205V24.64H21.1405ZM25.1405 20.48H20.8205V20.4H25.1405V20.48ZM25.1405 24.6H20.8205V20.52H25.1405V24.6ZM25.1405 24.64V24.72H20.8205V24.64H25.1405ZM41.1405 20.48H36.8205V20.4H41.1405V20.48ZM41.1405 24.6H36.8205V20.52H41.1405V24.6ZM41.1405 24.64V24.72H36.8205V24.64H41.1405ZM45.1405 20.48H40.8205V20.4H45.1405V20.48ZM45.1405 24.6H40.8205V20.52H45.1405V24.6ZM45.1405 24.64V24.72H40.8205V24.64H45.1405ZM49.1405 20.48H44.8205V20.4H49.1405V20.48ZM49.1405 24.6H44.8205V20.52H49.1405V24.6ZM49.1405 24.64V24.72H44.8205V24.64H49.1405ZM53.1405 20.48H48.8205V20.4H53.1405V20.48ZM53.1405 24.6H48.8205V20.52H53.1405V24.6ZM53.1405 24.64V24.72H48.8205V24.64H53.1405ZM57.1405 20.48H52.8205V20.4H57.1405V20.48ZM57.1405 24.6H52.8205V20.52H57.1405V24.6ZM57.1405 24.64V24.72H52.8205V24.64H57.1405ZM69.1405 20.48H64.8205V20.4H69.1405V20.48ZM69.1405 24.6H64.8205V20.52H69.1405V24.6ZM69.1405 24.64V24.72H64.8205V24.64H69.1405ZM73.1405 20.48H68.8205V20.4H73.1405V20.48ZM73.1405 24.6H68.8205V20.52H73.1405V24.6ZM73.1405 24.64V24.72H68.8205V24.64H73.1405ZM89.1405 20.48H84.8205V20.4H89.1405V20.48ZM89.1405 24.6H84.8205V20.52H89.1405V24.6ZM89.1405 24.64V24.72H84.8205V24.64H89.1405ZM93.1405 20.48H88.8205V20.4H93.1405V20.48ZM93.1405 24.6H88.8205V20.52H93.1405V24.6ZM93.1405 24.64V24.72H88.8205V24.64H93.1405ZM97.1405 20.48H92.8205V20.4H97.1405V20.48ZM97.1405 24.6H92.8205V20.52H97.1405V24.6ZM97.1405 24.64V24.72H92.8205V24.64H97.1405ZM117.14 20.48H112.82V20.4H117.14V20.48ZM117.14 24.6H112.82V20.52H117.14V24.6ZM117.14 24.64V24.72H112.82V24.64H117.14ZM121.14 20.48H116.82V20.4H121.14V20.48ZM121.14 24.6H116.82V20.52H121.14V24.6ZM121.14 24.64V24.72H116.82V24.64H121.14ZM141.14 20.48H136.82V20.4H141.14V20.48ZM141.14 24.6H136.82V20.52H141.14V24.6ZM141.14 24.64V24.72H136.82V24.64H141.14ZM145.14 20.48H140.82V20.4H145.14V20.48ZM145.14 24.6H140.82V20.52H145.14V24.6ZM145.14 24.64V24.72H140.82V24.64H145.14ZM161.14 20.48H156.82V20.4H161.14V20.48ZM161.14 24.6H156.82V20.52H161.14V24.6ZM161.14 24.64V24.72H156.82V24.64H161.14ZM165.14 20.48H160.82V20.4H165.14V20.48ZM165.14 24.6H160.82V20.52H165.14V24.6ZM165.14 24.64V24.72H160.82V24.64H165.14ZM177.14 20.48H172.82V20.4H177.14V20.48ZM177.14 24.6H172.82V20.52H177.14V24.6ZM177.14 24.64V24.72H172.82V24.64H177.14ZM181.14 20.48H176.82V20.4H181.14V20.48ZM181.14 24.6H176.82V20.52H181.14V24.6ZM181.14 24.64V24.72H176.82V24.64H181.14ZM185.14 20.48H180.82V20.4H185.14V20.48ZM185.14 24.6H180.82V20.52H185.14V24.6ZM185.14 24.64V24.72H180.82V24.64H185.14ZM189.14 20.48H184.82V20.4H189.14V20.48ZM189.14 24.6H184.82V20.52H189.14V24.6ZM189.14 24.64V24.72H184.82V24.64H189.14ZM193.14 20.48H188.82V20.4H193.14V20.48ZM193.14 24.6H188.82V20.52H193.14V24.6ZM193.14 24.64V24.72H188.82V24.64H193.14ZM217.14 20.48H212.82V20.4H217.14V20.48ZM217.14 24.6H212.82V20.52H217.14V24.6ZM217.14 24.64V24.72H212.82V24.64H217.14ZM221.14 20.48H216.82V20.4H221.14V20.48ZM221.14 24.6H216.82V20.52H221.14V24.6ZM221.14 24.64V24.72H216.82V24.64H221.14Z" fill="white"/>
</svg>
