<svg width="117" height="32" viewBox="0 0 117 32" fill="none" xmlns="http://www.w3.org/2000/svg">
<path d="M11.3213 0.980543L5.92179 0.907855L5.92313 0.807864L11.3226 0.880552L11.3213 0.980543ZM11.2524 6.13008L5.85285 6.05739L5.92112 0.95785L11.3206 1.03054L11.2524 6.13008ZM11.2517 6.18008L11.2503 6.28007L5.85084 6.20738L5.85218 6.10739L11.2517 6.18008ZM16.3208 1.04785L10.9213 0.975159L10.9227 0.875168L16.3222 0.947857L16.3208 1.04785ZM16.2519 6.19739L10.8524 6.1247L10.9207 1.02515L16.3202 1.09784L16.2519 6.19739ZM16.2512 6.24738L16.2499 6.34737L10.8504 6.27468L10.8517 6.17469L16.2512 6.24738ZM21.3204 1.11515L15.9209 1.04246L15.9222 0.942472L21.3217 1.01516L21.3204 1.11515ZM21.2515 6.26469L15.8519 6.192L15.9202 1.09246L21.3197 1.16515L21.2515 6.26469ZM21.2508 6.31469L21.2494 6.41468L15.8499 6.34199L15.8513 6.242L21.2508 6.31469ZM26.3199 1.18246L20.9204 1.10977L20.9218 1.00978L26.3213 1.08247L26.3199 1.18246ZM26.251 6.332L20.8515 6.25931L20.9198 1.15976L26.3193 1.23245L26.251 6.332ZM26.2503 6.38199L26.249 6.48198L20.8495 6.40929L20.8508 6.3093L26.2503 6.38199ZM31.3195 1.24976L25.92 1.17707L25.9213 1.07708L31.3208 1.14977L31.3195 1.24976ZM31.2505 6.3993L25.851 6.32661L25.9193 1.22707L31.3188 1.29976L31.2505 6.3993ZM31.2499 6.4493L31.2485 6.54929L25.849 6.4766L25.8504 6.37661L31.2499 6.4493ZM51.3177 1.51898L45.9182 1.44629L45.9195 1.3463L51.319 1.41899L51.3177 1.51898ZM51.2487 6.66852L45.8492 6.59583L45.9175 1.49628L51.317 1.56897L51.2487 6.66852ZM51.2481 6.71851L51.2467 6.8185L45.8472 6.74581L45.8486 6.64582L51.2481 6.71851ZM56.3172 1.58628L50.9177 1.51359L50.9191 1.4136L56.3186 1.48629L56.3172 1.58628ZM56.2483 6.73582L50.8488 6.66313L50.917 1.56359L56.3166 1.63628L56.2483 6.73582ZM56.2476 6.78582L56.2463 6.88581L50.8468 6.81312L50.8481 6.71313L56.2476 6.78582ZM61.3168 1.65359L55.9173 1.5809L55.9186 1.48091L61.3181 1.5536L61.3168 1.65359ZM61.2478 6.80313L55.8483 6.73044L55.9166 1.63089L61.3161 1.70358L61.2478 6.80313ZM61.2472 6.85312L61.2458 6.95311L55.8463 6.88042L55.8476 6.78043L61.2472 6.85312ZM66.3163 1.72089L60.9168 1.6482L60.9181 1.54821L66.3177 1.6209L66.3163 1.72089ZM66.2474 6.87043L60.8479 6.79774L60.9161 1.6982L66.3156 1.77089L66.2474 6.87043ZM66.2467 6.92043L66.2454 7.02042L60.8459 6.94773L60.8472 6.84774L66.2467 6.92043ZM71.3159 1.7882L65.9164 1.71551L65.9177 1.61552L71.3172 1.6882L71.3159 1.7882ZM71.2469 6.93773L65.8474 6.86505L65.9157 1.7655L71.3152 1.83819L71.2469 6.93773ZM71.2463 6.98773L71.2449 7.08772L65.8454 7.01503L65.8467 6.91504L71.2463 6.98773ZM76.3154 1.8555L70.9159 1.78281L70.9172 1.68282L76.3167 1.75551L76.3154 1.8555ZM76.2465 7.00504L70.847 6.93235L70.9152 1.83281L76.3147 1.9055L76.2465 7.00504ZM76.2458 7.05503L76.2445 7.15503L70.8449 7.08234L70.8463 6.98235L76.2458 7.05503ZM91.3141 2.05741L85.9145 1.98472L85.9159 1.88473L91.3154 1.95742L91.3141 2.05741ZM91.2451 7.20695L85.8456 7.13426L85.9139 2.03472L91.3134 2.10741L91.2451 7.20695ZM91.2444 7.25695L91.2431 7.35694L85.8436 7.28425L85.8449 7.18426L91.2444 7.25695ZM96.3136 2.12472L90.9141 2.05203L90.9154 1.95204L96.3149 2.02473L96.3136 2.12472ZM96.2447 7.27426L90.8451 7.20157L90.9134 2.10202L96.3129 2.17471L96.2447 7.27426ZM96.244 7.32425L96.2426 7.42424L90.8431 7.35155L90.8445 7.25156L96.244 7.32425ZM101.313 2.19202L95.9136 2.11933L95.915 2.01934L101.314 2.09203L101.313 2.19202ZM101.244 7.34156L95.8447 7.26887L95.913 2.16933L101.312 2.24202L101.244 7.34156ZM101.244 7.39156L101.242 7.49155L95.8427 7.41886L95.844 7.31887L101.244 7.39156ZM106.313 2.25933L100.913 2.18664L100.915 2.08665L106.314 2.15934L106.313 2.25933ZM106.244 7.40886L100.844 7.33618L100.913 2.23663L106.312 2.30932L106.244 7.40886ZM106.243 7.45886L106.242 7.55885L100.842 7.48616L100.844 7.38617L106.243 7.45886ZM111.312 2.32663L105.913 2.25394L105.914 2.15395L111.314 2.22664L111.312 2.32663ZM111.243 7.47617L105.844 7.40348L105.912 2.30394L111.312 2.37663L111.243 7.47617ZM111.243 7.52616L111.241 7.62616L105.842 7.55347L105.843 7.45348L111.243 7.52616ZM116.312 2.39393L110.912 2.32125L110.914 2.22126L116.313 2.29394L116.312 2.39393ZM116.243 7.54347L110.843 7.47078L110.912 2.37124L116.311 2.44393L116.243 7.54347ZM116.242 7.59347L116.241 7.69346L110.841 7.62077L110.843 7.52078L116.242 7.59347ZM6.24143 6.9127L0.841919 6.84001L0.843258 6.74002L6.24277 6.81271L6.24143 6.9127ZM6.17249 12.0622L0.772976 11.9896L0.84125 6.89001L6.24076 6.9627L6.17249 12.0622ZM6.17182 12.1122L6.17048 12.2122L0.770968 12.1395L0.772306 12.0395L6.17182 12.1122ZM11.241 6.98001L5.84147 6.90732L5.8428 6.80733L11.2423 6.88001L11.241 6.98001ZM11.172 12.1295L5.77252 12.0569L5.8408 6.95731L11.2403 7.03L11.172 12.1295ZM11.1714 12.1795L11.17 12.2795L5.77051 12.2068L5.77185 12.1069L11.1714 12.1795ZM31.2392 7.24922L25.8397 7.17653L25.841 7.07654L31.2405 7.14923L31.2392 7.24922ZM31.1702 12.3988L25.7707 12.3261L25.839 7.22653L31.2385 7.29922L31.1702 12.3988ZM31.1696 12.4488L31.1682 12.5487L25.7687 12.4761L25.77 12.3761L31.1696 12.4488ZM36.2387 7.31653L30.8392 7.24384L30.8405 7.14385L36.2401 7.21654L36.2387 7.31653ZM36.1698 12.4661L30.7703 12.3934L30.8385 7.29383L36.238 7.36652L36.1698 12.4661ZM36.1691 12.5161L36.1678 12.6161L30.7682 12.5434L30.7696 12.4434L36.1691 12.5161ZM46.2378 7.45114L40.8383 7.37845L40.8396 7.27846L46.2391 7.35115L46.2378 7.45114ZM46.1689 12.6007L40.7694 12.528L40.8376 7.42844L46.2371 7.50113L46.1689 12.6007ZM46.1682 12.6507L46.1669 12.7507L40.7673 12.678L40.7687 12.578L46.1682 12.6507ZM51.2374 7.51844L45.8378 7.44575L45.8392 7.34576L51.2387 7.41845L51.2374 7.51844ZM51.1684 12.668L45.7689 12.5953L45.8372 7.49575L51.2367 7.56844L51.1684 12.668ZM51.1677 12.718L51.1664 12.818L45.7669 12.7453L45.7682 12.6453L51.1677 12.718ZM86.2342 7.98957L80.8347 7.91688L80.836 7.81689L86.2355 7.88958L86.2342 7.98957ZM86.1652 13.1391L80.7657 13.0664L80.834 7.96688L86.2335 8.03957L86.1652 13.1391ZM86.1646 13.1891L86.1632 13.2891L80.7637 13.2164L80.7651 13.1164L86.1646 13.1891ZM91.2337 8.05688L85.8342 7.98419L85.8356 7.8842L91.2351 7.95688L91.2337 8.05688ZM91.1648 13.2064L85.7653 13.1337L85.8335 8.03418L91.2331 8.10687L91.1648 13.2064ZM91.1641 13.2564L91.1628 13.3564L85.7633 13.2837L85.7646 13.1837L91.1641 13.2564ZM6.16111 12.9122L0.761597 12.8395L0.762935 12.7395L6.16245 12.8122L6.16111 12.9122ZM6.09216 18.0617L0.692653 17.989L0.760927 12.8895L6.16044 12.9622L6.09216 18.0617ZM6.09149 18.1117L6.09016 18.2117L0.690645 18.139L0.691984 18.039L6.09149 18.1117ZM11.1607 12.9795L5.76114 12.9068L5.76248 12.8068L11.162 12.8795L11.1607 12.9795ZM11.0917 18.129L5.6922 18.0563L5.76047 12.9568L11.16 13.0295L11.0917 18.129ZM11.091 18.179L11.0897 18.279L5.69019 18.2063L5.69153 18.1063L11.091 18.179ZM51.157 13.5179L45.7575 13.4452L45.7589 13.3452L51.1584 13.4179L51.157 13.5179ZM51.0881 18.6674L45.6886 18.5948L45.7569 13.4952L51.1564 13.5679L51.0881 18.6674ZM51.0874 18.7174L51.0861 18.8174L45.6866 18.7447L45.6879 18.6447L51.0874 18.7174ZM56.1566 13.5852L50.7571 13.5125L50.7584 13.4125L56.1579 13.4852L56.1566 13.5852ZM56.0876 18.7347L50.6881 18.6621L50.7564 13.5625L56.1559 13.6352L56.0876 18.7347ZM56.087 18.7847L56.0856 18.8847L50.6861 18.812L50.6875 18.7121L56.087 18.7847ZM61.1561 13.6525L55.7566 13.5798L55.758 13.4798L61.1575 13.5525L61.1561 13.6525ZM61.0872 18.802L55.6877 18.7294L55.7559 13.6298L61.1555 13.7025L61.0872 18.802ZM61.0865 18.852L61.0852 18.952L55.6857 18.8793L55.687 18.7794L61.0865 18.852ZM66.1557 13.7198L60.7562 13.6471L60.7575 13.5471L66.157 13.6198L66.1557 13.7198ZM66.0867 18.8694L60.6872 18.7967L60.7555 13.6971L66.155 13.7698L66.0867 18.8694ZM66.0861 18.9193L66.0847 19.0193L60.6852 18.9467L60.6865 18.8467L66.0861 18.9193ZM71.1552 13.7871L65.7557 13.7144L65.757 13.6144L71.1566 13.6871L71.1552 13.7871ZM71.0863 18.9367L65.6868 18.864L65.755 13.7644L71.1545 13.8371L71.0863 18.9367ZM71.0856 18.9867L71.0843 19.0866L65.6848 19.014L65.6861 18.914L71.0856 18.9867ZM91.1534 14.0563L85.7539 13.9836L85.7552 13.8837L91.1547 13.9563L91.1534 14.0563ZM91.0845 19.2059L85.685 19.1332L85.7532 14.0336L91.1527 14.1063L91.0845 19.2059ZM91.0838 19.2559L91.0825 19.3559L85.6829 19.2832L85.6843 19.1832L91.0838 19.2559ZM96.153 14.1236L90.7534 14.051L90.7548 13.951L96.1543 14.0237L96.153 14.1236ZM96.084 19.2732L90.6845 19.2005L90.7528 14.1009L96.1523 14.1736L96.084 19.2732ZM96.0833 19.3232L96.082 19.4232L90.6825 19.3505L90.6838 19.2505L96.0833 19.3232ZM101.153 14.1909L95.753 14.1183L95.7543 14.0183L101.154 14.091L101.153 14.1909ZM101.084 19.3405L95.684 19.2678L95.7523 14.1683L101.152 14.2409L101.084 19.3405ZM101.083 19.3905L101.082 19.4905L95.682 19.4178L95.6834 19.3178L101.083 19.3905ZM106.152 14.2583L100.753 14.1856L100.754 14.0856L106.153 14.1583L106.152 14.2583ZM106.083 19.4078L100.684 19.3351L100.752 14.2356L106.151 14.3082L106.083 19.4078ZM106.082 19.4578L106.081 19.5578L100.682 19.4851L100.683 19.3851L106.082 19.4578ZM111.152 14.3256L105.752 14.2529L105.753 14.1529L111.153 14.2256L111.152 14.3256ZM111.083 19.4751L105.683 19.4024L105.751 14.3029L111.151 14.3756L111.083 19.4751ZM111.082 19.5251L111.081 19.6251L105.681 19.5524L105.682 19.4524L111.082 19.5251ZM6.08079 18.9116L0.681274 18.8389L0.682613 18.7389L6.08212 18.8116L6.08079 18.9116ZM6.01184 24.0612L0.612331 23.9885L0.680605 18.8889L6.08012 18.9616L6.01184 24.0612ZM6.01117 24.1112L6.00983 24.2112L0.610323 24.1385L0.611661 24.0385L6.01117 24.1112ZM11.0803 18.9789L5.68082 18.9062L5.68216 18.8063L11.0817 18.8789L11.0803 18.9789ZM11.0114 24.1285L5.61188 24.0558L5.68015 18.9562L11.0797 19.0289L11.0114 24.1285ZM11.0107 24.1785L11.0094 24.2785L5.60987 24.2058L5.61121 24.1058L11.0107 24.1785ZM31.0785 19.2481L25.679 19.1755L25.6803 19.0755L31.0799 19.1482L31.0785 19.2481ZM31.0096 24.3977L25.6101 24.325L25.6783 19.2255L31.0779 19.2981L31.0096 24.3977ZM31.0089 24.4477L31.0076 24.5477L25.6081 24.475L25.6094 24.375L31.0089 24.4477ZM36.0781 19.3155L30.6786 19.2428L30.6799 19.1428L36.0794 19.2155L36.0781 19.3155ZM36.0091 24.465L30.6096 24.3923L30.6779 19.2928L36.0774 19.3654L36.0091 24.465ZM36.0085 24.515L36.0071 24.615L30.6076 24.5423L30.6089 24.4423L36.0085 24.515ZM71.0749 19.7866L65.6754 19.7139L65.6767 19.6139L71.0762 19.6866L71.0749 19.7866ZM71.006 24.9361L65.6064 24.8634L65.6747 19.7639L71.0742 19.8366L71.006 24.9361ZM71.0053 24.9861L71.0039 25.0861L65.6044 25.0134L65.6058 24.9134L71.0053 24.9861ZM76.0744 19.8539L70.6749 19.7812L70.6763 19.6812L76.0758 19.7539L76.0744 19.8539ZM76.0055 25.0034L70.606 24.9307L70.6743 19.8312L76.0738 19.9039L76.0055 25.0034ZM76.0048 25.0534L76.0035 25.1534L70.604 25.0807L70.6053 24.9807L76.0048 25.0534ZM111.071 20.325L105.672 20.2523L105.673 20.1523L111.073 20.225L111.071 20.325ZM111.002 25.4746L105.603 25.4019L105.671 20.3023L111.071 20.375L111.002 25.4746ZM111.002 25.5246L111 25.6245L105.601 25.5519L105.602 25.4519L111.002 25.5246ZM116.071 20.3923L110.671 20.3196L110.673 20.2196L116.072 20.2923L116.071 20.3923ZM116.002 25.5419L110.602 25.4692L110.671 20.3696L116.07 20.4423L116.002 25.5419ZM116.001 25.5919L116 25.6918L110.6 25.6192L110.602 25.5192L116.001 25.5919ZM11 24.9784L5.6005 24.9057L5.60184 24.8057L11.0013 24.8784L11 24.9784ZM10.9311 30.1279L5.53156 30.0552L5.59983 24.9557L10.9993 25.0284L10.9311 30.1279ZM10.9304 30.1779L10.9291 30.2779L5.52955 30.2052L5.53089 30.1052L10.9304 30.1779ZM15.9996 25.0457L10.6 24.973L10.6014 24.873L16.0009 24.9457L15.9996 25.0457ZM15.9306 30.1952L10.5311 30.1225L10.5994 25.023L15.9989 25.0957L15.9306 30.1952ZM15.9299 30.2452L15.9286 30.3452L10.5291 30.2725L10.5304 30.1725L15.9299 30.2452ZM20.9991 25.113L15.5996 25.0403L15.6009 24.9403L21.0004 25.013L20.9991 25.113ZM20.9302 30.2625L15.5306 30.1899L15.5989 25.0903L20.9984 25.163L20.9302 30.2625ZM20.9295 30.3125L20.9282 30.4125L15.5286 30.3398L15.53 30.2398L20.9295 30.3125ZM25.9987 25.1803L20.5991 25.1076L20.6005 25.0076L26 25.0803L25.9987 25.1803ZM25.9297 30.3298L20.5302 30.2572L20.5985 25.1576L25.998 25.2303L25.9297 30.3298ZM25.929 30.3798L25.9277 30.4798L20.5282 30.4071L20.5295 30.3072L25.929 30.3798ZM30.9982 25.2476L25.5987 25.1749L25.6 25.0749L30.9995 25.1476L30.9982 25.2476ZM30.9293 30.3971L25.5297 30.3245L25.598 25.2249L30.9975 25.2976L30.9293 30.3971ZM30.9286 30.4471L30.9272 30.5471L25.5277 30.4744L25.5291 30.3745L30.9286 30.4471ZM45.9968 25.4495L40.5973 25.3768L40.5987 25.2768L45.9982 25.3495L45.9968 25.4495ZM45.9279 30.5991L40.5284 30.5264L40.5967 25.4268L45.9962 25.4995L45.9279 30.5991ZM45.9272 30.6491L45.9259 30.749L40.5264 30.6764L40.5277 30.5764L45.9272 30.6491ZM50.9964 25.5168L45.5969 25.4441L45.5982 25.3441L50.9977 25.4168L50.9964 25.5168ZM50.9274 30.6664L45.5279 30.5937L45.5962 25.4941L50.9957 25.5668L50.9274 30.6664ZM50.9268 30.7164L50.9254 30.8164L45.5259 30.7437L45.5273 30.6437L50.9268 30.7164ZM55.9959 25.5841L50.5964 25.5114L50.5978 25.4115L55.9973 25.4841L55.9959 25.5841ZM55.927 30.7337L50.5275 30.661L50.5958 25.5614L55.9953 25.6341L55.927 30.7337ZM55.9263 30.7837L55.925 30.8837L50.5255 30.811L50.5268 30.711L55.9263 30.7837ZM60.9955 25.6514L55.596 25.5787L55.5973 25.4788L60.9968 25.5514L60.9955 25.6514ZM60.9265 30.801L55.527 30.7283L55.5953 25.6287L60.9948 25.7014L60.9265 30.801ZM60.9259 30.851L60.9245 30.951L55.525 30.8783L55.5264 30.7783L60.9259 30.851ZM65.995 25.7187L60.5955 25.6461L60.5969 25.5461L65.9964 25.6187L65.995 25.7187ZM65.9261 30.8683L60.5266 30.7956L60.5948 25.696L65.9944 25.7687L65.9261 30.8683ZM65.9254 30.9183L65.9241 31.0183L60.5246 30.9456L60.5259 30.8456L65.9254 30.9183ZM70.9946 25.786L65.5951 25.7134L65.5964 25.6134L70.9959 25.6861L70.9946 25.786ZM70.9256 30.9356L65.5261 30.8629L65.5944 25.7634L70.9939 25.836L70.9256 30.9356ZM70.925 30.9856L70.9236 31.0856L65.5241 31.0129L65.5254 30.9129L70.925 30.9856ZM85.9932 25.988L80.5937 25.9153L80.595 25.8153L85.9946 25.888L85.9932 25.988ZM85.9243 31.1375L80.5248 31.0648L80.593 25.9653L85.9925 26.038L85.9243 31.1375ZM85.9236 31.1875L85.9223 31.2875L80.5228 31.2148L80.5241 31.1148L85.9236 31.1875ZM90.9928 26.0553L85.5933 25.9826L85.5946 25.8826L90.9941 25.9553L90.9928 26.0553ZM90.9238 31.2048L85.5243 31.1321L85.5926 26.0326L90.9921 26.1053L90.9238 31.2048ZM90.9231 31.2548L90.9218 31.3548L85.5223 31.2821L85.5236 31.1821L90.9231 31.2548ZM95.9923 26.1226L90.5928 26.0499L90.5941 25.9499L95.9936 26.0226L95.9923 26.1226ZM95.9234 31.2721L90.5239 31.1994L90.5921 26.0999L95.9916 26.1726L95.9234 31.2721ZM95.9227 31.3221L95.9214 31.4221L90.5218 31.3494L90.5232 31.2494L95.9227 31.3221ZM100.992 26.1899L95.5923 26.1172L95.5937 26.0172L100.993 26.0899L100.992 26.1899ZM100.923 31.3394L95.5234 31.2667L95.5917 26.1672L100.991 26.2399L100.923 31.3394ZM100.922 31.3894L100.921 31.4894L95.5214 31.4167L95.5227 31.3167L100.922 31.3894ZM105.991 26.2572L100.592 26.1845L100.593 26.0845L105.993 26.1572L105.991 26.2572ZM105.922 31.4067L100.523 31.334L100.591 26.2345L105.991 26.3072L105.922 31.4067ZM105.922 31.4567L105.92 31.5567L100.521 31.484L100.522 31.384L105.922 31.4567ZM110.991 26.3245L105.591 26.2518L105.593 26.1518L110.992 26.2245L110.991 26.3245ZM110.922 31.474L105.522 31.4013L105.591 26.3018L110.99 26.3745L110.922 31.474ZM110.921 31.524L110.92 31.624L105.52 31.5513L105.522 31.4513L110.921 31.524Z" fill="#3278FF"/>
</svg>
