<svg width="81" height="30" viewBox="0 0 81 30" fill="none" xmlns="http://www.w3.org/2000/svg">
<path d="M10.5506 0.6H5.15059V0.5H10.5506V0.6ZM10.5506 5.75H5.15059V0.65H10.5506V5.75ZM10.5506 5.8V5.9H5.15059V5.8H10.5506ZM15.5506 0.6H10.1506V0.5H15.5506V0.6ZM15.5506 5.75H10.1506V0.65H15.5506V5.75ZM15.5506 5.8V5.9H10.1506V5.8H15.5506ZM20.5506 0.6H15.1506V0.5H20.5506V0.6ZM20.5506 5.75H15.1506V0.65H20.5506V5.75ZM20.5506 5.8V5.9H15.1506V5.8H20.5506ZM25.5506 0.6H20.1506V0.5H25.5506V0.6ZM25.5506 5.75H20.1506V0.65H25.5506V5.75ZM25.5506 5.8V5.9H20.1506V5.8H25.5506ZM30.5506 0.6H25.1506V0.5H30.5506V0.6ZM30.5506 5.75H25.1506V0.65H30.5506V5.75ZM30.5506 5.8V5.9H25.1506V5.8H30.5506ZM45.5506 0.6H40.1506V0.5H45.5506V0.6ZM45.5506 5.75H40.1506V0.65H45.5506V5.75ZM45.5506 5.8V5.9H40.1506V5.8H45.5506ZM50.5506 0.6H45.1506V0.5H50.5506V0.6ZM50.5506 5.75H45.1506V0.65H50.5506V5.75ZM50.5506 5.8V5.9H45.1506V5.8H50.5506ZM75.5506 0.6H70.1506V0.5H75.5506V0.6ZM75.5506 5.75H70.1506V0.65H75.5506V5.75ZM75.5506 5.8V5.9H70.1506V5.8H75.5506ZM80.5506 0.6H75.1506V0.5H80.5506V0.6ZM80.5506 5.75H75.1506V0.65H80.5506V5.75ZM80.5506 5.8V5.9H75.1506V5.8H80.5506ZM5.55059 6.6H0.150586V6.5H5.55059V6.6ZM5.55059 11.75H0.150586V6.65H5.55059V11.75ZM5.55059 11.8V11.9H0.150586V11.8H5.55059ZM10.5506 6.6H5.15059V6.5H10.5506V6.6ZM10.5506 11.75H5.15059V6.65H10.5506V11.75ZM10.5506 11.8V11.9H5.15059V11.8H10.5506ZM30.5506 6.6H25.1506V6.5H30.5506V6.6ZM30.5506 11.75H25.1506V6.65H30.5506V11.75ZM30.5506 11.8V11.9H25.1506V11.8H30.5506ZM35.5506 6.6H30.1506V6.5H35.5506V6.6ZM35.5506 11.75H30.1506V6.65H35.5506V11.75ZM35.5506 11.8V11.9H30.1506V11.8H35.5506ZM45.5506 6.6H40.1506V6.5H45.5506V6.6ZM45.5506 11.75H40.1506V6.65H45.5506V11.75ZM45.5506 11.8V11.9H40.1506V11.8H45.5506ZM50.5506 6.6H45.1506V6.5H50.5506V6.6ZM50.5506 11.75H45.1506V6.65H50.5506V11.75ZM50.5506 11.8V11.9H45.1506V11.8H50.5506ZM75.5506 6.6H70.1506V6.5H75.5506V6.6ZM75.5506 11.75H70.1506V6.65H75.5506V11.75ZM75.5506 11.8V11.9H70.1506V11.8H75.5506ZM80.5506 6.6H75.1506V6.5H80.5506V6.6ZM80.5506 11.75H75.1506V6.65H80.5506V11.75ZM80.5506 11.8V11.9H75.1506V11.8H80.5506ZM5.55059 12.6H0.150586V12.5H5.55059V12.6ZM5.55059 17.75H0.150586V12.65H5.55059V17.75ZM5.55059 17.8V17.9H0.150586V17.8H5.55059ZM10.5506 12.6H5.15059V12.5H10.5506V12.6ZM10.5506 17.75H5.15059V12.65H10.5506V17.75ZM10.5506 17.8V17.9H5.15059V17.8H10.5506ZM50.5506 12.6H45.1506V12.5H50.5506V12.6ZM50.5506 17.75H45.1506V12.65H50.5506V17.75ZM50.5506 17.8V17.9H45.1506V17.8H50.5506ZM55.5506 12.6H50.1506V12.5H55.5506V12.6ZM55.5506 17.75H50.1506V12.65H55.5506V17.75ZM55.5506 17.8V17.9H50.1506V17.8H55.5506ZM70.5506 12.6H65.1506V12.5H70.5506V12.6ZM70.5506 17.75H65.1506V12.65H70.5506V17.75ZM70.5506 17.8V17.9H65.1506V17.8H70.5506ZM75.5506 12.6H70.1506V12.5H75.5506V12.6ZM75.5506 17.75H70.1506V12.65H75.5506V17.75ZM75.5506 17.8V17.9H70.1506V17.8H75.5506ZM5.55059 18.6H0.150586V18.5H5.55059V18.6ZM5.55059 23.75H0.150586V18.65H5.55059V23.75ZM5.55059 23.8V23.9H0.150586V23.8H5.55059ZM10.5506 18.6H5.15059V18.5H10.5506V18.6ZM10.5506 23.75H5.15059V18.65H10.5506V23.75ZM10.5506 23.8V23.9H5.15059V23.8H10.5506ZM30.5506 18.6H25.1506V18.5H30.5506V18.6ZM30.5506 23.75H25.1506V18.65H30.5506V23.75ZM30.5506 23.8V23.9H25.1506V23.8H30.5506ZM35.5506 18.6H30.1506V18.5H35.5506V18.6ZM35.5506 23.75H30.1506V18.65H35.5506V23.75ZM35.5506 23.8V23.9H30.1506V23.8H35.5506ZM55.5506 18.6H50.1506V18.5H55.5506V18.6ZM55.5506 23.75H50.1506V18.65H55.5506V23.75ZM55.5506 23.8V23.9H50.1506V23.8H55.5506ZM60.5506 18.6H55.1506V18.5H60.5506V18.6ZM60.5506 23.75H55.1506V18.65H60.5506V23.75ZM60.5506 23.8V23.9H55.1506V23.8H60.5506ZM65.5506 18.6H60.1506V18.5H65.5506V18.6ZM65.5506 23.75H60.1506V18.65H65.5506V23.75ZM65.5506 23.8V23.9H60.1506V23.8H65.5506ZM70.5506 18.6H65.1506V18.5H70.5506V18.6ZM70.5506 23.75H65.1506V18.65H70.5506V23.75ZM70.5506 23.8V23.9H65.1506V23.8H70.5506ZM10.5506 24.6H5.15059V24.5H10.5506V24.6ZM10.5506 29.75H5.15059V24.65H10.5506V29.75ZM10.5506 29.8V29.9H5.15059V29.8H10.5506ZM15.5506 24.6H10.1506V24.5H15.5506V24.6ZM15.5506 29.75H10.1506V24.65H15.5506V29.75ZM15.5506 29.8V29.9H10.1506V29.8H15.5506ZM20.5506 24.6H15.1506V24.5H20.5506V24.6ZM20.5506 29.75H15.1506V24.65H20.5506V29.75ZM20.5506 29.8V29.9H15.1506V29.8H20.5506ZM25.5506 24.6H20.1506V24.5H25.5506V24.6ZM25.5506 29.75H20.1506V24.65H25.5506V29.75ZM25.5506 29.8V29.9H20.1506V29.8H25.5506ZM30.5506 24.6H25.1506V24.5H30.5506V24.6ZM30.5506 29.75H25.1506V24.65H30.5506V29.75ZM30.5506 29.8V29.9H25.1506V29.8H30.5506ZM60.5506 24.6H55.1506V24.5H60.5506V24.6ZM60.5506 29.75H55.1506V24.65H60.5506V29.75ZM60.5506 29.8V29.9H55.1506V29.8H60.5506ZM65.5506 24.6H60.1506V24.5H65.5506V24.6ZM65.5506 29.75H60.1506V24.65H65.5506V29.75ZM65.5506 29.8V29.9H60.1506V29.8H65.5506Z" fill="#B46AE1"/>
</svg>
