<svg width="192" height="33" viewBox="0 0 192 33" fill="none" xmlns="http://www.w3.org/2000/svg">
<path d="M6.08838 18.4021L0.688868 18.3294L0.690207 18.2294L6.08972 18.3021L6.08838 18.4021ZM6.01944 23.5516L0.619924 23.4789L0.688199 18.3794L6.08771 18.4521L6.01944 23.5516ZM6.01877 23.6016L6.01743 23.7016L0.617916 23.6289L0.619255 23.5289L6.01877 23.6016ZM11.0879 18.4694L5.68841 18.3967L5.68975 18.2967L11.0893 18.3694L11.0879 18.4694ZM11.019 23.6189L5.61947 23.5462L5.68775 18.4467L11.0873 18.5194L11.019 23.6189ZM11.0183 23.6689L11.017 23.7689L5.61746 23.6962L5.6188 23.5962L11.0183 23.6689ZM46.0848 18.9405L40.6852 18.8678L40.6866 18.7678L46.0861 18.8405L46.0848 18.9405ZM46.0158 24.09L40.6163 24.0174L40.6846 18.9178L46.0841 18.9905L46.0158 24.09ZM46.0151 24.14L46.0138 24.24L40.6143 24.1673L40.6156 24.0673L46.0151 24.14ZM51.0843 19.0078L45.6848 18.9351L45.6861 18.8351L51.0856 18.9078L51.0843 19.0078ZM51.0154 24.1573L45.6158 24.0847L45.6841 18.9851L51.0836 19.0578L51.0154 24.1573ZM51.0147 24.2073L51.0134 24.3073L45.6138 24.2346L45.6152 24.1347L51.0147 24.2073ZM61.0834 19.1424L55.6839 19.0697L55.6852 18.9697L61.0847 19.0424L61.0834 19.1424ZM61.0145 24.292L55.6149 24.2193L55.6832 19.1197L61.0827 19.1924L61.0145 24.292ZM61.0138 24.3419L61.0124 24.4419L55.6129 24.3693L55.6143 24.2693L61.0138 24.3419ZM66.0829 19.2097L60.6834 19.137L60.6848 19.037L66.0843 19.1097L66.0829 19.2097ZM66.014 24.3593L60.6145 24.2866L60.6828 19.187L66.0823 19.2597L66.014 24.3593ZM66.0133 24.4093L66.012 24.5092L60.6125 24.4366L60.6138 24.3366L66.0133 24.4093ZM91.0807 19.5462L85.6812 19.4736L85.6825 19.3736L91.082 19.4462L91.0807 19.5462ZM91.0117 24.6958L85.6122 24.6231L85.6805 19.5235L91.08 19.5962L91.0117 24.6958ZM91.0111 24.7458L91.0097 24.8458L85.6102 24.7731L85.6116 24.6731L91.0111 24.7458ZM96.0802 19.6135L90.6807 19.5409L90.6821 19.4409L96.0816 19.5136L96.0802 19.6135ZM96.0113 24.7631L90.6118 24.6904L90.68 19.5909L96.0796 19.6635L96.0113 24.7631ZM96.0106 24.8131L96.0093 24.9131L90.6098 24.8404L90.6111 24.7404L96.0106 24.8131ZM6.00806 24.4015L0.608545 24.3288L0.609884 24.2288L6.0094 24.3015L6.00806 24.4015ZM5.93911 29.5511L0.539602 29.4784L0.607876 24.3788L6.00739 24.4515L5.93911 29.5511ZM5.93844 29.6011L5.93711 29.7011L0.537594 29.6284L0.538933 29.5284L5.93844 29.6011ZM11.0076 24.4688L5.60809 24.3961L5.60943 24.2962L11.0089 24.3688L11.0076 24.4688ZM10.9387 29.6184L5.53915 29.5457L5.60742 24.4461L11.0069 24.5188L10.9387 29.6184ZM10.938 29.6684L10.9367 29.7684L5.53714 29.6957L5.53848 29.5957L10.938 29.6684ZM46.0044 24.94L40.6049 24.8673L40.6063 24.7673L46.0058 24.84L46.0044 24.94ZM45.9355 30.0895L40.536 30.0168L40.6043 24.9173L46.0038 24.99L45.9355 30.0895ZM45.9348 30.1395L45.9335 30.2395L40.534 30.1668L40.5353 30.0668L45.9348 30.1395ZM51.004 25.0073L45.6045 24.9346L45.6058 24.8346L51.0053 24.9073L51.004 25.0073ZM50.935 30.1568L45.5355 30.0841L45.6038 24.9846L51.0033 25.0573L50.935 30.1568ZM50.9344 30.2068L50.933 30.3068L45.5335 30.2341L45.5349 30.1341L50.9344 30.2068ZM66.0026 25.2092L60.6031 25.1365L60.6044 25.0365L66.004 25.1092L66.0026 25.2092ZM65.9337 30.3587L60.5342 30.286L60.6024 25.1865L66.002 25.2592L65.9337 30.3587ZM65.933 30.4087L65.9317 30.5087L60.5322 30.436L60.5335 30.336L65.933 30.4087ZM71.0022 25.2765L65.6027 25.2038L65.604 25.1038L71.0035 25.1765L71.0022 25.2765ZM70.9332 30.426L65.5337 30.3533L65.602 25.2538L71.0015 25.3265L70.9332 30.426ZM70.9326 30.476L70.9312 30.576L65.5317 30.5033L65.533 30.4033L70.9326 30.476ZM76.0017 25.3438L70.6022 25.2711L70.6035 25.1711L76.0031 25.2438L76.0017 25.3438ZM75.9328 30.4933L70.5333 30.4206L70.6015 25.3211L76.001 25.3938L75.9328 30.4933ZM75.9321 30.5433L75.9308 30.6433L70.5313 30.5706L70.5326 30.4706L75.9321 30.5433ZM81.0013 25.4111L75.6018 25.3384L75.6031 25.2384L81.0026 25.3111L81.0013 25.4111ZM80.9323 30.5606L75.5328 30.4879L75.6011 25.3884L81.0006 25.4611L80.9323 30.5606ZM80.9316 30.6106L80.9303 30.7106L75.5308 30.6379L75.5321 30.5379L80.9316 30.6106ZM86.0008 25.4784L80.6013 25.4057L80.6026 25.3057L86.0021 25.3784L86.0008 25.4784ZM85.9319 30.6279L80.5324 30.5552L80.6006 25.4557L86.0001 25.5284L85.9319 30.6279ZM85.9312 30.6779L85.9299 30.7779L80.5303 30.7052L80.5317 30.6052L85.9312 30.6779ZM91.0004 25.5457L85.6008 25.473L85.6022 25.373L91.0017 25.4457L91.0004 25.5457ZM90.9314 30.6952L85.5319 30.6226L85.6002 25.523L90.9997 25.5957L90.9314 30.6952ZM90.9307 30.7452L90.9294 30.8452L85.5299 30.7725L85.5312 30.6725L90.9307 30.7452ZM105.999 25.7476L100.599 25.6749L100.601 25.5749L106 25.6476L105.999 25.7476ZM105.93 30.8972L100.531 30.8245L100.599 25.7249L105.998 25.7976L105.93 30.8972ZM105.929 30.9472L105.928 31.0471L100.529 30.9745L100.53 30.8745L105.929 30.9472ZM110.999 25.8149L105.599 25.7422L105.6 25.6422L111 25.7149L110.999 25.8149ZM110.93 30.9645L105.53 30.8918L105.598 25.7922L110.998 25.8649L110.93 30.9645ZM110.929 31.0145L110.928 31.1144L105.528 31.0418L105.529 30.9418L110.929 31.0145ZM145.995 26.2861L140.596 26.2134L140.597 26.1134L145.997 26.1861L145.995 26.2861ZM145.926 31.4356L140.527 31.3629L140.595 26.2634L145.995 26.336L145.926 31.4356ZM145.926 31.4856L145.924 31.5856L140.525 31.5129L140.526 31.4129L145.926 31.4856ZM150.995 26.3534L145.595 26.2807L145.597 26.1807L150.996 26.2534L150.995 26.3534ZM150.926 31.5029L145.526 31.4302L145.595 26.3307L150.994 26.4034L150.926 31.5029ZM150.925 31.5529L150.924 31.6529L145.524 31.5802L145.526 31.4802L150.925 31.5529ZM160.994 26.488L155.595 26.4153L155.596 26.3153L160.995 26.388L160.994 26.488ZM160.925 31.6375L155.526 31.5648L155.594 26.4653L160.993 26.538L160.925 31.6375ZM160.924 31.6875L160.923 31.7875L155.524 31.7148L155.525 31.6148L160.924 31.6875ZM165.994 26.5553L160.594 26.4826L160.595 26.3826L165.995 26.4553L165.994 26.5553ZM165.925 31.7048L160.525 31.6321L160.593 26.5326L165.993 26.6053L165.925 31.7048ZM165.924 31.7548L165.923 31.8548L160.523 31.7821L160.524 31.6821L165.924 31.7548ZM185.992 26.8245L180.592 26.7518L180.594 26.6518L185.993 26.7245L185.992 26.8245ZM185.923 31.974L180.523 31.9013L180.592 26.8018L185.991 26.8745L185.923 31.974ZM185.922 32.024L185.921 32.124L180.521 32.0513L180.523 31.9513L185.922 32.024ZM190.991 26.8918L185.592 26.8191L185.593 26.7191L190.993 26.7918L190.991 26.8918ZM190.922 32.0413L185.523 31.9686L185.591 26.8691L190.991 26.9418L190.922 32.0413ZM190.922 32.0913L190.92 32.1913L185.521 32.1186L185.522 32.0186L190.922 32.0913Z" fill="#0ACF83"/>
<path d="M6.32935 0.403681L0.929835 0.330992L0.931174 0.231001L6.33069 0.30369L6.32935 0.403681ZM6.2604 5.55322L0.860892 5.48053L0.929166 0.380987L6.32868 0.453676L6.2604 5.55322ZM6.25973 5.60321L6.2584 5.70321L0.858884 5.63052L0.860223 5.53053L6.25973 5.60321ZM11.3289 0.470985L5.92938 0.398296L5.93072 0.298305L11.3302 0.370994L11.3289 0.470985ZM11.26 5.62052L5.86044 5.54783L5.92871 0.448292L11.3282 0.52098L11.26 5.62052ZM11.2593 5.67052L11.2579 5.77051L5.85843 5.69782L5.85977 5.59783L11.2593 5.67052ZM16.3284 0.538289L10.9289 0.465601L10.9303 0.36561L16.3298 0.438298L16.3284 0.538289ZM16.2595 5.68783L10.86 5.61514L10.9283 0.515596L16.3278 0.588285L16.2595 5.68783ZM16.2588 5.73782L16.2575 5.83781L10.858 5.76513L10.8593 5.66513L16.2588 5.73782ZM21.328 0.605594L15.9285 0.532905L15.9298 0.432914L21.3293 0.505603L21.328 0.605594ZM21.259 5.75513L15.8595 5.68244L15.9278 0.5829L21.3273 0.655589L21.259 5.75513ZM21.2584 5.80513L21.257 5.90512L15.8575 5.83243L15.8589 5.73244L21.2584 5.80513ZM26.3275 0.672898L20.928 0.600209L20.9294 0.500218L26.3289 0.572907L26.3275 0.672898ZM26.2586 5.82244L20.8591 5.74975L20.9274 0.650205L26.3269 0.722893L26.2586 5.82244ZM26.2579 5.87243L26.2566 5.97242L20.8571 5.89973L20.8584 5.79974L26.2579 5.87243ZM31.3271 0.740202L25.9276 0.667514L25.9289 0.567523L31.3284 0.640211L31.3271 0.740202ZM31.2581 5.88974L25.8586 5.81705L25.9269 0.717509L31.3264 0.790198L31.2581 5.88974ZM31.2575 5.93974L31.2561 6.03973L25.8566 5.96704L25.858 5.86705L31.2575 5.93974ZM36.3266 0.807507L30.9271 0.734818L30.9285 0.634827L36.328 0.707516L36.3266 0.807507ZM36.2577 5.95705L30.8582 5.88436L30.9264 0.784813L36.326 0.857502L36.2577 5.95705ZM36.257 6.00704L36.2557 6.10703L30.8562 6.03434L30.8575 5.93435L36.257 6.00704ZM46.3257 0.942115L40.9262 0.869427L40.9276 0.769436L46.3271 0.842124L46.3257 0.942115ZM46.2568 6.09165L40.8573 6.01897L40.9255 0.919422L46.3251 0.992111L46.2568 6.09165ZM46.2561 6.14165L46.2548 6.24164L40.8553 6.16895L40.8566 6.06896L46.2561 6.14165ZM51.3253 1.00942L45.9258 0.936731L45.9271 0.83674L51.3266 0.909429L51.3253 1.00942ZM51.2563 6.15896L45.8568 6.08627L45.9251 0.986726L51.3246 1.05942L51.2563 6.15896ZM51.2557 6.20895L51.2543 6.30894L45.8548 6.23626L45.8561 6.13627L51.2557 6.20895ZM66.3239 1.21133L60.9244 1.13864L60.9257 1.03865L66.3252 1.11134L66.3239 1.21133ZM66.255 6.36087L60.8555 6.28818L60.9237 1.18864L66.3232 1.26133L66.255 6.36087ZM66.2543 6.41087L66.253 6.51086L60.8534 6.43817L60.8548 6.33818L66.2543 6.41087ZM71.3235 1.27864L65.9239 1.20595L65.9253 1.10596L71.3248 1.17865L71.3235 1.27864ZM71.2545 6.42818L65.855 6.35549L65.9233 1.25594L71.3228 1.32863L71.2545 6.42818ZM71.2538 6.47817L71.2525 6.57816L65.853 6.50547L65.8543 6.40548L71.2538 6.47817ZM76.323 1.34594L70.9235 1.27325L70.9248 1.17326L76.3243 1.24595L76.323 1.34594ZM76.2541 6.49548L70.8545 6.42279L70.9228 1.32325L76.3223 1.39594L76.2541 6.49548ZM76.2534 6.54548L76.2521 6.64547L70.8525 6.57278L70.8539 6.47279L76.2534 6.54548ZM81.3226 1.41325L75.923 1.34056L75.9244 1.24057L81.3239 1.31325L81.3226 1.41325ZM81.2536 6.56278L75.8541 6.4901L75.9224 1.39055L81.3219 1.46324L81.2536 6.56278ZM81.2529 6.61278L81.2516 6.71277L75.8521 6.64008L75.8534 6.54009L81.2529 6.61278ZM86.3221 1.48055L80.9226 1.40786L80.9239 1.30787L86.3234 1.38056L86.3221 1.48055ZM86.2532 6.63009L80.8536 6.5574L80.9219 1.45786L86.3214 1.53055L86.2532 6.63009ZM86.2525 6.68008L86.2511 6.78008L80.8516 6.70739L80.853 6.6074L86.2525 6.68008ZM91.3216 1.54785L85.9221 1.47517L85.9235 1.37517L91.323 1.44786L91.3216 1.54785ZM91.2527 6.69739L85.8532 6.6247L85.9215 1.52516L91.321 1.59785L91.2527 6.69739ZM91.252 6.74739L91.2507 6.84738L85.8512 6.77469L85.8525 6.6747L91.252 6.74739ZM6.24902 6.40314L0.849513 6.33045L0.850852 6.23046L6.25036 6.30315L6.24902 6.40314ZM6.18008 11.5527L0.780569 11.48L0.848844 6.38045L6.24835 6.45314L6.18008 11.5527ZM6.17941 11.6027L6.17807 11.7027L0.778561 11.63L0.7799 11.53L6.17941 11.6027ZM11.2486 6.47045L5.84906 6.39776L5.8504 6.29777L11.2499 6.37046L11.2486 6.47045ZM11.1796 11.62L5.78012 11.5473L5.84839 6.44775L11.2479 6.52044L11.1796 11.62ZM11.179 11.67L11.1776 11.77L5.77811 11.6973L5.77945 11.5973L11.179 11.67ZM46.2454 6.94158L40.8459 6.86889L40.8472 6.7689L46.2467 6.84159L46.2454 6.94158ZM46.1765 12.0911L40.7769 12.0184L40.8452 6.91888L46.2447 6.99157L46.1765 12.0911ZM46.1758 12.1411L46.1744 12.2411L40.7749 12.1684L40.7763 12.0684L46.1758 12.1411ZM51.2449 7.00888L45.8454 6.93619L45.8468 6.8362L51.2463 6.90889L51.2449 7.00888ZM51.176 12.1584L45.7765 12.0857L45.8448 6.98619L51.2443 7.05888L51.176 12.1584ZM51.1753 12.2084L51.174 12.3084L45.7745 12.2357L45.7758 12.1357L51.1753 12.2084ZM61.244 7.14349L55.8445 7.0708L55.8459 6.97081L61.2454 7.0435L61.244 7.14349ZM61.1751 12.293L55.7756 12.2203L55.8439 7.1208L61.2434 7.19349L61.1751 12.293ZM61.1744 12.343L61.1731 12.443L55.7736 12.3703L55.7749 12.2703L61.1744 12.343ZM66.2436 7.21079L60.8441 7.13811L60.8454 7.03812L66.2449 7.1108L66.2436 7.21079ZM66.1746 12.3603L60.7751 12.2876L60.8434 7.1881L66.2429 7.26079L66.1746 12.3603ZM66.174 12.4103L66.1726 12.5103L60.7731 12.4376L60.7745 12.3376L66.174 12.4103Z" fill="#F24E1E"/>
<path d="M106.32 1.74977L100.921 1.67708L100.922 1.57709L106.322 1.64978L106.32 1.74977ZM106.251 6.89931L100.852 6.82662L100.92 1.72707L106.32 1.79976L106.251 6.89931ZM106.251 6.9493L106.249 7.04929L100.85 6.9766L100.851 6.87661L106.251 6.9493ZM111.32 1.81707L105.92 1.74438L105.922 1.64439L111.321 1.71708L111.32 1.81707ZM111.251 6.96661L105.851 6.89392L105.92 1.79438L111.319 1.86707L111.251 6.96661ZM111.25 7.01661L111.249 7.1166L105.849 7.04391L105.851 6.94392L111.25 7.01661ZM116.319 1.88438L110.92 1.81169L110.921 1.7117L116.321 1.78439L116.319 1.88438ZM116.25 7.03391L110.851 6.96123L110.919 1.86168L116.319 1.93437L116.25 7.03391ZM116.25 7.08391L116.248 7.1839L110.849 7.11121L110.85 7.01122L116.25 7.08391ZM141.317 2.2209L135.918 2.14821L135.919 2.04822L141.318 2.12091L141.317 2.2209ZM141.248 7.37044L135.849 7.29775L135.917 2.1982L141.316 2.27089L141.248 7.37044ZM141.248 7.42043L141.246 7.52042L135.847 7.44773L135.848 7.34774L141.248 7.42043ZM146.317 2.2882L140.917 2.21551L140.918 2.11552L146.318 2.18821L146.317 2.2882ZM146.248 7.43774L140.848 7.36505L140.916 2.26551L146.316 2.3382L146.248 7.43774ZM146.247 7.48774L146.246 7.58773L140.846 7.51504L140.848 7.41505L146.247 7.48774ZM151.316 2.35551L145.917 2.28282L145.918 2.18283L151.318 2.25552L151.316 2.35551ZM151.247 7.50505L145.848 7.43236L145.916 2.33281L151.316 2.4055L151.247 7.50505ZM151.247 7.55504L151.245 7.65503L145.846 7.58234L145.847 7.48235L151.247 7.55504ZM166.315 2.55742L160.915 2.48473L160.917 2.38474L166.316 2.45743L166.315 2.55742ZM166.246 7.70696L160.846 7.63427L160.915 2.53473L166.314 2.60742L166.246 7.70696ZM166.245 7.75695L166.244 7.85694L160.844 7.78426L160.846 7.68427L166.245 7.75695ZM171.314 2.62472L165.915 2.55204L165.916 2.45204L171.316 2.52473L171.314 2.62472ZM171.245 7.77426L165.846 7.70157L165.914 2.60203L171.314 2.67472L171.245 7.77426ZM171.245 7.82426L171.243 7.92425L165.844 7.85156L165.845 7.75157L171.245 7.82426ZM176.314 2.69203L170.914 2.61934L170.916 2.51935L176.315 2.59204L176.314 2.69203ZM176.245 7.84157L170.845 7.76888L170.914 2.66934L176.313 2.74202L176.245 7.84157ZM176.244 7.89156L176.243 7.99155L170.843 7.91886L170.845 7.81887L176.244 7.89156ZM181.313 2.75933L175.914 2.68664L175.915 2.58665L181.315 2.65934L181.313 2.75933ZM181.245 7.90887L175.845 7.83618L175.913 2.73664L181.313 2.80933L181.245 7.90887ZM181.244 7.95887L181.243 8.05886L175.843 7.98617L175.844 7.88618L181.244 7.95887ZM186.313 2.82664L180.914 2.75395L180.915 2.65396L186.314 2.72665L186.313 2.82664ZM186.244 7.97618L180.845 7.90349L180.913 2.80394L186.312 2.87663L186.244 7.97618ZM186.243 8.02617L186.242 8.12616L180.843 8.05347L180.844 7.95348L186.243 8.02617ZM106.24 7.74923L100.84 7.67654L100.842 7.57655L106.241 7.64924L106.24 7.74923ZM106.171 12.8988L100.772 12.8261L100.84 7.72654L106.239 7.79923L106.171 12.8988ZM106.17 12.9488L106.169 13.0488L100.77 12.9761L100.771 12.8761L106.17 12.9488ZM111.24 7.81653L105.84 7.74385L105.841 7.64385L111.241 7.71654L111.24 7.81653ZM111.171 12.9661L105.771 12.8934L105.839 7.79384L111.239 7.86653L111.171 12.9661ZM111.17 13.0161L111.169 13.1161L105.769 13.0434L105.77 12.9434L111.17 13.0161ZM116.239 7.88384L110.84 7.81115L110.841 7.71116L116.24 7.78385L116.239 7.88384ZM116.17 13.0334L110.771 12.9607L110.839 7.86115L116.238 7.93383L116.17 13.0334ZM116.169 13.0834L116.168 13.1834L110.769 13.1107L110.77 13.0107L116.169 13.0834ZM121.239 7.95114L115.839 7.87845L115.84 7.77846L121.24 7.85115L121.239 7.95114ZM121.17 13.1007L115.77 13.028L115.838 7.92845L121.238 8.00114L121.17 13.1007ZM121.169 13.1507L121.168 13.2507L115.768 13.178L115.769 13.078L121.169 13.1507ZM136.237 8.15306L130.838 8.08037L130.839 7.98038L136.239 8.05306L136.237 8.15306ZM136.168 13.3026L130.769 13.2299L130.837 8.13036L136.237 8.20305L136.168 13.3026ZM136.168 13.3526L136.166 13.4526L130.767 13.3799L130.768 13.2799L136.168 13.3526ZM141.237 8.22036L135.837 8.14767L135.839 8.04768L141.238 8.12037L141.237 8.22036ZM141.168 13.3699L135.768 13.2972L135.837 8.19767L141.236 8.27036L141.168 13.3699ZM141.167 13.4199L141.166 13.5199L135.766 13.4472L135.768 13.3472L141.167 13.4199ZM146.236 8.28766L140.837 8.21498L140.838 8.11498L146.238 8.18767L146.236 8.28766ZM146.167 13.4372L140.768 13.3645L140.836 8.26497L146.236 8.33766L146.167 13.4372ZM146.167 13.4872L146.165 13.5872L140.766 13.5145L140.767 13.4145L146.167 13.4872ZM151.236 8.35497L145.836 8.28228L145.838 8.18229L151.237 8.25498L151.236 8.35497ZM151.167 13.5045L145.767 13.4318L145.836 8.33228L151.235 8.40496L151.167 13.5045ZM151.166 13.5545L151.165 13.6545L145.765 13.5818L145.767 13.4818L151.166 13.5545ZM161.235 8.48958L155.835 8.41689L155.837 8.3169L161.236 8.38959L161.235 8.48958ZM161.166 13.6391L155.767 13.5664L155.835 8.46688L161.234 8.53957L161.166 13.6391ZM161.165 13.6891L161.164 13.7891L155.765 13.7164L155.766 13.6164L161.165 13.6891ZM166.235 8.55688L160.835 8.48419L160.836 8.3842L166.236 8.45689L166.235 8.55688ZM166.166 13.7064L160.766 13.6337L160.834 8.53419L166.234 8.60688L166.166 13.7064ZM166.165 13.7564L166.164 13.8564L160.764 13.7837L160.765 13.6837L166.165 13.7564ZM186.233 8.8261L180.833 8.75341L180.835 8.65342L186.234 8.72611L186.233 8.8261ZM186.164 13.9756L180.764 13.9029L180.833 8.80341L186.232 8.87609L186.164 13.9756ZM186.163 14.0256L186.162 14.1256L180.762 14.0529L180.764 13.9529L186.163 14.0256ZM191.232 8.8934L185.833 8.82071L185.834 8.72072L191.234 8.79341L191.232 8.8934ZM191.163 14.0429L185.764 13.9703L185.832 8.87071L191.232 8.9434L191.163 14.0429ZM191.163 14.0929L191.161 14.1929L185.762 14.1202L185.763 14.0202L191.163 14.0929Z" fill="#FF7262"/>
<path d="M6.1687 12.4026L0.76919 12.3299L0.770529 12.2299L6.17004 12.3026L6.1687 12.4026ZM6.09976 17.5521L0.700247 17.4795L0.768521 12.3799L6.16803 12.4526L6.09976 17.5521ZM6.09909 17.6021L6.09775 17.7021L0.698239 17.6294L0.699578 17.5295L6.09909 17.6021ZM11.1682 12.4699L5.76874 12.3972L5.77008 12.2972L11.1696 12.3699L11.1682 12.4699ZM11.0993 17.6194L5.69979 17.5468L5.76807 12.4472L11.1676 12.5199L11.0993 17.6194ZM11.0986 17.6694L11.0973 17.7694L5.69779 17.6967L5.69912 17.5968L11.0986 17.6694ZM16.1678 12.5372L10.7683 12.4645L10.7696 12.3645L16.1691 12.4372L16.1678 12.5372ZM16.0989 17.6868L10.6993 17.6141L10.7676 12.5145L16.1671 12.5872L16.0989 17.6868ZM16.0982 17.7367L16.0968 17.8367L10.6973 17.764L10.6987 17.6641L16.0982 17.7367ZM21.1673 12.6045L15.7678 12.5318L15.7692 12.4318L21.1687 12.5045L21.1673 12.6045ZM21.0984 17.7541L15.6989 17.6814L15.7672 12.5818L21.1667 12.6545L21.0984 17.7541ZM21.0977 17.8041L21.0964 17.904L15.6969 17.8314L15.6982 17.7314L21.0977 17.8041ZM26.1669 12.6718L20.7674 12.5991L20.7687 12.4991L26.1682 12.5718L26.1669 12.6718ZM26.0979 17.8214L20.6984 17.7487L20.7667 12.6491L26.1662 12.7218L26.0979 17.8214ZM26.0973 17.8714L26.0959 17.9713L20.6964 17.8987L20.6978 17.7987L26.0973 17.8714ZM46.1651 12.941L40.7656 12.8684L40.7669 12.7684L46.1664 12.841L46.1651 12.941ZM46.0961 18.0906L40.6966 18.0179L40.7649 12.9183L46.1644 12.991L46.0961 18.0906ZM46.0955 18.1406L46.0941 18.2406L40.6946 18.1679L40.696 18.0679L46.0955 18.1406ZM51.1646 13.0083L45.7651 12.9357L45.7665 12.8357L51.166 12.9084L51.1646 13.0083ZM51.0957 18.1579L45.6962 18.0852L45.7644 12.9857L51.164 13.0583L51.0957 18.1579ZM51.095 18.2079L51.0937 18.3079L45.6942 18.2352L45.6955 18.1352L51.095 18.2079ZM61.1637 13.143L55.7642 13.0703L55.7655 12.9703L61.1651 13.043L61.1637 13.143ZM61.0948 18.2925L55.6953 18.2198L55.7635 13.1203L61.163 13.1929L61.0948 18.2925ZM61.0941 18.3425L61.0928 18.4425L55.6933 18.3698L55.6946 18.2698L61.0941 18.3425ZM66.1633 13.2103L60.7638 13.1376L60.7651 13.0376L66.1646 13.1103L66.1633 13.2103ZM66.0943 18.3598L60.6948 18.2871L60.7631 13.1876L66.1626 13.2603L66.0943 18.3598ZM66.0937 18.4098L66.0923 18.5098L60.6928 18.4371L60.6941 18.3371L66.0937 18.4098ZM86.1615 13.4795L80.7619 13.4068L80.7633 13.3068L86.1628 13.3795L86.1615 13.4795ZM86.0925 18.629L80.693 18.5563L80.7613 13.4568L86.1608 13.5295L86.0925 18.629ZM86.0918 18.679L86.0905 18.779L80.691 18.7063L80.6923 18.6063L86.0918 18.679ZM91.161 13.5468L85.7615 13.4741L85.7628 13.3741L91.1623 13.4468L91.161 13.5468ZM91.0921 18.6963L85.6925 18.6236L85.7608 13.5241L91.1603 13.5968L91.0921 18.6963ZM91.0914 18.7463L91.09 18.8463L85.6905 18.7736L85.6919 18.6736L91.0914 18.7463Z" fill="#A259FF"/>
<path d="M106.16 13.7487L100.76 13.676L100.761 13.576L106.161 13.6487L106.16 13.7487ZM106.091 18.8982L100.691 18.8255L100.759 13.726L106.159 13.7987L106.091 18.8982ZM106.09 18.9482L106.089 19.0482L100.689 18.9755L100.691 18.8755L106.09 18.9482ZM111.159 13.816L105.76 13.7433L105.761 13.6433L111.161 13.716L111.159 13.816ZM111.09 18.9655L105.691 18.8928L105.759 13.7933L111.159 13.866L111.09 18.9655ZM111.09 19.0155L111.088 19.1155L105.689 19.0428L105.69 18.9428L111.09 19.0155ZM121.158 13.9506L115.759 13.8779L115.76 13.7779L121.16 13.8506L121.158 13.9506ZM121.089 19.1001L115.69 19.0275L115.758 13.9279L121.158 14.0006L121.089 19.1001ZM121.089 19.1501L121.087 19.2501L115.688 19.1774L115.689 19.0775L121.089 19.1501ZM126.158 14.0179L120.758 13.9452L120.76 13.8452L126.159 13.9179L126.158 14.0179ZM126.089 19.1674L120.689 19.0948L120.758 13.9952L126.157 14.0679L126.089 19.1674ZM126.088 19.2174L126.087 19.3174L120.687 19.2447L120.689 19.1448L126.088 19.2174ZM131.157 14.0852L125.758 14.0125L125.759 13.9125L131.159 13.9852L131.157 14.0852ZM131.088 19.2348L125.689 19.1621L125.757 14.0625L131.157 14.1352L131.088 19.2348ZM131.088 19.2847L131.086 19.3847L125.687 19.312L125.688 19.2121L131.088 19.2847ZM136.157 14.1525L130.757 14.0798L130.759 13.9798L136.158 14.0525L136.157 14.1525ZM136.088 19.3021L130.688 19.2294L130.757 14.1298L136.156 14.2025L136.088 19.3021ZM136.087 19.3521L136.086 19.452L130.686 19.3794L130.688 19.2794L136.087 19.3521ZM146.156 14.2871L140.757 14.2144L140.758 14.1144L146.157 14.1871L146.156 14.2871ZM146.087 19.4367L140.688 19.364L140.756 14.2644L146.155 14.3371L146.087 19.4367ZM146.086 19.4867L146.085 19.5867L140.686 19.514L140.687 19.414L146.086 19.4867ZM151.156 14.3544L145.756 14.2817L145.757 14.1818L151.157 14.2544L151.156 14.3544ZM151.087 19.504L145.687 19.4313L145.755 14.3317L151.155 14.4044L151.087 19.504ZM151.086 19.554L151.085 19.654L145.685 19.5813L145.686 19.4813L151.086 19.554ZM161.155 14.489L155.755 14.4164L155.756 14.3164L161.156 14.389L161.155 14.489ZM161.086 19.6386L155.686 19.5659L155.754 14.4663L161.154 14.539L161.086 19.6386ZM161.085 19.6886L161.084 19.7886L155.684 19.7159L155.686 19.6159L161.085 19.6886ZM166.154 14.5563L160.755 14.4837L160.756 14.3837L166.156 14.4564L166.154 14.5563ZM166.085 19.7059L160.686 19.6332L160.754 14.5337L166.154 14.6063L166.085 19.7059ZM166.085 19.7559L166.083 19.8559L160.684 19.7832L160.685 19.6832L166.085 19.7559ZM171.154 14.6236L165.754 14.551L165.756 14.451L171.155 14.5237L171.154 14.6236ZM171.085 19.7732L165.685 19.7005L165.754 14.601L171.153 14.6736L171.085 19.7732ZM171.084 19.8232L171.083 19.9232L165.683 19.8505L165.685 19.7505L171.084 19.8232ZM176.153 14.691L170.754 14.6183L170.755 14.5183L176.155 14.591L176.153 14.691ZM176.084 19.8405L170.685 19.7678L170.753 14.6683L176.153 14.7409L176.084 19.8405ZM176.084 19.8905L176.082 19.9905L170.683 19.9178L170.684 19.8178L176.084 19.8905ZM181.153 14.7583L175.753 14.6856L175.755 14.5856L181.154 14.6583L181.153 14.7583ZM181.084 19.9078L175.684 19.8351L175.753 14.7356L181.152 14.8083L181.084 19.9078ZM181.083 19.9578L181.082 20.0578L175.682 19.9851L175.684 19.8851L181.083 19.9578ZM186.152 14.8256L180.753 14.7529L180.754 14.6529L186.154 14.7256L186.152 14.8256ZM186.083 19.9751L180.684 19.9024L180.752 14.8029L186.152 14.8756L186.083 19.9751ZM186.083 20.0251L186.081 20.1251L180.682 20.0524L180.683 19.9524L186.083 20.0251ZM191.152 14.8929L185.752 14.8202L185.754 14.7202L191.153 14.7929L191.152 14.8929ZM191.083 20.0424L185.683 19.9697L185.752 14.8702L191.151 14.9429L191.083 20.0424ZM191.082 20.0924L191.081 20.1924L185.681 20.1197L185.683 20.0197L191.082 20.0924ZM106.079 19.7482L100.68 19.6755L100.681 19.5755L106.081 19.6482L106.079 19.7482ZM106.01 24.8977L100.611 24.825L100.679 19.7255L106.079 19.7981L106.01 24.8977ZM106.01 24.9477L106.008 25.0477L100.609 24.975L100.61 24.875L106.01 24.9477ZM111.079 19.8155L105.679 19.7428L105.681 19.6428L111.08 19.7155L111.079 19.8155ZM111.01 24.965L105.61 24.8923L105.679 19.7928L111.078 19.8655L111.01 24.965ZM111.009 25.015L111.008 25.115L105.608 25.0423L105.61 24.9423L111.009 25.015ZM126.078 20.0174L120.678 19.9447L120.679 19.8447L126.079 19.9174L126.078 20.0174ZM126.009 25.1669L120.609 25.0942L120.677 19.9947L126.077 20.0674L126.009 25.1669ZM126.008 25.2169L126.007 25.3169L120.607 25.2442L120.608 25.1442L126.008 25.2169ZM131.077 20.0847L125.678 20.012L125.679 19.912L131.078 19.9847L131.077 20.0847ZM131.008 25.2342L125.609 25.1615L125.677 20.062L131.076 20.1347L131.008 25.2342ZM131.007 25.2842L131.006 25.3842L125.607 25.3115L125.608 25.2115L131.007 25.2842ZM146.076 20.2866L140.676 20.2139L140.678 20.1139L146.077 20.1866L146.076 20.2866ZM146.007 25.4361L140.607 25.3634L140.676 20.2639L146.075 20.3366L146.007 25.4361ZM146.006 25.4861L146.005 25.5861L140.605 25.5134L140.607 25.4134L146.006 25.4861ZM151.075 20.3539L145.676 20.2812L145.677 20.1812L151.077 20.2539L151.075 20.3539ZM151.006 25.5034L145.607 25.4307L145.675 20.3312L151.075 20.4039L151.006 25.5034ZM151.006 25.5534L151.004 25.6534L145.605 25.5807L145.606 25.4807L151.006 25.5534ZM161.074 20.4885L155.675 20.4158L155.676 20.3158L161.076 20.3885L161.074 20.4885ZM161.005 25.638L155.606 25.5654L155.674 20.4658L161.074 20.5385L161.005 25.638ZM161.005 25.688L161.003 25.788L155.604 25.7153L155.605 25.6153L161.005 25.688ZM166.074 20.5558L160.674 20.4831L160.676 20.3831L166.075 20.4558L166.074 20.5558ZM166.005 25.7053L160.605 25.6327L160.674 20.5331L166.073 20.6058L166.005 25.7053ZM166.004 25.7553L166.003 25.8553L160.603 25.7826L160.605 25.6827L166.004 25.7553ZM186.072 20.825L180.673 20.7523L180.674 20.6523L186.073 20.725L186.072 20.825ZM186.003 25.9746L180.604 25.9019L180.672 20.8023L186.071 20.875L186.003 25.9746ZM186.002 26.0246L186.001 26.1245L180.602 26.0519L180.603 25.9519L186.002 26.0246ZM191.072 20.8923L185.672 20.8196L185.673 20.7196L191.073 20.7923L191.072 20.8923ZM191.003 26.0419L185.603 25.9692L185.671 20.8696L191.071 20.9423L191.003 26.0419ZM191.002 26.0919L191.001 26.1919L185.601 26.1192L185.602 26.0192L191.002 26.0919Z" fill="#1ABCFE"/>
</svg>
