<svg width="102" height="31" viewBox="0 0 102 31" fill="none" xmlns="http://www.w3.org/2000/svg">
<path d="M11.5583 0.269576L6.15877 0.196887L6.16011 0.0968962L11.5596 0.169585L11.5583 0.269576ZM11.4893 5.41911L6.08983 5.34643L6.1581 0.246883L11.5576 0.319571L11.4893 5.41911ZM11.4887 5.46911L11.4873 5.5691L6.08782 5.49641L6.08916 5.39642L11.4887 5.46911ZM16.5578 0.33688L11.1583 0.264191L11.1597 0.164201L16.5592 0.236889L16.5578 0.33688ZM16.4889 5.48642L11.0894 5.41373L11.1576 0.314187L16.5572 0.386876L16.4889 5.48642ZM16.4882 5.53641L16.4869 5.63641L11.0874 5.56372L11.0887 5.46373L16.4882 5.53641ZM21.5574 0.404184L16.1579 0.331496L16.1592 0.231505L21.5587 0.304194L21.5574 0.404184ZM21.4884 5.55372L16.0889 5.48103L16.1572 0.381491L21.5567 0.45418L21.4884 5.55372ZM21.4878 5.60372L21.4864 5.70371L16.0869 5.63102L16.0883 5.53103L21.4878 5.60372ZM26.5569 0.471489L21.1574 0.3988L21.1587 0.298809L26.5583 0.371498L26.5569 0.471489ZM26.488 5.62103L21.0885 5.54834L21.1567 0.448796L26.5563 0.521484L26.488 5.62103ZM26.4873 5.67102L26.486 5.77101L21.0865 5.69833L21.0878 5.59833L26.4873 5.67102ZM31.5565 0.538793L26.157 0.466104L26.1583 0.366114L31.5578 0.438802L31.5565 0.538793ZM31.4875 5.68833L26.088 5.61564L26.1563 0.5161L31.5558 0.588789L31.4875 5.68833ZM31.4869 5.73833L31.4855 5.83832L26.086 5.76563L26.0873 5.66564L31.4869 5.73833ZM36.556 0.606098L31.1565 0.533409L31.1578 0.433418L36.5574 0.506107L36.556 0.606098ZM36.4871 5.75564L31.0876 5.68295L31.1558 0.583404L36.5553 0.656093L36.4871 5.75564ZM36.4864 5.80563L36.4851 5.90562L31.0856 5.83293L31.0869 5.73294L36.4864 5.80563ZM51.5547 0.808011L46.1551 0.735322L46.1565 0.635331L51.556 0.70802L51.5547 0.808011ZM51.4857 5.95755L46.0862 5.88486L46.1545 0.785317L51.554 0.858006L51.4857 5.95755ZM51.485 6.00754L51.4837 6.10754L46.0842 6.03485L46.0855 5.93486L51.485 6.00754ZM56.5542 0.875315L51.1547 0.802626L51.156 0.702635L56.5555 0.775324L56.5542 0.875315ZM56.4853 6.02485L51.0857 5.95216L51.154 0.852622L56.5535 0.92531L56.4853 6.02485ZM56.4846 6.07485L56.4833 6.17484L51.0837 6.10215L51.0851 6.00216L56.4846 6.07485ZM66.5533 1.00992L61.1538 0.937235L61.1551 0.837244L66.5546 0.909933L66.5533 1.00992ZM66.4844 6.15946L61.0848 6.08677L61.1531 0.98723L66.5526 1.05992L66.4844 6.15946ZM66.4837 6.20946L66.4823 6.30945L61.0828 6.23676L61.0842 6.13677L66.4837 6.20946ZM71.5528 1.07723L66.1533 1.00454L66.1547 0.904548L71.5542 0.977237L71.5528 1.07723ZM71.4839 6.22677L66.0844 6.15408L66.1527 1.05453L71.5522 1.12722L71.4839 6.22677ZM71.4832 6.27676L71.4819 6.37675L66.0824 6.30406L66.0837 6.20407L71.4832 6.27676ZM76.5524 1.14453L71.1529 1.07184L71.1542 0.971853L76.5537 1.04454L76.5524 1.14453ZM76.4834 6.29407L71.0839 6.22138L71.1522 1.12184L76.5517 1.19453L76.4834 6.29407ZM76.4828 6.34407L76.4814 6.44406L71.0819 6.37137L71.0833 6.27138L76.4828 6.34407ZM81.5519 1.21184L76.1524 1.13915L76.1538 1.03916L81.5533 1.11185L81.5519 1.21184ZM81.483 6.36138L76.0835 6.28869L76.1518 1.18914L81.5513 1.26183L81.483 6.36138ZM81.4823 6.41137L81.481 6.51136L76.0815 6.43867L76.0828 6.33868L81.4823 6.41137ZM86.5515 1.27914L81.152 1.20645L81.1533 1.10646L86.5528 1.17915L86.5515 1.27914ZM86.4825 6.42868L81.083 6.35599L81.1513 1.25645L86.5508 1.32914L86.4825 6.42868ZM86.4819 6.47868L86.4805 6.57867L81.081 6.50598L81.0824 6.40599L86.4819 6.47868ZM91.551 1.34645L86.1515 1.27376L86.1529 1.17377L91.5524 1.24645L91.551 1.34645ZM91.4821 6.49598L86.0826 6.4233L86.1509 1.32375L91.5504 1.39644L91.4821 6.49598ZM91.4814 6.54598L91.4801 6.64597L86.0806 6.57328L86.0819 6.47329L91.4814 6.54598ZM96.5506 1.41375L91.1511 1.34106L91.1524 1.24107L96.5519 1.31376L96.5506 1.41375ZM96.4816 6.56329L91.0821 6.4906L91.1504 1.39106L96.5499 1.46375L96.4816 6.56329ZM96.481 6.61328L96.4796 6.71327L91.0801 6.64059L91.0815 6.5406L96.481 6.61328ZM101.55 1.48105L96.1506 1.40837L96.152 1.30837L101.551 1.38106L101.55 1.48105ZM101.481 6.63059L96.0817 6.5579L96.1499 1.45836L101.549 1.53105L101.481 6.63059ZM101.481 6.68059L101.479 6.78058L96.0797 6.70789L96.081 6.6079L101.481 6.68059ZM6.47841 6.20173L1.0789 6.12904L1.08024 6.02905L6.47975 6.10174L6.47841 6.20173ZM6.40947 11.3513L1.00996 11.2786L1.07823 6.17904L6.47774 6.25173L6.40947 11.3513ZM6.4088 11.4013L6.40746 11.5013L1.00795 11.4286L1.00929 11.3286L6.4088 11.4013ZM11.478 6.26904L6.07845 6.19635L6.07979 6.09636L11.4793 6.16905L11.478 6.26904ZM11.409 11.4186L6.0095 11.3459L6.07778 6.24634L11.4773 6.31903L11.409 11.4186ZM11.4083 11.4686L11.407 11.5686L6.0075 11.4959L6.00883 11.3959L11.4083 11.4686ZM51.4743 6.80747L46.0748 6.73478L46.0762 6.63479L51.4757 6.70748L51.4743 6.80747ZM51.4054 11.957L46.0059 11.8843L46.0742 6.78478L51.4737 6.85747L51.4054 11.957ZM51.4047 12.007L51.4034 12.107L46.0039 12.0343L46.0052 11.9343L51.4047 12.007ZM56.4739 6.87478L51.0744 6.80209L51.0757 6.7021L56.4752 6.77479L56.4739 6.87478ZM56.4049 12.0243L51.0054 11.9516L51.0737 6.85208L56.4732 6.92477L56.4049 12.0243ZM56.4043 12.0743L56.4029 12.1743L51.0034 12.1016L51.0048 12.0016L56.4043 12.0743ZM81.4716 7.2113L76.0721 7.13861L76.0734 7.03862L81.473 7.11131L81.4716 7.2113ZM81.4027 12.3608L76.0032 12.2881L76.0714 7.18861L81.4709 7.26129L81.4027 12.3608ZM81.402 12.4108L81.4007 12.5108L76.0012 12.4381L76.0025 12.3381L81.402 12.4108ZM86.4712 7.2786L81.0717 7.20591L81.073 7.10592L86.4725 7.17861L86.4712 7.2786ZM86.4022 12.4281L81.0027 12.3555L81.071 7.25591L86.4705 7.3286L86.4022 12.4281ZM86.4016 12.4781L86.4002 12.5781L81.0007 12.5054L81.002 12.4054L86.4016 12.4781ZM6.39809 12.2012L0.998578 12.1285L0.999916 12.0285L6.39943 12.1012L6.39809 12.2012ZM6.32915 17.3507L0.929634 17.278L0.997908 12.1785L6.39742 12.2512L6.32915 17.3507ZM6.32848 17.4007L6.32714 17.5007L0.927626 17.428L0.928965 17.328L6.32848 17.4007ZM11.3976 12.2685L5.99812 12.1958L5.99946 12.0958L11.399 12.1685L11.3976 12.2685ZM11.3287 17.418L5.92918 17.3453L5.99746 12.2458L11.397 12.3185L11.3287 17.418ZM11.328 17.468L11.3267 17.568L5.92717 17.4953L5.92851 17.3953L11.328 17.468ZM31.3958 12.5377L25.9963 12.465L25.9977 12.365L31.3972 12.4377L31.3958 12.5377ZM31.3269 17.6873L25.9274 17.6146L25.9956 12.515L31.3952 12.5877L31.3269 17.6873ZM31.3262 17.7373L31.3249 17.8372L25.9254 17.7646L25.9267 17.6646L31.3262 17.7373ZM36.3954 12.605L30.9959 12.5323L30.9972 12.4323L36.3967 12.505L36.3954 12.605ZM36.3264 17.7546L30.9269 17.6819L30.9952 12.5823L36.3947 12.655L36.3264 17.7546ZM36.3258 17.8046L36.3244 17.9045L30.9249 17.8319L30.9262 17.7319L36.3258 17.8046ZM51.394 12.8069L45.9945 12.7342L45.9958 12.6343L51.3954 12.7069L51.394 12.8069ZM51.3251 17.9565L45.9256 17.8838L45.9938 12.7842L51.3933 12.8569L51.3251 17.9565ZM51.3244 18.0065L51.3231 18.1065L45.9235 18.0338L45.9249 17.9338L51.3244 18.0065ZM56.3936 12.8742L50.994 12.8016L50.9954 12.7016L56.3949 12.7742L56.3936 12.8742ZM56.3246 18.0238L50.9251 17.9511L50.9934 12.8515L56.3929 12.9242L56.3246 18.0238ZM56.3239 18.0738L56.3226 18.1738L50.9231 18.1011L50.9244 18.0011L56.3239 18.0738ZM81.3913 13.2108L75.9918 13.1381L75.9931 13.0381L81.3926 13.1108L81.3913 13.2108ZM81.3224 18.3603L75.9228 18.2876L75.9911 13.1881L81.3906 13.2608L81.3224 18.3603ZM81.3217 18.4103L81.3203 18.5103L75.9208 18.4376L75.9222 18.3376L81.3217 18.4103ZM86.3908 13.2781L80.9913 13.2054L80.9927 13.1054L86.3922 13.1781L86.3908 13.2781ZM86.3219 18.4276L80.9224 18.3549L80.9907 13.2554L86.3902 13.3281L86.3219 18.4276ZM86.3212 18.4776L86.3199 18.5776L80.9204 18.5049L80.9217 18.4049L86.3212 18.4776ZM6.31777 18.2007L0.918255 18.128L0.919594 18.028L6.31911 18.1007L6.31777 18.2007ZM6.24882 23.3502L0.849312 23.2775L0.917586 18.178L6.3171 18.2507L6.24882 23.3502ZM6.24815 23.4002L6.24681 23.5002L0.847304 23.4275L0.848642 23.3275L6.24815 23.4002ZM11.3173 18.268L5.9178 18.1953L5.91914 18.0953L11.3187 18.168L11.3173 18.268ZM11.2484 23.4175L5.84886 23.3448L5.91713 18.2453L11.3166 18.318L11.2484 23.4175ZM11.2477 23.4675L11.2464 23.5675L5.84685 23.4948L5.84819 23.3948L11.2477 23.4675ZM36.315 18.6045L30.9155 18.5318L30.9169 18.4318L36.3164 18.5045L36.315 18.6045ZM36.2461 23.754L30.8466 23.6813L30.9149 18.5818L36.3144 18.6545L36.2461 23.754ZM36.2454 23.804L36.2441 23.904L30.8446 23.8313L30.8459 23.7313L36.2454 23.804ZM41.3146 18.6718L35.9151 18.5991L35.9164 18.4991L41.3159 18.5718L41.3146 18.6718ZM41.2457 23.8213L35.8461 23.7486L35.9144 18.6491L41.3139 18.7218L41.2457 23.8213ZM41.245 23.8713L41.2436 23.9713L35.8441 23.8986L35.8455 23.7986L41.245 23.8713ZM51.3137 18.8064L45.9142 18.7337L45.9155 18.6337L51.315 18.7064L51.3137 18.8064ZM51.2447 23.9559L45.8452 23.8832L45.9135 18.7837L51.313 18.8564L51.2447 23.9559ZM51.2441 24.0059L51.2427 24.1059L45.8432 24.0332L45.8446 23.9332L51.2441 24.0059ZM56.3132 18.8737L50.9137 18.801L50.9151 18.701L56.3146 18.7737L56.3132 18.8737ZM56.2443 24.0232L50.8448 23.9506L50.9131 18.851L56.3126 18.9237L56.2443 24.0232ZM56.2436 24.0732L56.2423 24.1732L50.8428 24.1005L50.8441 24.0005L56.2436 24.0732ZM81.311 19.2102L75.9115 19.1375L75.9128 19.0375L81.3123 19.1102L81.311 19.2102ZM81.242 24.3598L75.8425 24.2871L75.9108 19.1875L81.3103 19.2602L81.242 24.3598ZM81.2414 24.4098L81.24 24.5097L75.8405 24.4371L75.8418 24.3371L81.2414 24.4098ZM86.3105 19.2775L80.911 19.2048L80.9123 19.1048L86.3119 19.1775L86.3105 19.2775ZM86.2416 24.4271L80.8421 24.3544L80.9103 19.2548L86.3098 19.3275L86.2416 24.4271ZM86.2409 24.4771L86.2396 24.5771L80.8401 24.5044L80.8414 24.4044L86.2409 24.4771ZM11.237 24.2674L5.83748 24.1947L5.83882 24.0947L11.2383 24.1674L11.237 24.2674ZM11.168 29.417L5.76854 29.3443L5.83681 24.2447L11.2363 24.3174L11.168 29.417ZM11.1674 29.467L11.166 29.5669L5.76653 29.4943L5.76787 29.3943L11.1674 29.467ZM16.2365 24.3347L10.837 24.262L10.8384 24.162L16.2379 24.2347L16.2365 24.3347ZM16.1676 29.4843L10.7681 29.4116L10.8364 24.312L16.2359 24.3847L16.1676 29.4843ZM16.1669 29.5343L16.1656 29.6343L10.7661 29.5616L10.7674 29.4616L16.1669 29.5343ZM21.2361 24.402L15.8366 24.3293L15.8379 24.2294L21.2374 24.302L21.2361 24.402ZM21.1671 29.5516L15.7676 29.4789L15.8359 24.3793L21.2354 24.452L21.1671 29.5516ZM21.1665 29.6016L21.1651 29.7016L15.7656 29.6289L15.767 29.5289L21.1665 29.6016ZM26.2356 24.4693L20.8361 24.3966L20.8375 24.2967L26.237 24.3693L26.2356 24.4693ZM26.1667 29.6189L20.7672 29.5462L20.8355 24.4466L26.235 24.5193L26.1667 29.6189ZM26.166 29.6689L26.1647 29.7689L20.7652 29.6962L20.7665 29.5962L26.166 29.6689ZM31.2352 24.5366L25.8357 24.464L25.837 24.364L31.2365 24.4367L31.2352 24.5366ZM31.1662 29.6862L25.7667 29.6135L25.835 24.5139L31.2345 24.5866L31.1662 29.6862ZM31.1656 29.7362L31.1642 29.8362L25.7647 29.7635L25.7661 29.6635L31.1656 29.7362ZM36.2347 24.6039L30.8352 24.5313L30.8366 24.4313L36.2361 24.504L36.2347 24.6039ZM36.1658 29.7535L30.7663 29.6808L30.8345 24.5813L36.2341 24.6539L36.1658 29.7535ZM36.1651 29.8035L36.1638 29.9035L30.7643 29.8308L30.7656 29.7308L36.1651 29.8035ZM51.2334 24.8059L45.8339 24.7332L45.8352 24.6332L51.2347 24.7059L51.2334 24.8059ZM51.1644 29.9554L45.7649 29.8827L45.8332 24.7832L51.2327 24.8559L51.1644 29.9554ZM51.1638 30.0054L51.1624 30.1054L45.7629 30.0327L45.7642 29.9327L51.1638 30.0054ZM56.2329 24.8732L50.8334 24.8005L50.8347 24.7005L56.2343 24.7732L56.2329 24.8732ZM56.164 30.0227L50.7645 29.95L50.8327 24.8505L56.2322 24.9232L56.164 30.0227ZM56.1633 30.0727L56.162 30.1727L50.7625 30.1L50.7638 30L56.1633 30.0727ZM81.2306 25.2097L75.8311 25.137L75.8325 25.037L81.232 25.1097L81.2306 25.2097ZM81.1617 30.3592L75.7622 30.2865L75.8305 25.187L81.23 25.2597L81.1617 30.3592ZM81.161 30.4092L81.1597 30.5092L75.7602 30.4365L75.7615 30.3365L81.161 30.4092ZM86.2302 25.277L80.8307 25.2043L80.832 25.1043L86.2315 25.177L86.2302 25.277ZM86.1613 30.4265L80.7617 30.3538L80.83 25.2543L86.2295 25.327L86.1613 30.4265ZM86.1606 30.4765L86.1592 30.5765L80.7597 30.5038L80.7611 30.4038L86.1606 30.4765Z" fill="#FF6B00"/>
</svg>
