<svg width="176" height="32" viewBox="0 0 176 32" fill="none" xmlns="http://www.w3.org/2000/svg">
<path d="M5.93136 0.277726L0.531844 0.205038L0.533183 0.105047L5.93269 0.177735L5.93136 0.277726ZM5.86241 5.42726L0.462901 5.35458L0.531175 0.255033L5.93069 0.327722L5.86241 5.42726ZM5.86174 5.47726L5.8604 5.57725L0.460893 5.50456L0.462232 5.40457L5.86174 5.47726ZM10.9309 0.345031L5.53139 0.272342L5.53273 0.172351L10.9322 0.24504L10.9309 0.345031ZM10.862 5.49457L5.46245 5.42188L5.53072 0.322337L10.9302 0.395026L10.862 5.49457ZM10.8613 5.54456L10.86 5.64456L5.46044 5.57187L5.46178 5.47188L10.8613 5.54456ZM30.9291 0.614248L25.5296 0.541559L25.5309 0.441568L30.9304 0.514257L30.9291 0.614248ZM30.8601 5.76379L25.4606 5.6911L25.5289 0.591555L30.9284 0.664243L30.8601 5.76379ZM30.8595 5.81378L30.8581 5.91377L25.4586 5.84108L25.46 5.74109L30.8595 5.81378ZM35.9286 0.681552L30.5291 0.608864L30.5305 0.508873L35.93 0.581561L35.9286 0.681552ZM35.8597 5.83109L30.4602 5.7584L30.5285 0.658859L35.928 0.731548L35.8597 5.83109ZM35.859 5.88109L35.8577 5.98108L30.4582 5.90839L30.4595 5.8084L35.859 5.88109ZM45.9277 0.816161L40.5282 0.743472L40.5296 0.643481L45.9291 0.71617L45.9277 0.816161ZM45.8588 5.9657L40.4593 5.89301L40.5276 0.793468L45.9271 0.866156L45.8588 5.9657ZM45.8581 6.0157L45.8568 6.11569L40.4573 6.043L40.4586 5.94301L45.8581 6.0157ZM50.9273 0.883465L45.5278 0.810777L45.5291 0.710786L50.9286 0.783474L50.9273 0.883465ZM50.8583 6.033L45.4588 5.96032L45.5271 0.860772L50.9266 0.933461L50.8583 6.033ZM50.8577 6.083L50.8563 6.18299L45.4568 6.1103L45.4582 6.01031L50.8577 6.083ZM55.9268 0.95077L50.5273 0.878081L50.5287 0.77809L55.9282 0.850779L55.9268 0.95077ZM55.8579 6.10031L50.4584 6.02762L50.5266 0.928076L55.9262 1.00077L55.8579 6.10031ZM55.8572 6.1503L55.8559 6.25029L50.4564 6.17761L50.4577 6.07762L55.8572 6.1503ZM60.9264 1.01807L55.5269 0.945385L55.5282 0.845394L60.9277 0.918083L60.9264 1.01807ZM60.8574 6.16761L55.4579 6.09492L55.5262 0.995381L60.9257 1.06807L60.8574 6.16761ZM60.8568 6.21761L60.8554 6.3176L55.4559 6.24491L55.4572 6.14492L60.8568 6.21761ZM65.9259 1.08538L60.5264 1.01269L60.5277 0.912699L65.9273 0.985387L65.9259 1.08538ZM65.857 6.23492L60.4575 6.16223L60.5257 1.06269L65.9253 1.13537L65.857 6.23492ZM65.8563 6.28491L65.855 6.3849L60.4555 6.31221L60.4568 6.21222L65.8563 6.28491ZM70.9255 1.15268L65.526 1.07999L65.5273 0.980003L70.9268 1.05269L70.9255 1.15268ZM70.8565 6.30222L65.457 6.22953L65.5253 1.12999L70.9248 1.20268L70.8565 6.30222ZM70.8559 6.35222L70.8545 6.45221L65.455 6.37952L65.4563 6.27953L70.8559 6.35222ZM75.925 1.21999L70.5255 1.1473L70.5268 1.04731L75.9264 1.12L75.925 1.21999ZM75.8561 6.36953L70.4566 6.29684L70.5248 1.19729L75.9243 1.26998L75.8561 6.36953ZM75.8554 6.41952L75.8541 6.51951L70.4546 6.44682L70.4559 6.34683L75.8554 6.41952ZM80.9246 1.28729L75.525 1.2146L75.5264 1.11461L80.9259 1.1873L80.9246 1.28729ZM80.8556 6.43683L75.4561 6.36414L75.5244 1.2646L80.9239 1.33729L80.8556 6.43683ZM80.8549 6.48683L80.8536 6.58682L75.4541 6.51413L75.4554 6.41414L80.8549 6.48683ZM90.9237 1.4219L85.5241 1.34921L85.5255 1.24922L90.925 1.32191L90.9237 1.4219ZM90.8547 6.57144L85.4552 6.49875L85.5235 1.39921L90.923 1.4719L90.8547 6.57144ZM90.854 6.62143L90.8527 6.72143L85.4532 6.64874L85.4545 6.54875L90.854 6.62143ZM95.9232 1.4892L90.5237 1.41652L90.525 1.31652L95.9245 1.38921L95.9232 1.4892ZM95.8543 6.63874L90.4547 6.56605L90.523 1.46651L95.9225 1.5392L95.8543 6.63874ZM95.8536 6.68874L95.8523 6.78873L90.4527 6.71604L90.4541 6.61605L95.8536 6.68874ZM100.923 1.55651L95.5232 1.48382L95.5246 1.38383L100.924 1.45652L100.923 1.55651ZM100.854 6.70605L95.4543 6.63336L95.5226 1.53382L100.922 1.6065L100.854 6.70605ZM100.853 6.75604L100.852 6.85603L95.4523 6.78335L95.4536 6.68335L100.853 6.75604ZM125.92 1.89303L120.521 1.82034L120.522 1.72035L125.922 1.79304L125.92 1.89303ZM125.852 7.04257L120.452 6.96988L120.52 1.87034L125.92 1.94303L125.852 7.04257ZM125.851 7.09256L125.85 7.19256L120.45 7.11987L120.451 7.01988L125.851 7.09256ZM130.92 1.96033L125.521 1.88765L125.522 1.78766L130.921 1.86034L130.92 1.96033ZM130.851 7.10987L125.452 7.03718L125.52 1.93764L130.919 2.01033L130.851 7.10987ZM130.85 7.15987L130.849 7.25986L125.45 7.18717L125.451 7.08718L130.85 7.15987ZM135.92 2.02764L130.52 1.95495L130.521 1.85496L135.921 1.92765L135.92 2.02764ZM135.851 7.17718L130.451 7.10449L130.519 2.00495L135.919 2.07763L135.851 7.17718ZM135.85 7.22717L135.849 7.32716L130.449 7.25448L130.45 7.15448L135.85 7.22717ZM145.919 2.16225L140.519 2.08956L140.52 1.98957L145.92 2.06226L145.919 2.16225ZM145.85 7.31179L140.45 7.2391L140.518 2.13955L145.918 2.21224L145.85 7.31179ZM145.849 7.36178L145.848 7.46177L140.448 7.38908L140.45 7.28909L145.849 7.36178ZM150.918 2.22955L145.519 2.15686L145.52 2.05687L150.92 2.12956L150.918 2.22955ZM150.849 7.37909L145.45 7.3064L145.518 2.20686L150.918 2.27955L150.849 7.37909ZM150.849 7.42909L150.847 7.52908L145.448 7.45639L145.449 7.3564L150.849 7.42909ZM5.85103 6.27719L0.451522 6.2045L0.452861 6.10451L5.85237 6.1772L5.85103 6.27719ZM5.78209 11.4267L0.382578 11.354L0.450853 6.2545L5.85036 6.32718L5.78209 11.4267ZM5.78142 11.4767L5.78008 11.5767L0.38057 11.504L0.381909 11.404L5.78142 11.4767ZM10.8506 6.34449L5.45107 6.2718L5.45241 6.17181L10.8519 6.2445L10.8506 6.34449ZM10.7816 11.494L5.38213 11.4213L5.4504 6.3218L10.8499 6.39449L10.7816 11.494ZM10.781 11.544L10.7796 11.644L5.38012 11.5713L5.38146 11.4713L10.781 11.544ZM30.8488 6.61371L25.4493 6.54102L25.4506 6.44103L30.8501 6.51372L30.8488 6.61371ZM30.7798 11.7632L25.3803 11.6906L25.4486 6.59102L30.8481 6.66371L30.7798 11.7632ZM30.7792 11.8132L30.7778 11.9132L25.3783 11.8405L25.3796 11.7406L30.7792 11.8132ZM35.8483 6.68101L30.4488 6.60833L30.4501 6.50833L35.8497 6.58102L35.8483 6.68101ZM35.7794 11.8306L30.3799 11.7579L30.4481 6.65832L35.8476 6.73101L35.7794 11.8306ZM35.7787 11.8805L35.7774 11.9805L30.3779 11.9079L30.3792 11.8079L35.7787 11.8805ZM60.8461 7.01754L55.4465 6.94485L55.4479 6.84486L60.8474 6.91755L60.8461 7.01754ZM60.7771 12.1671L55.3776 12.0944L55.4459 6.99484L60.8454 7.06753L60.7771 12.1671ZM60.7764 12.2171L60.7751 12.3171L55.3756 12.2444L55.3769 12.1444L60.7764 12.2171ZM65.8456 7.08484L60.4461 7.01215L60.4474 6.91216L65.8469 6.98485L65.8456 7.08484ZM65.7767 12.2344L60.3771 12.1617L60.4454 7.06215L65.8449 7.13484L65.7767 12.2344ZM65.776 12.2844L65.7746 12.3844L60.3751 12.3117L60.3765 12.2117L65.776 12.2844ZM90.8433 7.42136L85.4438 7.34867L85.4452 7.24868L90.8447 7.32137L90.8433 7.42136ZM90.7744 12.5709L85.3749 12.4982L85.4432 7.39867L90.8427 7.47136L90.7744 12.5709ZM90.7737 12.6209L90.7724 12.7209L85.3729 12.6482L85.3742 12.5482L90.7737 12.6209ZM95.8429 7.48867L90.4434 7.41598L90.4447 7.31599L95.8442 7.38868L95.8429 7.48867ZM95.7739 12.6382L90.3744 12.5655L90.4427 7.46597L95.8422 7.53866L95.7739 12.6382ZM95.7733 12.6882L95.7719 12.7882L90.3724 12.7155L90.3738 12.6155L95.7733 12.6882ZM100.842 7.55597L95.4429 7.48328L95.4443 7.38329L100.844 7.45598L100.842 7.55597ZM100.773 12.7055L95.374 12.6328L95.4422 7.53328L100.842 7.60597L100.773 12.7055ZM100.773 12.7555L100.771 12.8555L95.372 12.7828L95.3733 12.6828L100.773 12.7555ZM105.842 7.62328L100.442 7.55059L100.444 7.4506L105.843 7.52328L105.842 7.62328ZM105.773 12.7728L100.374 12.7001L100.442 7.60058L105.841 7.67327L105.773 12.7728ZM105.772 12.8228L105.771 12.9228L100.372 12.8501L100.373 12.7501L105.772 12.8228ZM120.841 7.82519L115.441 7.7525L115.442 7.65251L120.842 7.7252L120.841 7.82519ZM120.772 12.9747L115.372 12.902L115.44 7.8025L120.84 7.87518L120.772 12.9747ZM120.771 13.0247L120.77 13.1247L115.37 13.052L115.371 12.952L120.771 13.0247ZM125.84 7.89249L120.441 7.8198L120.442 7.71981L125.841 7.7925L125.84 7.89249ZM125.771 13.042L120.372 12.9693L120.44 7.8698L125.839 7.94249L125.771 13.042ZM125.771 13.092L125.769 13.192L120.37 13.1193L120.371 13.0193L125.771 13.092ZM130.84 7.9598L125.44 7.88711L125.442 7.78712L130.841 7.85981L130.84 7.9598ZM130.771 13.1093L125.371 13.0366L125.44 7.9371L130.839 8.00979L130.771 13.1093ZM130.77 13.1593L130.769 13.2593L125.369 13.1866L125.371 13.0866L130.77 13.1593ZM135.839 8.0271L130.44 7.95441L130.441 7.85442L135.841 7.92711L135.839 8.0271ZM135.77 13.1766L130.371 13.104L130.439 8.00441L135.839 8.0771L135.77 13.1766ZM135.77 13.2266L135.768 13.3266L130.369 13.2539L130.37 13.1539L135.77 13.2266ZM145.838 8.16171L140.439 8.08902L140.44 7.98903L145.84 8.06172L145.838 8.16171ZM145.769 13.3112L140.37 13.2386L140.438 8.13902L145.838 8.21171L145.769 13.3112ZM145.769 13.3612L145.767 13.4612L140.368 13.3885L140.369 13.2886L145.769 13.3612ZM150.838 8.22901L145.438 8.15633L145.44 8.05633L150.839 8.12902L150.838 8.22901ZM150.769 13.3786L145.369 13.3059L145.438 8.20632L150.837 8.27901L150.769 13.3786ZM150.768 13.4285L150.767 13.5285L145.367 13.4559L145.369 13.3559L150.768 13.4285ZM5.77071 12.2767L0.371199 12.204L0.372538 12.104L5.77205 12.1767L5.77071 12.2767ZM5.70177 17.4262L0.302256 17.3535L0.37053 12.254L5.77004 12.3266L5.70177 17.4262ZM5.7011 17.4762L5.69976 17.5762L0.300248 17.5035L0.301587 17.4035L5.7011 17.4762ZM10.7703 12.344L5.37075 12.2713L5.37209 12.1713L10.7716 12.244L10.7703 12.344ZM10.7013 17.4935L5.3018 17.4208L5.37008 12.3213L10.7696 12.394L10.7013 17.4935ZM10.7006 17.5435L10.6993 17.6435L5.29979 17.5708L5.30113 17.4708L10.7006 17.5435ZM15.7698 12.4113L10.3703 12.3386L10.3716 12.2386L15.7711 12.3113L15.7698 12.4113ZM15.7009 17.5608L10.3014 17.4881L10.3696 12.3886L15.7691 12.4613L15.7009 17.5608ZM15.7002 17.6108L15.6989 17.7108L10.2993 17.6381L10.3007 17.5381L15.7002 17.6108ZM20.7694 12.4786L15.3698 12.4059L15.3712 12.3059L20.7707 12.3786L20.7694 12.4786ZM20.7004 17.6281L15.3009 17.5554L15.3692 12.4559L20.7687 12.5286L20.7004 17.6281ZM20.6997 17.6781L20.6984 17.7781L15.2989 17.7054L15.3002 17.6054L20.6997 17.6781ZM25.7689 12.5459L20.3694 12.4732L20.3707 12.3732L25.7702 12.4459L25.7689 12.5459ZM25.7 17.6954L20.3004 17.6227L20.3687 12.5232L25.7682 12.5959L25.7 17.6954ZM25.6993 17.7454L25.6979 17.8454L20.2984 17.7727L20.2998 17.6727L25.6993 17.7454ZM30.7684 12.6132L25.3689 12.5405L25.3703 12.4405L30.7698 12.5132L30.7684 12.6132ZM30.6995 17.7627L25.3 17.69L25.3683 12.5905L30.7678 12.6632L30.6995 17.7627ZM30.6988 17.8127L30.6975 17.9127L25.298 17.84L25.2993 17.74L30.6988 17.8127ZM35.768 12.6805L30.3685 12.6078L30.3698 12.5078L35.7693 12.5805L35.768 12.6805ZM35.699 17.83L30.2995 17.7573L30.3678 12.6578L35.7673 12.7305L35.699 17.83ZM35.6984 17.88L35.697 17.98L30.2975 17.9073L30.2989 17.8073L35.6984 17.88ZM60.7657 13.017L55.3662 12.9443L55.3676 12.8443L60.7671 12.917L60.7657 13.017ZM60.6968 18.1665L55.2973 18.0938L55.3655 12.9943L60.7651 13.067L60.6968 18.1665ZM60.6961 18.2165L60.6948 18.3165L55.2953 18.2438L55.2966 18.1438L60.6961 18.2165ZM65.7653 13.0843L60.3658 13.0116L60.3671 12.9116L65.7666 12.9843L65.7653 13.0843ZM65.6963 18.2338L60.2968 18.1612L60.3651 13.0616L65.7646 13.1343L65.6963 18.2338ZM65.6957 18.2838L65.6943 18.3838L60.2948 18.3111L60.2962 18.2111L65.6957 18.2838ZM90.763 13.4208L85.3635 13.3481L85.3648 13.2481L90.7643 13.3208L90.763 13.4208ZM90.6941 18.5704L85.2946 18.4977L85.3628 13.3981L90.7623 13.4708L90.6941 18.5704ZM90.6934 18.6204L90.6921 18.7203L85.2925 18.6477L85.2939 18.5477L90.6934 18.6204ZM95.7626 13.4881L90.363 13.4154L90.3644 13.3154L95.7639 13.3881L95.7626 13.4881ZM95.6936 18.6377L90.2941 18.565L90.3624 13.4654L95.7619 13.5381L95.6936 18.6377ZM95.6929 18.6877L95.6916 18.7877L90.2921 18.715L90.2934 18.615L95.6929 18.6877ZM105.762 13.6227L100.362 13.55L100.363 13.4501L105.763 13.5227L105.762 13.6227ZM105.693 18.7723L100.293 18.6996L100.361 13.6L105.761 13.6727L105.693 18.7723ZM105.692 18.8223L105.691 18.9223L100.291 18.8496L100.293 18.7496L105.692 18.8223ZM110.761 13.69L105.362 13.6174L105.363 13.5174L110.763 13.5901L110.761 13.69ZM110.692 18.8396L105.293 18.7669L105.361 13.6673L110.761 13.74L110.692 18.8396ZM110.692 18.8896L110.69 18.9896L105.291 18.9169L105.292 18.8169L110.692 18.8896ZM115.761 13.7573L110.361 13.6847L110.363 13.5847L115.762 13.6574L115.761 13.7573ZM115.692 18.9069L110.292 18.8342L110.361 13.7347L115.76 13.8073L115.692 18.9069ZM115.691 18.9569L115.69 19.0569L110.29 18.9842L110.292 18.8842L115.691 18.9569ZM120.76 13.8247L115.361 13.752L115.362 13.652L120.762 13.7247L120.76 13.8247ZM120.691 18.9742L115.292 18.9015L115.36 13.802L120.76 13.8746L120.691 18.9742ZM120.691 19.0242L120.689 19.1242L115.29 19.0515L115.291 18.9515L120.691 19.0242ZM130.759 13.9593L125.36 13.8866L125.361 13.7866L130.761 13.8593L130.759 13.9593ZM130.69 19.1088L125.291 19.0361L125.359 13.9366L130.759 14.0093L130.69 19.1088ZM130.69 19.1588L130.688 19.2588L125.289 19.1861L125.29 19.0861L130.69 19.1588ZM135.759 14.0266L130.359 13.9539L130.361 13.8539L135.76 13.9266L135.759 14.0266ZM135.69 19.1761L130.29 19.1034L130.359 14.0039L135.758 14.0766L135.69 19.1761ZM135.689 19.2261L135.688 19.3261L130.288 19.2534L130.29 19.1534L135.689 19.2261ZM145.758 14.1612L140.359 14.0885L140.36 13.9885L145.759 14.0612L145.758 14.1612ZM145.689 19.3107L140.29 19.238L140.358 14.1385L145.757 14.2112L145.689 19.3107ZM145.688 19.3607L145.687 19.4607L140.288 19.388L140.289 19.288L145.688 19.3607ZM150.758 14.2285L145.358 14.1558L145.359 14.0558L150.759 14.1285L150.758 14.2285ZM150.689 19.378L145.289 19.3053L145.357 14.2058L150.757 14.2785L150.689 19.378ZM150.688 19.428L150.687 19.528L145.287 19.4553L145.288 19.3553L150.688 19.428ZM5.69039 18.2761L0.290877 18.2034L0.292216 18.1034L5.69173 18.1761L5.69039 18.2761ZM5.62144 23.4257L0.221934 23.353L0.290208 18.2534L5.68972 18.3261L5.62144 23.4257ZM5.62078 23.4756L5.61944 23.5756L0.219925 23.5029L0.221264 23.403L5.62078 23.4756ZM10.6899 18.3434L5.29042 18.2707L5.29176 18.1707L10.6913 18.2434L10.6899 18.3434ZM10.621 23.493L5.22148 23.4203L5.28975 18.3207L10.6893 18.3934L10.621 23.493ZM10.6203 23.543L10.619 23.6429L5.21947 23.5703L5.22081 23.4703L10.6203 23.543ZM30.6881 18.6126L25.2886 18.5399L25.29 18.44L30.6895 18.5126L30.6881 18.6126ZM30.6192 23.7622L25.2197 23.6895L25.2879 18.5899L30.6875 18.6626L30.6192 23.7622ZM30.6185 23.8122L30.6172 23.9122L25.2177 23.8395L25.219 23.7395L30.6185 23.8122ZM35.6877 18.6799L30.2882 18.6073L30.2895 18.5073L35.689 18.5799L35.6877 18.6799ZM35.6187 23.8295L30.2192 23.7568L30.2875 18.6572L35.687 18.7299L35.6187 23.8295ZM35.6181 23.8795L35.6167 23.9795L30.2172 23.9068L30.2185 23.8068L35.6181 23.8795ZM60.6854 19.0165L55.2859 18.9438L55.2872 18.8438L60.6867 18.9165L60.6854 19.0165ZM60.6165 24.166L55.217 24.0933L55.2852 18.9938L60.6847 19.0665L60.6165 24.166ZM60.6158 24.216L60.6145 24.316L55.2149 24.2433L55.2163 24.1433L60.6158 24.216ZM65.685 19.0838L60.2854 19.0111L60.2868 18.9111L65.6863 18.9838L65.685 19.0838ZM65.616 24.2333L60.2165 24.1606L60.2848 19.0611L65.6843 19.1338L65.616 24.2333ZM65.6153 24.2833L65.614 24.3833L60.2145 24.3106L60.2158 24.2106L65.6153 24.2833ZM90.6827 19.4203L85.2832 19.3476L85.2845 19.2476L90.684 19.3203L90.6827 19.4203ZM90.6137 24.5698L85.2142 24.4971L85.2825 19.3976L90.682 19.4703L90.6137 24.5698ZM90.6131 24.6198L90.6117 24.7198L85.2122 24.6471L85.2136 24.5471L90.6131 24.6198ZM95.6822 19.4876L90.2827 19.4149L90.2841 19.3149L95.6836 19.3876L95.6822 19.4876ZM95.6133 24.6371L90.2138 24.5644L90.2821 19.4649L95.6816 19.5376L95.6133 24.6371ZM95.6126 24.6871L95.6113 24.7871L90.2118 24.7144L90.2131 24.6144L95.6126 24.6871ZM110.681 19.6895L105.281 19.6168L105.283 19.5168L110.682 19.5895L110.681 19.6895ZM110.612 24.839L105.212 24.7664L105.281 19.6668L110.68 19.7395L110.612 24.839ZM110.611 24.889L110.61 24.989L105.21 24.9163L105.212 24.8163L110.611 24.889ZM115.68 19.7568L110.281 19.6841L110.282 19.5841L115.682 19.6568L115.68 19.7568ZM115.611 24.9063L110.212 24.8337L110.28 19.7341L115.68 19.8068L115.611 24.9063ZM115.611 24.9563L115.609 25.0563L110.21 24.9836L110.211 24.8837L115.611 24.9563ZM130.679 19.9587L125.28 19.886L125.281 19.786L130.68 19.8587L130.679 19.9587ZM130.61 25.1083L125.211 25.0356L125.279 19.936L130.678 20.0087L130.61 25.1083ZM130.609 25.1583L130.608 25.2582L125.209 25.1856L125.21 25.0856L130.609 25.1583ZM135.679 20.026L130.279 19.9533L130.28 19.8533L135.68 19.926L135.679 20.026ZM135.61 25.1756L130.21 25.1029L130.278 20.0033L135.678 20.076L135.61 25.1756ZM135.609 25.2256L135.608 25.3256L130.208 25.2529L130.209 25.1529L135.609 25.2256ZM145.678 20.1606L140.278 20.0879L140.28 19.988L145.679 20.0606L145.678 20.1606ZM145.609 25.3102L140.209 25.2375L140.278 20.1379L145.677 20.2106L145.609 25.3102ZM145.608 25.3602L145.607 25.4602L140.207 25.3875L140.209 25.2875L145.608 25.3602ZM150.677 20.2279L145.278 20.1552L145.279 20.0553L150.679 20.1279L150.677 20.2279ZM150.608 25.3775L145.209 25.3048L145.277 20.2052L150.677 20.2779L150.608 25.3775ZM150.608 25.4275L150.606 25.5275L145.207 25.4548L145.208 25.3548L150.608 25.4275ZM5.61007 24.2756L0.210555 24.2029L0.211893 24.1029L5.6114 24.1756L5.61007 24.2756ZM5.54112 29.4251L0.141611 29.3524L0.209885 24.2529L5.6094 24.3256L5.54112 29.4251ZM5.54045 29.4751L5.53911 29.5751L0.139603 29.5024L0.140942 29.4024L5.54045 29.4751ZM10.6096 24.3429L5.2101 24.2702L5.21144 24.1702L10.611 24.2429L10.6096 24.3429ZM10.5407 29.4924L5.14116 29.4197L5.20943 24.3202L10.6089 24.3929L10.5407 29.4924ZM10.54 29.5424L10.5387 29.6424L5.13915 29.5697L5.14049 29.4697L10.54 29.5424ZM30.6078 24.6121L25.2083 24.5394L25.2096 24.4394L30.6091 24.5121L30.6078 24.6121ZM30.5389 29.7616L25.1393 29.6889L25.2076 24.5894L30.6071 24.6621L30.5389 29.7616ZM30.5382 29.8116L30.5368 29.9116L25.1373 29.8389L25.1387 29.7389L30.5382 29.8116ZM35.6073 24.6794L30.2078 24.6067L30.2092 24.5067L35.6087 24.5794L35.6073 24.6794ZM35.5384 29.8289L30.1389 29.7563L30.2072 24.6567L35.6067 24.7294L35.5384 29.8289ZM35.5377 29.8789L35.5364 29.9789L30.1369 29.9062L30.1382 29.8062L35.5377 29.8789ZM60.6051 25.0159L55.2056 24.9432L55.2069 24.8432L60.6064 24.9159L60.6051 25.0159ZM60.5361 30.1655L55.1366 30.0928L55.2049 24.9932L60.6044 25.0659L60.5361 30.1655ZM60.5355 30.2155L60.5341 30.3154L55.1346 30.2428L55.136 30.1428L60.5355 30.2155ZM65.6046 25.0832L60.2051 25.0105L60.2065 24.9105L65.606 24.9832L65.6046 25.0832ZM65.5357 30.2328L60.1362 30.1601L60.2044 25.0605L65.604 25.1332L65.5357 30.2328ZM65.535 30.2828L65.5337 30.3828L60.1342 30.3101L60.1355 30.2101L65.535 30.2828ZM90.6024 25.4197L85.2029 25.3471L85.2042 25.2471L90.6037 25.3198L90.6024 25.4197ZM90.5334 30.5693L85.1339 30.4966L85.2022 25.3971L90.6017 25.4697L90.5334 30.5693ZM90.5328 30.6193L90.5314 30.7193L85.1319 30.6466L85.1332 30.5466L90.5328 30.6193ZM95.6019 25.4871L90.2024 25.4144L90.2037 25.3144L95.6033 25.3871L95.6019 25.4871ZM95.533 30.6366L90.1335 30.5639L90.2017 25.4644L95.6012 25.537L95.533 30.6366ZM95.5323 30.6866L95.531 30.7866L90.1314 30.7139L90.1328 30.6139L95.5323 30.6866ZM130.599 25.9582L125.199 25.8855L125.201 25.7855L130.6 25.8582L130.599 25.9582ZM130.53 31.1077L125.13 31.035L125.199 25.9355L130.598 26.0082L130.53 31.1077ZM130.529 31.1577L130.528 31.2577L125.128 31.185L125.13 31.085L130.529 31.1577ZM135.598 26.0255L130.199 25.9528L130.2 25.8528L135.6 25.9255L135.598 26.0255ZM135.529 31.175L130.13 31.1023L130.198 26.0028L135.598 26.0755L135.529 31.175ZM135.529 31.225L135.527 31.325L130.128 31.2523L130.129 31.1523L135.529 31.225ZM145.597 26.1601L140.198 26.0874L140.199 25.9874L145.599 26.0601L145.597 26.1601ZM145.528 31.3096L140.129 31.2369L140.197 26.1374L145.597 26.2101L145.528 31.3096ZM145.528 31.3596L145.526 31.4596L140.127 31.3869L140.128 31.2869L145.528 31.3596ZM150.597 26.2274L145.197 26.1547L145.199 26.0547L150.598 26.1274L150.597 26.2274ZM150.528 31.3769L145.128 31.3043L145.197 26.2047L150.596 26.2774L150.528 31.3769ZM150.527 31.4269L150.526 31.5269L145.126 31.4542L145.128 31.3542L150.527 31.4269ZM155.596 26.2947L150.197 26.222L150.198 26.122L155.598 26.1947L155.596 26.2947ZM155.528 31.4442L150.128 31.3716L150.196 26.272L155.596 26.3447L155.528 31.4442ZM155.527 31.4942L155.526 31.5942L150.126 31.5215L150.127 31.4216L155.527 31.4942ZM160.596 26.362L155.197 26.2893L155.198 26.1893L160.597 26.262L160.596 26.362ZM160.527 31.5115L155.128 31.4389L155.196 26.3393L160.595 26.412L160.527 31.5115ZM160.526 31.5615L160.525 31.6615L155.126 31.5888L155.127 31.4889L160.526 31.5615ZM165.596 26.4293L160.196 26.3566L160.197 26.2566L165.597 26.3293L165.596 26.4293ZM165.527 31.5789L160.127 31.5062L160.195 26.4066L165.595 26.4793L165.527 31.5789ZM165.526 31.6288L165.525 31.7288L160.125 31.6562L160.126 31.5562L165.526 31.6288ZM170.595 26.4966L165.196 26.4239L165.197 26.3239L170.596 26.3966L170.595 26.4966ZM170.526 31.6462L165.127 31.5735L165.195 26.4739L170.594 26.5466L170.526 31.6462ZM170.526 31.6962L170.524 31.7961L165.125 31.7235L165.126 31.6235L170.526 31.6962ZM175.595 26.5639L170.195 26.4912L170.196 26.3912L175.596 26.4639L175.595 26.5639ZM175.526 31.7135L170.126 31.6408L170.194 26.5412L175.594 26.6139L175.526 31.7135ZM175.525 31.7635L175.524 31.8634L170.124 31.7908L170.126 31.6908L175.525 31.7635Z" fill="#E98611"/>
</svg>
