<svg width="207" height="49" viewBox="0 0 207 49" fill="none" xmlns="http://www.w3.org/2000/svg">
<path d="M92.7175 6.6H87.3175V6.5H92.7175V6.6ZM92.7175 11.75H87.3175V6.65H92.7175V11.75ZM92.7175 11.8V11.9H87.3175V11.8H92.7175ZM97.7175 6.6H92.3175V6.5H97.7175V6.6ZM97.7175 11.75H92.3175V6.65H97.7175V11.75ZM97.7175 11.8V11.9H92.3175V11.8H97.7175ZM112.718 6.6H107.318V6.5H112.718V6.6ZM112.718 11.75H107.318V6.65H112.718V11.75ZM112.718 11.8V11.9H107.318V11.8H112.718ZM117.718 6.6H112.318V6.5H117.718V6.6ZM117.718 11.75H112.318V6.65H117.718V11.75ZM117.718 11.8V11.9H112.318V11.8H117.718ZM122.718 6.6H117.318V6.5H122.718V6.6ZM122.718 11.75H117.318V6.65H122.718V11.75ZM122.718 11.8V11.9H117.318V11.8H122.718ZM127.718 6.6H122.318V6.5H127.718V6.6ZM127.718 11.75H122.318V6.65H127.718V11.75ZM127.718 11.8V11.9H122.318V11.8H127.718ZM132.718 6.6H127.318V6.5H132.718V6.6ZM132.718 11.75H127.318V6.65H132.718V11.75ZM132.718 11.8V11.9H127.318V11.8H132.718ZM137.718 6.6H132.318V6.5H137.718V6.6ZM137.718 11.75H132.318V6.65H137.718V11.75ZM137.718 11.8V11.9H132.318V11.8H137.718ZM92.7175 12.6H87.3175V12.5H92.7175V12.6ZM92.7175 17.75H87.3175V12.65H92.7175V17.75ZM92.7175 17.8V17.9H87.3175V17.8H92.7175ZM97.7175 12.6H92.3175V12.5H97.7175V12.6ZM97.7175 17.75H92.3175V12.65H97.7175V17.75ZM97.7175 17.8V17.9H92.3175V17.8H97.7175ZM107.718 12.6H102.318V12.5H107.718V12.6ZM107.718 17.75H102.318V12.65H107.718V17.75ZM107.718 17.8V17.9H102.318V17.8H107.718ZM112.718 12.6H107.318V12.5H112.718V12.6ZM112.718 17.75H107.318V12.65H112.718V17.75ZM112.718 17.8V17.9H107.318V17.8H112.718ZM92.7175 18.6H87.3175V18.5H92.7175V18.6ZM92.7175 23.75H87.3175V18.65H92.7175V23.75ZM92.7175 23.8V23.9H87.3175V23.8H92.7175ZM97.7175 18.6H92.3175V18.5H97.7175V18.6ZM97.7175 23.75H92.3175V18.65H97.7175V23.75ZM97.7175 23.8V23.9H92.3175V23.8H97.7175ZM112.718 18.6H107.318V18.5H112.718V18.6ZM112.718 23.75H107.318V18.65H112.718V23.75ZM112.718 23.8V23.9H107.318V23.8H112.718ZM117.718 18.6H112.318V18.5H117.718V18.6ZM117.718 23.75H112.318V18.65H117.718V23.75ZM117.718 23.8V23.9H112.318V23.8H117.718ZM122.718 18.6H117.318V18.5H122.718V18.6ZM122.718 23.75H117.318V18.65H122.718V23.75ZM122.718 23.8V23.9H117.318V23.8H122.718ZM127.718 18.6H122.318V18.5H127.718V18.6ZM127.718 23.75H122.318V18.65H127.718V23.75ZM127.718 23.8V23.9H122.318V23.8H127.718ZM132.718 18.6H127.318V18.5H132.718V18.6ZM132.718 23.75H127.318V18.65H132.718V23.75ZM132.718 23.8V23.9H127.318V23.8H132.718ZM67.7175 24.6H62.3175V24.5H67.7175V24.6ZM67.7175 29.75H62.3175V24.65H67.7175V29.75ZM67.7175 29.8V29.9H62.3175V29.8H67.7175ZM72.7175 24.6H67.3175V24.5H72.7175V24.6ZM72.7175 29.75H67.3175V24.65H72.7175V29.75ZM72.7175 29.8V29.9H67.3175V29.8H72.7175ZM92.7175 24.6H87.3175V24.5H92.7175V24.6ZM92.7175 29.75H87.3175V24.65H92.7175V29.75ZM92.7175 29.8V29.9H87.3175V29.8H92.7175ZM97.7175 24.6H92.3175V24.5H97.7175V24.6ZM97.7175 29.75H92.3175V24.65H97.7175V29.75ZM97.7175 29.8V29.9H92.3175V29.8H97.7175ZM132.718 24.6H127.318V24.5H132.718V24.6ZM132.718 29.75H127.318V24.65H132.718V29.75ZM132.718 29.8V29.9H127.318V29.8H132.718ZM137.718 24.6H132.318V24.5H137.718V24.6ZM137.718 29.75H132.318V24.65H137.718V29.75ZM137.718 29.8V29.9H132.318V29.8H137.718ZM72.7175 30.6H67.3175V30.5H72.7175V30.6ZM72.7175 35.75H67.3175V30.65H72.7175V35.75ZM72.7175 35.8V35.9H67.3175V35.8H72.7175ZM77.7175 30.6H72.3175V30.5H77.7175V30.6ZM77.7175 35.75H72.3175V30.65H77.7175V35.75ZM77.7175 35.8V35.9H72.3175V35.8H77.7175ZM82.7175 30.6H77.3175V30.5H82.7175V30.6ZM82.7175 35.75H77.3175V30.65H82.7175V35.75ZM82.7175 35.8V35.9H77.3175V35.8H82.7175ZM87.7175 30.6H82.3175V30.5H87.7175V30.6ZM87.7175 35.75H82.3175V30.65H87.7175V35.75ZM87.7175 35.8V35.9H82.3175V35.8H87.7175ZM92.7175 30.6H87.3175V30.5H92.7175V30.6ZM92.7175 35.75H87.3175V30.65H92.7175V35.75ZM92.7175 35.8V35.9H87.3175V35.8H92.7175ZM107.718 30.6H102.318V30.5H107.718V30.6ZM107.718 35.75H102.318V30.65H107.718V35.75ZM107.718 35.8V35.9H102.318V35.8H107.718ZM112.718 30.6H107.318V30.5H112.718V30.6ZM112.718 35.75H107.318V30.65H112.718V35.75ZM112.718 35.8V35.9H107.318V35.8H112.718ZM117.718 30.6H112.318V30.5H117.718V30.6ZM117.718 35.75H112.318V30.65H117.718V35.75ZM117.718 35.8V35.9H112.318V35.8H117.718ZM122.718 30.6H117.318V30.5H122.718V30.6ZM122.718 35.75H117.318V30.65H122.718V35.75ZM122.718 35.8V35.9H117.318V35.8H122.718ZM127.718 30.6H122.318V30.5H127.718V30.6ZM127.718 35.75H122.318V30.65H127.718V35.75ZM127.718 35.8V35.9H122.318V35.8H127.718ZM132.718 30.6H127.318V30.5H132.718V30.6ZM132.718 35.75H127.318V30.65H132.718V35.75ZM132.718 35.8V35.9H127.318V35.8H132.718Z" fill="#FFD600"/>
</svg>
