<svg width="409" height="48" viewBox="0 0 409 48" fill="none" xmlns="http://www.w3.org/2000/svg">
<path d="M55.368 5.48H51.048V5.4H55.368V5.48ZM55.368 9.6H51.048V5.52H55.368V9.6ZM55.368 9.64V9.72H51.048V9.64H55.368ZM59.368 5.48H55.048V5.4H59.368V5.48ZM59.368 9.6H55.048V5.52H59.368V9.6ZM59.368 9.64V9.72H55.048V9.64H59.368ZM75.368 5.48H71.048V5.4H75.368V5.48ZM75.368 9.6H71.048V5.52H75.368V9.6ZM75.368 9.64V9.72H71.048V9.64H75.368ZM79.368 5.48H75.048V5.4H79.368V5.48ZM79.368 9.6H75.048V5.52H79.368V9.6ZM79.368 9.64V9.72H75.048V9.64H79.368ZM91.368 5.48H87.048V5.4H91.368V5.48ZM91.368 9.6H87.048V5.52H91.368V9.6ZM91.368 9.64V9.72H87.048V9.64H91.368ZM95.368 5.48H91.048V5.4H95.368V5.48ZM95.368 9.6H91.048V5.52H95.368V9.6ZM95.368 9.64V9.72H91.048V9.64H95.368ZM99.368 5.48H95.048V5.4H99.368V5.48ZM99.368 9.6H95.048V5.52H99.368V9.6ZM99.368 9.64V9.72H95.048V9.64H99.368ZM103.368 5.48H99.048V5.4H103.368V5.48ZM103.368 9.6H99.048V5.52H103.368V9.6ZM103.368 9.64V9.72H99.048V9.64H103.368ZM107.368 5.48H103.048V5.4H107.368V5.48ZM107.368 9.6H103.048V5.52H107.368V9.6ZM107.368 9.64V9.72H103.048V9.64H107.368ZM119.368 5.48H115.048V5.4H119.368V5.48ZM119.368 9.6H115.048V5.52H119.368V9.6ZM119.368 9.64V9.72H115.048V9.64H119.368ZM123.368 5.48H119.048V5.4H123.368V5.48ZM123.368 9.6H119.048V5.52H123.368V9.6ZM123.368 9.64V9.72H119.048V9.64H123.368ZM127.368 5.48H123.048V5.4H127.368V5.48ZM127.368 9.6H123.048V5.52H127.368V9.6ZM127.368 9.64V9.72H123.048V9.64H127.368ZM131.368 5.48H127.048V5.4H131.368V5.48ZM131.368 9.6H127.048V5.52H131.368V9.6ZM131.368 9.64V9.72H127.048V9.64H131.368ZM135.368 5.48H131.048V5.4H135.368V5.48ZM135.368 9.6H131.048V5.52H135.368V9.6ZM135.368 9.64V9.72H131.048V9.64H135.368ZM139.368 5.48H135.048V5.4H139.368V5.48ZM139.368 9.6H135.048V5.52H139.368V9.6ZM139.368 9.64V9.72H135.048V9.64H139.368ZM151.368 5.48H147.048V5.4H151.368V5.48ZM151.368 9.6H147.048V5.52H151.368V9.6ZM151.368 9.64V9.72H147.048V9.64H151.368ZM155.368 5.48H151.048V5.4H155.368V5.48ZM155.368 9.6H151.048V5.52H155.368V9.6ZM155.368 9.64V9.72H151.048V9.64H155.368ZM163.368 5.48H159.048V5.4H163.368V5.48ZM163.368 9.6H159.048V5.52H163.368V9.6ZM163.368 9.64V9.72H159.048V9.64H163.368ZM167.368 5.48H163.048V5.4H167.368V5.48ZM167.368 9.6H163.048V5.52H167.368V9.6ZM167.368 9.64V9.72H163.048V9.64H167.368ZM171.368 5.48H167.048V5.4H171.368V5.48ZM171.368 9.6H167.048V5.52H171.368V9.6ZM171.368 9.64V9.72H167.048V9.64H171.368ZM191.368 5.48H187.048V5.4H191.368V5.48ZM191.368 9.6H187.048V5.52H191.368V9.6ZM191.368 9.64V9.72H187.048V9.64H191.368ZM195.368 5.48H191.048V5.4H195.368V5.48ZM195.368 9.6H191.048V5.52H195.368V9.6ZM195.368 9.64V9.72H191.048V9.64H195.368ZM199.368 5.48H195.048V5.4H199.368V5.48ZM199.368 9.6H195.048V5.52H199.368V9.6ZM199.368 9.64V9.72H195.048V9.64H199.368ZM55.368 10.48H51.048V10.4H55.368V10.48ZM55.368 14.6H51.048V10.52H55.368V14.6ZM55.368 14.64V14.72H51.048V14.64H55.368ZM59.368 10.48H55.048V10.4H59.368V10.48ZM59.368 14.6H55.048V10.52H59.368V14.6ZM59.368 14.64V14.72H55.048V14.64H59.368ZM71.368 10.48H67.048V10.4H71.368V10.48ZM71.368 14.6H67.048V10.52H71.368V14.6ZM71.368 14.64V14.72H67.048V14.64H71.368ZM75.368 10.48H71.048V10.4H75.368V10.48ZM75.368 14.6H71.048V10.52H75.368V14.6ZM75.368 14.64V14.72H71.048V14.64H75.368ZM87.368 10.48H83.048V10.4H87.368V10.48ZM87.368 14.6H83.048V10.52H87.368V14.6ZM87.368 14.64V14.72H83.048V14.64H87.368ZM91.368 10.48H87.048V10.4H91.368V10.48ZM91.368 14.6H87.048V10.52H91.368V14.6ZM91.368 14.64V14.72H87.048V14.64H91.368ZM107.368 10.48H103.048V10.4H107.368V10.48ZM107.368 14.6H103.048V10.52H107.368V14.6ZM107.368 14.64V14.72H103.048V14.64H107.368ZM111.368 10.48H107.048V10.4H111.368V10.48ZM111.368 14.6H107.048V10.52H111.368V14.6ZM111.368 14.64V14.72H107.048V14.64H111.368ZM119.368 10.48H115.048V10.4H119.368V10.48ZM119.368 14.6H115.048V10.52H119.368V14.6ZM119.368 14.64V14.72H115.048V14.64H119.368ZM123.368 10.48H119.048V10.4H123.368V10.48ZM123.368 14.6H119.048V10.52H123.368V14.6ZM123.368 14.64V14.72H119.048V14.64H123.368ZM139.368 10.48H135.048V10.4H139.368V10.48ZM139.368 14.6H135.048V10.52H139.368V14.6ZM139.368 14.64V14.72H135.048V14.64H139.368ZM143.368 10.48H139.048V10.4H143.368V10.48ZM143.368 14.6H139.048V10.52H143.368V14.6ZM143.368 14.64V14.72H139.048V14.64H143.368ZM151.368 10.48H147.048V10.4H151.368V10.48ZM151.368 14.6H147.048V10.52H151.368V14.6ZM151.368 14.64V14.72H147.048V14.64H151.368ZM155.368 10.48H151.048V10.4H155.368V10.48ZM155.368 14.6H151.048V10.52H155.368V14.6ZM155.368 14.64V14.72H151.048V14.64H155.368ZM163.368 10.48H159.048V10.4H163.368V10.48ZM163.368 14.6H159.048V10.52H163.368V14.6ZM163.368 14.64V14.72H159.048V14.64H163.368ZM167.368 10.48H163.048V10.4H167.368V10.48ZM167.368 14.6H163.048V10.52H167.368V14.6ZM167.368 14.64V14.72H163.048V14.64H167.368ZM171.368 10.48H167.048V10.4H171.368V10.48ZM171.368 14.6H167.048V10.52H171.368V14.6ZM171.368 14.64V14.72H167.048V14.64H171.368ZM175.368 10.48H171.048V10.4H175.368V10.48ZM175.368 14.6H171.048V10.52H175.368V14.6ZM175.368 14.64V14.72H171.048V14.64H175.368ZM187.368 10.48H183.048V10.4H187.368V10.48ZM187.368 14.6H183.048V10.52H187.368V14.6ZM187.368 14.64V14.72H183.048V14.64H187.368ZM191.368 10.48H187.048V10.4H191.368V10.48ZM191.368 14.6H187.048V10.52H191.368V14.6ZM191.368 14.64V14.72H187.048V14.64H191.368ZM195.368 10.48H191.048V10.4H195.368V10.48ZM195.368 14.6H191.048V10.52H195.368V14.6ZM195.368 14.64V14.72H191.048V14.64H195.368ZM199.368 10.48H195.048V10.4H199.368V10.48ZM199.368 14.6H195.048V10.52H199.368V14.6ZM199.368 14.64V14.72H195.048V14.64H199.368ZM55.368 15.48H51.048V15.4H55.368V15.48ZM55.368 19.6H51.048V15.52H55.368V19.6ZM55.368 19.64V19.72H51.048V19.64H55.368ZM59.368 15.48H55.048V15.4H59.368V15.48ZM59.368 19.6H55.048V15.52H59.368V19.6ZM59.368 19.64V19.72H55.048V19.64H59.368ZM63.368 15.48H59.048V15.4H63.368V15.48ZM63.368 19.6H59.048V15.52H63.368V19.6ZM63.368 19.64V19.72H59.048V19.64H63.368ZM67.368 15.48H63.048V15.4H67.368V15.48ZM67.368 19.6H63.048V15.52H67.368V19.6ZM67.368 19.64V19.72H63.048V19.64H67.368ZM71.368 15.48H67.048V15.4H71.368V15.48ZM71.368 19.6H67.048V15.52H71.368V19.6ZM71.368 19.64V19.72H67.048V19.64H71.368ZM87.368 15.48H83.048V15.4H87.368V15.48ZM87.368 19.6H83.048V15.52H87.368V19.6ZM87.368 19.64V19.72H83.048V19.64H87.368ZM91.368 15.48H87.048V15.4H91.368V15.48ZM91.368 19.6H87.048V15.52H91.368V19.6ZM91.368 19.64V19.72H87.048V19.64H91.368ZM95.368 15.48H91.048V15.4H95.368V15.48ZM95.368 19.6H91.048V15.52H95.368V19.6ZM95.368 19.64V19.72H91.048V19.64H95.368ZM99.368 15.48H95.048V15.4H99.368V15.48ZM99.368 19.6H95.048V15.52H99.368V19.6ZM99.368 19.64V19.72H95.048V19.64H99.368ZM103.368 15.48H99.048V15.4H103.368V15.48ZM103.368 19.6H99.048V15.52H103.368V19.6ZM103.368 19.64V19.72H99.048V19.64H103.368ZM107.368 15.48H103.048V15.4H107.368V15.48ZM107.368 19.6H103.048V15.52H107.368V19.6ZM107.368 19.64V19.72H103.048V19.64H107.368ZM111.368 15.48H107.048V15.4H111.368V15.48ZM111.368 19.6H107.048V15.52H111.368V19.6ZM111.368 19.64V19.72H107.048V19.64H111.368ZM119.368 15.48H115.048V15.4H119.368V15.48ZM119.368 19.6H115.048V15.52H119.368V19.6ZM119.368 19.64V19.72H115.048V19.64H119.368ZM123.368 15.48H119.048V15.4H123.368V15.48ZM123.368 19.6H119.048V15.52H123.368V19.6ZM123.368 19.64V19.72H119.048V19.64H123.368ZM127.368 15.48H123.048V15.4H127.368V15.48ZM127.368 19.6H123.048V15.52H127.368V19.6ZM127.368 19.64V19.72H123.048V19.64H127.368ZM131.368 15.48H127.048V15.4H131.368V15.48ZM131.368 19.6H127.048V15.52H131.368V19.6ZM131.368 19.64V19.72H127.048V19.64H131.368ZM135.368 15.48H131.048V15.4H135.368V15.48ZM135.368 19.6H131.048V15.52H135.368V19.6ZM135.368 19.64V19.72H131.048V19.64H135.368ZM139.368 15.48H135.048V15.4H139.368V15.48ZM139.368 19.6H135.048V15.52H139.368V19.6ZM139.368 19.64V19.72H135.048V19.64H139.368ZM151.368 15.48H147.048V15.4H151.368V15.48ZM151.368 19.6H147.048V15.52H151.368V19.6ZM151.368 19.64V19.72H147.048V19.64H151.368ZM155.368 15.48H151.048V15.4H155.368V15.48ZM155.368 19.6H151.048V15.52H155.368V19.6ZM155.368 19.64V19.72H151.048V19.64H155.368ZM163.368 15.48H159.048V15.4H163.368V15.48ZM163.368 19.6H159.048V15.52H163.368V19.6ZM163.368 19.64V19.72H159.048V19.64H163.368ZM167.368 15.48H163.048V15.4H167.368V15.48ZM167.368 19.6H163.048V15.52H167.368V19.6ZM167.368 19.64V19.72H163.048V19.64H167.368ZM175.368 15.48H171.048V15.4H175.368V15.48ZM175.368 19.6H171.048V15.52H175.368V19.6ZM175.368 19.64V19.72H171.048V19.64H175.368ZM179.368 15.48H175.048V15.4H179.368V15.48ZM179.368 19.6H175.048V15.52H179.368V19.6ZM179.368 19.64V19.72H175.048V19.64H179.368ZM183.368 15.48H179.048V15.4H183.368V15.48ZM183.368 19.6H179.048V15.52H183.368V19.6ZM183.368 19.64V19.72H179.048V19.64H183.368ZM187.368 15.48H183.048V15.4H187.368V15.48ZM187.368 19.6H183.048V15.52H187.368V19.6ZM187.368 19.64V19.72H183.048V19.64H187.368ZM195.368 15.48H191.048V15.4H195.368V15.48ZM195.368 19.6H191.048V15.52H195.368V19.6ZM195.368 19.64V19.72H191.048V19.64H195.368ZM199.368 15.48H195.048V15.4H199.368V15.48ZM199.368 19.6H195.048V15.52H199.368V19.6ZM199.368 19.64V19.72H195.048V19.64H199.368ZM55.368 20.48H51.048V20.4H55.368V20.48ZM55.368 24.6H51.048V20.52H55.368V24.6ZM55.368 24.64V24.72H51.048V24.64H55.368ZM59.368 20.48H55.048V20.4H59.368V20.48ZM59.368 24.6H55.048V20.52H59.368V24.6ZM59.368 24.64V24.72H55.048V24.64H59.368ZM71.368 20.48H67.048V20.4H71.368V20.48ZM71.368 24.6H67.048V20.52H71.368V24.6ZM71.368 24.64V24.72H67.048V24.64H71.368ZM75.368 20.48H71.048V20.4H75.368V20.48ZM75.368 24.6H71.048V20.52H75.368V24.6ZM75.368 24.64V24.72H71.048V24.64H75.368ZM87.368 20.48H83.048V20.4H87.368V20.48ZM87.368 24.6H83.048V20.52H87.368V24.6ZM87.368 24.64V24.72H83.048V24.64H87.368ZM91.368 20.48H87.048V20.4H91.368V20.48ZM91.368 24.6H87.048V20.52H91.368V24.6ZM91.368 24.64V24.72H87.048V24.64H91.368ZM107.368 20.48H103.048V20.4H107.368V20.48ZM107.368 24.6H103.048V20.52H107.368V24.6ZM107.368 24.64V24.72H103.048V24.64H107.368ZM111.368 20.48H107.048V20.4H111.368V20.48ZM111.368 24.6H107.048V20.52H111.368V24.6ZM111.368 24.64V24.72H107.048V24.64H111.368ZM119.368 20.48H115.048V20.4H119.368V20.48ZM119.368 24.6H115.048V20.52H119.368V24.6ZM119.368 24.64V24.72H115.048V24.64H119.368ZM123.368 20.48H119.048V20.4H123.368V20.48ZM123.368 24.6H119.048V20.52H123.368V24.6ZM123.368 24.64V24.72H119.048V24.64H123.368ZM139.368 20.48H135.048V20.4H139.368V20.48ZM139.368 24.6H135.048V20.52H139.368V24.6ZM139.368 24.64V24.72H135.048V24.64H139.368ZM143.368 20.48H139.048V20.4H143.368V20.48ZM143.368 24.6H139.048V20.52H143.368V24.6ZM143.368 24.64V24.72H139.048V24.64H143.368ZM151.368 20.48H147.048V20.4H151.368V20.48ZM151.368 24.6H147.048V20.52H151.368V24.6ZM151.368 24.64V24.72H147.048V24.64H151.368ZM155.368 20.48H151.048V20.4H155.368V20.48ZM155.368 24.6H151.048V20.52H155.368V24.6ZM155.368 24.64V24.72H151.048V24.64H155.368ZM163.368 20.48H159.048V20.4H163.368V20.48ZM163.368 24.6H159.048V20.52H163.368V24.6ZM163.368 24.64V24.72H159.048V24.64H163.368ZM167.368 20.48H163.048V20.4H167.368V20.48ZM167.368 24.6H163.048V20.52H167.368V24.6ZM167.368 24.64V24.72H163.048V24.64H167.368ZM179.368 20.48H175.048V20.4H179.368V20.48ZM179.368 24.6H175.048V20.52H179.368V24.6ZM179.368 24.64V24.72H175.048V24.64H179.368ZM183.368 20.48H179.048V20.4H183.368V20.48ZM183.368 24.6H179.048V20.52H183.368V24.6ZM183.368 24.64V24.72H179.048V24.64H183.368ZM195.368 20.48H191.048V20.4H195.368V20.48ZM195.368 24.6H191.048V20.52H195.368V24.6ZM195.368 24.64V24.72H191.048V24.64H195.368ZM199.368 20.48H195.048V20.4H199.368V20.48ZM199.368 24.6H195.048V20.52H199.368V24.6ZM199.368 24.64V24.72H195.048V24.64H199.368ZM55.368 25.48H51.048V25.4H55.368V25.48ZM55.368 29.6H51.048V25.52H55.368V29.6ZM55.368 29.64V29.72H51.048V29.64H55.368ZM59.368 25.48H55.048V25.4H59.368V25.48ZM59.368 29.6H55.048V25.52H59.368V29.6ZM59.368 29.64V29.72H55.048V29.64H59.368ZM75.368 25.48H71.048V25.4H75.368V25.48ZM75.368 29.6H71.048V25.52H75.368V29.6ZM75.368 29.64V29.72H71.048V29.64H75.368ZM79.368 25.48H75.048V25.4H79.368V25.48ZM79.368 29.6H75.048V25.52H79.368V29.6ZM79.368 29.64V29.72H75.048V29.64H79.368ZM87.368 25.48H83.048V25.4H87.368V25.48ZM87.368 29.6H83.048V25.52H87.368V29.6ZM87.368 29.64V29.72H83.048V29.64H87.368ZM91.368 25.48H87.048V25.4H91.368V25.48ZM91.368 29.6H87.048V25.52H91.368V29.6ZM91.368 29.64V29.72H87.048V29.64H91.368ZM107.368 25.48H103.048V25.4H107.368V25.48ZM107.368 29.6H103.048V25.52H107.368V29.6ZM107.368 29.64V29.72H103.048V29.64H107.368ZM111.368 25.48H107.048V25.4H111.368V25.48ZM111.368 29.6H107.048V25.52H111.368V29.6ZM111.368 29.64V29.72H107.048V29.64H111.368ZM119.368 25.48H115.048V25.4H119.368V25.48ZM119.368 29.6H115.048V25.52H119.368V29.6ZM119.368 29.64V29.72H115.048V29.64H119.368ZM123.368 25.48H119.048V25.4H123.368V25.48ZM123.368 29.6H119.048V25.52H123.368V29.6ZM123.368 29.64V29.72H119.048V29.64H123.368ZM139.368 25.48H135.048V25.4H139.368V25.48ZM139.368 29.6H135.048V25.52H139.368V29.6ZM139.368 29.64V29.72H135.048V29.64H139.368ZM143.368 25.48H139.048V25.4H143.368V25.48ZM143.368 29.6H139.048V25.52H143.368V29.6ZM143.368 29.64V29.72H139.048V29.64H143.368ZM151.368 25.48H147.048V25.4H151.368V25.48ZM151.368 29.6H147.048V25.52H151.368V29.6ZM151.368 29.64V29.72H147.048V29.64H151.368ZM155.368 25.48H151.048V25.4H155.368V25.48ZM155.368 29.6H151.048V25.52H155.368V29.6ZM155.368 29.64V29.72H151.048V29.64H155.368ZM163.368 25.48H159.048V25.4H163.368V25.48ZM163.368 29.6H159.048V25.52H163.368V29.6ZM163.368 29.64V29.72H159.048V29.64H163.368ZM167.368 25.48H163.048V25.4H167.368V25.48ZM167.368 29.6H163.048V25.52H167.368V29.6ZM167.368 29.64V29.72H163.048V29.64H167.368ZM195.368 25.48H191.048V25.4H195.368V25.48ZM195.368 29.6H191.048V25.52H195.368V29.6ZM195.368 29.64V29.72H191.048V29.64H195.368ZM199.368 25.48H195.048V25.4H199.368V25.48ZM199.368 29.6H195.048V25.52H199.368V29.6ZM199.368 29.64V29.72H195.048V29.64H199.368Z" fill="white"/>
<path d="M230.577 5.48H226.257V5.4H230.577V5.48ZM230.577 9.6H226.257V5.52H230.577V9.6ZM230.577 9.64V9.72H226.257V9.64H230.577ZM234.577 5.48H230.257V5.4H234.577V5.48ZM234.577 9.6H230.257V5.52H234.577V9.6ZM234.577 9.64V9.72H230.257V9.64H234.577ZM238.577 5.48H234.257V5.4H238.577V5.48ZM238.577 9.6H234.257V5.52H238.577V9.6ZM238.577 9.64V9.72H234.257V9.64H238.577ZM242.577 5.48H238.257V5.4H242.577V5.48ZM242.577 9.6H238.257V5.52H242.577V9.6ZM242.577 9.64V9.72H238.257V9.64H242.577ZM246.577 5.48H242.257V5.4H246.577V5.48ZM246.577 9.6H242.257V5.52H246.577V9.6ZM246.577 9.64V9.72H242.257V9.64H246.577ZM250.577 5.48H246.257V5.4H250.577V5.48ZM250.577 9.6H246.257V5.52H250.577V9.6ZM250.577 9.64V9.72H246.257V9.64H250.577ZM262.577 5.48H258.257V5.4H262.577V5.48ZM262.577 9.6H258.257V5.52H262.577V9.6ZM262.577 9.64V9.72H258.257V9.64H262.577ZM266.577 5.48H262.257V5.4H266.577V5.48ZM266.577 9.6H262.257V5.52H266.577V9.6ZM266.577 9.64V9.72H262.257V9.64H266.577ZM286.577 5.48H282.257V5.4H286.577V5.48ZM286.577 9.6H282.257V5.52H286.577V9.6ZM286.577 9.64V9.72H282.257V9.64H286.577ZM290.577 5.48H286.257V5.4H290.577V5.48ZM290.577 9.6H286.257V5.52H290.577V9.6ZM290.577 9.64V9.72H286.257V9.64H290.577ZM302.577 5.48H298.257V5.4H302.577V5.48ZM302.577 9.6H298.257V5.52H302.577V9.6ZM302.577 9.64V9.72H298.257V9.64H302.577ZM306.577 5.48H302.257V5.4H306.577V5.48ZM306.577 9.6H302.257V5.52H306.577V9.6ZM306.577 9.64V9.72H302.257V9.64H306.577ZM310.577 5.48H306.257V5.4H310.577V5.48ZM310.577 9.6H306.257V5.52H310.577V9.6ZM310.577 9.64V9.72H306.257V9.64H310.577ZM314.577 5.48H310.257V5.4H314.577V5.48ZM314.577 9.6H310.257V5.52H314.577V9.6ZM314.577 9.64V9.72H310.257V9.64H314.577ZM318.577 5.48H314.257V5.4H318.577V5.48ZM318.577 9.6H314.257V5.52H318.577V9.6ZM318.577 9.64V9.72H314.257V9.64H318.577ZM330.577 5.48H326.257V5.4H330.577V5.48ZM330.577 9.6H326.257V5.52H330.577V9.6ZM330.577 9.64V9.72H326.257V9.64H330.577ZM334.577 5.48H330.257V5.4H334.577V5.48ZM334.577 9.6H330.257V5.52H334.577V9.6ZM334.577 9.64V9.72H330.257V9.64H334.577ZM350.577 5.48H346.257V5.4H350.577V5.48ZM350.577 9.6H346.257V5.52H350.577V9.6ZM350.577 9.64V9.72H346.257V9.64H350.577ZM354.577 5.48H350.257V5.4H354.577V5.48ZM354.577 9.6H350.257V5.52H354.577V9.6ZM354.577 9.64V9.72H350.257V9.64H354.577ZM362.577 5.48H358.257V5.4H362.577V5.48ZM362.577 9.6H358.257V5.52H362.577V9.6ZM362.577 9.64V9.72H358.257V9.64H362.577ZM366.577 5.48H362.257V5.4H366.577V5.48ZM366.577 9.6H362.257V5.52H366.577V9.6ZM366.577 9.64V9.72H362.257V9.64H366.577ZM230.577 10.48H226.257V10.4H230.577V10.48ZM230.577 14.6H226.257V10.52H230.577V14.6ZM230.577 14.64V14.72H226.257V14.64H230.577ZM234.577 10.48H230.257V10.4H234.577V10.48ZM234.577 14.6H230.257V10.52H234.577V14.6ZM234.577 14.64V14.72H230.257V14.64H234.577ZM250.577 10.48H246.257V10.4H250.577V10.48ZM250.577 14.6H246.257V10.52H250.577V14.6ZM250.577 14.64V14.72H246.257V14.64H250.577ZM254.577 10.48H250.257V10.4H254.577V10.48ZM254.577 14.6H250.257V10.52H254.577V14.6ZM254.577 14.64V14.72H250.257V14.64H254.577ZM266.577 10.48H262.257V10.4H266.577V10.48ZM266.577 14.6H262.257V10.52H266.577V14.6ZM266.577 14.64V14.72H262.257V14.64H266.577ZM270.577 10.48H266.257V10.4H270.577V10.48ZM270.577 14.6H266.257V10.52H270.577V14.6ZM270.577 14.64V14.72H266.257V14.64H270.577ZM282.577 10.48H278.257V10.4H282.577V10.48ZM282.577 14.6H278.257V10.52H282.577V14.6ZM282.577 14.64V14.72H278.257V14.64H282.577ZM286.577 10.48H282.257V10.4H286.577V10.48ZM286.577 14.6H282.257V10.52H286.577V14.6ZM286.577 14.64V14.72H282.257V14.64H286.577ZM298.577 10.48H294.257V10.4H298.577V10.48ZM298.577 14.6H294.257V10.52H298.577V14.6ZM298.577 14.64V14.72H294.257V14.64H298.577ZM302.577 10.48H298.257V10.4H302.577V10.48ZM302.577 14.6H298.257V10.52H302.577V14.6ZM302.577 14.64V14.72H298.257V14.64H302.577ZM318.577 10.48H314.257V10.4H318.577V10.48ZM318.577 14.6H314.257V10.52H318.577V14.6ZM318.577 14.64V14.72H314.257V14.64H318.577ZM322.577 10.48H318.257V10.4H322.577V10.48ZM322.577 14.6H318.257V10.52H322.577V14.6ZM322.577 14.64V14.72H318.257V14.64H322.577ZM330.577 10.48H326.257V10.4H330.577V10.48ZM330.577 14.6H326.257V10.52H330.577V14.6ZM330.577 14.64V14.72H326.257V14.64H330.577ZM334.577 10.48H330.257V10.4H334.577V10.48ZM334.577 14.6H330.257V10.52H334.577V14.6ZM334.577 14.64V14.72H330.257V14.64H334.577ZM350.577 10.48H346.257V10.4H350.577V10.48ZM350.577 14.6H346.257V10.52H350.577V14.6ZM350.577 14.64V14.72H346.257V14.64H350.577ZM354.577 10.48H350.257V10.4H354.577V10.48ZM354.577 14.6H350.257V10.52H354.577V14.6ZM354.577 14.64V14.72H350.257V14.64H354.577ZM362.577 10.48H358.257V10.4H362.577V10.48ZM362.577 14.6H358.257V10.52H362.577V14.6ZM362.577 14.64V14.72H358.257V14.64H362.577ZM366.577 10.48H362.257V10.4H366.577V10.48ZM366.577 14.6H362.257V10.52H366.577V14.6ZM366.577 14.64V14.72H362.257V14.64H366.577ZM230.577 15.48H226.257V15.4H230.577V15.48ZM230.577 19.6H226.257V15.52H230.577V19.6ZM230.577 19.64V19.72H226.257V19.64H230.577ZM234.577 15.48H230.257V15.4H234.577V15.48ZM234.577 19.6H230.257V15.52H234.577V19.6ZM234.577 19.64V19.72H230.257V19.64H234.577ZM238.577 15.48H234.257V15.4H238.577V15.48ZM238.577 19.6H234.257V15.52H238.577V19.6ZM238.577 19.64V19.72H234.257V19.64H238.577ZM242.577 15.48H238.257V15.4H242.577V15.48ZM242.577 19.6H238.257V15.52H242.577V19.6ZM242.577 19.64V19.72H238.257V19.64H242.577ZM246.577 15.48H242.257V15.4H246.577V15.48ZM246.577 19.6H242.257V15.52H246.577V19.6ZM246.577 19.64V19.72H242.257V19.64H246.577ZM250.577 15.48H246.257V15.4H250.577V15.48ZM250.577 19.6H246.257V15.52H250.577V19.6ZM250.577 19.64V19.72H246.257V19.64H250.577ZM270.577 15.48H266.257V15.4H270.577V15.48ZM270.577 19.6H266.257V15.52H270.577V19.6ZM270.577 19.64V19.72H266.257V19.64H270.577ZM274.577 15.48H270.257V15.4H274.577V15.48ZM274.577 19.6H270.257V15.52H274.577V19.6ZM274.577 19.64V19.72H270.257V19.64H274.577ZM278.577 15.48H274.257V15.4H278.577V15.48ZM278.577 19.6H274.257V15.52H278.577V19.6ZM278.577 19.64V19.72H274.257V19.64H278.577ZM282.577 15.48H278.257V15.4H282.577V15.48ZM282.577 19.6H278.257V15.52H282.577V19.6ZM282.577 19.64V19.72H278.257V19.64H282.577ZM298.577 15.48H294.257V15.4H298.577V15.48ZM298.577 19.6H294.257V15.52H298.577V19.6ZM298.577 19.64V19.72H294.257V19.64H298.577ZM302.577 15.48H298.257V15.4H302.577V15.48ZM302.577 19.6H298.257V15.52H302.577V19.6ZM302.577 19.64V19.72H298.257V19.64H302.577ZM306.577 15.48H302.257V15.4H306.577V15.48ZM306.577 19.6H302.257V15.52H306.577V19.6ZM306.577 19.64V19.72H302.257V19.64H306.577ZM310.577 15.48H306.257V15.4H310.577V15.48ZM310.577 19.6H306.257V15.52H310.577V19.6ZM310.577 19.64V19.72H306.257V19.64H310.577ZM314.577 15.48H310.257V15.4H314.577V15.48ZM314.577 19.6H310.257V15.52H314.577V19.6ZM314.577 19.64V19.72H310.257V19.64H314.577ZM318.577 15.48H314.257V15.4H318.577V15.48ZM318.577 19.6H314.257V15.52H318.577V19.6ZM318.577 19.64V19.72H314.257V19.64H318.577ZM322.577 15.48H318.257V15.4H322.577V15.48ZM322.577 19.6H318.257V15.52H322.577V19.6ZM322.577 19.64V19.72H318.257V19.64H322.577ZM330.577 15.48H326.257V15.4H330.577V15.48ZM330.577 19.6H326.257V15.52H330.577V19.6ZM330.577 19.64V19.72H326.257V19.64H330.577ZM334.577 15.48H330.257V15.4H334.577V15.48ZM334.577 19.6H330.257V15.52H334.577V19.6ZM334.577 19.64V19.72H330.257V19.64H334.577ZM338.577 15.48H334.257V15.4H338.577V15.48ZM338.577 19.6H334.257V15.52H338.577V19.6ZM338.577 19.64V19.72H334.257V19.64H338.577ZM342.577 15.48H338.257V15.4H342.577V15.48ZM342.577 19.6H338.257V15.52H342.577V19.6ZM342.577 19.64V19.72H338.257V19.64H342.577ZM346.577 15.48H342.257V15.4H346.577V15.48ZM346.577 19.6H342.257V15.52H346.577V19.6ZM346.577 19.64V19.72H342.257V19.64H346.577ZM350.577 15.48H346.257V15.4H350.577V15.48ZM350.577 19.6H346.257V15.52H350.577V19.6ZM350.577 19.64V19.72H346.257V19.64H350.577ZM354.577 15.48H350.257V15.4H354.577V15.48ZM354.577 19.6H350.257V15.52H354.577V19.6ZM354.577 19.64V19.72H350.257V19.64H354.577ZM362.577 15.48H358.257V15.4H362.577V15.48ZM362.577 19.6H358.257V15.52H362.577V19.6ZM362.577 19.64V19.72H358.257V19.64H362.577ZM366.577 15.48H362.257V15.4H366.577V15.48ZM366.577 19.6H362.257V15.52H366.577V19.6ZM366.577 19.64V19.72H362.257V19.64H366.577ZM230.577 20.48H226.257V20.4H230.577V20.48ZM230.577 24.6H226.257V20.52H230.577V24.6ZM230.577 24.64V24.72H226.257V24.64H230.577ZM234.577 20.48H230.257V20.4H234.577V20.48ZM234.577 24.6H230.257V20.52H234.577V24.6ZM234.577 24.64V24.72H230.257V24.64H234.577ZM250.577 20.48H246.257V20.4H250.577V20.48ZM250.577 24.6H246.257V20.52H250.577V24.6ZM250.577 24.64V24.72H246.257V24.64H250.577ZM254.577 20.48H250.257V20.4H254.577V20.48ZM254.577 24.6H250.257V20.52H254.577V24.6ZM254.577 24.64V24.72H250.257V24.64H254.577ZM274.577 20.48H270.257V20.4H274.577V20.48ZM274.577 24.6H270.257V20.52H274.577V24.6ZM274.577 24.64V24.72H270.257V24.64H274.577ZM278.577 20.48H274.257V20.4H278.577V20.48ZM278.577 24.6H274.257V20.52H278.577V24.6ZM278.577 24.64V24.72H274.257V24.64H278.577ZM298.577 20.48H294.257V20.4H298.577V20.48ZM298.577 24.6H294.257V20.52H298.577V24.6ZM298.577 24.64V24.72H294.257V24.64H298.577ZM302.577 20.48H298.257V20.4H302.577V20.48ZM302.577 24.6H298.257V20.52H302.577V24.6ZM302.577 24.64V24.72H298.257V24.64H302.577ZM318.577 20.48H314.257V20.4H318.577V20.48ZM318.577 24.6H314.257V20.52H318.577V24.6ZM318.577 24.64V24.72H314.257V24.64H318.577ZM322.577 20.48H318.257V20.4H322.577V20.48ZM322.577 24.6H318.257V20.52H322.577V24.6ZM322.577 24.64V24.72H318.257V24.64H322.577ZM330.577 20.48H326.257V20.4H330.577V20.48ZM330.577 24.6H326.257V20.52H330.577V24.6ZM330.577 24.64V24.72H326.257V24.64H330.577ZM334.577 20.48H330.257V20.4H334.577V20.48ZM334.577 24.6H330.257V20.52H334.577V24.6ZM334.577 24.64V24.72H330.257V24.64H334.577ZM350.577 20.48H346.257V20.4H350.577V20.48ZM350.577 24.6H346.257V20.52H350.577V24.6ZM350.577 24.64V24.72H346.257V24.64H350.577ZM354.577 20.48H350.257V20.4H354.577V20.48ZM354.577 24.6H350.257V20.52H354.577V24.6ZM354.577 24.64V24.72H350.257V24.64H354.577ZM362.577 20.48H358.257V20.4H362.577V20.48ZM362.577 24.6H358.257V20.52H362.577V24.6ZM362.577 24.64V24.72H358.257V24.64H362.577ZM366.577 20.48H362.257V20.4H366.577V20.48ZM366.577 24.6H362.257V20.52H366.577V24.6ZM366.577 24.64V24.72H362.257V24.64H366.577ZM230.577 25.48H226.257V25.4H230.577V25.48ZM230.577 29.6H226.257V25.52H230.577V29.6ZM230.577 29.64V29.72H226.257V29.64H230.577ZM234.577 25.48H230.257V25.4H234.577V25.48ZM234.577 29.6H230.257V25.52H234.577V29.6ZM234.577 29.64V29.72H230.257V29.64H234.577ZM250.577 25.48H246.257V25.4H250.577V25.48ZM250.577 29.6H246.257V25.52H250.577V29.6ZM250.577 29.64V29.72H246.257V29.64H250.577ZM254.577 25.48H250.257V25.4H254.577V25.48ZM254.577 29.6H250.257V25.52H254.577V29.6ZM254.577 29.64V29.72H250.257V29.64H254.577ZM274.577 25.48H270.257V25.4H274.577V25.48ZM274.577 29.6H270.257V25.52H274.577V29.6ZM274.577 29.64V29.72H270.257V29.64H274.577ZM278.577 25.48H274.257V25.4H278.577V25.48ZM278.577 29.6H274.257V25.52H278.577V29.6ZM278.577 29.64V29.72H274.257V29.64H278.577ZM298.577 25.48H294.257V25.4H298.577V25.48ZM298.577 29.6H294.257V25.52H298.577V29.6ZM298.577 29.64V29.72H294.257V29.64H298.577ZM302.577 25.48H298.257V25.4H302.577V25.48ZM302.577 29.6H298.257V25.52H302.577V29.6ZM302.577 29.64V29.72H298.257V29.64H302.577ZM318.577 25.48H314.257V25.4H318.577V25.48ZM318.577 29.6H314.257V25.52H318.577V29.6ZM318.577 29.64V29.72H314.257V29.64H318.577ZM322.577 25.48H318.257V25.4H322.577V25.48ZM322.577 29.6H318.257V25.52H322.577V29.6ZM322.577 29.64V29.72H318.257V29.64H322.577ZM330.577 25.48H326.257V25.4H330.577V25.48ZM330.577 29.6H326.257V25.52H330.577V29.6ZM330.577 29.64V29.72H326.257V29.64H330.577ZM334.577 25.48H330.257V25.4H334.577V25.48ZM334.577 29.6H330.257V25.52H334.577V29.6ZM334.577 29.64V29.72H330.257V29.64H334.577ZM350.577 25.48H346.257V25.4H350.577V25.48ZM350.577 29.6H346.257V25.52H350.577V29.6ZM350.577 29.64V29.72H346.257V29.64H350.577ZM354.577 25.48H350.257V25.4H354.577V25.48ZM354.577 29.6H350.257V25.52H354.577V29.6ZM354.577 29.64V29.72H350.257V29.64H354.577ZM362.577 25.48H358.257V25.4H362.577V25.48ZM362.577 29.6H358.257V25.52H362.577V29.6ZM362.577 29.64V29.72H358.257V29.64H362.577ZM366.577 25.48H362.257V25.4H366.577V25.48ZM366.577 29.6H362.257V25.52H366.577V29.6ZM366.577 29.64V29.72H362.257V29.64H366.577Z" fill="white"/>
</svg>
