<svg width="141" height="25" viewBox="0 0 141 25" fill="none" xmlns="http://www.w3.org/2000/svg">
<path d="M4.57731 0.48H0.257313V0.4H4.57731V0.48ZM4.57731 4.6H0.257313V0.52H4.57731V4.6ZM4.57731 4.64V4.72H0.257313V4.64H4.57731ZM8.57731 0.48H4.25731V0.4H8.57731V0.48ZM8.57731 4.6H4.25731V0.52H8.57731V4.6ZM8.57731 4.64V4.72H4.25731V4.64H8.57731ZM12.5773 0.48H8.25731V0.4H12.5773V0.48ZM12.5773 4.6H8.25731V0.52H12.5773V4.6ZM12.5773 4.64V4.72H8.25731V4.64H12.5773ZM16.5773 0.48H12.2573V0.4H16.5773V0.48ZM16.5773 4.6H12.2573V0.52H16.5773V4.6ZM16.5773 4.64V4.72H12.2573V4.64H16.5773ZM20.5773 0.48H16.2573V0.4H20.5773V0.48ZM20.5773 4.6H16.2573V0.52H20.5773V4.6ZM20.5773 4.64V4.72H16.2573V4.64H20.5773ZM24.5773 0.48H20.2573V0.4H24.5773V0.48ZM24.5773 4.6H20.2573V0.52H24.5773V4.6ZM24.5773 4.64V4.72H20.2573V4.64H24.5773ZM36.5773 0.48H32.2573V0.4H36.5773V0.48ZM36.5773 4.6H32.2573V0.52H36.5773V4.6ZM36.5773 4.64V4.72H32.2573V4.64H36.5773ZM40.5773 0.48H36.2573V0.4H40.5773V0.48ZM40.5773 4.6H36.2573V0.52H40.5773V4.6ZM40.5773 4.64V4.72H36.2573V4.64H40.5773ZM60.5773 0.48H56.2573V0.4H60.5773V0.48ZM60.5773 4.6H56.2573V0.52H60.5773V4.6ZM60.5773 4.64V4.72H56.2573V4.64H60.5773ZM64.5773 0.48H60.2573V0.4H64.5773V0.48ZM64.5773 4.6H60.2573V0.52H64.5773V4.6ZM64.5773 4.64V4.72H60.2573V4.64H64.5773ZM76.5773 0.48H72.2573V0.4H76.5773V0.48ZM76.5773 4.6H72.2573V0.52H76.5773V4.6ZM76.5773 4.64V4.72H72.2573V4.64H76.5773ZM80.5773 0.48H76.2573V0.4H80.5773V0.48ZM80.5773 4.6H76.2573V0.52H80.5773V4.6ZM80.5773 4.64V4.72H76.2573V4.64H80.5773ZM84.5773 0.48H80.2573V0.4H84.5773V0.48ZM84.5773 4.6H80.2573V0.52H84.5773V4.6ZM84.5773 4.64V4.72H80.2573V4.64H84.5773ZM88.5773 0.48H84.2573V0.4H88.5773V0.48ZM88.5773 4.6H84.2573V0.52H88.5773V4.6ZM88.5773 4.64V4.72H84.2573V4.64H88.5773ZM92.5773 0.48H88.2573V0.4H92.5773V0.48ZM92.5773 4.6H88.2573V0.52H92.5773V4.6ZM92.5773 4.64V4.72H88.2573V4.64H92.5773ZM104.577 0.48H100.257V0.4H104.577V0.48ZM104.577 4.6H100.257V0.52H104.577V4.6ZM104.577 4.64V4.72H100.257V4.64H104.577ZM108.577 0.48H104.257V0.4H108.577V0.48ZM108.577 4.6H104.257V0.52H108.577V4.6ZM108.577 4.64V4.72H104.257V4.64H108.577ZM124.577 0.48H120.257V0.4H124.577V0.48ZM124.577 4.6H120.257V0.52H124.577V4.6ZM124.577 4.64V4.72H120.257V4.64H124.577ZM128.577 0.48H124.257V0.4H128.577V0.48ZM128.577 4.6H124.257V0.52H128.577V4.6ZM128.577 4.64V4.72H124.257V4.64H128.577ZM136.577 0.48H132.257V0.4H136.577V0.48ZM136.577 4.6H132.257V0.52H136.577V4.6ZM136.577 4.64V4.72H132.257V4.64H136.577ZM140.577 0.48H136.257V0.4H140.577V0.48ZM140.577 4.6H136.257V0.52H140.577V4.6ZM140.577 4.64V4.72H136.257V4.64H140.577ZM4.57731 5.48H0.257313V5.4H4.57731V5.48ZM4.57731 9.6H0.257313V5.52H4.57731V9.6ZM4.57731 9.64V9.72H0.257313V9.64H4.57731ZM8.57731 5.48H4.25731V5.4H8.57731V5.48ZM8.57731 9.6H4.25731V5.52H8.57731V9.6ZM8.57731 9.64V9.72H4.25731V9.64H8.57731ZM24.5773 5.48H20.2573V5.4H24.5773V5.48ZM24.5773 9.6H20.2573V5.52H24.5773V9.6ZM24.5773 9.64V9.72H20.2573V9.64H24.5773ZM28.5773 5.48H24.2573V5.4H28.5773V5.48ZM28.5773 9.6H24.2573V5.52H28.5773V9.6ZM28.5773 9.64V9.72H24.2573V9.64H28.5773ZM40.5773 5.48H36.2573V5.4H40.5773V5.48ZM40.5773 9.6H36.2573V5.52H40.5773V9.6ZM40.5773 9.64V9.72H36.2573V9.64H40.5773ZM44.5773 5.48H40.2573V5.4H44.5773V5.48ZM44.5773 9.6H40.2573V5.52H44.5773V9.6ZM44.5773 9.64V9.72H40.2573V9.64H44.5773ZM56.5773 5.48H52.2573V5.4H56.5773V5.48ZM56.5773 9.6H52.2573V5.52H56.5773V9.6ZM56.5773 9.64V9.72H52.2573V9.64H56.5773ZM60.5773 5.48H56.2573V5.4H60.5773V5.48ZM60.5773 9.6H56.2573V5.52H60.5773V9.6ZM60.5773 9.64V9.72H56.2573V9.64H60.5773ZM72.5773 5.48H68.2573V5.4H72.5773V5.48ZM72.5773 9.6H68.2573V5.52H72.5773V9.6ZM72.5773 9.64V9.72H68.2573V9.64H72.5773ZM76.5773 5.48H72.2573V5.4H76.5773V5.48ZM76.5773 9.6H72.2573V5.52H76.5773V9.6ZM76.5773 9.64V9.72H72.2573V9.64H76.5773ZM92.5773 5.48H88.2573V5.4H92.5773V5.48ZM92.5773 9.6H88.2573V5.52H92.5773V9.6ZM92.5773 9.64V9.72H88.2573V9.64H92.5773ZM96.5773 5.48H92.2573V5.4H96.5773V5.48ZM96.5773 9.6H92.2573V5.52H96.5773V9.6ZM96.5773 9.64V9.72H92.2573V9.64H96.5773ZM104.577 5.48H100.257V5.4H104.577V5.48ZM104.577 9.6H100.257V5.52H104.577V9.6ZM104.577 9.64V9.72H100.257V9.64H104.577ZM108.577 5.48H104.257V5.4H108.577V5.48ZM108.577 9.6H104.257V5.52H108.577V9.6ZM108.577 9.64V9.72H104.257V9.64H108.577ZM124.577 5.48H120.257V5.4H124.577V5.48ZM124.577 9.6H120.257V5.52H124.577V9.6ZM124.577 9.64V9.72H120.257V9.64H124.577ZM128.577 5.48H124.257V5.4H128.577V5.48ZM128.577 9.6H124.257V5.52H128.577V9.6ZM128.577 9.64V9.72H124.257V9.64H128.577ZM136.577 5.48H132.257V5.4H136.577V5.48ZM136.577 9.6H132.257V5.52H136.577V9.6ZM136.577 9.64V9.72H132.257V9.64H136.577ZM140.577 5.48H136.257V5.4H140.577V5.48ZM140.577 9.6H136.257V5.52H140.577V9.6ZM140.577 9.64V9.72H136.257V9.64H140.577ZM4.57731 10.48H0.257313V10.4H4.57731V10.48ZM4.57731 14.6H0.257313V10.52H4.57731V14.6ZM4.57731 14.64V14.72H0.257313V14.64H4.57731ZM8.57731 10.48H4.25731V10.4H8.57731V10.48ZM8.57731 14.6H4.25731V10.52H8.57731V14.6ZM8.57731 14.64V14.72H4.25731V14.64H8.57731ZM12.5773 10.48H8.25731V10.4H12.5773V10.48ZM12.5773 14.6H8.25731V10.52H12.5773V14.6ZM12.5773 14.64V14.72H8.25731V14.64H12.5773ZM16.5773 10.48H12.2573V10.4H16.5773V10.48ZM16.5773 14.6H12.2573V10.52H16.5773V14.6ZM16.5773 14.64V14.72H12.2573V14.64H16.5773ZM20.5773 10.48H16.2573V10.4H20.5773V10.48ZM20.5773 14.6H16.2573V10.52H20.5773V14.6ZM20.5773 14.64V14.72H16.2573V14.64H20.5773ZM24.5773 10.48H20.2573V10.4H24.5773V10.48ZM24.5773 14.6H20.2573V10.52H24.5773V14.6ZM24.5773 14.64V14.72H20.2573V14.64H24.5773ZM44.5773 10.48H40.2573V10.4H44.5773V10.48ZM44.5773 14.6H40.2573V10.52H44.5773V14.6ZM44.5773 14.64V14.72H40.2573V14.64H44.5773ZM48.5773 10.48H44.2573V10.4H48.5773V10.48ZM48.5773 14.6H44.2573V10.52H48.5773V14.6ZM48.5773 14.64V14.72H44.2573V14.64H48.5773ZM52.5773 10.48H48.2573V10.4H52.5773V10.48ZM52.5773 14.6H48.2573V10.52H52.5773V14.6ZM52.5773 14.64V14.72H48.2573V14.64H52.5773ZM56.5773 10.48H52.2573V10.4H56.5773V10.48ZM56.5773 14.6H52.2573V10.52H56.5773V14.6ZM56.5773 14.64V14.72H52.2573V14.64H56.5773ZM72.5773 10.48H68.2573V10.4H72.5773V10.48ZM72.5773 14.6H68.2573V10.52H72.5773V14.6ZM72.5773 14.64V14.72H68.2573V14.64H72.5773ZM76.5773 10.48H72.2573V10.4H76.5773V10.48ZM76.5773 14.6H72.2573V10.52H76.5773V14.6ZM76.5773 14.64V14.72H72.2573V14.64H76.5773ZM80.5773 10.48H76.2573V10.4H80.5773V10.48ZM80.5773 14.6H76.2573V10.52H80.5773V14.6ZM80.5773 14.64V14.72H76.2573V14.64H80.5773ZM84.5773 10.48H80.2573V10.4H84.5773V10.48ZM84.5773 14.6H80.2573V10.52H84.5773V14.6ZM84.5773 14.64V14.72H80.2573V14.64H84.5773ZM88.5773 10.48H84.2573V10.4H88.5773V10.48ZM88.5773 14.6H84.2573V10.52H88.5773V14.6ZM88.5773 14.64V14.72H84.2573V14.64H88.5773ZM92.5773 10.48H88.2573V10.4H92.5773V10.48ZM92.5773 14.6H88.2573V10.52H92.5773V14.6ZM92.5773 14.64V14.72H88.2573V14.64H92.5773ZM96.5773 10.48H92.2573V10.4H96.5773V10.48ZM96.5773 14.6H92.2573V10.52H96.5773V14.6ZM96.5773 14.64V14.72H92.2573V14.64H96.5773ZM104.577 10.48H100.257V10.4H104.577V10.48ZM104.577 14.6H100.257V10.52H104.577V14.6ZM104.577 14.64V14.72H100.257V14.64H104.577ZM108.577 10.48H104.257V10.4H108.577V10.48ZM108.577 14.6H104.257V10.52H108.577V14.6ZM108.577 14.64V14.72H104.257V14.64H108.577ZM112.577 10.48H108.257V10.4H112.577V10.48ZM112.577 14.6H108.257V10.52H112.577V14.6ZM112.577 14.64V14.72H108.257V14.64H112.577ZM116.577 10.48H112.257V10.4H116.577V10.48ZM116.577 14.6H112.257V10.52H116.577V14.6ZM116.577 14.64V14.72H112.257V14.64H116.577ZM120.577 10.48H116.257V10.4H120.577V10.48ZM120.577 14.6H116.257V10.52H120.577V14.6ZM120.577 14.64V14.72H116.257V14.64H120.577ZM124.577 10.48H120.257V10.4H124.577V10.48ZM124.577 14.6H120.257V10.52H124.577V14.6ZM124.577 14.64V14.72H120.257V14.64H124.577ZM128.577 10.48H124.257V10.4H128.577V10.48ZM128.577 14.6H124.257V10.52H128.577V14.6ZM128.577 14.64V14.72H124.257V14.64H128.577ZM136.577 10.48H132.257V10.4H136.577V10.48ZM136.577 14.6H132.257V10.52H136.577V14.6ZM136.577 14.64V14.72H132.257V14.64H136.577ZM140.577 10.48H136.257V10.4H140.577V10.48ZM140.577 14.6H136.257V10.52H140.577V14.6ZM140.577 14.64V14.72H136.257V14.64H140.577ZM4.57731 15.48H0.257313V15.4H4.57731V15.48ZM4.57731 19.6H0.257313V15.52H4.57731V19.6ZM4.57731 19.64V19.72H0.257313V19.64H4.57731ZM8.57731 15.48H4.25731V15.4H8.57731V15.48ZM8.57731 19.6H4.25731V15.52H8.57731V19.6ZM8.57731 19.64V19.72H4.25731V19.64H8.57731ZM24.5773 15.48H20.2573V15.4H24.5773V15.48ZM24.5773 19.6H20.2573V15.52H24.5773V19.6ZM24.5773 19.64V19.72H20.2573V19.64H24.5773ZM28.5773 15.48H24.2573V15.4H28.5773V15.48ZM28.5773 19.6H24.2573V15.52H28.5773V19.6ZM28.5773 19.64V19.72H24.2573V19.64H28.5773ZM48.5773 15.48H44.2573V15.4H48.5773V15.48ZM48.5773 19.6H44.2573V15.52H48.5773V19.6ZM48.5773 19.64V19.72H44.2573V19.64H48.5773ZM52.5773 15.48H48.2573V15.4H52.5773V15.48ZM52.5773 19.6H48.2573V15.52H52.5773V19.6ZM52.5773 19.64V19.72H48.2573V19.64H52.5773ZM72.5773 15.48H68.2573V15.4H72.5773V15.48ZM72.5773 19.6H68.2573V15.52H72.5773V19.6ZM72.5773 19.64V19.72H68.2573V19.64H72.5773ZM76.5773 15.48H72.2573V15.4H76.5773V15.48ZM76.5773 19.6H72.2573V15.52H76.5773V19.6ZM76.5773 19.64V19.72H72.2573V19.64H76.5773ZM92.5773 15.48H88.2573V15.4H92.5773V15.48ZM92.5773 19.6H88.2573V15.52H92.5773V19.6ZM92.5773 19.64V19.72H88.2573V19.64H92.5773ZM96.5773 15.48H92.2573V15.4H96.5773V15.48ZM96.5773 19.6H92.2573V15.52H96.5773V19.6ZM96.5773 19.64V19.72H92.2573V19.64H96.5773ZM104.577 15.48H100.257V15.4H104.577V15.48ZM104.577 19.6H100.257V15.52H104.577V19.6ZM104.577 19.64V19.72H100.257V19.64H104.577ZM108.577 15.48H104.257V15.4H108.577V15.48ZM108.577 19.6H104.257V15.52H108.577V19.6ZM108.577 19.64V19.72H104.257V19.64H108.577ZM124.577 15.48H120.257V15.4H124.577V15.48ZM124.577 19.6H120.257V15.52H124.577V19.6ZM124.577 19.64V19.72H120.257V19.64H124.577ZM128.577 15.48H124.257V15.4H128.577V15.48ZM128.577 19.6H124.257V15.52H128.577V19.6ZM128.577 19.64V19.72H124.257V19.64H128.577ZM136.577 15.48H132.257V15.4H136.577V15.48ZM136.577 19.6H132.257V15.52H136.577V19.6ZM136.577 19.64V19.72H132.257V19.64H136.577ZM140.577 15.48H136.257V15.4H140.577V15.48ZM140.577 19.6H136.257V15.52H140.577V19.6ZM140.577 19.64V19.72H136.257V19.64H140.577ZM4.57731 20.48H0.257313V20.4H4.57731V20.48ZM4.57731 24.6H0.257313V20.52H4.57731V24.6ZM4.57731 24.64V24.72H0.257313V24.64H4.57731ZM8.57731 20.48H4.25731V20.4H8.57731V20.48ZM8.57731 24.6H4.25731V20.52H8.57731V24.6ZM8.57731 24.64V24.72H4.25731V24.64H8.57731ZM24.5773 20.48H20.2573V20.4H24.5773V20.48ZM24.5773 24.6H20.2573V20.52H24.5773V24.6ZM24.5773 24.64V24.72H20.2573V24.64H24.5773ZM28.5773 20.48H24.2573V20.4H28.5773V20.48ZM28.5773 24.6H24.2573V20.52H28.5773V24.6ZM28.5773 24.64V24.72H24.2573V24.64H28.5773ZM48.5773 20.48H44.2573V20.4H48.5773V20.48ZM48.5773 24.6H44.2573V20.52H48.5773V24.6ZM48.5773 24.64V24.72H44.2573V24.64H48.5773ZM52.5773 20.48H48.2573V20.4H52.5773V20.48ZM52.5773 24.6H48.2573V20.52H52.5773V24.6ZM52.5773 24.64V24.72H48.2573V24.64H52.5773ZM72.5773 20.48H68.2573V20.4H72.5773V20.48ZM72.5773 24.6H68.2573V20.52H72.5773V24.6ZM72.5773 24.64V24.72H68.2573V24.64H72.5773ZM76.5773 20.48H72.2573V20.4H76.5773V20.48ZM76.5773 24.6H72.2573V20.52H76.5773V24.6ZM76.5773 24.64V24.72H72.2573V24.64H76.5773ZM92.5773 20.48H88.2573V20.4H92.5773V20.48ZM92.5773 24.6H88.2573V20.52H92.5773V24.6ZM92.5773 24.64V24.72H88.2573V24.64H92.5773ZM96.5773 20.48H92.2573V20.4H96.5773V20.48ZM96.5773 24.6H92.2573V20.52H96.5773V24.6ZM96.5773 24.64V24.72H92.2573V24.64H96.5773ZM104.577 20.48H100.257V20.4H104.577V20.48ZM104.577 24.6H100.257V20.52H104.577V24.6ZM104.577 24.64V24.72H100.257V24.64H104.577ZM108.577 20.48H104.257V20.4H108.577V20.48ZM108.577 24.6H104.257V20.52H108.577V24.6ZM108.577 24.64V24.72H104.257V24.64H108.577ZM124.577 20.48H120.257V20.4H124.577V20.48ZM124.577 24.6H120.257V20.52H124.577V24.6ZM124.577 24.64V24.72H120.257V24.64H124.577ZM128.577 20.48H124.257V20.4H128.577V20.48ZM128.577 24.6H124.257V20.52H128.577V24.6ZM128.577 24.64V24.72H124.257V24.64H128.577ZM136.577 20.48H132.257V20.4H136.577V20.48ZM136.577 24.6H132.257V20.52H136.577V24.6ZM136.577 24.64V24.72H132.257V24.64H136.577ZM140.577 20.48H136.257V20.4H140.577V20.48ZM140.577 24.6H136.257V20.52H140.577V24.6ZM140.577 24.64V24.72H136.257V24.64H140.577Z" fill="white"/>
</svg>
