<svg width="321" height="30" viewBox="0 0 321 30" fill="none" xmlns="http://www.w3.org/2000/svg">
    <path
        d="M5.55059 0.6H0.150586V0.5H5.55059V0.6ZM5.55059 5.75H0.150586V0.65H5.55059V5.75ZM5.55059 5.8V5.9H0.150586V5.8H5.55059ZM10.5506 0.6H5.15059V0.5H10.5506V0.6ZM10.5506 5.75H5.15059V0.65H10.5506V5.75ZM10.5506 5.8V5.9H5.15059V5.8H10.5506ZM15.5506 0.6H10.1506V0.5H15.5506V0.6ZM15.5506 5.75H10.1506V0.65H15.5506V5.75ZM15.5506 5.8V5.9H10.1506V5.8H15.5506ZM40.5506 0.6H35.1506V0.5H40.5506V0.6ZM40.5506 5.75H35.1506V0.65H40.5506V5.75ZM40.5506 5.8V5.9H35.1506V5.8H40.5506ZM45.5506 0.6H40.1506V0.5H45.5506V0.6ZM45.5506 5.75H40.1506V0.65H45.5506V5.75ZM45.5506 5.8V5.9H40.1506V5.8H45.5506ZM50.5506 0.6H45.1506V0.5H50.5506V0.6ZM50.5506 5.75H45.1506V0.65H50.5506V5.75ZM50.5506 5.8V5.9H45.1506V5.8H50.5506ZM60.5506 0.6H55.1506V0.5H60.5506V0.6ZM60.5506 5.75H55.1506V0.65H60.5506V5.75ZM60.5506 5.8V5.9H55.1506V5.8H60.5506ZM65.5506 0.6H60.1506V0.5H65.5506V0.6ZM65.5506 5.75H60.1506V0.65H65.5506V5.75ZM65.5506 5.8V5.9H60.1506V5.8H65.5506ZM90.5506 0.6H85.1506V0.5H90.5506V0.6ZM90.5506 5.75H85.1506V0.65H90.5506V5.75ZM90.5506 5.8V5.9H85.1506V5.8H90.5506ZM95.5506 0.6H90.1506V0.5H95.5506V0.6ZM95.5506 5.75H90.1506V0.65H95.5506V5.75ZM95.5506 5.8V5.9H90.1506V5.8H95.5506ZM120.551 0.6H115.151V0.5H120.551V0.6ZM120.551 5.75H115.151V0.65H120.551V5.75ZM120.551 5.8V5.9H115.151V5.8H120.551ZM125.551 0.6H120.151V0.5H125.551V0.6ZM125.551 5.75H120.151V0.65H125.551V5.75ZM125.551 5.8V5.9H120.151V5.8H125.551ZM130.551 0.6H125.151V0.5H130.551V0.6ZM130.551 5.75H125.151V0.65H130.551V5.75ZM130.551 5.8V5.9H125.151V5.8H130.551ZM135.551 0.6H130.151V0.5H135.551V0.6ZM135.551 5.75H130.151V0.65H135.551V5.75ZM135.551 5.8V5.9H130.151V5.8H135.551ZM140.551 0.6H135.151V0.5H140.551V0.6ZM140.551 5.75H135.151V0.65H140.551V5.75ZM140.551 5.8V5.9H135.151V5.8H140.551ZM145.551 0.6H140.151V0.5H145.551V0.6ZM145.551 5.75H140.151V0.65H145.551V5.75ZM145.551 5.8V5.9H140.151V5.8H145.551ZM155.551 0.6H150.151V0.5H155.551V0.6ZM155.551 5.75H150.151V0.65H155.551V5.75ZM155.551 5.8V5.9H150.151V5.8H155.551ZM160.551 0.6H155.151V0.5H160.551V0.6ZM160.551 5.75H155.151V0.65H160.551V5.75ZM160.551 5.8V5.9H155.151V5.8H160.551ZM180.551 0.6H175.151V0.5H180.551V0.6ZM180.551 5.75H175.151V0.65H180.551V5.75ZM180.551 5.8V5.9H175.151V5.8H180.551ZM185.551 0.6H180.151V0.5H185.551V0.6ZM185.551 5.75H180.151V0.65H185.551V5.75ZM185.551 5.8V5.9H180.151V5.8H185.551ZM195.551 0.6H190.151V0.5H195.551V0.6ZM195.551 5.75H190.151V0.65H195.551V5.75ZM195.551 5.8V5.9H190.151V5.8H195.551ZM200.551 0.6H195.151V0.5H200.551V0.6ZM200.551 5.75H195.151V0.65H200.551V5.75ZM200.551 5.8V5.9H195.151V5.8H200.551ZM210.551 0.6H205.151V0.5H210.551V0.6ZM210.551 5.75H205.151V0.65H210.551V5.75ZM210.551 5.8V5.9H205.151V5.8H210.551ZM215.551 0.6H210.151V0.5H215.551V0.6ZM215.551 5.75H210.151V0.65H215.551V5.75ZM215.551 5.8V5.9H210.151V5.8H215.551ZM250.551 0.6H245.151V0.5H250.551V0.6ZM250.551 5.75H245.151V0.65H250.551V5.75ZM250.551 5.8V5.9H245.151V5.8H250.551ZM255.551 0.6H250.151V0.5H255.551V0.6ZM255.551 5.75H250.151V0.65H255.551V5.75ZM255.551 5.8V5.9H250.151V5.8H255.551ZM295.551 0.6H290.151V0.5H295.551V0.6ZM295.551 5.75H290.151V0.65H295.551V5.75ZM295.551 5.8V5.9H290.151V5.8H295.551ZM300.551 0.6H295.151V0.5H300.551V0.6ZM300.551 5.75H295.151V0.65H300.551V5.75ZM300.551 5.8V5.9H295.151V5.8H300.551ZM305.551 0.6H300.151V0.5H305.551V0.6ZM305.551 5.75H300.151V0.65H305.551V5.75ZM305.551 5.8V5.9H300.151V5.8H305.551ZM310.551 0.6H305.151V0.5H310.551V0.6ZM310.551 5.75H305.151V0.65H310.551V5.75ZM310.551 5.8V5.9H305.151V5.8H310.551ZM315.551 0.6H310.151V0.5H315.551V0.6ZM315.551 5.75H310.151V0.65H315.551V5.75ZM315.551 5.8V5.9H310.151V5.8H315.551ZM320.551 0.6H315.151V0.5H320.551V0.6ZM320.551 5.75H315.151V0.65H320.551V5.75ZM320.551 5.8V5.9H315.151V5.8H320.551ZM5.55059 6.6H0.150586V6.5H5.55059V6.6ZM5.55059 11.75H0.150586V6.65H5.55059V11.75ZM5.55059 11.8V11.9H0.150586V11.8H5.55059ZM10.5506 6.6H5.15059V6.5H10.5506V6.6ZM10.5506 11.75H5.15059V6.65H10.5506V11.75ZM10.5506 11.8V11.9H5.15059V11.8H10.5506ZM15.5506 6.6H10.1506V6.5H15.5506V6.6ZM15.5506 11.75H10.1506V6.65H15.5506V11.75ZM15.5506 11.8V11.9H10.1506V11.8H15.5506ZM20.5506 6.6H15.1506V6.5H20.5506V6.6ZM20.5506 11.75H15.1506V6.65H20.5506V11.75ZM20.5506 11.8V11.9H15.1506V11.8H20.5506ZM35.5506 6.6H30.1506V6.5H35.5506V6.6ZM35.5506 11.75H30.1506V6.65H35.5506V11.75ZM35.5506 11.8V11.9H30.1506V11.8H35.5506ZM40.5506 6.6H35.1506V6.5H40.5506V6.6ZM40.5506 11.75H35.1506V6.65H40.5506V11.75ZM40.5506 11.8V11.9H35.1506V11.8H40.5506ZM45.5506 6.6H40.1506V6.5H45.5506V6.6ZM45.5506 11.75H40.1506V6.65H45.5506V11.75ZM45.5506 11.8V11.9H40.1506V11.8H45.5506ZM50.5506 6.6H45.1506V6.5H50.5506V6.6ZM50.5506 11.75H45.1506V6.65H50.5506V11.75ZM50.5506 11.8V11.9H45.1506V11.8H50.5506ZM65.5506 6.6H60.1506V6.5H65.5506V6.6ZM65.5506 11.75H60.1506V6.65H65.5506V11.75ZM65.5506 11.8V11.9H60.1506V11.8H65.5506ZM70.5506 6.6H65.1506V6.5H70.5506V6.6ZM70.5506 11.75H65.1506V6.65H70.5506V11.75ZM70.5506 11.8V11.9H65.1506V11.8H70.5506ZM85.5506 6.6H80.1506V6.5H85.5506V6.6ZM85.5506 11.75H80.1506V6.65H85.5506V11.75ZM85.5506 11.8V11.9H80.1506V11.8H85.5506ZM90.5506 6.6H85.1506V6.5H90.5506V6.6ZM90.5506 11.75H85.1506V6.65H90.5506V11.75ZM90.5506 11.8V11.9H85.1506V11.8H90.5506ZM115.551 6.6H110.151V6.5H115.551V6.6ZM115.551 11.75H110.151V6.65H115.551V11.75ZM115.551 11.8V11.9H110.151V11.8H115.551ZM120.551 6.6H115.151V6.5H120.551V6.6ZM120.551 11.75H115.151V6.65H120.551V11.75ZM120.551 11.8V11.9H115.151V11.8H120.551ZM155.551 6.6H150.151V6.5H155.551V6.6ZM155.551 11.75H150.151V6.65H155.551V11.75ZM155.551 11.8V11.9H150.151V11.8H155.551ZM160.551 6.6H155.151V6.5H160.551V6.6ZM160.551 11.75H155.151V6.65H160.551V11.75ZM160.551 11.8V11.9H155.151V11.8H160.551ZM175.551 6.6H170.151V6.5H175.551V6.6ZM175.551 11.75H170.151V6.65H175.551V11.75ZM175.551 11.8V11.9H170.151V11.8H175.551ZM180.551 6.6H175.151V6.5H180.551V6.6ZM180.551 11.75H175.151V6.65H180.551V11.75ZM180.551 11.8V11.9H175.151V11.8H180.551ZM195.551 6.6H190.151V6.5H195.551V6.6ZM195.551 11.75H190.151V6.65H195.551V11.75ZM195.551 11.8V11.9H190.151V11.8H195.551ZM200.551 6.6H195.151V6.5H200.551V6.6ZM200.551 11.75H195.151V6.65H200.551V11.75ZM200.551 11.8V11.9H195.151V11.8H200.551ZM210.551 6.6H205.151V6.5H210.551V6.6ZM210.551 11.75H205.151V6.65H210.551V11.75ZM210.551 11.8V11.9H205.151V11.8H210.551ZM215.551 6.6H210.151V6.5H215.551V6.6ZM215.551 11.75H210.151V6.65H215.551V11.75ZM215.551 11.8V11.9H210.151V11.8H215.551ZM250.551 6.6H245.151V6.5H250.551V6.6ZM250.551 11.75H245.151V6.65H250.551V11.75ZM250.551 11.8V11.9H245.151V11.8H250.551ZM255.551 6.6H250.151V6.5H255.551V6.6ZM255.551 11.75H250.151V6.65H255.551V11.75ZM255.551 11.8V11.9H250.151V11.8H255.551ZM290.551 6.6H285.151V6.5H290.551V6.6ZM290.551 11.75H285.151V6.65H290.551V11.75ZM290.551 11.8V11.9H285.151V11.8H290.551ZM295.551 6.6H290.151V6.5H295.551V6.6ZM295.551 11.75H290.151V6.65H295.551V11.75ZM295.551 11.8V11.9H290.151V11.8H295.551ZM5.55059 12.6H0.150586V12.5H5.55059V12.6ZM5.55059 17.75H0.150586V12.65H5.55059V17.75ZM5.55059 17.8V17.9H0.150586V17.8H5.55059ZM10.5506 12.6H5.15059V12.5H10.5506V12.6ZM10.5506 17.75H5.15059V12.65H10.5506V17.75ZM10.5506 17.8V17.9H5.15059V17.8H10.5506ZM20.5506 12.6H15.1506V12.5H20.5506V12.6ZM20.5506 17.75H15.1506V12.65H20.5506V17.75ZM20.5506 17.8V17.9H15.1506V17.8H20.5506ZM25.5506 12.6H20.1506V12.5H25.5506V12.6ZM25.5506 17.75H20.1506V12.65H25.5506V17.75ZM25.5506 17.8V17.9H20.1506V17.8H25.5506ZM30.5506 12.6H25.1506V12.5H30.5506V12.6ZM30.5506 17.75H25.1506V12.65H30.5506V17.75ZM30.5506 17.8V17.9H25.1506V17.8H30.5506ZM35.5506 12.6H30.1506V12.5H35.5506V12.6ZM35.5506 17.75H30.1506V12.65H35.5506V17.75ZM35.5506 17.8V17.9H30.1506V17.8H35.5506ZM45.5506 12.6H40.1506V12.5H45.5506V12.6ZM45.5506 17.75H40.1506V12.65H45.5506V17.75ZM45.5506 17.8V17.9H40.1506V17.8H45.5506ZM50.5506 12.6H45.1506V12.5H50.5506V12.6ZM50.5506 17.75H45.1506V12.65H50.5506V17.75ZM50.5506 17.8V17.9H45.1506V17.8H50.5506ZM70.5506 12.6H65.1506V12.5H70.5506V12.6ZM70.5506 17.75H65.1506V12.65H70.5506V17.75ZM70.5506 17.8V17.9H65.1506V17.8H70.5506ZM75.5506 12.6H70.1506V12.5H75.5506V12.6ZM75.5506 17.75H70.1506V12.65H75.5506V17.75ZM75.5506 17.8V17.9H70.1506V17.8H75.5506ZM80.5506 12.6H75.1506V12.5H80.5506V12.6ZM80.5506 17.75H75.1506V12.65H80.5506V17.75ZM80.5506 17.8V17.9H75.1506V17.8H80.5506ZM85.5506 12.6H80.1506V12.5H85.5506V12.6ZM85.5506 17.75H80.1506V12.65H85.5506V17.75ZM85.5506 17.8V17.9H80.1506V17.8H85.5506ZM120.551 12.6H115.151V12.5H120.551V12.6ZM120.551 17.75H115.151V12.65H120.551V17.75ZM120.551 17.8V17.9H115.151V17.8H120.551ZM125.551 12.6H120.151V12.5H125.551V12.6ZM125.551 17.75H120.151V12.65H125.551V17.75ZM125.551 17.8V17.9H120.151V17.8H125.551ZM130.551 12.6H125.151V12.5H130.551V12.6ZM130.551 17.75H125.151V12.65H130.551V17.75ZM130.551 17.8V17.9H125.151V17.8H130.551ZM135.551 12.6H130.151V12.5H135.551V12.6ZM135.551 17.75H130.151V12.65H135.551V17.75ZM135.551 17.8V17.9H130.151V17.8H135.551ZM140.551 12.6H135.151V12.5H140.551V12.6ZM140.551 17.75H135.151V12.65H140.551V17.75ZM140.551 17.8V17.9H135.151V17.8H140.551ZM155.551 12.6H150.151V12.5H155.551V12.6ZM155.551 17.75H150.151V12.65H155.551V17.75ZM155.551 17.8V17.9H150.151V17.8H155.551ZM160.551 12.6H155.151V12.5H160.551V12.6ZM160.551 17.75H155.151V12.65H160.551V17.75ZM160.551 17.8V17.9H155.151V17.8H160.551ZM165.551 12.6H160.151V12.5H165.551V12.6ZM165.551 17.75H160.151V12.65H165.551V17.75ZM165.551 17.8V17.9H160.151V17.8H165.551ZM170.551 12.6H165.151V12.5H170.551V12.6ZM170.551 17.75H165.151V12.65H170.551V17.75ZM170.551 17.8V17.9H165.151V17.8H170.551ZM175.551 12.6H170.151V12.5H175.551V12.6ZM175.551 17.75H170.151V12.65H175.551V17.75ZM175.551 17.8V17.9H170.151V17.8H175.551ZM195.551 12.6H190.151V12.5H195.551V12.6ZM195.551 17.75H190.151V12.65H195.551V17.75ZM195.551 17.8V17.9H190.151V17.8H195.551ZM200.551 12.6H195.151V12.5H200.551V12.6ZM200.551 17.75H195.151V12.65H200.551V17.75ZM200.551 17.8V17.9H195.151V17.8H200.551ZM210.551 12.6H205.151V12.5H210.551V12.6ZM210.551 17.75H205.151V12.65H210.551V17.75ZM210.551 17.8V17.9H205.151V17.8H210.551ZM215.551 12.6H210.151V12.5H215.551V12.6ZM215.551 17.75H210.151V12.65H215.551V17.75ZM215.551 17.8V17.9H210.151V17.8H215.551ZM250.551 12.6H245.151V12.5H250.551V12.6ZM250.551 17.75H245.151V12.65H250.551V17.75ZM250.551 17.8V17.9H245.151V17.8H250.551ZM255.551 12.6H250.151V12.5H255.551V12.6ZM255.551 17.75H250.151V12.65H255.551V17.75ZM255.551 17.8V17.9H250.151V17.8H255.551ZM295.551 12.6H290.151V12.5H295.551V12.6ZM295.551 17.75H290.151V12.65H295.551V17.75ZM295.551 17.8V17.9H290.151V17.8H295.551ZM300.551 12.6H295.151V12.5H300.551V12.6ZM300.551 17.75H295.151V12.65H300.551V17.75ZM300.551 17.8V17.9H295.151V17.8H300.551ZM305.551 12.6H300.151V12.5H305.551V12.6ZM305.551 17.75H300.151V12.65H305.551V17.75ZM305.551 17.8V17.9H300.151V17.8H305.551ZM310.551 12.6H305.151V12.5H310.551V12.6ZM310.551 17.75H305.151V12.65H310.551V17.75ZM310.551 17.8V17.9H305.151V17.8H310.551ZM315.551 12.6H310.151V12.5H315.551V12.6ZM315.551 17.75H310.151V12.65H315.551V17.75ZM315.551 17.8V17.9H310.151V17.8H315.551ZM5.55059 18.6H0.150586V18.5H5.55059V18.6ZM5.55059 23.75H0.150586V18.65H5.55059V23.75ZM5.55059 23.8V23.9H0.150586V23.8H5.55059ZM10.5506 18.6H5.15059V18.5H10.5506V18.6ZM10.5506 23.75H5.15059V18.65H10.5506V23.75ZM10.5506 23.8V23.9H5.15059V23.8H10.5506ZM25.5506 18.6H20.1506V18.5H25.5506V18.6ZM25.5506 23.75H20.1506V18.65H25.5506V23.75ZM25.5506 23.8V23.9H20.1506V23.8H25.5506ZM30.5506 18.6H25.1506V18.5H30.5506V18.6ZM30.5506 23.75H25.1506V18.65H30.5506V23.75ZM30.5506 23.8V23.9H25.1506V23.8H30.5506ZM45.5506 18.6H40.1506V18.5H45.5506V18.6ZM45.5506 23.75H40.1506V18.65H45.5506V23.75ZM45.5506 23.8V23.9H40.1506V23.8H45.5506ZM50.5506 18.6H45.1506V18.5H50.5506V18.6ZM50.5506 23.75H45.1506V18.65H50.5506V23.75ZM50.5506 23.8V23.9H45.1506V23.8H50.5506ZM75.5506 18.6H70.1506V18.5H75.5506V18.6ZM75.5506 23.75H70.1506V18.65H75.5506V23.75ZM75.5506 23.8V23.9H70.1506V23.8H75.5506ZM80.5506 18.6H75.1506V18.5H80.5506V18.6ZM80.5506 23.75H75.1506V18.65H80.5506V23.75ZM80.5506 23.8V23.9H75.1506V23.8H80.5506ZM140.551 18.6H135.151V18.5H140.551V18.6ZM140.551 23.75H135.151V18.65H140.551V23.75ZM140.551 23.8V23.9H135.151V23.8H140.551ZM145.551 18.6H140.151V18.5H145.551V18.6ZM145.551 23.75H140.151V18.65H145.551V23.75ZM145.551 23.8V23.9H140.151V23.8H145.551ZM155.551 18.6H150.151V18.5H155.551V18.6ZM155.551 23.75H150.151V18.65H155.551V23.75ZM155.551 23.8V23.9H150.151V23.8H155.551ZM160.551 18.6H155.151V18.5H160.551V18.6ZM160.551 23.75H155.151V18.65H160.551V23.75ZM160.551 23.8V23.9H155.151V23.8H160.551ZM175.551 18.6H170.151V18.5H175.551V18.6ZM175.551 23.75H170.151V18.65H175.551V23.75ZM175.551 23.8V23.9H170.151V23.8H175.551ZM180.551 18.6H175.151V18.5H180.551V18.6ZM180.551 23.75H175.151V18.65H180.551V23.75ZM180.551 23.8V23.9H175.151V23.8H180.551ZM195.551 18.6H190.151V18.5H195.551V18.6ZM195.551 23.75H190.151V18.65H195.551V23.75ZM195.551 23.8V23.9H190.151V23.8H195.551ZM200.551 18.6H195.151V18.5H200.551V18.6ZM200.551 23.75H195.151V18.65H200.551V23.75ZM200.551 23.8V23.9H195.151V23.8H200.551ZM210.551 18.6H205.151V18.5H210.551V18.6ZM210.551 23.75H205.151V18.65H210.551V23.75ZM210.551 23.8V23.9H205.151V23.8H210.551ZM215.551 18.6H210.151V18.5H215.551V18.6ZM215.551 23.75H210.151V18.65H215.551V23.75ZM215.551 23.8V23.9H210.151V23.8H215.551ZM250.551 18.6H245.151V18.5H250.551V18.6ZM250.551 23.75H245.151V18.65H250.551V23.75ZM250.551 23.8V23.9H245.151V23.8H250.551ZM255.551 18.6H250.151V18.5H255.551V18.6ZM255.551 23.75H250.151V18.65H255.551V23.75ZM255.551 23.8V23.9H250.151V23.8H255.551ZM315.551 18.6H310.151V18.5H315.551V18.6ZM315.551 23.75H310.151V18.65H315.551V23.75ZM315.551 23.8V23.9H310.151V23.8H315.551ZM320.551 18.6H315.151V18.5H320.551V18.6ZM320.551 23.75H315.151V18.65H320.551V23.75ZM320.551 23.8V23.9H315.151V23.8H320.551ZM5.55059 24.6H0.150586V24.5H5.55059V24.6ZM5.55059 29.75H0.150586V24.65H5.55059V29.75ZM5.55059 29.8V29.9H0.150586V29.8H5.55059ZM10.5506 24.6H5.15059V24.5H10.5506V24.6ZM10.5506 29.75H5.15059V24.65H10.5506V29.75ZM10.5506 29.8V29.9H5.15059V29.8H10.5506ZM45.5506 24.6H40.1506V24.5H45.5506V24.6ZM45.5506 29.75H40.1506V24.65H45.5506V29.75ZM45.5506 29.8V29.9H40.1506V29.8H45.5506ZM50.5506 24.6H45.1506V24.5H50.5506V24.6ZM50.5506 29.75H45.1506V24.65H50.5506V29.75ZM50.5506 29.8V29.9H45.1506V29.8H50.5506ZM75.5506 24.6H70.1506V24.5H75.5506V24.6ZM75.5506 29.75H70.1506V24.65H75.5506V29.75ZM75.5506 29.8V29.9H70.1506V29.8H75.5506ZM80.5506 24.6H75.1506V24.5H80.5506V24.6ZM80.5506 29.75H75.1506V24.65H80.5506V29.75ZM80.5506 29.8V29.9H75.1506V29.8H80.5506ZM115.551 24.6H110.151V24.5H115.551V24.6ZM115.551 29.75H110.151V24.65H115.551V29.75ZM115.551 29.8V29.9H110.151V29.8H115.551ZM120.551 24.6H115.151V24.5H120.551V24.6ZM120.551 29.75H115.151V24.65H120.551V29.75ZM120.551 29.8V29.9H115.151V29.8H120.551ZM125.551 24.6H120.151V24.5H125.551V24.6ZM125.551 29.75H120.151V24.65H125.551V29.75ZM125.551 29.8V29.9H120.151V29.8H125.551ZM130.551 24.6H125.151V24.5H130.551V24.6ZM130.551 29.75H125.151V24.65H130.551V29.75ZM130.551 29.8V29.9H125.151V29.8H130.551ZM135.551 24.6H130.151V24.5H135.551V24.6ZM135.551 29.75H130.151V24.65H135.551V29.75ZM135.551 29.8V29.9H130.151V29.8H135.551ZM140.551 24.6H135.151V24.5H140.551V24.6ZM140.551 29.75H135.151V24.65H140.551V29.75ZM140.551 29.8V29.9H135.151V29.8H140.551ZM155.551 24.6H150.151V24.5H155.551V24.6ZM155.551 29.75H150.151V24.65H155.551V29.75ZM155.551 29.8V29.9H150.151V29.8H155.551ZM160.551 24.6H155.151V24.5H160.551V24.6ZM160.551 29.75H155.151V24.65H160.551V29.75ZM160.551 29.8V29.9H155.151V29.8H160.551ZM180.551 24.6H175.151V24.5H180.551V24.6ZM180.551 29.75H175.151V24.65H180.551V29.75ZM180.551 29.8V29.9H175.151V29.8H180.551ZM185.551 24.6H180.151V24.5H185.551V24.6ZM185.551 29.75H180.151V24.65H185.551V29.75ZM185.551 29.8V29.9H180.151V29.8H185.551ZM195.551 24.6H190.151V24.5H195.551V24.6ZM195.551 29.75H190.151V24.65H195.551V29.75ZM195.551 29.8V29.9H190.151V29.8H195.551ZM200.551 24.6H195.151V24.5H200.551V24.6ZM200.551 29.75H195.151V24.65H200.551V29.75ZM200.551 29.8V29.9H195.151V29.8H200.551ZM210.551 24.6H205.151V24.5H210.551V24.6ZM210.551 29.75H205.151V24.65H210.551V29.75ZM210.551 29.8V29.9H205.151V29.8H210.551ZM215.551 24.6H210.151V24.5H215.551V24.6ZM215.551 29.75H210.151V24.65H215.551V29.75ZM215.551 29.8V29.9H210.151V29.8H215.551ZM220.551 24.6H215.151V24.5H220.551V24.6ZM220.551 29.75H215.151V24.65H220.551V29.75ZM220.551 29.8V29.9H215.151V29.8H220.551ZM225.551 24.6H220.151V24.5H225.551V24.6ZM225.551 29.75H220.151V24.65H225.551V29.75ZM225.551 29.8V29.9H220.151V29.8H225.551ZM230.551 24.6H225.151V24.5H230.551V24.6ZM230.551 29.75H225.151V24.65H230.551V29.75ZM230.551 29.8V29.9H225.151V29.8H230.551ZM235.551 24.6H230.151V24.5H235.551V24.6ZM235.551 29.75H230.151V24.65H235.551V29.75ZM235.551 29.8V29.9H230.151V29.8H235.551ZM240.551 24.6H235.151V24.5H240.551V24.6ZM240.551 29.75H235.151V24.65H240.551V29.75ZM240.551 29.8V29.9H235.151V29.8H240.551ZM250.551 24.6H245.151V24.5H250.551V24.6ZM250.551 29.75H245.151V24.65H250.551V29.75ZM250.551 29.8V29.9H245.151V29.8H250.551ZM255.551 24.6H250.151V24.5H255.551V24.6ZM255.551 29.75H250.151V24.65H255.551V29.75ZM255.551 29.8V29.9H250.151V29.8H255.551ZM260.551 24.6H255.151V24.5H260.551V24.6ZM260.551 29.75H255.151V24.65H260.551V29.75ZM260.551 29.8V29.9H255.151V29.8H260.551ZM265.551 24.6H260.151V24.5H265.551V24.6ZM265.551 29.75H260.151V24.65H265.551V29.75ZM265.551 29.8V29.9H260.151V29.8H265.551ZM270.551 24.6H265.151V24.5H270.551V24.6ZM270.551 29.75H265.151V24.65H270.551V29.75ZM270.551 29.8V29.9H265.151V29.8H270.551ZM275.551 24.6H270.151V24.5H275.551V24.6ZM275.551 29.75H270.151V24.65H275.551V29.75ZM275.551 29.8V29.9H270.151V29.8H275.551ZM280.551 24.6H275.151V24.5H280.551V24.6ZM280.551 29.75H275.151V24.65H280.551V29.75ZM280.551 29.8V29.9H275.151V29.8H280.551ZM290.551 24.6H285.151V24.5H290.551V24.6ZM290.551 29.75H285.151V24.65H290.551V29.75ZM290.551 29.8V29.9H285.151V29.8H290.551ZM295.551 24.6H290.151V24.5H295.551V24.6ZM295.551 29.75H290.151V24.65H295.551V29.75ZM295.551 29.8V29.9H290.151V29.8H295.551ZM300.551 24.6H295.151V24.5H300.551V24.6ZM300.551 29.75H295.151V24.65H300.551V29.75ZM300.551 29.8V29.9H295.151V29.8H300.551ZM305.551 24.6H300.151V24.5H305.551V24.6ZM305.551 29.75H300.151V24.65H305.551V29.75ZM305.551 29.8V29.9H300.151V29.8H305.551ZM310.551 24.6H305.151V24.5H310.551V24.6ZM310.551 29.75H305.151V24.65H310.551V29.75ZM310.551 29.8V29.9H305.151V29.8H310.551ZM315.551 24.6H310.151V24.5H315.551V24.6ZM315.551 29.75H310.151V24.65H315.551V29.75ZM315.551 29.8V29.9H310.151V29.8H315.551Z"
        fill="url(#paint0_radial_82_24)" />
    <defs>
        <radialGradient id="paint0_radial_82_24" cx="0" cy="0" r="1" gradientUnits="userSpaceOnUse"
            gradientTransform="translate(162.252 -22.5) rotate(90) scale(58.5 455.464)">
            <stop offset="0.953125" stop-color="#FF0000" />
            <stop offset="1" stop-color="#FF0000" stop-opacity="0" />
        </radialGradient>
    </defs>
</svg>