<svg width="222" height="34" viewBox="0 0 222 34" fill="none" xmlns="http://www.w3.org/2000/svg">
<path d="M6.72128 1.04559L1.32177 0.972897L1.32311 0.872906L6.72262 0.945595L6.72128 1.04559ZM6.65234 6.19512L1.25283 6.12244L1.3211 1.02289L6.72061 1.09558L6.65234 6.19512ZM6.65167 6.24512L6.65033 6.34511L1.25082 6.27242L1.25216 6.17243L6.65167 6.24512ZM11.7208 1.11289L6.32132 1.0402L6.32266 0.94021L11.7222 1.0129L11.7208 1.11289ZM11.6519 6.26243L6.25238 6.18974L6.32065 1.0902L11.7202 1.16289L11.6519 6.26243ZM11.6512 6.31242L11.6499 6.41242L6.25037 6.33973L6.25171 6.23974L11.6512 6.31242ZM16.7204 1.18019L11.3209 1.10751L11.3222 1.00751L16.7217 1.0802L16.7204 1.18019ZM16.6514 6.32973L11.2519 6.25704L11.3202 1.1575L16.7197 1.23019L16.6514 6.32973ZM16.6508 6.37973L16.6494 6.47972L11.2499 6.40703L11.2513 6.30704L16.6508 6.37973ZM41.7181 1.51672L36.3186 1.44403L36.3199 1.34404L41.7195 1.41673L41.7181 1.51672ZM41.6492 6.66625L36.2497 6.59357L36.3179 1.49402L41.7174 1.56671L41.6492 6.66625ZM41.6485 6.71625L41.6472 6.81624L36.2476 6.74355L36.249 6.64356L41.6485 6.71625ZM46.7177 1.58402L41.3181 1.51133L41.3195 1.41134L46.719 1.48403L46.7177 1.58402ZM46.6487 6.73356L41.2492 6.66087L41.3175 1.56133L46.717 1.63402L46.6487 6.73356ZM46.648 6.78355L46.6467 6.88355L41.2472 6.81086L41.2485 6.71087L46.648 6.78355ZM51.7172 1.65132L46.3177 1.57864L46.319 1.47865L51.7185 1.55133L51.7172 1.65132ZM51.6483 6.80086L46.2488 6.72817L46.317 1.62863L51.7165 1.70132L51.6483 6.80086ZM51.6476 6.85086L51.6463 6.95085L46.2467 6.87816L46.2481 6.77817L51.6476 6.85086ZM61.7163 1.78593L56.3168 1.71324L56.3181 1.61325L61.7176 1.68594L61.7163 1.78593ZM61.6474 6.93547L56.2478 6.86278L56.3161 1.76324L61.7156 1.83593L61.6474 6.93547ZM61.6467 6.98547L61.6453 7.08546L56.2458 7.01277L56.2472 6.91278L61.6467 6.98547ZM66.7158 1.85324L61.3163 1.78055L61.3177 1.68056L66.7172 1.75325L66.7158 1.85324ZM66.6469 7.00278L61.2474 6.93009L61.3157 1.83054L66.7152 1.90323L66.6469 7.00278ZM66.6462 7.05277L66.6449 7.15276L61.2454 7.08007L61.2467 6.98008L66.6462 7.05277ZM91.7136 2.18976L86.3141 2.11707L86.3154 2.01708L91.7149 2.08977L91.7136 2.18976ZM91.6446 7.3393L86.2451 7.26661L86.3134 2.16707L91.7129 2.23976L91.6446 7.3393ZM91.644 7.38929L91.6426 7.48928L86.2431 7.4166L86.2445 7.31661L91.644 7.38929ZM96.7131 2.25706L91.3136 2.18438L91.315 2.08438L96.7145 2.15707L96.7131 2.25706ZM96.6442 7.4066L91.2447 7.33391L91.3129 2.23437L96.7125 2.30706L96.6442 7.4066ZM96.6435 7.4566L96.6422 7.55659L91.2427 7.4839L91.244 7.38391L96.6435 7.4566ZM111.712 2.45898L106.312 2.38629L106.314 2.2863L111.713 2.35899L111.712 2.45898ZM111.643 7.60852L106.243 7.53583L106.312 2.43628L111.711 2.50897L111.643 7.60852ZM111.642 7.65851L111.641 7.7585L106.241 7.68581L106.243 7.58582L111.642 7.65851ZM116.711 2.52628L111.312 2.45359L111.313 2.3536L116.713 2.42629L116.711 2.52628ZM116.642 7.67582L111.243 7.60313L111.311 2.50359L116.711 2.57628L116.642 7.67582ZM116.642 7.72582L116.64 7.82581L111.241 7.75312L111.242 7.65313L116.642 7.72582ZM121.711 2.59359L116.311 2.5209L116.313 2.42091L121.712 2.49359L121.711 2.59359ZM121.642 7.74312L116.242 7.67044L116.311 2.57089L121.71 2.64358L121.642 7.74312ZM121.641 7.79312L121.64 7.89311L116.24 7.82042L116.242 7.72043L121.641 7.79312ZM126.71 2.66089L121.311 2.5882L121.312 2.48821L126.712 2.5609L126.71 2.66089ZM126.641 7.81043L121.242 7.73774L121.31 2.6382L126.71 2.71089L126.641 7.81043ZM126.641 7.86042L126.639 7.96042L121.24 7.88773L121.241 7.78774L126.641 7.86042ZM131.71 2.72819L126.31 2.65551L126.312 2.55551L131.711 2.6282L131.71 2.72819ZM131.641 7.87773L126.242 7.80504L126.31 2.7055L131.709 2.77819L131.641 7.87773ZM131.64 7.92773L131.639 8.02772L126.239 7.95503L126.241 7.85504L131.64 7.92773ZM136.71 2.7955L131.31 2.72281L131.311 2.62282L136.711 2.69551L136.71 2.7955ZM136.641 7.94504L131.241 7.87235L131.309 2.77281L136.709 2.84549L136.641 7.94504ZM136.64 7.99503L136.639 8.09502L131.239 8.02234L131.24 7.92234L136.64 7.99503ZM151.708 2.99741L146.309 2.92472L146.31 2.82473L151.709 2.89742L151.708 2.99741ZM151.639 8.14695L146.24 8.07426L146.308 2.97472L151.707 3.04741L151.639 8.14695ZM151.639 8.19695L151.637 8.29694L146.238 8.22425L146.239 8.12426L151.639 8.19695ZM156.708 3.06472L151.308 2.99203L151.31 2.89204L156.709 2.96473L156.708 3.06472ZM156.639 8.21425L151.239 8.14157L151.308 3.04202L156.707 3.11471L156.639 8.21425ZM156.638 8.26425L156.637 8.36424L151.237 8.29155L151.239 8.19156L156.638 8.26425ZM161.707 3.13202L156.308 3.05933L156.309 2.95934L161.709 3.03203L161.707 3.13202ZM161.638 8.28156L156.239 8.20887L156.307 3.10933L161.707 3.18202L161.638 8.28156ZM161.638 8.33155L161.636 8.43155L156.237 8.35886L156.238 8.25887L161.638 8.33155ZM166.707 3.19932L161.307 3.12664L161.309 3.02665L166.708 3.09933L166.707 3.19932ZM166.638 8.34886L161.238 8.27617L161.307 3.17663L166.706 3.24932L166.638 8.34886ZM166.637 8.39886L166.636 8.49885L161.236 8.42616L161.238 8.32617L166.637 8.39886ZM171.706 3.26663L166.307 3.19394L166.308 3.09395L171.708 3.16664L171.706 3.26663ZM171.637 8.41617L166.238 8.34348L166.306 3.24394L171.706 3.31662L171.637 8.41617ZM171.637 8.46616L171.635 8.56615L166.236 8.49347L166.237 8.39347L171.637 8.46616ZM176.706 3.33393L171.306 3.26124L171.308 3.16125L176.707 3.23394L176.706 3.33393ZM176.637 8.48347L171.237 8.41078L171.306 3.31124L176.705 3.38393L176.637 8.48347ZM176.636 8.53347L176.635 8.63346L171.235 8.56077L171.237 8.46078L176.636 8.53347ZM191.705 3.53585L186.305 3.46316L186.306 3.36317L191.706 3.43586L191.705 3.53585ZM191.636 8.68539L186.236 8.6127L186.304 3.51315L191.704 3.58584L191.636 8.68539ZM191.635 8.73538L191.634 8.83537L186.234 8.76268L186.235 8.66269L191.635 8.73538ZM196.704 3.60315L191.305 3.53046L191.306 3.43047L196.705 3.50316L196.704 3.60315ZM196.635 8.75269L191.236 8.68L191.304 3.58046L196.703 3.65315L196.635 8.75269ZM196.634 8.80269L196.633 8.90268L191.234 8.82999L191.235 8.73L196.634 8.80269ZM6.64096 7.04505L1.24145 6.97236L1.24279 6.87237L6.6423 6.94506L6.64096 7.04505ZM6.57202 12.1946L1.17251 12.1219L1.24078 7.02235L6.64029 7.09504L6.57202 12.1946ZM6.57135 12.2446L6.57001 12.3446L1.1705 12.2719L1.17184 12.1719L6.57135 12.2446ZM11.6405 7.11235L6.241 7.03966L6.24234 6.93967L11.6418 7.01236L11.6405 7.11235ZM11.5716 12.2619L6.17205 12.1892L6.24033 7.08966L11.6398 7.16235L11.5716 12.2619ZM11.5709 12.3119L11.5696 12.4119L6.17005 12.3392L6.17138 12.2392L11.5709 12.3119ZM16.6401 7.17966L11.2405 7.10697L11.2419 7.00698L16.6414 7.07967L16.6401 7.17966ZM16.5711 12.3292L11.1716 12.2565L11.2399 7.15696L16.6394 7.22965L16.5711 12.3292ZM16.5704 12.3792L16.5691 12.4792L11.1696 12.4065L11.1709 12.3065L16.5704 12.3792ZM21.6396 7.24696L16.2401 7.17427L16.2414 7.07428L21.6409 7.14697L21.6396 7.24696ZM21.5707 12.3965L16.1711 12.3238L16.2394 7.22427L21.6389 7.29696L21.5707 12.3965ZM21.57 12.4465L21.5687 12.5465L16.1691 12.4738L16.1705 12.3738L21.57 12.4465ZM36.6382 7.44887L31.2387 7.37619L31.2401 7.27619L36.6396 7.34888L36.6382 7.44887ZM36.5693 12.5984L31.1698 12.5257L31.2381 7.42618L36.6376 7.49887L36.5693 12.5984ZM36.5686 12.6484L36.5673 12.7484L31.1678 12.6757L31.1691 12.5757L36.5686 12.6484ZM41.6378 7.51618L36.2383 7.44349L36.2396 7.3435L41.6391 7.41619L41.6378 7.51618ZM41.5688 12.6657L36.1693 12.593L36.2376 7.49349L41.6371 7.56617L41.5688 12.6657ZM41.5682 12.7157L41.5668 12.8157L36.1673 12.743L36.1687 12.643L41.5682 12.7157ZM46.6373 7.58348L41.2378 7.51079L41.2392 7.4108L46.6387 7.48349L46.6373 7.58348ZM46.5684 12.733L41.1689 12.6603L41.2372 7.56079L46.6367 7.63348L46.5684 12.733ZM46.5677 12.783L46.5664 12.883L41.1669 12.8103L41.1682 12.7103L46.5677 12.783ZM51.6369 7.65079L46.2374 7.5781L46.2387 7.47811L51.6382 7.5508L51.6369 7.65079ZM51.5679 12.8003L46.1684 12.7276L46.2367 7.62809L51.6362 7.70078L51.5679 12.8003ZM51.5673 12.8503L51.5659 12.9503L46.1664 12.8776L46.1678 12.7776L51.5673 12.8503ZM66.6355 7.8527L61.236 7.78001L61.2374 7.68002L66.6369 7.75271L66.6355 7.8527ZM66.5666 13.0022L61.1671 12.9296L61.2353 7.83001L66.6349 7.9027L66.5666 13.0022ZM66.5659 13.0522L66.5646 13.1522L61.1651 13.0795L61.1664 12.9795L66.5659 13.0522ZM71.6351 7.92L66.2356 7.84732L66.2369 7.74732L71.6364 7.82001L71.6351 7.92ZM71.5661 13.0695L66.1666 12.9969L66.2349 7.89731L71.6344 7.97L71.5661 13.0695ZM71.5655 13.1195L71.5641 13.2195L66.1646 13.1468L66.1659 13.0468L71.5655 13.1195ZM86.6337 8.12192L81.2342 8.04923L81.2355 7.94924L86.6351 8.02193L86.6337 8.12192ZM86.5648 13.2715L81.1653 13.1988L81.2335 8.09922L86.633 8.17191L86.5648 13.2715ZM86.5641 13.3215L86.5628 13.4214L81.1633 13.3488L81.1646 13.2488L86.5641 13.3215ZM91.6333 8.18922L86.2337 8.11653L86.2351 8.01654L91.6346 8.08923L91.6333 8.18922ZM91.5643 13.3388L86.1648 13.2661L86.2331 8.16653L91.6326 8.23922L91.5643 13.3388ZM91.5636 13.3888L91.5623 13.4887L86.1628 13.4161L86.1641 13.3161L91.5636 13.3888ZM106.632 8.39113L101.232 8.31845L101.234 8.21846L106.633 8.29114L106.632 8.39113ZM106.563 13.5407L101.163 13.468L101.232 8.36844L106.631 8.44113L106.563 13.5407ZM106.562 13.5907L106.561 13.6907L101.161 13.618L101.163 13.518L106.562 13.5907ZM111.631 8.45844L106.232 8.38575L106.233 8.28576L111.633 8.35845L111.631 8.45844ZM111.563 13.608L106.163 13.5353L106.231 8.43575L111.631 8.50843L111.563 13.608ZM111.562 13.658L111.56 13.758L106.161 13.6853L106.162 13.5853L111.562 13.658ZM146.628 8.92957L141.229 8.85688L141.23 8.75689L146.63 8.82958L146.628 8.92957ZM146.559 14.0791L141.16 14.0064L141.228 8.90688L146.628 8.97957L146.559 14.0791ZM146.559 14.1291L146.557 14.2291L141.158 14.1564L141.159 14.0564L146.559 14.1291ZM151.628 8.99687L146.228 8.92419L146.23 8.82419L151.629 8.89688L151.628 8.99687ZM151.559 14.1464L146.159 14.0737L146.228 8.97418L151.627 9.04687L151.559 14.1464ZM151.558 14.1964L151.557 14.2964L146.157 14.2237L146.159 14.1237L151.558 14.1964ZM176.626 9.3334L171.226 9.26071L171.227 9.16072L176.627 9.2334L176.626 9.3334ZM176.557 14.4829L171.157 14.4102L171.225 9.3107L176.625 9.38339L176.557 14.4829ZM176.556 14.5329L176.555 14.6329L171.155 14.5602L171.156 14.4602L176.556 14.5329ZM181.625 9.4007L176.226 9.32801L176.227 9.22802L181.626 9.30071L181.625 9.4007ZM181.556 14.5502L176.157 14.4776L176.225 9.37801L181.624 9.4507L181.556 14.5502ZM181.555 14.6002L181.554 14.7002L176.155 14.6275L176.156 14.5275L181.555 14.6002ZM191.624 9.53531L186.225 9.46262L186.226 9.36263L191.626 9.43532L191.624 9.53531ZM191.555 14.6848L186.156 14.6122L186.224 9.51262L191.624 9.5853L191.555 14.6848ZM191.555 14.7348L191.553 14.8348L186.154 14.7621L186.155 14.6622L191.555 14.7348ZM196.624 9.60261L191.224 9.52992L191.226 9.42993L196.625 9.50262L196.624 9.60261ZM196.555 14.7522L191.155 14.6795L191.224 9.57992L196.623 9.65261L196.555 14.7522ZM196.554 14.8021L196.553 14.9021L191.153 14.8294L191.155 14.7295L196.554 14.8021ZM6.56064 13.0445L1.16113 12.9718L1.16247 12.8718L6.56198 12.9445L6.56064 13.0445ZM6.4917 18.194L1.09218 18.1214L1.16046 13.0218L6.55997 13.0945L6.4917 18.194ZM6.49103 18.244L6.48969 18.344L1.09018 18.2713L1.09151 18.1714L6.49103 18.244ZM11.5602 13.1118L6.16067 13.0391L6.16201 12.9391L11.5615 13.0118L11.5602 13.1118ZM11.4912 18.2614L6.09173 18.1887L6.16001 13.0891L11.5595 13.1618L11.4912 18.2614ZM11.4906 18.3113L11.4892 18.4113L6.08972 18.3387L6.09106 18.2387L11.4906 18.3113ZM21.5593 13.2464L16.1598 13.1737L16.1611 13.0737L21.5606 13.1464L21.5593 13.2464ZM21.4903 18.396L16.0908 18.3233L16.1591 13.2237L21.5586 13.2964L21.4903 18.396ZM21.4897 18.446L21.4883 18.5459L16.0888 18.4733L16.0902 18.3733L21.4897 18.446ZM26.5588 13.3137L21.1593 13.241L21.1607 13.141L26.5602 13.2137L26.5588 13.3137ZM26.4899 18.4633L21.0904 18.3906L21.1586 13.291L26.5582 13.3637L26.4899 18.4633ZM26.4892 18.5133L26.4879 18.6133L21.0884 18.5406L21.0897 18.4406L26.4892 18.5133ZM31.5584 13.381L26.1589 13.3083L26.1602 13.2084L31.5597 13.281L31.5584 13.381ZM31.4894 18.5306L26.0899 18.4579L26.1582 13.3583L31.5577 13.431L31.4894 18.5306ZM31.4888 18.5806L31.4874 18.6806L26.0879 18.6079L26.0892 18.5079L31.4888 18.5806ZM36.5579 13.4483L31.1584 13.3756L31.1597 13.2757L36.5593 13.3483L36.5579 13.4483ZM36.489 18.5979L31.0895 18.5252L31.1577 13.4256L36.5573 13.4983L36.489 18.5979ZM36.4883 18.6479L36.487 18.7479L31.0875 18.6752L31.0888 18.5752L36.4883 18.6479ZM46.557 13.5829L41.1575 13.5103L41.1588 13.4103L46.5584 13.483L46.557 13.5829ZM46.4881 18.7325L41.0886 18.6598L41.1568 13.5603L46.5563 13.6329L46.4881 18.7325ZM46.4874 18.7825L46.4861 18.8825L41.0866 18.8098L41.0879 18.7098L46.4874 18.7825ZM51.5566 13.6502L46.1571 13.5776L46.1584 13.4776L51.5579 13.5503L51.5566 13.6502ZM51.4876 18.7998L46.0881 18.7271L46.1564 13.6276L51.5559 13.7002L51.4876 18.7998ZM51.4869 18.8498L51.4856 18.9498L46.0861 18.8771L46.0874 18.7771L51.4869 18.8498ZM71.5547 13.9195L66.1552 13.8468L66.1566 13.7468L71.5561 13.8195L71.5547 13.9195ZM71.4858 19.069L66.0863 18.9963L66.1546 13.8968L71.5541 13.9695L71.4858 19.069ZM71.4851 19.119L71.4838 19.219L66.0843 19.1463L66.0856 19.0463L71.4851 19.119ZM76.5543 13.9868L71.1548 13.9141L71.1561 13.8141L76.5556 13.8868L76.5543 13.9868ZM76.4854 19.1363L71.0858 19.0636L71.1541 13.9641L76.5536 14.0368L76.4854 19.1363ZM76.4847 19.1863L76.4833 19.2863L71.0838 19.2136L71.0852 19.1136L76.4847 19.1863ZM81.5538 14.0541L76.1543 13.9814L76.1557 13.8814L81.5552 13.9541L81.5538 14.0541ZM81.4849 19.2036L76.0854 19.1309L76.1537 14.0314L81.5532 14.1041L81.4849 19.2036ZM81.4842 19.2536L81.4829 19.3536L76.0834 19.2809L76.0847 19.1809L81.4842 19.2536ZM86.5534 14.1214L81.1539 14.0487L81.1552 13.9487L86.5547 14.0214L86.5534 14.1214ZM86.4844 19.2709L81.0849 19.1982L81.1532 14.0987L86.5527 14.1714L86.4844 19.2709ZM86.4838 19.3209L86.4824 19.4209L81.0829 19.3482L81.0843 19.2482L86.4838 19.3209ZM111.551 14.4579L106.152 14.3852L106.153 14.2852L111.552 14.3579L111.551 14.4579ZM111.482 19.6074L106.083 19.5348L106.151 14.4352L111.55 14.5079L111.482 19.6074ZM111.482 19.6574L111.48 19.7574L106.081 19.6847L106.082 19.5847L111.482 19.6574ZM116.551 14.5252L111.151 14.4525L111.153 14.3525L116.552 14.4252L116.551 14.5252ZM116.482 19.6747L111.082 19.6021L111.15 14.5025L116.55 14.5752L116.482 19.6747ZM116.481 19.7247L116.48 19.8247L111.08 19.752L111.082 19.6521L116.481 19.7247ZM121.55 14.5925L116.151 14.5198L116.152 14.4198L121.552 14.4925L121.55 14.5925ZM121.481 19.742L116.082 19.6694L116.15 14.5698L121.55 14.6425L121.481 19.742ZM121.481 19.792L121.479 19.892L116.08 19.8193L116.081 19.7194L121.481 19.792ZM126.55 14.6598L121.15 14.5871L121.152 14.4871L126.551 14.5598L126.55 14.6598ZM126.481 19.8094L121.081 19.7367L121.15 14.6371L126.549 14.7098L126.481 19.8094ZM126.48 19.8593L126.479 19.9593L121.079 19.8867L121.081 19.7867L126.48 19.8593ZM131.549 14.7271L126.15 14.6544L126.151 14.5544L131.551 14.6271L131.549 14.7271ZM131.48 19.8767L126.081 19.804L126.149 14.7044L131.549 14.7771L131.48 19.8767ZM131.48 19.9267L131.478 20.0266L126.079 19.954L126.08 19.854L131.48 19.9267ZM146.548 14.929L141.148 14.8563L141.15 14.7564L146.549 14.829L146.548 14.929ZM146.479 20.0786L141.08 20.0059L141.148 14.9063L146.547 14.979L146.479 20.0786ZM146.478 20.1286L146.477 20.2286L141.077 20.1559L141.079 20.0559L146.478 20.1286ZM151.548 14.9963L146.148 14.9236L146.149 14.8237L151.549 14.8963L151.548 14.9963ZM151.479 20.1459L146.079 20.0732L146.147 14.9736L151.547 15.0463L151.479 20.1459ZM151.478 20.1959L151.477 20.2959L146.077 20.2232L146.078 20.1232L151.478 20.1959ZM161.547 15.1309L156.147 15.0583L156.148 14.9583L161.548 15.031L161.547 15.1309ZM161.478 20.2805L156.078 20.2078L156.146 15.1083L161.546 15.1809L161.478 20.2805ZM161.477 20.3305L161.476 20.4305L156.076 20.3578L156.077 20.2578L161.477 20.3305ZM166.546 15.1982L161.147 15.1256L161.148 15.0256L166.547 15.0983L166.546 15.1982ZM166.477 20.3478L161.078 20.2751L161.146 15.1756L166.545 15.2482L166.477 20.3478ZM166.477 20.3978L166.475 20.4978L161.076 20.4251L161.077 20.3251L166.477 20.3978ZM176.545 15.3329L171.146 15.2602L171.147 15.1602L176.547 15.2329L176.545 15.3329ZM176.476 20.4824L171.077 20.4097L171.145 15.3102L176.545 15.3829L176.476 20.4824ZM176.476 20.5324L176.474 20.6324L171.075 20.5597L171.076 20.4597L176.476 20.5324ZM181.545 15.4002L176.145 15.3275L176.147 15.2275L181.546 15.3002L181.545 15.4002ZM181.476 20.5497L176.076 20.477L176.145 15.3775L181.544 15.4502L181.476 20.5497ZM181.475 20.5997L181.474 20.6997L176.074 20.627L176.076 20.527L181.475 20.5997ZM191.544 15.5348L186.144 15.4621L186.146 15.3621L191.545 15.4348L191.544 15.5348ZM191.475 20.6843L186.075 20.6116L186.144 15.5121L191.543 15.5848L191.475 20.6843ZM191.474 20.7343L191.473 20.8343L186.073 20.7616L186.075 20.6616L191.474 20.7343ZM196.543 15.6021L191.144 15.5294L191.145 15.4294L196.545 15.5021L196.543 15.6021ZM196.474 20.7516L191.075 20.6789L191.143 15.5794L196.543 15.6521L196.474 20.7516ZM196.474 20.8016L196.472 20.9016L191.073 20.8289L191.074 20.7289L196.474 20.8016ZM6.48032 19.044L1.0808 18.9713L1.08214 18.8713L6.48165 18.944L6.48032 19.044ZM6.41137 24.1935L1.01186 24.1208L1.08014 19.0213L6.47965 19.094L6.41137 24.1935ZM6.4107 24.2435L6.40936 24.3435L1.00985 24.2708L1.01119 24.1708L6.4107 24.2435ZM11.4799 19.1113L6.08035 19.0386L6.08169 18.9386L11.4812 19.0113L11.4799 19.1113ZM11.4109 24.2608L6.01141 24.1881L6.07968 19.0886L11.4792 19.1613L11.4109 24.2608ZM11.4103 24.3108L11.4089 24.4108L6.0094 24.3381L6.01074 24.2381L11.4103 24.3108ZM26.4785 19.3132L21.079 19.2405L21.0803 19.1405L26.4798 19.2132L26.4785 19.3132ZM26.4096 24.4627L21.01 24.39L21.0783 19.2905L26.4778 19.3632L26.4096 24.4627ZM26.4089 24.5127L26.4076 24.6127L21.008 24.54L21.0094 24.44L26.4089 24.5127ZM31.4781 19.3805L26.0785 19.3078L26.0799 19.2078L31.4794 19.2805L31.4781 19.3805ZM31.4091 24.53L26.0096 24.4573L26.0779 19.3578L31.4774 19.4305L31.4091 24.53ZM31.4084 24.58L31.4071 24.68L26.0076 24.6073L26.0089 24.5073L31.4084 24.58ZM46.4767 19.5824L41.0772 19.5097L41.0785 19.4097L46.478 19.4824L46.4767 19.5824ZM46.4077 24.7319L41.0082 24.6593L41.0765 19.5597L46.476 19.6324L46.4077 24.7319ZM46.4071 24.7819L46.4057 24.8819L41.0062 24.8092L41.0076 24.7093L46.4071 24.7819ZM51.4762 19.6497L46.0767 19.577L46.0781 19.477L51.4776 19.5497L51.4762 19.6497ZM51.4073 24.7992L46.0078 24.7266L46.0761 19.627L51.4756 19.6997L51.4073 24.7992ZM51.4066 24.8492L51.4053 24.9492L46.0058 24.8765L46.0071 24.7766L51.4066 24.8492ZM76.474 19.9862L71.0745 19.9135L71.0758 19.8136L76.4753 19.8862L76.474 19.9862ZM76.405 25.1358L71.0055 25.0631L71.0738 19.9635L76.4733 20.0362L76.405 25.1358ZM76.4044 25.1858L76.403 25.2858L71.0035 25.2131L71.0049 25.1131L76.4044 25.1858ZM81.4735 20.0535L76.074 19.9808L76.0753 19.8809L81.4749 19.9535L81.4735 20.0535ZM81.4046 25.2031L76.0051 25.1304L76.0733 20.0308L81.4729 20.1035L81.4046 25.2031ZM81.4039 25.2531L81.4026 25.3531L76.0031 25.2804L76.0044 25.1804L81.4039 25.2531ZM131.469 20.7266L126.069 20.6539L126.071 20.5539L131.47 20.6266L131.469 20.7266ZM131.4 25.8761L126.001 25.8034L126.069 20.7039L131.468 20.7766L131.4 25.8761ZM131.399 25.9261L131.398 26.0261L125.999 25.9534L126 25.8534L131.399 25.9261ZM136.469 20.7939L131.069 20.7212L131.07 20.6212L136.47 20.6939L136.469 20.7939ZM136.4 25.9434L131 25.8707L131.068 20.7712L136.468 20.8439L136.4 25.9434ZM136.399 25.9934L136.398 26.0934L130.998 26.0207L130.999 25.9207L136.399 25.9934ZM151.467 20.9958L146.068 20.9231L146.069 20.8231L151.469 20.8958L151.467 20.9958ZM151.398 26.1453L145.999 26.0726L146.067 20.9731L151.467 21.0458L151.398 26.1453ZM151.398 26.1953L151.396 26.2953L145.997 26.2226L145.998 26.1226L151.398 26.1953ZM156.467 21.0631L151.067 20.9904L151.069 20.8904L156.468 20.9631L156.467 21.0631ZM156.398 26.2126L150.998 26.14L151.067 21.0404L156.466 21.1131L156.398 26.2126ZM156.397 26.2626L156.396 26.3626L150.996 26.2899L150.998 26.1899L156.397 26.2626ZM161.466 21.1304L156.067 21.0577L156.068 20.9577L161.468 21.0304L161.466 21.1304ZM161.397 26.2799L155.998 26.2073L156.066 21.1077L161.466 21.1804L161.397 26.2799ZM161.397 26.3299L161.395 26.4299L155.996 26.3572L155.997 26.2573L161.397 26.3299ZM166.466 21.1977L161.066 21.125L161.068 21.025L166.467 21.0977L166.466 21.1977ZM166.397 26.3472L160.997 26.2746L161.066 21.175L166.465 21.2477L166.397 26.3472ZM166.396 26.3972L166.395 26.4972L160.995 26.4245L160.997 26.3246L166.396 26.3972ZM171.465 21.265L166.066 21.1923L166.067 21.0923L171.467 21.165L171.465 21.265ZM171.396 26.4146L165.997 26.3419L166.065 21.2423L171.465 21.315L171.396 26.4146ZM171.396 26.4645L171.394 26.5645L165.995 26.4919L165.996 26.3919L171.396 26.4645ZM176.465 21.3323L171.065 21.2596L171.067 21.1596L176.466 21.2323L176.465 21.3323ZM176.396 26.4819L170.996 26.4092L171.065 21.3096L176.464 21.3823L176.396 26.4819ZM176.395 26.5319L176.394 26.6318L170.994 26.5592L170.996 26.4592L176.395 26.5319ZM191.464 21.5342L186.064 21.4615L186.065 21.3616L191.465 21.4342L191.464 21.5342ZM191.395 26.6838L185.995 26.6111L186.063 21.5115L191.463 21.5842L191.395 26.6838ZM191.394 26.7338L191.393 26.8338L185.993 26.7611L185.994 26.6611L191.394 26.7338ZM196.463 21.6015L191.064 21.5288L191.065 21.4289L196.464 21.5015L196.463 21.6015ZM196.394 26.7511L190.995 26.6784L191.063 21.5788L196.462 21.6515L196.394 26.7511ZM196.393 26.8011L196.392 26.9011L190.993 26.8284L190.994 26.7284L196.393 26.8011ZM6.39999 25.0434L1.00048 24.9707L1.00182 24.8708L6.40133 24.9434L6.39999 25.0434ZM6.33105 30.193L0.931539 30.1203L0.999813 25.0207L6.39932 25.0934L6.33105 30.193ZM6.33038 30.243L6.32904 30.343L0.929531 30.2703L0.93087 30.1703L6.33038 30.243ZM11.3995 25.1107L6.00003 25.038L6.00137 24.9381L11.4009 25.0107L11.3995 25.1107ZM11.3306 30.2603L5.93109 30.1876L5.99936 25.088L11.3989 25.1607L11.3306 30.2603ZM11.3299 30.3103L11.3286 30.4103L5.92908 30.3376L5.93042 30.2376L11.3299 30.3103ZM46.3964 25.5819L40.9969 25.5092L40.9982 25.4092L46.3977 25.4819L46.3964 25.5819ZM46.3274 30.7314L40.9279 30.6587L40.9962 25.5592L46.3957 25.6319L46.3274 30.7314ZM46.3268 30.7814L46.3254 30.8814L40.9259 30.8087L40.9272 30.7087L46.3268 30.7814ZM51.3959 25.6492L45.9964 25.5765L45.9977 25.4765L51.3973 25.5492L51.3959 25.6492ZM51.327 30.7987L45.9275 30.726L45.9957 25.6265L51.3952 25.6992L51.327 30.7987ZM51.3263 30.8487L51.325 30.9487L45.9255 30.876L45.9268 30.776L51.3263 30.8487ZM76.3937 25.9857L70.9941 25.913L70.9955 25.813L76.395 25.8857L76.3937 25.9857ZM76.3247 31.1352L70.9252 31.0625L70.9935 25.963L76.393 26.0357L76.3247 31.1352ZM76.324 31.1852L76.3227 31.2852L70.9232 31.2125L70.9245 31.1125L76.324 31.1852ZM81.3932 26.053L75.9937 25.9803L75.995 25.8803L81.3945 25.953L81.3932 26.053ZM81.3243 31.2025L75.9247 31.1298L75.993 26.0303L81.3925 26.103L81.3243 31.2025ZM81.3236 31.2525L81.3222 31.3525L75.9227 31.2798L75.9241 31.1798L81.3236 31.2525ZM106.391 26.3895L100.991 26.3168L100.993 26.2168L106.392 26.2895L106.391 26.3895ZM106.322 31.5391L100.922 31.4664L100.991 26.3668L106.39 26.4395L106.322 31.5391ZM106.321 31.5891L106.32 31.689L100.92 31.6164L100.922 31.5164L106.321 31.5891ZM111.39 26.4568L105.991 26.3841L105.992 26.2841L111.392 26.3568L111.39 26.4568ZM111.322 31.6064L105.922 31.5337L105.99 26.4341L111.39 26.5068L111.322 31.6064ZM111.321 31.6564L111.32 31.7564L105.92 31.6837L105.921 31.5837L111.321 31.6564ZM116.39 26.5241L110.991 26.4514L110.992 26.3515L116.391 26.4241L116.39 26.5241ZM116.321 31.6737L110.922 31.601L110.99 26.5014L116.389 26.5741L116.321 31.6737ZM116.32 31.7237L116.319 31.8237L110.92 31.751L110.921 31.651L116.32 31.7237ZM121.39 26.5914L115.99 26.5187L115.991 26.4188L121.391 26.4914L121.39 26.5914ZM121.321 31.741L115.921 31.6683L115.989 26.5687L121.389 26.6414L121.321 31.741ZM121.32 31.791L121.319 31.891L115.919 31.8183L115.92 31.7183L121.32 31.791ZM126.389 26.6587L120.99 26.586L120.991 26.4861L126.39 26.5587L126.389 26.6587ZM126.32 31.8083L120.921 31.7356L120.989 26.636L126.388 26.7087L126.32 31.8083ZM126.32 31.8583L126.318 31.9583L120.919 31.8856L120.92 31.7856L126.32 31.8583ZM131.389 26.726L125.989 26.6534L125.99 26.5534L131.39 26.6261L131.389 26.726ZM131.32 31.8756L125.92 31.8029L125.988 26.7033L131.388 26.776L131.32 31.8756ZM131.319 31.9256L131.318 32.0256L125.918 31.9529L125.92 31.8529L131.319 31.9256ZM161.386 27.1299L155.986 27.0572L155.988 26.9572L161.387 27.0299L161.386 27.1299ZM161.317 32.2794L155.917 32.2067L155.986 27.1072L161.385 27.1799L161.317 32.2794ZM161.316 32.3294L161.315 32.4294L155.915 32.3567L155.917 32.2567L161.316 32.3294ZM166.385 27.1972L160.986 27.1245L160.987 27.0245L166.387 27.0972L166.385 27.1972ZM166.317 32.3467L160.917 32.274L160.985 27.1745L166.385 27.2472L166.317 32.3467ZM166.316 32.3967L166.315 32.4967L160.915 32.424L160.916 32.324L166.316 32.3967ZM191.383 27.5337L185.984 27.461L185.985 27.361L191.385 27.4337L191.383 27.5337ZM191.314 32.6832L185.915 32.6105L185.983 27.511L191.383 27.5837L191.314 32.6832ZM191.314 32.7332L191.312 32.8332L185.913 32.7605L185.914 32.6605L191.314 32.7332ZM196.383 27.601L190.983 27.5283L190.985 27.4283L196.384 27.501L196.383 27.601ZM196.314 32.7505L190.914 32.6778L190.983 27.5783L196.382 27.651L196.314 32.7505ZM196.313 32.8005L196.312 32.9005L190.912 32.8278L190.914 32.7278L196.313 32.8005ZM201.382 27.6683L195.983 27.5956L195.984 27.4956L201.384 27.5683L201.382 27.6683ZM201.313 32.8178L195.914 32.7452L195.982 27.6456L201.382 27.7183L201.313 32.8178ZM201.313 32.8678L201.311 32.9678L195.912 32.8951L195.913 32.7951L201.313 32.8678ZM206.382 27.7356L200.982 27.6629L200.984 27.5629L206.383 27.6356L206.382 27.7356ZM206.313 32.8851L200.913 32.8125L200.982 27.7129L206.381 27.7856L206.313 32.8851ZM206.312 32.9351L206.311 33.0351L200.911 32.9624L200.913 32.8625L206.312 32.9351ZM211.381 27.8029L205.982 27.7302L205.983 27.6302L211.383 27.7029L211.381 27.8029ZM211.312 32.9525L205.913 32.8798L205.981 27.7802L211.381 27.8529L211.312 32.9525ZM211.312 33.0024L211.31 33.1024L205.911 33.0297L205.912 32.9298L211.312 33.0024ZM216.381 27.8702L210.981 27.7975L210.983 27.6975L216.382 27.7702L216.381 27.8702ZM216.312 33.0198L210.913 32.9471L210.981 27.8475L216.38 27.9202L216.312 33.0198ZM216.311 33.0698L216.31 33.1697L210.911 33.0971L210.912 32.9971L216.311 33.0698ZM221.381 27.9375L215.981 27.8648L215.982 27.7648L221.382 27.8375L221.381 27.9375ZM221.312 33.0871L215.912 33.0144L215.98 27.9148L221.38 27.9875L221.312 33.0871ZM221.311 33.1371L221.31 33.237L215.91 33.1644L215.911 33.0644L221.311 33.1371Z" fill="white"/>
</svg>
