<svg width="149" height="25" viewBox="0 0 149 25" fill="none" xmlns="http://www.w3.org/2000/svg">
<path d="M4.36804 0.48H0.0480383V0.4H4.36804V0.48ZM4.36804 4.6H0.0480383V0.52H4.36804V4.6ZM4.36804 4.64V4.72H0.0480383V4.64H4.36804ZM8.36804 0.48H4.04804V0.4H8.36804V0.48ZM8.36804 4.6H4.04804V0.52H8.36804V4.6ZM8.36804 4.64V4.72H4.04804V4.64H8.36804ZM24.368 0.48H20.048V0.4H24.368V0.48ZM24.368 4.6H20.048V0.52H24.368V4.6ZM24.368 4.64V4.72H20.048V4.64H24.368ZM28.368 0.48H24.048V0.4H28.368V0.48ZM28.368 4.6H24.048V0.52H28.368V4.6ZM28.368 4.64V4.72H24.048V4.64H28.368ZM40.368 0.48H36.048V0.4H40.368V0.48ZM40.368 4.6H36.048V0.52H40.368V4.6ZM40.368 4.64V4.72H36.048V4.64H40.368ZM44.368 0.48H40.048V0.4H44.368V0.48ZM44.368 4.6H40.048V0.52H44.368V4.6ZM44.368 4.64V4.72H40.048V4.64H44.368ZM48.368 0.48H44.048V0.4H48.368V0.48ZM48.368 4.6H44.048V0.52H48.368V4.6ZM48.368 4.64V4.72H44.048V4.64H48.368ZM52.368 0.48H48.048V0.4H52.368V0.48ZM52.368 4.6H48.048V0.52H52.368V4.6ZM52.368 4.64V4.72H48.048V4.64H52.368ZM56.368 0.48H52.048V0.4H56.368V0.48ZM56.368 4.6H52.048V0.52H56.368V4.6ZM56.368 4.64V4.72H52.048V4.64H56.368ZM68.368 0.48H64.048V0.4H68.368V0.48ZM68.368 4.6H64.048V0.52H68.368V4.6ZM68.368 4.64V4.72H64.048V4.64H68.368ZM72.368 0.48H68.048V0.4H72.368V0.48ZM72.368 4.6H68.048V0.52H72.368V4.6ZM72.368 4.64V4.72H68.048V4.64H72.368ZM76.368 0.48H72.048V0.4H76.368V0.48ZM76.368 4.6H72.048V0.52H76.368V4.6ZM76.368 4.64V4.72H72.048V4.64H76.368ZM80.368 0.48H76.048V0.4H80.368V0.48ZM80.368 4.6H76.048V0.52H80.368V4.6ZM80.368 4.64V4.72H76.048V4.64H80.368ZM84.368 0.48H80.048V0.4H84.368V0.48ZM84.368 4.6H80.048V0.52H84.368V4.6ZM84.368 4.64V4.72H80.048V4.64H84.368ZM88.368 0.48H84.048V0.4H88.368V0.48ZM88.368 4.6H84.048V0.52H88.368V4.6ZM88.368 4.64V4.72H84.048V4.64H88.368ZM100.368 0.48H96.048V0.4H100.368V0.48ZM100.368 4.6H96.048V0.52H100.368V4.6ZM100.368 4.64V4.72H96.048V4.64H100.368ZM104.368 0.48H100.048V0.4H104.368V0.48ZM104.368 4.6H100.048V0.52H104.368V4.6ZM104.368 4.64V4.72H100.048V4.64H104.368ZM112.368 0.48H108.048V0.4H112.368V0.48ZM112.368 4.6H108.048V0.52H112.368V4.6ZM112.368 4.64V4.72H108.048V4.64H112.368ZM116.368 0.48H112.048V0.4H116.368V0.48ZM116.368 4.6H112.048V0.52H116.368V4.6ZM116.368 4.64V4.72H112.048V4.64H116.368ZM120.368 0.48H116.048V0.4H120.368V0.48ZM120.368 4.6H116.048V0.52H120.368V4.6ZM120.368 4.64V4.72H116.048V4.64H120.368ZM140.368 0.48H136.048V0.4H140.368V0.48ZM140.368 4.6H136.048V0.52H140.368V4.6ZM140.368 4.64V4.72H136.048V4.64H140.368ZM144.368 0.48H140.048V0.4H144.368V0.48ZM144.368 4.6H140.048V0.52H144.368V4.6ZM144.368 4.64V4.72H140.048V4.64H144.368ZM148.368 0.48H144.048V0.4H148.368V0.48ZM148.368 4.6H144.048V0.52H148.368V4.6ZM148.368 4.64V4.72H144.048V4.64H148.368ZM4.36804 5.48H0.0480383V5.4H4.36804V5.48ZM4.36804 9.6H0.0480383V5.52H4.36804V9.6ZM4.36804 9.64V9.72H0.0480383V9.64H4.36804ZM8.36804 5.48H4.04804V5.4H8.36804V5.48ZM8.36804 9.6H4.04804V5.52H8.36804V9.6ZM8.36804 9.64V9.72H4.04804V9.64H8.36804ZM20.368 5.48H16.048V5.4H20.368V5.48ZM20.368 9.6H16.048V5.52H20.368V9.6ZM20.368 9.64V9.72H16.048V9.64H20.368ZM24.368 5.48H20.048V5.4H24.368V5.48ZM24.368 9.6H20.048V5.52H24.368V9.6ZM24.368 9.64V9.72H20.048V9.64H24.368ZM36.368 5.48H32.048V5.4H36.368V5.48ZM36.368 9.6H32.048V5.52H36.368V9.6ZM36.368 9.64V9.72H32.048V9.64H36.368ZM40.368 5.48H36.048V5.4H40.368V5.48ZM40.368 9.6H36.048V5.52H40.368V9.6ZM40.368 9.64V9.72H36.048V9.64H40.368ZM56.368 5.48H52.048V5.4H56.368V5.48ZM56.368 9.6H52.048V5.52H56.368V9.6ZM56.368 9.64V9.72H52.048V9.64H56.368ZM60.368 5.48H56.048V5.4H60.368V5.48ZM60.368 9.6H56.048V5.52H60.368V9.6ZM60.368 9.64V9.72H56.048V9.64H60.368ZM68.368 5.48H64.048V5.4H68.368V5.48ZM68.368 9.6H64.048V5.52H68.368V9.6ZM68.368 9.64V9.72H64.048V9.64H68.368ZM72.368 5.48H68.048V5.4H72.368V5.48ZM72.368 9.6H68.048V5.52H72.368V9.6ZM72.368 9.64V9.72H68.048V9.64H72.368ZM88.368 5.48H84.048V5.4H88.368V5.48ZM88.368 9.6H84.048V5.52H88.368V9.6ZM88.368 9.64V9.72H84.048V9.64H88.368ZM92.368 5.48H88.048V5.4H92.368V5.48ZM92.368 9.6H88.048V5.52H92.368V9.6ZM92.368 9.64V9.72H88.048V9.64H92.368ZM100.368 5.48H96.048V5.4H100.368V5.48ZM100.368 9.6H96.048V5.52H100.368V9.6ZM100.368 9.64V9.72H96.048V9.64H100.368ZM104.368 5.48H100.048V5.4H104.368V5.48ZM104.368 9.6H100.048V5.52H104.368V9.6ZM104.368 9.64V9.72H100.048V9.64H104.368ZM112.368 5.48H108.048V5.4H112.368V5.48ZM112.368 9.6H108.048V5.52H112.368V9.6ZM112.368 9.64V9.72H108.048V9.64H112.368ZM116.368 5.48H112.048V5.4H116.368V5.48ZM116.368 9.6H112.048V5.52H116.368V9.6ZM116.368 9.64V9.72H112.048V9.64H116.368ZM120.368 5.48H116.048V5.4H120.368V5.48ZM120.368 9.6H116.048V5.52H120.368V9.6ZM120.368 9.64V9.72H116.048V9.64H120.368ZM124.368 5.48H120.048V5.4H124.368V5.48ZM124.368 9.6H120.048V5.52H124.368V9.6ZM124.368 9.64V9.72H120.048V9.64H124.368ZM136.368 5.48H132.048V5.4H136.368V5.48ZM136.368 9.6H132.048V5.52H136.368V9.6ZM136.368 9.64V9.72H132.048V9.64H136.368ZM140.368 5.48H136.048V5.4H140.368V5.48ZM140.368 9.6H136.048V5.52H140.368V9.6ZM140.368 9.64V9.72H136.048V9.64H140.368ZM144.368 5.48H140.048V5.4H144.368V5.48ZM144.368 9.6H140.048V5.52H144.368V9.6ZM144.368 9.64V9.72H140.048V9.64H144.368ZM148.368 5.48H144.048V5.4H148.368V5.48ZM148.368 9.6H144.048V5.52H148.368V9.6ZM148.368 9.64V9.72H144.048V9.64H148.368ZM4.36804 10.48H0.0480383V10.4H4.36804V10.48ZM4.36804 14.6H0.0480383V10.52H4.36804V14.6ZM4.36804 14.64V14.72H0.0480383V14.64H4.36804ZM8.36804 10.48H4.04804V10.4H8.36804V10.48ZM8.36804 14.6H4.04804V10.52H8.36804V14.6ZM8.36804 14.64V14.72H4.04804V14.64H8.36804ZM12.368 10.48H8.04804V10.4H12.368V10.48ZM12.368 14.6H8.04804V10.52H12.368V14.6ZM12.368 14.64V14.72H8.04804V14.64H12.368ZM16.368 10.48H12.048V10.4H16.368V10.48ZM16.368 14.6H12.048V10.52H16.368V14.6ZM16.368 14.64V14.72H12.048V14.64H16.368ZM20.368 10.48H16.048V10.4H20.368V10.48ZM20.368 14.6H16.048V10.52H20.368V14.6ZM20.368 14.64V14.72H16.048V14.64H20.368ZM36.368 10.48H32.048V10.4H36.368V10.48ZM36.368 14.6H32.048V10.52H36.368V14.6ZM36.368 14.64V14.72H32.048V14.64H36.368ZM40.368 10.48H36.048V10.4H40.368V10.48ZM40.368 14.6H36.048V10.52H40.368V14.6ZM40.368 14.64V14.72H36.048V14.64H40.368ZM44.368 10.48H40.048V10.4H44.368V10.48ZM44.368 14.6H40.048V10.52H44.368V14.6ZM44.368 14.64V14.72H40.048V14.64H44.368ZM48.368 10.48H44.048V10.4H48.368V10.48ZM48.368 14.6H44.048V10.52H48.368V14.6ZM48.368 14.64V14.72H44.048V14.64H48.368ZM52.368 10.48H48.048V10.4H52.368V10.48ZM52.368 14.6H48.048V10.52H52.368V14.6ZM52.368 14.64V14.72H48.048V14.64H52.368ZM56.368 10.48H52.048V10.4H56.368V10.48ZM56.368 14.6H52.048V10.52H56.368V14.6ZM56.368 14.64V14.72H52.048V14.64H56.368ZM60.368 10.48H56.048V10.4H60.368V10.48ZM60.368 14.6H56.048V10.52H60.368V14.6ZM60.368 14.64V14.72H56.048V14.64H60.368ZM68.368 10.48H64.048V10.4H68.368V10.48ZM68.368 14.6H64.048V10.52H68.368V14.6ZM68.368 14.64V14.72H64.048V14.64H68.368ZM72.368 10.48H68.048V10.4H72.368V10.48ZM72.368 14.6H68.048V10.52H72.368V14.6ZM72.368 14.64V14.72H68.048V14.64H72.368ZM76.368 10.48H72.048V10.4H76.368V10.48ZM76.368 14.6H72.048V10.52H76.368V14.6ZM76.368 14.64V14.72H72.048V14.64H76.368ZM80.368 10.48H76.048V10.4H80.368V10.48ZM80.368 14.6H76.048V10.52H80.368V14.6ZM80.368 14.64V14.72H76.048V14.64H80.368ZM84.368 10.48H80.048V10.4H84.368V10.48ZM84.368 14.6H80.048V10.52H84.368V14.6ZM84.368 14.64V14.72H80.048V14.64H84.368ZM88.368 10.48H84.048V10.4H88.368V10.48ZM88.368 14.6H84.048V10.52H88.368V14.6ZM88.368 14.64V14.72H84.048V14.64H88.368ZM100.368 10.48H96.048V10.4H100.368V10.48ZM100.368 14.6H96.048V10.52H100.368V14.6ZM100.368 14.64V14.72H96.048V14.64H100.368ZM104.368 10.48H100.048V10.4H104.368V10.48ZM104.368 14.6H100.048V10.52H104.368V14.6ZM104.368 14.64V14.72H100.048V14.64H104.368ZM112.368 10.48H108.048V10.4H112.368V10.48ZM112.368 14.6H108.048V10.52H112.368V14.6ZM112.368 14.64V14.72H108.048V14.64H112.368ZM116.368 10.48H112.048V10.4H116.368V10.48ZM116.368 14.6H112.048V10.52H116.368V14.6ZM116.368 14.64V14.72H112.048V14.64H116.368ZM124.368 10.48H120.048V10.4H124.368V10.48ZM124.368 14.6H120.048V10.52H124.368V14.6ZM124.368 14.64V14.72H120.048V14.64H124.368ZM128.368 10.48H124.048V10.4H128.368V10.48ZM128.368 14.6H124.048V10.52H128.368V14.6ZM128.368 14.64V14.72H124.048V14.64H128.368ZM132.368 10.48H128.048V10.4H132.368V10.48ZM132.368 14.6H128.048V10.52H132.368V14.6ZM132.368 14.64V14.72H128.048V14.64H132.368ZM136.368 10.48H132.048V10.4H136.368V10.48ZM136.368 14.6H132.048V10.52H136.368V14.6ZM136.368 14.64V14.72H132.048V14.64H136.368ZM144.368 10.48H140.048V10.4H144.368V10.48ZM144.368 14.6H140.048V10.52H144.368V14.6ZM144.368 14.64V14.72H140.048V14.64H144.368ZM148.368 10.48H144.048V10.4H148.368V10.48ZM148.368 14.6H144.048V10.52H148.368V14.6ZM148.368 14.64V14.72H144.048V14.64H148.368ZM4.36804 15.48H0.0480383V15.4H4.36804V15.48ZM4.36804 19.6H0.0480383V15.52H4.36804V19.6ZM4.36804 19.64V19.72H0.0480383V19.64H4.36804ZM8.36804 15.48H4.04804V15.4H8.36804V15.48ZM8.36804 19.6H4.04804V15.52H8.36804V19.6ZM8.36804 19.64V19.72H4.04804V19.64H8.36804ZM20.368 15.48H16.048V15.4H20.368V15.48ZM20.368 19.6H16.048V15.52H20.368V19.6ZM20.368 19.64V19.72H16.048V19.64H20.368ZM24.368 15.48H20.048V15.4H24.368V15.48ZM24.368 19.6H20.048V15.52H24.368V19.6ZM24.368 19.64V19.72H20.048V19.64H24.368ZM36.368 15.48H32.048V15.4H36.368V15.48ZM36.368 19.6H32.048V15.52H36.368V19.6ZM36.368 19.64V19.72H32.048V19.64H36.368ZM40.368 15.48H36.048V15.4H40.368V15.48ZM40.368 19.6H36.048V15.52H40.368V19.6ZM40.368 19.64V19.72H36.048V19.64H40.368ZM56.368 15.48H52.048V15.4H56.368V15.48ZM56.368 19.6H52.048V15.52H56.368V19.6ZM56.368 19.64V19.72H52.048V19.64H56.368ZM60.368 15.48H56.048V15.4H60.368V15.48ZM60.368 19.6H56.048V15.52H60.368V19.6ZM60.368 19.64V19.72H56.048V19.64H60.368ZM68.368 15.48H64.048V15.4H68.368V15.48ZM68.368 19.6H64.048V15.52H68.368V19.6ZM68.368 19.64V19.72H64.048V19.64H68.368ZM72.368 15.48H68.048V15.4H72.368V15.48ZM72.368 19.6H68.048V15.52H72.368V19.6ZM72.368 19.64V19.72H68.048V19.64H72.368ZM88.368 15.48H84.048V15.4H88.368V15.48ZM88.368 19.6H84.048V15.52H88.368V19.6ZM88.368 19.64V19.72H84.048V19.64H88.368ZM92.368 15.48H88.048V15.4H92.368V15.48ZM92.368 19.6H88.048V15.52H92.368V19.6ZM92.368 19.64V19.72H88.048V19.64H92.368ZM100.368 15.48H96.048V15.4H100.368V15.48ZM100.368 19.6H96.048V15.52H100.368V19.6ZM100.368 19.64V19.72H96.048V19.64H100.368ZM104.368 15.48H100.048V15.4H104.368V15.48ZM104.368 19.6H100.048V15.52H104.368V19.6ZM104.368 19.64V19.72H100.048V19.64H104.368ZM112.368 15.48H108.048V15.4H112.368V15.48ZM112.368 19.6H108.048V15.52H112.368V19.6ZM112.368 19.64V19.72H108.048V19.64H112.368ZM116.368 15.48H112.048V15.4H116.368V15.48ZM116.368 19.6H112.048V15.52H116.368V19.6ZM116.368 19.64V19.72H112.048V19.64H116.368ZM128.368 15.48H124.048V15.4H128.368V15.48ZM128.368 19.6H124.048V15.52H128.368V19.6ZM128.368 19.64V19.72H124.048V19.64H128.368ZM132.368 15.48H128.048V15.4H132.368V15.48ZM132.368 19.6H128.048V15.52H132.368V19.6ZM132.368 19.64V19.72H128.048V19.64H132.368ZM144.368 15.48H140.048V15.4H144.368V15.48ZM144.368 19.6H140.048V15.52H144.368V19.6ZM144.368 19.64V19.72H140.048V19.64H144.368ZM148.368 15.48H144.048V15.4H148.368V15.48ZM148.368 19.6H144.048V15.52H148.368V19.6ZM148.368 19.64V19.72H144.048V19.64H148.368ZM4.36804 20.48H0.0480383V20.4H4.36804V20.48ZM4.36804 24.6H0.0480383V20.52H4.36804V24.6ZM4.36804 24.64V24.72H0.0480383V24.64H4.36804ZM8.36804 20.48H4.04804V20.4H8.36804V20.48ZM8.36804 24.6H4.04804V20.52H8.36804V24.6ZM8.36804 24.64V24.72H4.04804V24.64H8.36804ZM24.368 20.48H20.048V20.4H24.368V20.48ZM24.368 24.6H20.048V20.52H24.368V24.6ZM24.368 24.64V24.72H20.048V24.64H24.368ZM28.368 20.48H24.048V20.4H28.368V20.48ZM28.368 24.6H24.048V20.52H28.368V24.6ZM28.368 24.64V24.72H24.048V24.64H28.368ZM36.368 20.48H32.048V20.4H36.368V20.48ZM36.368 24.6H32.048V20.52H36.368V24.6ZM36.368 24.64V24.72H32.048V24.64H36.368ZM40.368 20.48H36.048V20.4H40.368V20.48ZM40.368 24.6H36.048V20.52H40.368V24.6ZM40.368 24.64V24.72H36.048V24.64H40.368ZM56.368 20.48H52.048V20.4H56.368V20.48ZM56.368 24.6H52.048V20.52H56.368V24.6ZM56.368 24.64V24.72H52.048V24.64H56.368ZM60.368 20.48H56.048V20.4H60.368V20.48ZM60.368 24.6H56.048V20.52H60.368V24.6ZM60.368 24.64V24.72H56.048V24.64H60.368ZM68.368 20.48H64.048V20.4H68.368V20.48ZM68.368 24.6H64.048V20.52H68.368V24.6ZM68.368 24.64V24.72H64.048V24.64H68.368ZM72.368 20.48H68.048V20.4H72.368V20.48ZM72.368 24.6H68.048V20.52H72.368V24.6ZM72.368 24.64V24.72H68.048V24.64H72.368ZM88.368 20.48H84.048V20.4H88.368V20.48ZM88.368 24.6H84.048V20.52H88.368V24.6ZM88.368 24.64V24.72H84.048V24.64H88.368ZM92.368 20.48H88.048V20.4H92.368V20.48ZM92.368 24.6H88.048V20.52H92.368V24.6ZM92.368 24.64V24.72H88.048V24.64H92.368ZM100.368 20.48H96.048V20.4H100.368V20.48ZM100.368 24.6H96.048V20.52H100.368V24.6ZM100.368 24.64V24.72H96.048V24.64H100.368ZM104.368 20.48H100.048V20.4H104.368V20.48ZM104.368 24.6H100.048V20.52H104.368V24.6ZM104.368 24.64V24.72H100.048V24.64H104.368ZM112.368 20.48H108.048V20.4H112.368V20.48ZM112.368 24.6H108.048V20.52H112.368V24.6ZM112.368 24.64V24.72H108.048V24.64H112.368ZM116.368 20.48H112.048V20.4H116.368V20.48ZM116.368 24.6H112.048V20.52H116.368V24.6ZM116.368 24.64V24.72H112.048V24.64H116.368ZM144.368 20.48H140.048V20.4H144.368V20.48ZM144.368 24.6H140.048V20.52H144.368V24.6ZM144.368 24.64V24.72H140.048V24.64H144.368ZM148.368 20.48H144.048V20.4H148.368V20.48ZM148.368 24.6H144.048V20.52H148.368V24.6ZM148.368 24.64V24.72H144.048V24.64H148.368Z" fill="white"/>
</svg>
