<svg width="117" height="31" viewBox="0 0 117 31" fill="none" xmlns="http://www.w3.org/2000/svg">
<path d="M6.21133 0.198123L0.811818 0.125434L0.813157 0.0254431L6.21267 0.0981318L6.21133 0.198123ZM6.14239 5.34766L0.742875 5.27497L0.811149 0.175429L6.21066 0.248118L6.14239 5.34766ZM6.14172 5.39766L6.14038 5.49765L0.740867 5.42496L0.742205 5.32497L6.14172 5.39766ZM11.2109 0.265427L5.81137 0.192738L5.8127 0.0927474L11.2122 0.165436L11.2109 0.265427ZM11.1419 5.41497L5.74242 5.34228L5.8107 0.242734L11.2102 0.315423L11.1419 5.41497ZM11.1413 5.46496L11.1399 5.56495L5.74041 5.49226L5.74175 5.39227L11.1413 5.46496ZM16.2104 0.332731L10.8109 0.260043L10.8123 0.160052L16.2118 0.23274L16.2104 0.332731ZM16.1415 5.48227L10.742 5.40958L10.8102 0.310038L16.2098 0.382727L16.1415 5.48227ZM16.1408 5.53227L16.1395 5.63226L10.74 5.55957L10.7413 5.45958L16.1408 5.53227ZM21.21 0.400036L15.8105 0.327347L15.8118 0.227356L21.2113 0.300045L21.21 0.400036ZM21.141 5.54957L15.7415 5.47689L15.8098 0.377343L21.2093 0.450031L21.141 5.54957ZM21.1404 5.59957L21.139 5.69956L15.7395 5.62687L15.7408 5.52688L21.1404 5.59957ZM26.2095 0.46734L20.81 0.394651L20.8113 0.29466L26.2109 0.367349L26.2095 0.46734ZM26.1406 5.61688L20.7411 5.54419L20.8093 0.444647L26.2088 0.517336L26.1406 5.61688ZM26.1399 5.66687L26.1386 5.76687L20.7391 5.69418L20.7404 5.59419L26.1399 5.66687ZM31.2091 0.534644L25.8096 0.461956L25.8109 0.361965L31.2104 0.434654L31.2091 0.534644ZM31.1401 5.68418L25.7406 5.61149L25.8089 0.511951L31.2084 0.58464L31.1401 5.68418ZM31.1395 5.73418L31.1381 5.83417L25.7386 5.76148L25.7399 5.66149L31.1395 5.73418ZM46.2077 0.736558L40.8082 0.663869L40.8095 0.563878L46.209 0.636567L46.2077 0.736558ZM46.1388 5.8861L40.7393 5.81341L40.8075 0.713864L46.207 0.786553L46.1388 5.8861ZM46.1381 5.93609L46.1368 6.03608L40.7372 5.96339L40.7386 5.8634L46.1381 5.93609ZM51.2073 0.803862L45.8077 0.731173L45.8091 0.631182L51.2086 0.703871L51.2073 0.803862ZM51.1383 5.9534L45.7388 5.88071L45.8071 0.781169L51.2066 0.853857L51.1383 5.9534ZM51.1376 6.0034L51.1363 6.10339L45.7368 6.0307L45.7381 5.93071L51.1376 6.0034ZM71.2054 1.07308L65.8059 1.00039L65.8073 0.9004L71.2068 0.973088L71.2054 1.07308ZM71.1365 6.22262L65.737 6.14993L65.8053 1.05039L71.2048 1.12307L71.1365 6.22262ZM71.1358 6.27261L71.1345 6.3726L65.735 6.29992L65.7363 6.19992L71.1358 6.27261ZM76.205 1.14038L70.8055 1.06769L70.8068 0.967704L76.2063 1.04039L76.205 1.14038ZM76.136 6.28992L70.7365 6.21723L70.8048 1.11769L76.2043 1.19038L76.136 6.28992ZM76.1354 6.33992L76.134 6.43991L70.7345 6.36722L70.7359 6.26723L76.1354 6.33992ZM86.2041 1.27499L80.8046 1.2023L80.8059 1.10231L86.2054 1.175L86.2041 1.27499ZM86.1351 6.42453L80.7356 6.35184L80.8039 1.2523L86.2034 1.32499L86.1351 6.42453ZM86.1345 6.47453L86.1331 6.57452L80.7336 6.50183L80.735 6.40184L86.1345 6.47453ZM91.2036 1.3423L85.8041 1.26961L85.8055 1.16962L91.205 1.24231L91.2036 1.3423ZM91.1347 6.49184L85.7352 6.41915L85.8034 1.3196L91.203 1.39229L91.1347 6.49184ZM91.134 6.54183L91.1327 6.64182L85.7332 6.56913L85.7345 6.46914L91.134 6.54183ZM96.2032 1.4096L90.8037 1.33691L90.805 1.23692L96.2045 1.30961L96.2032 1.4096ZM96.1342 6.55914L90.7347 6.48645L90.803 1.38691L96.2025 1.4596L96.1342 6.55914ZM96.1336 6.60914L96.1322 6.70913L90.7327 6.63644L90.7341 6.53645L96.1336 6.60914ZM101.203 1.47691L95.8032 1.40422L95.8045 1.30423L101.204 1.37691L101.203 1.47691ZM101.134 6.62644L95.7343 6.55376L95.8025 1.45421L101.202 1.5269L101.134 6.62644ZM101.133 6.67644L101.132 6.77643L95.7323 6.70374L95.7336 6.60375L101.133 6.67644ZM106.202 1.54421L100.803 1.47152L100.804 1.37153L106.204 1.44422L106.202 1.54421ZM106.133 6.69375L100.734 6.62106L100.802 1.52152L106.202 1.59421L106.133 6.69375ZM106.133 6.74374L106.131 6.84373L100.732 6.77105L100.733 6.67106L106.133 6.74374ZM111.202 1.61151L105.802 1.53883L105.804 1.43883L111.203 1.51152L111.202 1.61151ZM111.133 6.76105L105.733 6.68836L105.802 1.58882L111.201 1.66151L111.133 6.76105ZM111.132 6.81105L111.131 6.91104L105.731 6.83835L105.733 6.73836L111.132 6.81105ZM6.13101 6.19758L0.731496 6.1249L0.732834 6.02491L6.13235 6.09759L6.13101 6.19758ZM6.06206 11.3471L0.662552 11.2744L0.730826 6.17489L6.13034 6.24758L6.06206 11.3471ZM6.06139 11.3971L6.06006 11.4971L0.660544 11.4244L0.661883 11.3244L6.06139 11.3971ZM11.1306 6.26489L5.73104 6.1922L5.73238 6.09221L11.1319 6.1649L11.1306 6.26489ZM11.0616 11.4144L5.6621 11.3417L5.73037 6.2422L11.1299 6.31488L11.0616 11.4144ZM11.0609 11.4644L11.0596 11.5644L5.66009 11.4917L5.66143 11.3917L11.0609 11.4644ZM31.1287 6.53411L25.7292 6.46142L25.7306 6.36143L31.1301 6.43412L31.1287 6.53411ZM31.0598 11.6836L25.6603 11.611L25.7286 6.51141L31.1281 6.5841L31.0598 11.6836ZM31.0591 11.7336L31.0578 11.8336L25.6583 11.7609L25.6596 11.661L31.0591 11.7336ZM36.1283 6.60141L30.7288 6.52872L30.7301 6.42873L36.1296 6.50142L36.1283 6.60141ZM36.0593 11.7509L30.6598 11.6783L30.7281 6.57872L36.1276 6.65141L36.0593 11.7509ZM36.0587 11.8009L36.0573 11.9009L30.6578 11.8282L30.6592 11.7283L36.0587 11.8009ZM46.1274 6.73602L40.7279 6.66333L40.7292 6.56334L46.1287 6.63603L46.1274 6.73602ZM46.0584 11.8856L40.6589 11.8129L40.7272 6.71333L46.1267 6.78602L46.0584 11.8856ZM46.0578 11.9356L46.0564 12.0355L40.6569 11.9629L40.6583 11.8629L46.0578 11.9356ZM51.1269 6.80332L45.7274 6.73064L45.7288 6.63064L51.1283 6.70333L51.1269 6.80332ZM51.058 11.9529L45.6585 11.8802L45.7267 6.78063L51.1263 6.85332L51.058 11.9529ZM51.0573 12.0029L51.056 12.1028L45.6565 12.0302L45.6578 11.9302L51.0573 12.0029ZM71.1251 7.07254L65.7256 6.99985L65.7269 6.89986L71.1265 6.97255L71.1251 7.07254ZM71.0562 12.2221L65.6567 12.1494L65.7249 7.04985L71.1244 7.12254L71.0562 12.2221ZM71.0555 12.2721L71.0542 12.3721L65.6547 12.2994L65.656 12.1994L71.0555 12.2721ZM76.1247 7.13985L70.7252 7.06716L70.7265 6.96717L76.126 7.03985L76.1247 7.13985ZM76.0557 12.2894L70.6562 12.2167L70.7245 7.11715L76.124 7.18984L76.0557 12.2894ZM76.0551 12.3394L76.0537 12.4394L70.6542 12.3667L70.6555 12.2667L76.0551 12.3394ZM86.1238 7.27445L80.7242 7.20177L80.7256 7.10177L86.1251 7.17446L86.1238 7.27445ZM86.0548 12.424L80.6553 12.3513L80.7236 7.25176L86.1231 7.32445L86.0548 12.424ZM86.0541 12.474L86.0528 12.574L80.6533 12.5013L80.6546 12.4013L86.0541 12.474ZM91.1233 7.34176L85.7238 7.26907L85.7251 7.16908L91.1246 7.24177L91.1233 7.34176ZM91.0544 12.4913L85.6549 12.4186L85.7231 7.31907L91.1226 7.39175L91.0544 12.4913ZM91.0537 12.5413L91.0524 12.6413L85.6528 12.5686L85.6542 12.4686L91.0537 12.5413ZM111.121 7.61098L105.722 7.53829L105.723 7.4383L111.123 7.51099L111.121 7.61098ZM111.053 12.7605L105.653 12.6878L105.721 7.58828L111.121 7.66097L111.053 12.7605ZM111.052 12.8105L111.051 12.9105L105.651 12.8378L105.652 12.7378L111.052 12.8105ZM116.121 7.67828L110.722 7.60559L110.723 7.5056L116.122 7.57829L116.121 7.67828ZM116.052 12.8278L110.653 12.7551L110.721 7.65559L116.12 7.72828L116.052 12.8278ZM116.051 12.8778L116.05 12.9778L110.651 12.9051L110.652 12.8051L116.051 12.8778ZM6.05068 12.197L0.651173 12.1244L0.652512 12.0244L6.05202 12.0971L6.05068 12.197ZM5.98174 17.3466L0.58223 17.2739L0.650504 12.1744L6.05002 12.247L5.98174 17.3466ZM5.98107 17.3966L5.97973 17.4966L0.580222 17.4239L0.58156 17.3239L5.98107 17.3966ZM11.0502 12.2644L5.65072 12.1917L5.65206 12.0917L11.0516 12.1644L11.0502 12.2644ZM10.9813 17.4139L5.58178 17.3412L5.65005 12.2417L11.0496 12.3143L10.9813 17.4139ZM10.9806 17.4639L10.9793 17.5639L5.57977 17.4912L5.58111 17.3912L10.9806 17.4639ZM16.0498 12.3317L10.6503 12.259L10.6516 12.159L16.0511 12.2317L16.0498 12.3317ZM15.9808 17.4812L10.5813 17.4085L10.6496 12.309L16.0491 12.3817L15.9808 17.4812ZM15.9802 17.5312L15.9788 17.6312L10.5793 17.5585L10.5807 17.4585L15.9802 17.5312ZM21.0493 12.399L15.6498 12.3263L15.6512 12.2263L21.0507 12.299L21.0493 12.399ZM20.9804 17.5485L15.5809 17.4758L15.6491 12.3763L21.0487 12.449L20.9804 17.5485ZM20.9797 17.5985L20.9784 17.6985L15.5789 17.6258L15.5802 17.5258L20.9797 17.5985ZM26.0489 12.4663L20.6494 12.3936L20.6507 12.2936L26.0502 12.3663L26.0489 12.4663ZM25.9799 17.6158L20.5804 17.5431L20.6487 12.4436L26.0482 12.5163L25.9799 17.6158ZM25.9793 17.6658L25.9779 17.7658L20.5784 17.6931L20.5797 17.5931L25.9793 17.6658ZM31.0484 12.5336L25.6489 12.4609L25.6502 12.3609L31.0498 12.4336L31.0484 12.5336ZM30.9795 17.6831L25.58 17.6104L25.6482 12.5109L31.0478 12.5836L30.9795 17.6831ZM30.9788 17.7331L30.9775 17.8331L25.578 17.7604L25.5793 17.6604L30.9788 17.7331ZM46.0471 12.7355L40.6475 12.6628L40.6489 12.5628L46.0484 12.6355L46.0471 12.7355ZM45.9781 17.885L40.5786 17.8123L40.6469 12.7128L46.0464 12.7855L45.9781 17.885ZM45.9774 17.935L45.9761 18.035L40.5766 17.9623L40.5779 17.8623L45.9774 17.935ZM51.0466 12.8028L45.6471 12.7301L45.6484 12.6301L51.0479 12.7028L51.0466 12.8028ZM50.9777 17.9523L45.5782 17.8796L45.6464 12.7801L51.0459 12.8528L50.9777 17.9523ZM50.977 18.0023L50.9757 18.1023L45.5761 18.0296L45.5775 17.9296L50.977 18.0023ZM56.0462 12.8701L50.6466 12.7974L50.648 12.6974L56.0475 12.7701L56.0462 12.8701ZM55.9772 18.0196L50.5777 17.9469L50.646 12.8474L56.0455 12.9201L55.9772 18.0196ZM55.9765 18.0696L55.9752 18.1696L50.5757 18.0969L50.577 17.9969L55.9765 18.0696ZM61.0457 12.9374L55.6462 12.8647L55.6475 12.7647L61.047 12.8374L61.0457 12.9374ZM60.9768 18.0869L55.5772 18.0142L55.6455 12.9147L61.045 12.9874L60.9768 18.0869ZM60.9761 18.1369L60.9747 18.2369L55.5752 18.1642L55.5766 18.0642L60.9761 18.1369ZM66.0452 13.0047L60.6457 12.932L60.6471 12.832L66.0466 12.9047L66.0452 13.0047ZM65.9763 18.1542L60.5768 18.0815L60.6451 12.982L66.0446 13.0547L65.9763 18.1542ZM65.9756 18.2042L65.9743 18.3042L60.5748 18.2315L60.5761 18.1315L65.9756 18.2042ZM71.0448 13.072L65.6453 12.9993L65.6466 12.8993L71.0461 12.972L71.0448 13.072ZM70.9759 18.2215L65.5763 18.1489L65.6446 13.0493L71.0441 13.122L70.9759 18.2215ZM70.9752 18.2715L70.9738 18.3715L65.5743 18.2988L65.5757 18.1988L70.9752 18.2715ZM76.0443 13.1393L70.6448 13.0666L70.6462 12.9666L76.0457 13.0393L76.0443 13.1393ZM75.9754 18.2888L70.5759 18.2162L70.6442 13.1166L76.0437 13.1893L75.9754 18.2888ZM75.9747 18.3388L75.9734 18.4388L70.5739 18.3661L70.5752 18.2662L75.9747 18.3388ZM86.0434 13.2739L80.6439 13.2012L80.6453 13.1012L86.0448 13.1739L86.0434 13.2739ZM85.9745 18.4235L80.575 18.3508L80.6433 13.2512L86.0428 13.3239L85.9745 18.4235ZM85.9738 18.4735L85.9725 18.5734L80.573 18.5008L80.5743 18.4008L85.9738 18.4735ZM91.043 13.3412L85.6435 13.2685L85.6448 13.1685L91.0443 13.2412L91.043 13.3412ZM90.974 18.4908L85.5745 18.4181L85.6428 13.3185L91.0423 13.3912L90.974 18.4908ZM90.9734 18.5408L90.972 18.6407L85.5725 18.5681L85.5739 18.4681L90.9734 18.5408ZM96.0425 13.4085L90.643 13.3358L90.6444 13.2358L96.0439 13.3085L96.0425 13.4085ZM95.9736 18.5581L90.5741 18.4854L90.6424 13.3858L96.0419 13.4585L95.9736 18.5581ZM95.9729 18.6081L95.9716 18.7081L90.5721 18.6354L90.5734 18.5354L95.9729 18.6081ZM101.042 13.4758L95.6426 13.4031L95.6439 13.3031L101.043 13.3758L101.042 13.4758ZM100.973 18.6254L95.5736 18.5527L95.6419 13.4531L101.041 13.5258L100.973 18.6254ZM100.972 18.6754L100.971 18.7754L95.5716 18.7027L95.573 18.6027L100.972 18.6754ZM106.042 13.5431L100.642 13.4704L100.643 13.3705L106.043 13.4431L106.042 13.5431ZM105.973 18.6927L100.573 18.62L100.641 13.5204L106.041 13.5931L105.973 18.6927ZM105.972 18.7427L105.971 18.8427L100.571 18.77L100.573 18.67L105.972 18.7427ZM111.041 13.6104L105.642 13.5377L105.643 13.4378L111.043 13.5104L111.041 13.6104ZM110.972 18.76L105.573 18.6873L105.641 13.5877L111.041 13.6604L110.972 18.76ZM110.972 18.81L110.97 18.91L105.571 18.8373L105.572 18.7373L110.972 18.81ZM5.97036 18.1965L0.570851 18.1238L0.57219 18.0238L5.9717 18.0965L5.97036 18.1965ZM5.90142 23.346L0.501907 23.2734L0.570181 18.1738L5.96969 18.2465L5.90142 23.346ZM5.90075 23.396L5.89941 23.496L0.499899 23.4233L0.501238 23.3234L5.90075 23.396ZM10.9699 18.2638L5.5704 18.1911L5.57174 18.0911L10.9712 18.1638L10.9699 18.2638ZM10.901 23.4134L5.50145 23.3407L5.56973 18.2411L10.9692 18.3138L10.901 23.4134ZM10.9003 23.4633L10.899 23.5633L5.49945 23.4906L5.50079 23.3907L10.9003 23.4633ZM45.9667 18.7349L40.5672 18.6623L40.5686 18.5623L45.9681 18.635L45.9667 18.7349ZM45.8978 23.8845L40.4983 23.8118L40.5666 18.7123L45.9661 18.7849L45.8978 23.8845ZM45.8971 23.9345L45.8958 24.0345L40.4963 23.9618L40.4976 23.8618L45.8971 23.9345ZM50.9663 18.8022L45.5668 18.7296L45.5681 18.6296L50.9676 18.7023L50.9663 18.8022ZM50.8973 23.9518L45.4978 23.8791L45.5661 18.7796L50.9656 18.8522L50.8973 23.9518ZM50.8967 24.0018L50.8953 24.1018L45.4958 24.0291L45.4972 23.9291L50.8967 24.0018ZM70.9645 19.0715L65.565 18.9988L65.5663 18.8988L70.9658 18.9715L70.9645 19.0715ZM70.8955 24.221L65.496 24.1483L65.5643 19.0488L70.9638 19.1215L70.8955 24.221ZM70.8949 24.271L70.8935 24.371L65.494 24.2983L65.4953 24.1983L70.8949 24.271ZM75.964 19.1388L70.5645 19.0661L70.5658 18.9661L75.9654 19.0388L75.964 19.1388ZM75.8951 24.2883L70.4956 24.2156L70.5638 19.1161L75.9634 19.1888L75.8951 24.2883ZM75.8944 24.3383L75.8931 24.4383L70.4936 24.3656L70.4949 24.2656L75.8944 24.3383ZM85.9631 19.2734L80.5636 19.2007L80.5649 19.1007L85.9645 19.1734L85.9631 19.2734ZM85.8942 24.4229L80.4947 24.3502L80.5629 19.2507L85.9624 19.3234L85.8942 24.4229ZM85.8935 24.4729L85.8922 24.5729L80.4927 24.5002L80.494 24.4002L85.8935 24.4729ZM90.9627 19.3407L85.5631 19.268L85.5645 19.168L90.964 19.2407L90.9627 19.3407ZM90.8937 24.4902L85.4942 24.4175L85.5625 19.318L90.962 19.3907L90.8937 24.4902ZM90.893 24.5402L90.8917 24.6402L85.4922 24.5675L85.4935 24.4675L90.893 24.5402ZM5.89004 24.196L0.490528 24.1233L0.491867 24.0233L5.89138 24.096L5.89004 24.196ZM5.8211 29.3455L0.421585 29.2728L0.489859 24.1733L5.88937 24.246L5.8211 29.3455ZM5.82043 29.3955L5.81909 29.4955L0.419577 29.4228L0.420916 29.3228L5.82043 29.3955ZM10.8896 24.2633L5.49008 24.1906L5.49141 24.0906L10.8909 24.1633L10.8896 24.2633ZM10.8206 29.4128L5.42113 29.3401L5.48941 24.2406L10.8889 24.3133L10.8206 29.4128ZM10.82 29.4628L10.8186 29.5628L5.41912 29.4901L5.42046 29.3901L10.82 29.4628ZM45.8864 24.7344L40.4869 24.6617L40.4882 24.5617L45.8878 24.6344L45.8864 24.7344ZM45.8175 29.8839L40.418 29.8113L40.4862 24.7117L45.8857 24.7844L45.8175 29.8839ZM45.8168 29.9339L45.8155 30.0339L40.416 29.9612L40.4173 29.8613L45.8168 29.9339ZM50.886 24.8017L45.4865 24.729L45.4878 24.629L50.8873 24.7017L50.886 24.8017ZM50.817 29.9512L45.4175 29.8786L45.4858 24.779L50.8853 24.8517L50.817 29.9512ZM50.8163 30.0012L50.815 30.1012L45.4155 30.0285L45.4168 29.9286L50.8163 30.0012ZM70.8842 25.0709L65.4846 24.9982L65.486 24.8982L70.8855 24.9709L70.8842 25.0709ZM70.8152 30.2205L65.4157 30.1478L65.484 25.0482L70.8835 25.1209L70.8152 30.2205ZM70.8145 30.2705L70.8132 30.3705L65.4137 30.2978L65.415 30.1978L70.8145 30.2705ZM75.8837 25.1382L70.4842 25.0655L70.4855 24.9656L75.885 25.0382L75.8837 25.1382ZM75.8148 30.2878L70.4152 30.2151L70.4835 25.1155L75.883 25.1882L75.8148 30.2878ZM75.8141 30.3378L75.8127 30.4378L70.4132 30.3651L70.4146 30.2651L75.8141 30.3378ZM85.8828 25.2728L80.4833 25.2002L80.4846 25.1002L85.8841 25.1728L85.8828 25.2728ZM85.8138 30.4224L80.4143 30.3497L80.4826 25.2501L85.8821 25.3228L85.8138 30.4224ZM85.8132 30.4724L85.8118 30.5724L80.4123 30.4997L80.4137 30.3997L85.8132 30.4724ZM90.8823 25.3401L85.4828 25.2675L85.4842 25.1675L90.8837 25.2402L90.8823 25.3401ZM90.8134 30.4897L85.4139 30.417L85.4822 25.3175L90.8817 25.3901L90.8134 30.4897ZM90.8127 30.5397L90.8114 30.6397L85.4119 30.567L85.4132 30.467L90.8127 30.5397Z" fill="#B46AE1"/>
</svg>
