<svg width="242" height="30" viewBox="0 0 242 30" fill="none" xmlns="http://www.w3.org/2000/svg">
<path d="M6.05059 0.6H0.650586V0.5H6.05059V0.6ZM6.05059 5.75H0.650586V0.65H6.05059V5.75ZM6.05059 5.8V5.9H0.650586V5.8H6.05059ZM11.0506 0.6H5.65059V0.5H11.0506V0.6ZM11.0506 5.75H5.65059V0.65H11.0506V5.75ZM11.0506 5.8V5.9H5.65059V5.8H11.0506ZM36.0506 0.6H30.6506V0.5H36.0506V0.6ZM36.0506 5.75H30.6506V0.65H36.0506V5.75ZM36.0506 5.8V5.9H30.6506V5.8H36.0506ZM41.0506 0.6H35.6506V0.5H41.0506V0.6ZM41.0506 5.75H35.6506V0.65H41.0506V5.75ZM41.0506 5.8V5.9H35.6506V5.8H41.0506ZM56.0506 0.6H50.6506V0.5H56.0506V0.6ZM56.0506 5.75H50.6506V0.65H56.0506V5.75ZM56.0506 5.8V5.9H50.6506V5.8H56.0506ZM61.0506 0.6H55.6506V0.5H61.0506V0.6ZM61.0506 5.75H55.6506V0.65H61.0506V5.75ZM61.0506 5.8V5.9H55.6506V5.8H61.0506ZM66.0506 0.6H60.6506V0.5H66.0506V0.6ZM66.0506 5.75H60.6506V0.65H66.0506V5.75ZM66.0506 5.8V5.9H60.6506V5.8H66.0506ZM71.0506 0.6H65.6506V0.5H71.0506V0.6ZM71.0506 5.75H65.6506V0.65H71.0506V5.75ZM71.0506 5.8V5.9H65.6506V5.8H71.0506ZM76.0506 0.6H70.6506V0.5H76.0506V0.6ZM76.0506 5.75H70.6506V0.65H76.0506V5.75ZM76.0506 5.8V5.9H70.6506V5.8H76.0506ZM81.0506 0.6H75.6506V0.5H81.0506V0.6ZM81.0506 5.75H75.6506V0.65H81.0506V5.75ZM81.0506 5.8V5.9H75.6506V5.8H81.0506ZM96.0506 0.6H90.6506V0.5H96.0506V0.6ZM96.0506 5.75H90.6506V0.65H96.0506V5.75ZM96.0506 5.8V5.9H90.6506V5.8H96.0506ZM101.051 0.6H95.6506V0.5H101.051V0.6ZM101.051 5.75H95.6506V0.65H101.051V5.75ZM101.051 5.8V5.9H95.6506V5.8H101.051ZM106.051 0.6H100.651V0.5H106.051V0.6ZM106.051 5.75H100.651V0.65H106.051V5.75ZM106.051 5.8V5.9H100.651V5.8H106.051ZM111.051 0.6H105.651V0.5H111.051V0.6ZM111.051 5.75H105.651V0.65H111.051V5.75ZM111.051 5.8V5.9H105.651V5.8H111.051ZM116.051 0.6H110.651V0.5H116.051V0.6ZM116.051 5.75H110.651V0.65H116.051V5.75ZM116.051 5.8V5.9H110.651V5.8H116.051ZM136.051 0.6H130.651V0.5H136.051V0.6ZM136.051 5.75H130.651V0.65H136.051V5.75ZM136.051 5.8V5.9H130.651V5.8H136.051ZM141.051 0.6H135.651V0.5H141.051V0.6ZM141.051 5.75H135.651V0.65H141.051V5.75ZM141.051 5.8V5.9H135.651V5.8H141.051ZM146.051 0.6H140.651V0.5H146.051V0.6ZM146.051 5.75H140.651V0.65H146.051V5.75ZM146.051 5.8V5.9H140.651V5.8H146.051ZM151.051 0.6H145.651V0.5H151.051V0.6ZM151.051 5.75H145.651V0.65H151.051V5.75ZM151.051 5.8V5.9H145.651V5.8H151.051ZM156.051 0.6H150.651V0.5H156.051V0.6ZM156.051 5.75H150.651V0.65H156.051V5.75ZM156.051 5.8V5.9H150.651V5.8H156.051ZM171.051 0.6H165.651V0.5H171.051V0.6ZM171.051 5.75H165.651V0.65H171.051V5.75ZM171.051 5.8V5.9H165.651V5.8H171.051ZM176.051 0.6H170.651V0.5H176.051V0.6ZM176.051 5.75H170.651V0.65H176.051V5.75ZM176.051 5.8V5.9H170.651V5.8H176.051ZM181.051 0.6H175.651V0.5H181.051V0.6ZM181.051 5.75H175.651V0.65H181.051V5.75ZM181.051 5.8V5.9H175.651V5.8H181.051ZM186.051 0.6H180.651V0.5H186.051V0.6ZM186.051 5.75H180.651V0.65H186.051V5.75ZM186.051 5.8V5.9H180.651V5.8H186.051ZM191.051 0.6H185.651V0.5H191.051V0.6ZM191.051 5.75H185.651V0.65H191.051V5.75ZM191.051 5.8V5.9H185.651V5.8H191.051ZM196.051 0.6H190.651V0.5H196.051V0.6ZM196.051 5.75H190.651V0.65H196.051V5.75ZM196.051 5.8V5.9H190.651V5.8H196.051ZM211.051 0.6H205.651V0.5H211.051V0.6ZM211.051 5.75H205.651V0.65H211.051V5.75ZM211.051 5.8V5.9H205.651V5.8H211.051ZM216.051 0.6H210.651V0.5H216.051V0.6ZM216.051 5.75H210.651V0.65H216.051V5.75ZM216.051 5.8V5.9H210.651V5.8H216.051ZM221.051 0.6H215.651V0.5H221.051V0.6ZM221.051 5.75H215.651V0.65H221.051V5.75ZM221.051 5.8V5.9H215.651V5.8H221.051ZM226.051 0.6H220.651V0.5H226.051V0.6ZM226.051 5.75H220.651V0.65H226.051V5.75ZM226.051 5.8V5.9H220.651V5.8H226.051ZM231.051 0.6H225.651V0.5H231.051V0.6ZM231.051 5.75H225.651V0.65H231.051V5.75ZM231.051 5.8V5.9H225.651V5.8H231.051ZM236.051 0.6H230.651V0.5H236.051V0.6ZM236.051 5.75H230.651V0.65H236.051V5.75ZM236.051 5.8V5.9H230.651V5.8H236.051ZM241.051 0.6H235.651V0.5H241.051V0.6ZM241.051 5.75H235.651V0.65H241.051V5.75ZM241.051 5.8V5.9H235.651V5.8H241.051ZM6.05059 6.6H0.650586V6.5H6.05059V6.6ZM6.05059 11.75H0.650586V6.65H6.05059V11.75ZM6.05059 11.8V11.9H0.650586V11.8H6.05059ZM11.0506 6.6H5.65059V6.5H11.0506V6.6ZM11.0506 11.75H5.65059V6.65H11.0506V11.75ZM11.0506 11.8V11.9H5.65059V11.8H11.0506ZM36.0506 6.6H30.6506V6.5H36.0506V6.6ZM36.0506 11.75H30.6506V6.65H36.0506V11.75ZM36.0506 11.8V11.9H30.6506V11.8H36.0506ZM41.0506 6.6H35.6506V6.5H41.0506V6.6ZM41.0506 11.75H35.6506V6.65H41.0506V11.75ZM41.0506 11.8V11.9H35.6506V11.8H41.0506ZM51.0506 6.6H45.6506V6.5H51.0506V6.6ZM51.0506 11.75H45.6506V6.65H51.0506V11.75ZM51.0506 11.8V11.9H45.6506V11.8H51.0506ZM56.0506 6.6H50.6506V6.5H56.0506V6.6ZM56.0506 11.75H50.6506V6.65H56.0506V11.75ZM56.0506 11.8V11.9H50.6506V11.8H56.0506ZM91.0506 6.6H85.6506V6.5H91.0506V6.6ZM91.0506 11.75H85.6506V6.65H91.0506V11.75ZM91.0506 11.8V11.9H85.6506V11.8H91.0506ZM96.0506 6.6H90.6506V6.5H96.0506V6.6ZM96.0506 11.75H90.6506V6.65H96.0506V11.75ZM96.0506 11.8V11.9H90.6506V11.8H96.0506ZM116.051 6.6H110.651V6.5H116.051V6.6ZM116.051 11.75H110.651V6.65H116.051V11.75ZM116.051 11.8V11.9H110.651V11.8H116.051ZM121.051 6.6H115.651V6.5H121.051V6.6ZM121.051 11.75H115.651V6.65H121.051V11.75ZM121.051 11.8V11.9H115.651V11.8H121.051ZM131.051 6.6H125.651V6.5H131.051V6.6ZM131.051 11.75H125.651V6.65H131.051V11.75ZM131.051 11.8V11.9H125.651V11.8H131.051ZM136.051 6.6H130.651V6.5H136.051V6.6ZM136.051 11.75H130.651V6.65H136.051V11.75ZM136.051 11.8V11.9H130.651V11.8H136.051ZM156.051 6.6H150.651V6.5H156.051V6.6ZM156.051 11.75H150.651V6.65H156.051V11.75ZM156.051 11.8V11.9H150.651V11.8H156.051ZM161.051 6.6H155.651V6.5H161.051V6.6ZM161.051 11.75H155.651V6.65H161.051V11.75ZM161.051 11.8V11.9H155.651V11.8H161.051ZM171.051 6.6H165.651V6.5H171.051V6.6ZM171.051 11.75H165.651V6.65H171.051V11.75ZM171.051 11.8V11.9H165.651V11.8H171.051ZM176.051 6.6H170.651V6.5H176.051V6.6ZM176.051 11.75H170.651V6.65H176.051V11.75ZM176.051 11.8V11.9H170.651V11.8H176.051ZM196.051 6.6H190.651V6.5H196.051V6.6ZM196.051 11.75H190.651V6.65H196.051V11.75ZM196.051 11.8V11.9H190.651V11.8H196.051ZM201.051 6.6H195.651V6.5H201.051V6.6ZM201.051 11.75H195.651V6.65H201.051V11.75ZM201.051 11.8V11.9H195.651V11.8H201.051ZM211.051 6.6H205.651V6.5H211.051V6.6ZM211.051 11.75H205.651V6.65H211.051V11.75ZM211.051 11.8V11.9H205.651V11.8H211.051ZM216.051 6.6H210.651V6.5H216.051V6.6ZM216.051 11.75H210.651V6.65H216.051V11.75ZM216.051 11.8V11.9H210.651V11.8H216.051ZM11.0506 12.6H5.65059V12.5H11.0506V12.6ZM11.0506 17.75H5.65059V12.65H11.0506V17.75ZM11.0506 17.8V17.9H5.65059V17.8H11.0506ZM16.0506 12.6H10.6506V12.5H16.0506V12.6ZM16.0506 17.75H10.6506V12.65H16.0506V17.75ZM16.0506 17.8V17.9H10.6506V17.8H16.0506ZM31.0506 12.6H25.6506V12.5H31.0506V12.6ZM31.0506 17.75H25.6506V12.65H31.0506V17.75ZM31.0506 17.8V17.9H25.6506V17.8H31.0506ZM36.0506 12.6H30.6506V12.5H36.0506V12.6ZM36.0506 17.75H30.6506V12.65H36.0506V17.75ZM36.0506 17.8V17.9H30.6506V17.8H36.0506ZM56.0506 12.6H50.6506V12.5H56.0506V12.6ZM56.0506 17.75H50.6506V12.65H56.0506V17.75ZM56.0506 17.8V17.9H50.6506V17.8H56.0506ZM61.0506 12.6H55.6506V12.5H61.0506V12.6ZM61.0506 17.75H55.6506V12.65H61.0506V17.75ZM61.0506 17.8V17.9H55.6506V17.8H61.0506ZM66.0506 12.6H60.6506V12.5H66.0506V12.6ZM66.0506 17.75H60.6506V12.65H66.0506V17.75ZM66.0506 17.8V17.9H60.6506V17.8H66.0506ZM71.0506 12.6H65.6506V12.5H71.0506V12.6ZM71.0506 17.75H65.6506V12.65H71.0506V17.75ZM71.0506 17.8V17.9H65.6506V17.8H71.0506ZM76.0506 12.6H70.6506V12.5H76.0506V12.6ZM76.0506 17.75H70.6506V12.65H76.0506V17.75ZM76.0506 17.8V17.9H70.6506V17.8H76.0506ZM91.0506 12.6H85.6506V12.5H91.0506V12.6ZM91.0506 17.75H85.6506V12.65H91.0506V17.75ZM91.0506 17.8V17.9H85.6506V17.8H91.0506ZM96.0506 12.6H90.6506V12.5H96.0506V12.6ZM96.0506 17.75H90.6506V12.65H96.0506V17.75ZM96.0506 17.8V17.9H90.6506V17.8H96.0506ZM131.051 12.6H125.651V12.5H131.051V12.6ZM131.051 17.75H125.651V12.65H131.051V17.75ZM131.051 17.8V17.9H125.651V17.8H131.051ZM136.051 12.6H130.651V12.5H136.051V12.6ZM136.051 17.75H130.651V12.65H136.051V17.75ZM136.051 17.8V17.9H130.651V17.8H136.051ZM156.051 12.6H150.651V12.5H156.051V12.6ZM156.051 17.75H150.651V12.65H156.051V17.75ZM156.051 17.8V17.9H150.651V17.8H156.051ZM161.051 12.6H155.651V12.5H161.051V12.6ZM161.051 17.75H155.651V12.65H161.051V17.75ZM161.051 17.8V17.9H155.651V17.8H161.051ZM171.051 12.6H165.651V12.5H171.051V12.6ZM171.051 17.75H165.651V12.65H171.051V17.75ZM171.051 17.8V17.9H165.651V17.8H171.051ZM176.051 12.6H170.651V12.5H176.051V12.6ZM176.051 17.75H170.651V12.65H176.051V17.75ZM176.051 17.8V17.9H170.651V17.8H176.051ZM196.051 12.6H190.651V12.5H196.051V12.6ZM196.051 17.75H190.651V12.65H196.051V17.75ZM196.051 17.8V17.9H190.651V17.8H196.051ZM201.051 12.6H195.651V12.5H201.051V12.6ZM201.051 17.75H195.651V12.65H201.051V17.75ZM201.051 17.8V17.9H195.651V17.8H201.051ZM211.051 12.6H205.651V12.5H211.051V12.6ZM211.051 17.75H205.651V12.65H211.051V17.75ZM211.051 17.8V17.9H205.651V17.8H211.051ZM216.051 12.6H210.651V12.5H216.051V12.6ZM216.051 17.75H210.651V12.65H216.051V17.75ZM216.051 17.8V17.9H210.651V17.8H216.051ZM221.051 12.6H215.651V12.5H221.051V12.6ZM221.051 17.75H215.651V12.65H221.051V17.75ZM221.051 17.8V17.9H215.651V17.8H221.051ZM226.051 12.6H220.651V12.5H226.051V12.6ZM226.051 17.75H220.651V12.65H226.051V17.75ZM226.051 17.8V17.9H220.651V17.8H226.051ZM231.051 12.6H225.651V12.5H231.051V12.6ZM231.051 17.75H225.651V12.65H231.051V17.75ZM231.051 17.8V17.9H225.651V17.8H231.051ZM16.0506 18.6H10.6506V18.5H16.0506V18.6ZM16.0506 23.75H10.6506V18.65H16.0506V23.75ZM16.0506 23.8V23.9H10.6506V23.8H16.0506ZM21.0506 18.6H15.6506V18.5H21.0506V18.6ZM21.0506 23.75H15.6506V18.65H21.0506V23.75ZM21.0506 23.8V23.9H15.6506V23.8H21.0506ZM26.0506 18.6H20.6506V18.5H26.0506V18.6ZM26.0506 23.75H20.6506V18.65H26.0506V23.75ZM26.0506 23.8V23.9H20.6506V23.8H26.0506ZM31.0506 18.6H25.6506V18.5H31.0506V18.6ZM31.0506 23.75H25.6506V18.65H31.0506V23.75ZM31.0506 23.8V23.9H25.6506V23.8H31.0506ZM76.0506 18.6H70.6506V18.5H76.0506V18.6ZM76.0506 23.75H70.6506V18.65H76.0506V23.75ZM76.0506 23.8V23.9H70.6506V23.8H76.0506ZM81.0506 18.6H75.6506V18.5H81.0506V18.6ZM81.0506 23.75H75.6506V18.65H81.0506V23.75ZM81.0506 23.8V23.9H75.6506V23.8H81.0506ZM91.0506 18.6H85.6506V18.5H91.0506V18.6ZM91.0506 23.75H85.6506V18.65H91.0506V23.75ZM91.0506 23.8V23.9H85.6506V23.8H91.0506ZM96.0506 18.6H90.6506V18.5H96.0506V18.6ZM96.0506 23.75H90.6506V18.65H96.0506V23.75ZM96.0506 23.8V23.9H90.6506V23.8H96.0506ZM116.051 18.6H110.651V18.5H116.051V18.6ZM116.051 23.75H110.651V18.65H116.051V23.75ZM116.051 23.8V23.9H110.651V23.8H116.051ZM121.051 18.6H115.651V18.5H121.051V18.6ZM121.051 23.75H115.651V18.65H121.051V23.75ZM121.051 23.8V23.9H115.651V23.8H121.051ZM131.051 18.6H125.651V18.5H131.051V18.6ZM131.051 23.75H125.651V18.65H131.051V23.75ZM131.051 23.8V23.9H125.651V23.8H131.051ZM136.051 18.6H130.651V18.5H136.051V18.6ZM136.051 23.75H130.651V18.65H136.051V23.75ZM136.051 23.8V23.9H130.651V23.8H136.051ZM156.051 18.6H150.651V18.5H156.051V18.6ZM156.051 23.75H150.651V18.65H156.051V23.75ZM156.051 23.8V23.9H150.651V23.8H156.051ZM161.051 18.6H155.651V18.5H161.051V18.6ZM161.051 23.75H155.651V18.65H161.051V23.75ZM161.051 23.8V23.9H155.651V23.8H161.051ZM171.051 18.6H165.651V18.5H171.051V18.6ZM171.051 23.75H165.651V18.65H171.051V23.75ZM171.051 23.8V23.9H165.651V23.8H171.051ZM176.051 18.6H170.651V18.5H176.051V18.6ZM176.051 23.75H170.651V18.65H176.051V23.75ZM176.051 23.8V23.9H170.651V23.8H176.051ZM196.051 18.6H190.651V18.5H196.051V18.6ZM196.051 23.75H190.651V18.65H196.051V23.75ZM196.051 23.8V23.9H190.651V23.8H196.051ZM201.051 18.6H195.651V18.5H201.051V18.6ZM201.051 23.75H195.651V18.65H201.051V23.75ZM201.051 23.8V23.9H195.651V23.8H201.051ZM211.051 18.6H205.651V18.5H211.051V18.6ZM211.051 23.75H205.651V18.65H211.051V23.75ZM211.051 23.8V23.9H205.651V23.8H211.051ZM216.051 18.6H210.651V18.5H216.051V18.6ZM216.051 23.75H210.651V18.65H216.051V23.75ZM216.051 23.8V23.9H210.651V23.8H216.051ZM21.0506 24.6H15.6506V24.5H21.0506V24.6ZM21.0506 29.75H15.6506V24.65H21.0506V29.75ZM21.0506 29.8V29.9H15.6506V29.8H21.0506ZM26.0506 24.6H20.6506V24.5H26.0506V24.6ZM26.0506 29.75H20.6506V24.65H26.0506V29.75ZM26.0506 29.8V29.9H20.6506V29.8H26.0506ZM51.0506 24.6H45.6506V24.5H51.0506V24.6ZM51.0506 29.75H45.6506V24.65H51.0506V29.75ZM51.0506 29.8V29.9H45.6506V29.8H51.0506ZM56.0506 24.6H50.6506V24.5H56.0506V24.6ZM56.0506 29.75H50.6506V24.65H56.0506V29.75ZM56.0506 29.8V29.9H50.6506V29.8H56.0506ZM61.0506 24.6H55.6506V24.5H61.0506V24.6ZM61.0506 29.75H55.6506V24.65H61.0506V29.75ZM61.0506 29.8V29.9H55.6506V29.8H61.0506ZM66.0506 24.6H60.6506V24.5H66.0506V24.6ZM66.0506 29.75H60.6506V24.65H66.0506V29.75ZM66.0506 29.8V29.9H60.6506V29.8H66.0506ZM71.0506 24.6H65.6506V24.5H71.0506V24.6ZM71.0506 29.75H65.6506V24.65H71.0506V29.75ZM71.0506 29.8V29.9H65.6506V29.8H71.0506ZM76.0506 24.6H70.6506V24.5H76.0506V24.6ZM76.0506 29.75H70.6506V24.65H76.0506V29.75ZM76.0506 29.8V29.9H70.6506V29.8H76.0506ZM96.0506 24.6H90.6506V24.5H96.0506V24.6ZM96.0506 29.75H90.6506V24.65H96.0506V29.75ZM96.0506 29.8V29.9H90.6506V29.8H96.0506ZM101.051 24.6H95.6506V24.5H101.051V24.6ZM101.051 29.75H95.6506V24.65H101.051V29.75ZM101.051 29.8V29.9H95.6506V29.8H101.051ZM106.051 24.6H100.651V24.5H106.051V24.6ZM106.051 29.75H100.651V24.65H106.051V29.75ZM106.051 29.8V29.9H100.651V29.8H106.051ZM111.051 24.6H105.651V24.5H111.051V24.6ZM111.051 29.75H105.651V24.65H111.051V29.75ZM111.051 29.8V29.9H105.651V29.8H111.051ZM116.051 24.6H110.651V24.5H116.051V24.6ZM116.051 29.75H110.651V24.65H116.051V29.75ZM116.051 29.8V29.9H110.651V29.8H116.051ZM136.051 24.6H130.651V24.5H136.051V24.6ZM136.051 29.75H130.651V24.65H136.051V29.75ZM136.051 29.8V29.9H130.651V29.8H136.051ZM141.051 24.6H135.651V24.5H141.051V24.6ZM141.051 29.75H135.651V24.65H141.051V29.75ZM141.051 29.8V29.9H135.651V29.8H141.051ZM146.051 24.6H140.651V24.5H146.051V24.6ZM146.051 29.75H140.651V24.65H146.051V29.75ZM146.051 29.8V29.9H140.651V29.8H146.051ZM151.051 24.6H145.651V24.5H151.051V24.6ZM151.051 29.75H145.651V24.65H151.051V29.75ZM151.051 29.8V29.9H145.651V29.8H151.051ZM156.051 24.6H150.651V24.5H156.051V24.6ZM156.051 29.75H150.651V24.65H156.051V29.75ZM156.051 29.8V29.9H150.651V29.8H156.051ZM171.051 24.6H165.651V24.5H171.051V24.6ZM171.051 29.75H165.651V24.65H171.051V29.75ZM171.051 29.8V29.9H165.651V29.8H171.051ZM176.051 24.6H170.651V24.5H176.051V24.6ZM176.051 29.75H170.651V24.65H176.051V29.75ZM176.051 29.8V29.9H170.651V29.8H176.051ZM181.051 24.6H175.651V24.5H181.051V24.6ZM181.051 29.75H175.651V24.65H181.051V29.75ZM181.051 29.8V29.9H175.651V29.8H181.051ZM186.051 24.6H180.651V24.5H186.051V24.6ZM186.051 29.75H180.651V24.65H186.051V29.75ZM186.051 29.8V29.9H180.651V29.8H186.051ZM191.051 24.6H185.651V24.5H191.051V24.6ZM191.051 29.75H185.651V24.65H191.051V29.75ZM191.051 29.8V29.9H185.651V29.8H191.051ZM196.051 24.6H190.651V24.5H196.051V24.6ZM196.051 29.75H190.651V24.65H196.051V29.75ZM196.051 29.8V29.9H190.651V29.8H196.051ZM211.051 24.6H205.651V24.5H211.051V24.6ZM211.051 29.75H205.651V24.65H211.051V29.75ZM211.051 29.8V29.9H205.651V29.8H211.051ZM216.051 24.6H210.651V24.5H216.051V24.6ZM216.051 29.75H210.651V24.65H216.051V29.75ZM216.051 29.8V29.9H210.651V29.8H216.051ZM221.051 24.6H215.651V24.5H221.051V24.6ZM221.051 29.75H215.651V24.65H221.051V29.75ZM221.051 29.8V29.9H215.651V29.8H221.051ZM226.051 24.6H220.651V24.5H226.051V24.6ZM226.051 29.75H220.651V24.65H226.051V29.75ZM226.051 29.8V29.9H220.651V29.8H226.051ZM231.051 24.6H225.651V24.5H231.051V24.6ZM231.051 29.75H225.651V24.65H231.051V29.75ZM231.051 29.8V29.9H225.651V29.8H231.051ZM236.051 24.6H230.651V24.5H236.051V24.6ZM236.051 29.75H230.651V24.65H236.051V29.75ZM236.051 29.8V29.9H230.651V29.8H236.051ZM241.051 24.6H235.651V24.5H241.051V24.6ZM241.051 29.75H235.651V24.65H241.051V29.75ZM241.051 29.8V29.9H235.651V29.8H241.051Z" fill="#008CFF"/>
</svg>
