<svg width="392" height="59" viewBox="0 0 392 59" fill="none" xmlns="http://www.w3.org/2000/svg">
<path d="M11.1339 0.2802H0.333887V0.0801998H11.1339V0.2802ZM11.1339 10.5802H0.333887V0.3802H11.1339V10.5802ZM11.1339 10.6802V10.8802H0.333887V10.6802H11.1339ZM21.1339 0.2802H10.3339V0.0801998H21.1339V0.2802ZM21.1339 10.5802H10.3339V0.3802H21.1339V10.5802ZM21.1339 10.6802V10.8802H10.3339V10.6802H21.1339ZM61.1339 0.2802H50.3339V0.0801998H61.1339V0.2802ZM61.1339 10.5802H50.3339V0.3802H61.1339V10.5802ZM61.1339 10.6802V10.8802H50.3339V10.6802H61.1339ZM71.1339 0.2802H60.3339V0.0801998H71.1339V0.2802ZM71.1339 10.5802H60.3339V0.3802H71.1339V10.5802ZM71.1339 10.6802V10.8802H60.3339V10.6802H71.1339ZM91.1339 0.2802H80.3339V0.0801998H91.1339V0.2802ZM91.1339 10.5802H80.3339V0.3802H91.1339V10.5802ZM91.1339 10.6802V10.8802H80.3339V10.6802H91.1339ZM101.134 0.2802H90.3339V0.0801998H101.134V0.2802ZM101.134 10.5802H90.3339V0.3802H101.134V10.5802ZM101.134 10.6802V10.8802H90.3339V10.6802H101.134ZM111.134 0.2802H100.334V0.0801998H111.134V0.2802ZM111.134 10.5802H100.334V0.3802H111.134V10.5802ZM111.134 10.6802V10.8802H100.334V10.6802H111.134ZM121.134 0.2802H110.334V0.0801998H121.134V0.2802ZM121.134 10.5802H110.334V0.3802H121.134V10.5802ZM121.134 10.6802V10.8802H110.334V10.6802H121.134ZM131.134 0.2802H120.334V0.0801998H131.134V0.2802ZM131.134 10.5802H120.334V0.3802H131.134V10.5802ZM131.134 10.6802V10.8802H120.334V10.6802H131.134ZM141.134 0.2802H130.334V0.0801998H141.134V0.2802ZM141.134 10.5802H130.334V0.3802H141.134V10.5802ZM141.134 10.6802V10.8802H130.334V10.6802H141.134ZM151.134 0.2802H140.334V0.0801998H151.134V0.2802ZM151.134 10.5802H140.334V0.3802H151.134V10.5802ZM151.134 10.6802V10.8802H140.334V10.6802H151.134ZM171.134 0.2802H160.334V0.0801998H171.134V0.2802ZM171.134 10.5802H160.334V0.3802H171.134V10.5802ZM171.134 10.6802V10.8802H160.334V10.6802H171.134ZM181.134 0.2802H170.334V0.0801998H181.134V0.2802ZM181.134 10.5802H170.334V0.3802H181.134V10.5802ZM181.134 10.6802V10.8802H170.334V10.6802H181.134ZM251.134 0.2802H240.334V0.0801998H251.134V0.2802ZM251.134 10.5802H240.334V0.3802H251.134V10.5802ZM251.134 10.6802V10.8802H240.334V10.6802H251.134ZM261.134 0.2802H250.334V0.0801998H261.134V0.2802ZM261.134 10.5802H250.334V0.3802H261.134V10.5802ZM261.134 10.6802V10.8802H250.334V10.6802H261.134ZM341.134 0.2802H330.334V0.0801998H341.134V0.2802ZM341.134 10.5802H330.334V0.3802H341.134V10.5802ZM341.134 10.6802V10.8802H330.334V10.6802H341.134ZM351.134 0.2802H340.334V0.0801998H351.134V0.2802ZM351.134 10.5802H340.334V0.3802H351.134V10.5802ZM351.134 10.6802V10.8802H340.334V10.6802H351.134ZM361.134 0.2802H350.334V0.0801998H361.134V0.2802ZM361.134 10.5802H350.334V0.3802H361.134V10.5802ZM361.134 10.6802V10.8802H350.334V10.6802H361.134ZM371.134 0.2802H360.334V0.0801998H371.134V0.2802ZM371.134 10.5802H360.334V0.3802H371.134V10.5802ZM371.134 10.6802V10.8802H360.334V10.6802H371.134ZM381.134 0.2802H370.334V0.0801998H381.134V0.2802ZM381.134 10.5802H370.334V0.3802H381.134V10.5802ZM381.134 10.6802V10.8802H370.334V10.6802H381.134ZM11.1339 12.2802H0.333887V12.0802H11.1339V12.2802ZM11.1339 22.5802H0.333887V12.3802H11.1339V22.5802ZM11.1339 22.6802V22.8802H0.333887V22.6802H11.1339ZM21.1339 12.2802H10.3339V12.0802H21.1339V12.2802ZM21.1339 22.5802H10.3339V12.3802H21.1339V22.5802ZM21.1339 22.6802V22.8802H10.3339V22.6802H21.1339ZM61.1339 12.2802H50.3339V12.0802H61.1339V12.2802ZM61.1339 22.5802H50.3339V12.3802H61.1339V22.5802ZM61.1339 22.6802V22.8802H50.3339V22.6802H61.1339ZM71.1339 12.2802H60.3339V12.0802H71.1339V12.2802ZM71.1339 22.5802H60.3339V12.3802H71.1339V22.5802ZM71.1339 22.6802V22.8802H60.3339V22.6802H71.1339ZM91.1339 12.2802H80.3339V12.0802H91.1339V12.2802ZM91.1339 22.5802H80.3339V12.3802H91.1339V22.5802ZM91.1339 22.6802V22.8802H80.3339V22.6802H91.1339ZM101.134 12.2802H90.3339V12.0802H101.134V12.2802ZM101.134 22.5802H90.3339V12.3802H101.134V22.5802ZM101.134 22.6802V22.8802H90.3339V22.6802H101.134ZM171.134 12.2802H160.334V12.0802H171.134V12.2802ZM171.134 22.5802H160.334V12.3802H171.134V22.5802ZM171.134 22.6802V22.8802H160.334V22.6802H171.134ZM181.134 12.2802H170.334V12.0802H181.134V12.2802ZM181.134 22.5802H170.334V12.3802H181.134V22.5802ZM181.134 22.6802V22.8802H170.334V22.6802H181.134ZM251.134 12.2802H240.334V12.0802H251.134V12.2802ZM251.134 22.5802H240.334V12.3802H251.134V22.5802ZM251.134 22.6802V22.8802H240.334V22.6802H251.134ZM261.134 12.2802H250.334V12.0802H261.134V12.2802ZM261.134 22.5802H250.334V12.3802H261.134V22.5802ZM261.134 22.6802V22.8802H250.334V22.6802H261.134ZM331.134 12.2802H320.334V12.0802H331.134V12.2802ZM331.134 22.5802H320.334V12.3802H331.134V22.5802ZM331.134 22.6802V22.8802H320.334V22.6802H331.134ZM341.134 12.2802H330.334V12.0802H341.134V12.2802ZM341.134 22.5802H330.334V12.3802H341.134V22.5802ZM341.134 22.6802V22.8802H330.334V22.6802H341.134ZM381.134 12.2802H370.334V12.0802H381.134V12.2802ZM381.134 22.5802H370.334V12.3802H381.134V22.5802ZM381.134 22.6802V22.8802H370.334V22.6802H381.134ZM391.134 12.2802H380.334V12.0802H391.134V12.2802ZM391.134 22.5802H380.334V12.3802H391.134V22.5802ZM391.134 22.6802V22.8802H380.334V22.6802H391.134ZM11.1339 24.2802H0.333887V24.0802H11.1339V24.2802ZM11.1339 34.5802H0.333887V24.3802H11.1339V34.5802ZM11.1339 34.6802V34.8802H0.333887V34.6802H11.1339ZM21.1339 24.2802H10.3339V24.0802H21.1339V24.2802ZM21.1339 34.5802H10.3339V24.3802H21.1339V34.5802ZM21.1339 34.6802V34.8802H10.3339V34.6802H21.1339ZM31.1339 24.2802H20.3339V24.0802H31.1339V24.2802ZM31.1339 34.5802H20.3339V24.3802H31.1339V34.5802ZM31.1339 34.6802V34.8802H20.3339V34.6802H31.1339ZM41.1339 24.2802H30.3339V24.0802H41.1339V24.2802ZM41.1339 34.5802H30.3339V24.3802H41.1339V34.5802ZM41.1339 34.6802V34.8802H30.3339V34.6802H41.1339ZM51.1339 24.2802H40.3339V24.0802H51.1339V24.2802ZM51.1339 34.5802H40.3339V24.3802H51.1339V34.5802ZM51.1339 34.6802V34.8802H40.3339V34.6802H51.1339ZM61.1339 24.2802H50.3339V24.0802H61.1339V24.2802ZM61.1339 34.5802H50.3339V24.3802H61.1339V34.5802ZM61.1339 34.6802V34.8802H50.3339V34.6802H61.1339ZM71.1339 24.2802H60.3339V24.0802H71.1339V24.2802ZM71.1339 34.5802H60.3339V24.3802H71.1339V34.5802ZM71.1339 34.6802V34.8802H60.3339V34.6802H71.1339ZM91.1339 24.2802H80.3339V24.0802H91.1339V24.2802ZM91.1339 34.5802H80.3339V24.3802H91.1339V34.5802ZM91.1339 34.6802V34.8802H80.3339V34.6802H91.1339ZM101.134 24.2802H90.3339V24.0802H101.134V24.2802ZM101.134 34.5802H90.3339V24.3802H101.134V34.5802ZM101.134 34.6802V34.8802H90.3339V34.6802H101.134ZM111.134 24.2802H100.334V24.0802H111.134V24.2802ZM111.134 34.5802H100.334V24.3802H111.134V34.5802ZM111.134 34.6802V34.8802H100.334V34.6802H111.134ZM121.134 24.2802H110.334V24.0802H121.134V24.2802ZM121.134 34.5802H110.334V24.3802H121.134V34.5802ZM121.134 34.6802V34.8802H110.334V34.6802H121.134ZM131.134 24.2802H120.334V24.0802H131.134V24.2802ZM131.134 34.5802H120.334V24.3802H131.134V34.5802ZM131.134 34.6802V34.8802H120.334V34.6802H131.134ZM171.134 24.2802H160.334V24.0802H171.134V24.2802ZM171.134 34.5802H160.334V24.3802H171.134V34.5802ZM171.134 34.6802V34.8802H160.334V34.6802H171.134ZM181.134 24.2802H170.334V24.0802H181.134V24.2802ZM181.134 34.5802H170.334V24.3802H181.134V34.5802ZM181.134 34.6802V34.8802H170.334V34.6802H181.134ZM251.134 24.2802H240.334V24.0802H251.134V24.2802ZM251.134 34.5802H240.334V24.3802H251.134V34.5802ZM251.134 34.6802V34.8802H240.334V34.6802H251.134ZM261.134 24.2802H250.334V24.0802H261.134V24.2802ZM261.134 34.5802H250.334V24.3802H261.134V34.5802ZM261.134 34.6802V34.8802H250.334V34.6802H261.134ZM331.134 24.2802H320.334V24.0802H331.134V24.2802ZM331.134 34.5802H320.334V24.3802H331.134V34.5802ZM331.134 34.6802V34.8802H320.334V34.6802H331.134ZM341.134 24.2802H330.334V24.0802H341.134V24.2802ZM341.134 34.5802H330.334V24.3802H341.134V34.5802ZM341.134 34.6802V34.8802H330.334V34.6802H341.134ZM381.134 24.2802H370.334V24.0802H381.134V24.2802ZM381.134 34.5802H370.334V24.3802H381.134V34.5802ZM381.134 34.6802V34.8802H370.334V34.6802H381.134ZM391.134 24.2802H380.334V24.0802H391.134V24.2802ZM391.134 34.5802H380.334V24.3802H391.134V34.5802ZM391.134 34.6802V34.8802H380.334V34.6802H391.134ZM11.1339 36.2802H0.333887V36.0802H11.1339V36.2802ZM11.1339 46.5802H0.333887V36.3802H11.1339V46.5802ZM11.1339 46.6802V46.8802H0.333887V46.6802H11.1339ZM21.1339 36.2802H10.3339V36.0802H21.1339V36.2802ZM21.1339 46.5802H10.3339V36.3802H21.1339V46.5802ZM21.1339 46.6802V46.8802H10.3339V46.6802H21.1339ZM61.1339 36.2802H50.3339V36.0802H61.1339V36.2802ZM61.1339 46.5802H50.3339V36.3802H61.1339V46.5802ZM61.1339 46.6802V46.8802H50.3339V46.6802H61.1339ZM71.1339 36.2802H60.3339V36.0802H71.1339V36.2802ZM71.1339 46.5802H60.3339V36.3802H71.1339V46.5802ZM71.1339 46.6802V46.8802H60.3339V46.6802H71.1339ZM91.1339 36.2802H80.3339V36.0802H91.1339V36.2802ZM91.1339 46.5802H80.3339V36.3802H91.1339V46.5802ZM91.1339 46.6802V46.8802H80.3339V46.6802H91.1339ZM101.134 36.2802H90.3339V36.0802H101.134V36.2802ZM101.134 46.5802H90.3339V36.3802H101.134V46.5802ZM101.134 46.6802V46.8802H90.3339V46.6802H101.134ZM171.134 36.2802H160.334V36.0802H171.134V36.2802ZM171.134 46.5802H160.334V36.3802H171.134V46.5802ZM171.134 46.6802V46.8802H160.334V46.6802H171.134ZM181.134 36.2802H170.334V36.0802H181.134V36.2802ZM181.134 46.5802H170.334V36.3802H181.134V46.5802ZM181.134 46.6802V46.8802H170.334V46.6802H181.134ZM251.134 36.2802H240.334V36.0802H251.134V36.2802ZM251.134 46.5802H240.334V36.3802H251.134V46.5802ZM251.134 46.6802V46.8802H240.334V46.6802H251.134ZM261.134 36.2802H250.334V36.0802H261.134V36.2802ZM261.134 46.5802H250.334V36.3802H261.134V46.5802ZM261.134 46.6802V46.8802H250.334V46.6802H261.134ZM331.134 36.2802H320.334V36.0802H331.134V36.2802ZM331.134 46.5802H320.334V36.3802H331.134V46.5802ZM331.134 46.6802V46.8802H320.334V46.6802H331.134ZM341.134 36.2802H330.334V36.0802H341.134V36.2802ZM341.134 46.5802H330.334V36.3802H341.134V46.5802ZM341.134 46.6802V46.8802H330.334V46.6802H341.134ZM381.134 36.2802H370.334V36.0802H381.134V36.2802ZM381.134 46.5802H370.334V36.3802H381.134V46.5802ZM381.134 46.6802V46.8802H370.334V46.6802H381.134ZM391.134 36.2802H380.334V36.0802H391.134V36.2802ZM391.134 46.5802H380.334V36.3802H391.134V46.5802ZM391.134 46.6802V46.8802H380.334V46.6802H391.134ZM11.1339 48.2802H0.333887V48.0802H11.1339V48.2802ZM11.1339 58.5802H0.333887V48.3802H11.1339V58.5802ZM11.1339 58.6802V58.8802H0.333887V58.6802H11.1339ZM21.1339 48.2802H10.3339V48.0802H21.1339V48.2802ZM21.1339 58.5802H10.3339V48.3802H21.1339V58.5802ZM21.1339 58.6802V58.8802H10.3339V58.6802H21.1339ZM61.1339 48.2802H50.3339V48.0802H61.1339V48.2802ZM61.1339 58.5802H50.3339V48.3802H61.1339V58.5802ZM61.1339 58.6802V58.8802H50.3339V58.6802H61.1339ZM71.1339 48.2802H60.3339V48.0802H71.1339V48.2802ZM71.1339 58.5802H60.3339V48.3802H71.1339V58.5802ZM71.1339 58.6802V58.8802H60.3339V58.6802H71.1339ZM91.1339 48.2802H80.3339V48.0802H91.1339V48.2802ZM91.1339 58.5802H80.3339V48.3802H91.1339V58.5802ZM91.1339 58.6802V58.8802H80.3339V58.6802H91.1339ZM101.134 48.2802H90.3339V48.0802H101.134V48.2802ZM101.134 58.5802H90.3339V48.3802H101.134V58.5802ZM101.134 58.6802V58.8802H90.3339V58.6802H101.134ZM111.134 48.2802H100.334V48.0802H111.134V48.2802ZM111.134 58.5802H100.334V48.3802H111.134V58.5802ZM111.134 58.6802V58.8802H100.334V58.6802H111.134ZM121.134 48.2802H110.334V48.0802H121.134V48.2802ZM121.134 58.5802H110.334V48.3802H121.134V58.5802ZM121.134 58.6802V58.8802H110.334V58.6802H121.134ZM131.134 48.2802H120.334V48.0802H131.134V48.2802ZM131.134 58.5802H120.334V48.3802H131.134V58.5802ZM131.134 58.6802V58.8802H120.334V58.6802H131.134ZM141.134 48.2802H130.334V48.0802H141.134V48.2802ZM141.134 58.5802H130.334V48.3802H141.134V58.5802ZM141.134 58.6802V58.8802H130.334V58.6802H141.134ZM151.134 48.2802H140.334V48.0802H151.134V48.2802ZM151.134 58.5802H140.334V48.3802H151.134V58.5802ZM151.134 58.6802V58.8802H140.334V58.6802H151.134ZM171.134 48.2802H160.334V48.0802H171.134V48.2802ZM171.134 58.5802H160.334V48.3802H171.134V58.5802ZM171.134 58.6802V58.8802H160.334V58.6802H171.134ZM181.134 48.2802H170.334V48.0802H181.134V48.2802ZM181.134 58.5802H170.334V48.3802H181.134V58.5802ZM181.134 58.6802V58.8802H170.334V58.6802H181.134ZM191.134 48.2802H180.334V48.0802H191.134V48.2802ZM191.134 58.5802H180.334V48.3802H191.134V58.5802ZM191.134 58.6802V58.8802H180.334V58.6802H191.134ZM201.134 48.2802H190.334V48.0802H201.134V48.2802ZM201.134 58.5802H190.334V48.3802H201.134V58.5802ZM201.134 58.6802V58.8802H190.334V58.6802H201.134ZM211.134 48.2802H200.334V48.0802H211.134V48.2802ZM211.134 58.5802H200.334V48.3802H211.134V58.5802ZM211.134 58.6802V58.8802H200.334V58.6802H211.134ZM221.134 48.2802H210.334V48.0802H221.134V48.2802ZM221.134 58.5802H210.334V48.3802H221.134V58.5802ZM221.134 58.6802V58.8802H210.334V58.6802H221.134ZM231.134 48.2802H220.334V48.0802H231.134V48.2802ZM231.134 58.5802H220.334V48.3802H231.134V58.5802ZM231.134 58.6802V58.8802H220.334V58.6802H231.134ZM251.134 48.2802H240.334V48.0802H251.134V48.2802ZM251.134 58.5802H240.334V48.3802H251.134V58.5802ZM251.134 58.6802V58.8802H240.334V58.6802H251.134ZM261.134 48.2802H250.334V48.0802H261.134V48.2802ZM261.134 58.5802H250.334V48.3802H261.134V58.5802ZM261.134 58.6802V58.8802H250.334V58.6802H261.134ZM271.134 48.2802H260.334V48.0802H271.134V48.2802ZM271.134 58.5802H260.334V48.3802H271.134V58.5802ZM271.134 58.6802V58.8802H260.334V58.6802H271.134ZM281.134 48.2802H270.334V48.0802H281.134V48.2802ZM281.134 58.5802H270.334V48.3802H281.134V58.5802ZM281.134 58.6802V58.8802H270.334V58.6802H281.134ZM291.134 48.2802H280.334V48.0802H291.134V48.2802ZM291.134 58.5802H280.334V48.3802H291.134V58.5802ZM291.134 58.6802V58.8802H280.334V58.6802H291.134ZM301.134 48.2802H290.334V48.0802H301.134V48.2802ZM301.134 58.5802H290.334V48.3802H301.134V58.5802ZM301.134 58.6802V58.8802H290.334V58.6802H301.134ZM311.134 48.2802H300.334V48.0802H311.134V48.2802ZM311.134 58.5802H300.334V48.3802H311.134V58.5802ZM311.134 58.6802V58.8802H300.334V58.6802H311.134ZM341.134 48.2802H330.334V48.0802H341.134V48.2802ZM341.134 58.5802H330.334V48.3802H341.134V58.5802ZM341.134 58.6802V58.8802H330.334V58.6802H341.134ZM351.134 48.2802H340.334V48.0802H351.134V48.2802ZM351.134 58.5802H340.334V48.3802H351.134V58.5802ZM351.134 58.6802V58.8802H340.334V58.6802H351.134ZM361.134 48.2802H350.334V48.0802H361.134V48.2802ZM361.134 58.5802H350.334V48.3802H361.134V58.5802ZM361.134 58.6802V58.8802H350.334V58.6802H361.134ZM371.134 48.2802H360.334V48.0802H371.134V48.2802ZM371.134 58.5802H360.334V48.3802H371.134V58.5802ZM371.134 58.6802V58.8802H360.334V58.6802H371.134ZM381.134 48.2802H370.334V48.0802H381.134V48.2802ZM381.134 58.5802H370.334V48.3802H381.134V58.5802ZM381.134 58.6802V58.8802H370.334V58.6802H381.134Z" fill="WHITE"/>
</svg>
