<svg width="692" height="59" viewBox="0 0 692 59" fill="none" xmlns="http://www.w3.org/2000/svg">
<path d="M11.6012 0.199999H0.801172V-3.57628e-07H11.6012V0.199999ZM11.6012 10.5H0.801172V0.299999H11.6012V10.5ZM11.6012 10.6V10.8H0.801172V10.6H11.6012ZM21.6012 0.199999H10.8012V-3.57628e-07H21.6012V0.199999ZM21.6012 10.5H10.8012V0.299999H21.6012V10.5ZM21.6012 10.6V10.8H10.8012V10.6H21.6012ZM31.6012 0.199999H20.8012V-3.57628e-07H31.6012V0.199999ZM31.6012 10.5H20.8012V0.299999H31.6012V10.5ZM31.6012 10.6V10.8H20.8012V10.6H31.6012ZM81.6012 0.199999H70.8012V-3.57628e-07H81.6012V0.199999ZM81.6012 10.5H70.8012V0.299999H81.6012V10.5ZM81.6012 10.6V10.8H70.8012V10.6H81.6012ZM91.6012 0.199999H80.8012V-3.57628e-07H91.6012V0.199999ZM91.6012 10.5H80.8012V0.299999H91.6012V10.5ZM91.6012 10.6V10.8H80.8012V10.6H91.6012ZM101.601 0.199999H90.8012V-3.57628e-07H101.601V0.199999ZM101.601 10.5H90.8012V0.299999H101.601V10.5ZM101.601 10.6V10.8H90.8012V10.6H101.601ZM121.601 0.199999H110.801V-3.57628e-07H121.601V0.199999ZM121.601 10.5H110.801V0.299999H121.601V10.5ZM121.601 10.6V10.8H110.801V10.6H121.601ZM131.601 0.199999H120.801V-3.57628e-07H131.601V0.199999ZM131.601 10.5H120.801V0.299999H131.601V10.5ZM131.601 10.6V10.8H120.801V10.6H131.601ZM161.601 0.199999H150.801V-3.57628e-07H161.601V0.199999ZM161.601 10.5H150.801V0.299999H161.601V10.5ZM161.601 10.6V10.8H150.801V10.6H161.601ZM171.601 0.199999H160.801V-3.57628e-07H171.601V0.199999ZM171.601 10.5H160.801V0.299999H171.601V10.5ZM171.601 10.6V10.8H160.801V10.6H171.601ZM181.601 0.199999H170.801V-3.57628e-07H181.601V0.199999ZM181.601 10.5H170.801V0.299999H181.601V10.5ZM181.601 10.6V10.8H170.801V10.6H181.601ZM191.601 0.199999H180.801V-3.57628e-07H191.601V0.199999ZM191.601 10.5H180.801V0.299999H191.601V10.5ZM191.601 10.6V10.8H180.801V10.6H191.601ZM201.601 0.199999H190.801V-3.57628e-07H201.601V0.199999ZM201.601 10.5H190.801V0.299999H201.601V10.5ZM201.601 10.6V10.8H190.801V10.6H201.601ZM231.601 0.199999H220.801V-3.57628e-07H231.601V0.199999ZM231.601 10.5H220.801V0.299999H231.601V10.5ZM231.601 10.6V10.8H220.801V10.6H231.601ZM241.601 0.199999H230.801V-3.57628e-07H241.601V0.199999ZM241.601 10.5H230.801V0.299999H241.601V10.5ZM241.601 10.6V10.8H230.801V10.6H241.601ZM251.601 0.199999H240.801V-3.57628e-07H251.601V0.199999ZM251.601 10.5H240.801V0.299999H251.601V10.5ZM251.601 10.6V10.8H240.801V10.6H251.601ZM261.601 0.199999H250.801V-3.57628e-07H261.601V0.199999ZM261.601 10.5H250.801V0.299999H261.601V10.5ZM261.601 10.6V10.8H250.801V10.6H261.601ZM271.601 0.199999H260.801V-3.57628e-07H271.601V0.199999ZM271.601 10.5H260.801V0.299999H271.601V10.5ZM271.601 10.6V10.8H260.801V10.6H271.601ZM281.601 0.199999H270.801V-3.57628e-07H281.601V0.199999ZM281.601 10.5H270.801V0.299999H281.601V10.5ZM281.601 10.6V10.8H270.801V10.6H281.601ZM311.601 0.199999H300.801V-3.57628e-07H311.601V0.199999ZM311.601 10.5H300.801V0.299999H311.601V10.5ZM311.601 10.6V10.8H300.801V10.6H311.601ZM321.601 0.199999H310.801V-3.57628e-07H321.601V0.199999ZM321.601 10.5H310.801V0.299999H321.601V10.5ZM321.601 10.6V10.8H310.801V10.6H321.601ZM331.601 0.199999H320.801V-3.57628e-07H331.601V0.199999ZM331.601 10.5H320.801V0.299999H331.601V10.5ZM331.601 10.6V10.8H320.801V10.6H331.601ZM341.601 0.199999H330.801V-3.57628e-07H341.601V0.199999ZM341.601 10.5H330.801V0.299999H341.601V10.5ZM341.601 10.6V10.8H330.801V10.6H341.601ZM351.601 0.199999H340.801V-3.57628e-07H351.601V0.199999ZM351.601 10.5H340.801V0.299999H351.601V10.5ZM351.601 10.6V10.8H340.801V10.6H351.601ZM361.601 0.199999H350.801V-3.57628e-07H361.601V0.199999ZM361.601 10.5H350.801V0.299999H361.601V10.5ZM361.601 10.6V10.8H350.801V10.6H361.601ZM391.601 0.199999H380.801V-3.57628e-07H391.601V0.199999ZM391.601 10.5H380.801V0.299999H391.601V10.5ZM391.601 10.6V10.8H380.801V10.6H391.601ZM401.601 0.199999H390.801V-3.57628e-07H401.601V0.199999ZM401.601 10.5H390.801V0.299999H401.601V10.5ZM401.601 10.6V10.8H390.801V10.6H401.601ZM411.601 0.199999H400.801V-3.57628e-07H411.601V0.199999ZM411.601 10.5H400.801V0.299999H411.601V10.5ZM411.601 10.6V10.8H400.801V10.6H411.601ZM421.601 0.199999H410.801V-3.57628e-07H421.601V0.199999ZM421.601 10.5H410.801V0.299999H421.601V10.5ZM421.601 10.6V10.8H410.801V10.6H421.601ZM431.601 0.199999H420.801V-3.57628e-07H431.601V0.199999ZM431.601 10.5H420.801V0.299999H431.601V10.5ZM431.601 10.6V10.8H420.801V10.6H431.601ZM441.601 0.199999H430.801V-3.57628e-07H441.601V0.199999ZM441.601 10.5H430.801V0.299999H441.601V10.5ZM441.601 10.6V10.8H430.801V10.6H441.601ZM451.601 0.199999H440.801V-3.57628e-07H451.601V0.199999ZM451.601 10.5H440.801V0.299999H451.601V10.5ZM451.601 10.6V10.8H440.801V10.6H451.601ZM471.601 0.199999H460.801V-3.57628e-07H471.601V0.199999ZM471.601 10.5H460.801V0.299999H471.601V10.5ZM471.601 10.6V10.8H460.801V10.6H471.601ZM481.601 0.199999H470.801V-3.57628e-07H481.601V0.199999ZM481.601 10.5H470.801V0.299999H481.601V10.5ZM481.601 10.6V10.8H470.801V10.6H481.601ZM551.601 0.199999H540.801V-3.57628e-07H551.601V0.199999ZM551.601 10.5H540.801V0.299999H551.601V10.5ZM551.601 10.6V10.8H540.801V10.6H551.601ZM561.601 0.199999H550.801V-3.57628e-07H561.601V0.199999ZM561.601 10.5H550.801V0.299999H561.601V10.5ZM561.601 10.6V10.8H550.801V10.6H561.601ZM631.601 0.199999H620.801V-3.57628e-07H631.601V0.199999ZM631.601 10.5H620.801V0.299999H631.601V10.5ZM631.601 10.6V10.8H620.801V10.6H631.601ZM641.601 0.199999H630.801V-3.57628e-07H641.601V0.199999ZM641.601 10.5H630.801V0.299999H641.601V10.5ZM641.601 10.6V10.8H630.801V10.6H641.601ZM651.601 0.199999H640.801V-3.57628e-07H651.601V0.199999ZM651.601 10.5H640.801V0.299999H651.601V10.5ZM651.601 10.6V10.8H640.801V10.6H651.601ZM661.601 0.199999H650.801V-3.57628e-07H661.601V0.199999ZM661.601 10.5H650.801V0.299999H661.601V10.5ZM661.601 10.6V10.8H650.801V10.6H661.601ZM671.601 0.199999H660.801V-3.57628e-07H671.601V0.199999ZM671.601 10.5H660.801V0.299999H671.601V10.5ZM671.601 10.6V10.8H660.801V10.6H671.601ZM681.601 0.199999H670.801V-3.57628e-07H681.601V0.199999ZM681.601 10.5H670.801V0.299999H681.601V10.5ZM681.601 10.6V10.8H670.801V10.6H681.601ZM691.601 0.199999H680.801V-3.57628e-07H691.601V0.199999ZM691.601 10.5H680.801V0.299999H691.601V10.5ZM691.601 10.6V10.8H680.801V10.6H691.601ZM11.6012 12.2H0.801172V12H11.6012V12.2ZM11.6012 22.5H0.801172V12.3H11.6012V22.5ZM11.6012 22.6V22.8H0.801172V22.6H11.6012ZM21.6012 12.2H10.8012V12H21.6012V12.2ZM21.6012 22.5H10.8012V12.3H21.6012V22.5ZM21.6012 22.6V22.8H10.8012V22.6H21.6012ZM31.6012 12.2H20.8012V12H31.6012V12.2ZM31.6012 22.5H20.8012V12.3H31.6012V22.5ZM31.6012 22.6V22.8H20.8012V22.6H31.6012ZM41.6012 12.2H30.8012V12H41.6012V12.2ZM41.6012 22.5H30.8012V12.3H41.6012V22.5ZM41.6012 22.6V22.8H30.8012V22.6H41.6012ZM71.6012 12.2H60.8012V12H71.6012V12.2ZM71.6012 22.5H60.8012V12.3H71.6012V22.5ZM71.6012 22.6V22.8H60.8012V22.6H71.6012ZM81.6012 12.2H70.8012V12H81.6012V12.2ZM81.6012 22.5H70.8012V12.3H81.6012V22.5ZM81.6012 22.6V22.8H70.8012V22.6H81.6012ZM91.6012 12.2H80.8012V12H91.6012V12.2ZM91.6012 22.5H80.8012V12.3H91.6012V22.5ZM91.6012 22.6V22.8H80.8012V22.6H91.6012ZM101.601 12.2H90.8012V12H101.601V12.2ZM101.601 22.5H90.8012V12.3H101.601V22.5ZM101.601 22.6V22.8H90.8012V22.6H101.601ZM131.601 12.2H120.801V12H131.601V12.2ZM131.601 22.5H120.801V12.3H131.601V22.5ZM131.601 22.6V22.8H120.801V22.6H131.601ZM151.601 12.2H140.801V12H151.601V12.2ZM151.601 22.5H140.801V12.3H151.601V22.5ZM151.601 22.6V22.8H140.801V22.6H151.601ZM161.601 12.2H150.801V12H161.601V12.2ZM161.601 22.5H150.801V12.3H161.601V22.5ZM161.601 22.6V22.8H150.801V22.6H161.601ZM201.601 12.2H190.801V12H201.601V12.2ZM201.601 22.5H190.801V12.3H201.601V22.5ZM201.601 22.6V22.8H190.801V22.6H201.601ZM211.601 12.2H200.801V12H211.601V12.2ZM211.601 22.5H200.801V12.3H211.601V22.5ZM211.601 22.6V22.8H200.801V22.6H211.601ZM231.601 12.2H220.801V12H231.601V12.2ZM231.601 22.5H220.801V12.3H231.601V22.5ZM231.601 22.6V22.8H220.801V22.6H231.601ZM241.601 12.2H230.801V12H241.601V12.2ZM241.601 22.5H230.801V12.3H241.601V22.5ZM241.601 22.6V22.8H230.801V22.6H241.601ZM281.601 12.2H270.801V12H281.601V12.2ZM281.601 22.5H270.801V12.3H281.601V22.5ZM281.601 22.6V22.8H270.801V22.6H281.601ZM291.601 12.2H280.801V12H291.601V12.2ZM291.601 22.5H280.801V12.3H291.601V22.5ZM291.601 22.6V22.8H280.801V22.6H291.601ZM311.601 12.2H300.801V12H311.601V12.2ZM311.601 22.5H300.801V12.3H311.601V22.5ZM311.601 22.6V22.8H300.801V22.6H311.601ZM321.601 12.2H310.801V12H321.601V12.2ZM321.601 22.5H310.801V12.3H321.601V22.5ZM321.601 22.6V22.8H310.801V22.6H321.601ZM361.601 12.2H350.801V12H361.601V12.2ZM361.601 22.5H350.801V12.3H361.601V22.5ZM361.601 22.6V22.8H350.801V22.6H361.601ZM371.601 12.2H360.801V12H371.601V12.2ZM371.601 22.5H360.801V12.3H371.601V22.5ZM371.601 22.6V22.8H360.801V22.6H371.601ZM391.601 12.2H380.801V12H391.601V12.2ZM391.601 22.5H380.801V12.3H391.601V22.5ZM391.601 22.6V22.8H380.801V22.6H391.601ZM401.601 12.2H390.801V12H401.601V12.2ZM401.601 22.5H390.801V12.3H401.601V22.5ZM401.601 22.6V22.8H390.801V22.6H401.601ZM471.601 12.2H460.801V12H471.601V12.2ZM471.601 22.5H460.801V12.3H471.601V22.5ZM471.601 22.6V22.8H460.801V22.6H471.601ZM481.601 12.2H470.801V12H481.601V12.2ZM481.601 22.5H470.801V12.3H481.601V22.5ZM481.601 22.6V22.8H470.801V22.6H481.601ZM551.601 12.2H540.801V12H551.601V12.2ZM551.601 22.5H540.801V12.3H551.601V22.5ZM551.601 22.6V22.8H540.801V22.6H551.601ZM561.601 12.2H550.801V12H561.601V12.2ZM561.601 22.5H550.801V12.3H561.601V22.5ZM561.601 22.6V22.8H550.801V22.6H561.601ZM631.601 12.2H620.801V12H631.601V12.2ZM631.601 22.5H620.801V12.3H631.601V22.5ZM631.601 22.6V22.8H620.801V22.6H631.601ZM641.601 12.2H630.801V12H641.601V12.2ZM641.601 22.5H630.801V12.3H641.601V22.5ZM641.601 22.6V22.8H630.801V22.6H641.601ZM11.6012 24.2H0.801172V24H11.6012V24.2ZM11.6012 34.5H0.801172V24.3H11.6012V34.5ZM11.6012 34.6V34.8H0.801172V34.6H11.6012ZM21.6012 24.2H10.8012V24H21.6012V24.2ZM21.6012 34.5H10.8012V24.3H21.6012V34.5ZM21.6012 34.6V34.8H10.8012V34.6H21.6012ZM41.6012 24.2H30.8012V24H41.6012V24.2ZM41.6012 34.5H30.8012V24.3H41.6012V34.5ZM41.6012 34.6V34.8H30.8012V34.6H41.6012ZM51.6012 24.2H40.8012V24H51.6012V24.2ZM51.6012 34.5H40.8012V24.3H51.6012V34.5ZM51.6012 34.6V34.8H40.8012V34.6H51.6012ZM61.6012 24.2H50.8012V24H61.6012V24.2ZM61.6012 34.5H50.8012V24.3H61.6012V34.5ZM61.6012 34.6V34.8H50.8012V34.6H61.6012ZM71.6012 24.2H60.8012V24H71.6012V24.2ZM71.6012 34.5H60.8012V24.3H71.6012V34.5ZM71.6012 34.6V34.8H60.8012V34.6H71.6012ZM91.6012 24.2H80.8012V24H91.6012V24.2ZM91.6012 34.5H80.8012V24.3H91.6012V34.5ZM91.6012 34.6V34.8H80.8012V34.6H91.6012ZM101.601 24.2H90.8012V24H101.601V24.2ZM101.601 34.5H90.8012V24.3H101.601V34.5ZM101.601 34.6V34.8H90.8012V34.6H101.601ZM151.601 24.2H140.801V24H151.601V24.2ZM151.601 34.5H140.801V24.3H151.601V34.5ZM151.601 34.6V34.8H140.801V34.6H151.601ZM161.601 24.2H150.801V24H161.601V24.2ZM161.601 34.5H150.801V24.3H161.601V34.5ZM161.601 34.6V34.8H150.801V34.6H161.601ZM171.601 24.2H160.801V24H171.601V24.2ZM171.601 34.5H160.801V24.3H171.601V34.5ZM171.601 34.6V34.8H160.801V34.6H171.601ZM181.601 24.2H170.801V24H181.601V24.2ZM181.601 34.5H170.801V24.3H181.601V34.5ZM181.601 34.6V34.8H170.801V34.6H181.601ZM191.601 24.2H180.801V24H191.601V24.2ZM191.601 34.5H180.801V24.3H191.601V34.5ZM191.601 34.6V34.8H180.801V34.6H191.601ZM201.601 24.2H190.801V24H201.601V24.2ZM201.601 34.5H190.801V24.3H201.601V34.5ZM201.601 34.6V34.8H190.801V34.6H201.601ZM211.601 24.2H200.801V24H211.601V24.2ZM211.601 34.5H200.801V24.3H211.601V34.5ZM211.601 34.6V34.8H200.801V34.6H211.601ZM231.601 24.2H220.801V24H231.601V24.2ZM231.601 34.5H220.801V24.3H231.601V34.5ZM231.601 34.6V34.8H220.801V34.6H231.601ZM241.601 24.2H230.801V24H241.601V24.2ZM241.601 34.5H230.801V24.3H241.601V34.5ZM241.601 34.6V34.8H230.801V34.6H241.601ZM251.601 24.2H240.801V24H251.601V24.2ZM251.601 34.5H240.801V24.3H251.601V34.5ZM251.601 34.6V34.8H240.801V34.6H251.601ZM261.601 24.2H250.801V24H261.601V24.2ZM261.601 34.5H250.801V24.3H261.601V34.5ZM261.601 34.6V34.8H250.801V34.6H261.601ZM271.601 24.2H260.801V24H271.601V24.2ZM271.601 34.5H260.801V24.3H271.601V34.5ZM271.601 34.6V34.8H260.801V34.6H271.601ZM281.601 24.2H270.801V24H281.601V24.2ZM281.601 34.5H270.801V24.3H281.601V34.5ZM281.601 34.6V34.8H270.801V34.6H281.601ZM311.601 24.2H300.801V24H311.601V24.2ZM311.601 34.5H300.801V24.3H311.601V34.5ZM311.601 34.6V34.8H300.801V34.6H311.601ZM321.601 24.2H310.801V24H321.601V24.2ZM321.601 34.5H310.801V24.3H321.601V34.5ZM321.601 34.6V34.8H310.801V34.6H321.601ZM331.601 24.2H320.801V24H331.601V24.2ZM331.601 34.5H320.801V24.3H331.601V34.5ZM331.601 34.6V34.8H320.801V34.6H331.601ZM341.601 24.2H330.801V24H341.601V24.2ZM341.601 34.5H330.801V24.3H341.601V34.5ZM341.601 34.6V34.8H330.801V34.6H341.601ZM351.601 24.2H340.801V24H351.601V24.2ZM351.601 34.5H340.801V24.3H351.601V34.5ZM351.601 34.6V34.8H340.801V34.6H351.601ZM361.601 24.2H350.801V24H361.601V24.2ZM361.601 34.5H350.801V24.3H361.601V34.5ZM361.601 34.6V34.8H350.801V34.6H361.601ZM391.601 24.2H380.801V24H391.601V24.2ZM391.601 34.5H380.801V24.3H391.601V34.5ZM391.601 34.6V34.8H380.801V34.6H391.601ZM401.601 24.2H390.801V24H401.601V24.2ZM401.601 34.5H390.801V24.3H401.601V34.5ZM401.601 34.6V34.8H390.801V34.6H401.601ZM411.601 24.2H400.801V24H411.601V24.2ZM411.601 34.5H400.801V24.3H411.601V34.5ZM411.601 34.6V34.8H400.801V34.6H411.601ZM421.601 24.2H410.801V24H421.601V24.2ZM421.601 34.5H410.801V24.3H421.601V34.5ZM421.601 34.6V34.8H410.801V34.6H421.601ZM431.601 24.2H420.801V24H431.601V24.2ZM431.601 34.5H420.801V24.3H431.601V34.5ZM431.601 34.6V34.8H420.801V34.6H431.601ZM471.601 24.2H460.801V24H471.601V24.2ZM471.601 34.5H460.801V24.3H471.601V34.5ZM471.601 34.6V34.8H460.801V34.6H471.601ZM481.601 24.2H470.801V24H481.601V24.2ZM481.601 34.5H470.801V24.3H481.601V34.5ZM481.601 34.6V34.8H470.801V34.6H481.601ZM551.601 24.2H540.801V24H551.601V24.2ZM551.601 34.5H540.801V24.3H551.601V34.5ZM551.601 34.6V34.8H540.801V34.6H551.601ZM561.601 24.2H550.801V24H561.601V24.2ZM561.601 34.5H550.801V24.3H561.601V34.5ZM561.601 34.6V34.8H550.801V34.6H561.601ZM631.601 24.2H620.801V24H631.601V24.2ZM631.601 34.5H620.801V24.3H631.601V34.5ZM631.601 34.6V34.8H620.801V34.6H631.601ZM641.601 24.2H630.801V24H641.601V24.2ZM641.601 34.5H630.801V24.3H641.601V34.5ZM641.601 34.6V34.8H630.801V34.6H641.601ZM651.601 24.2H640.801V24H651.601V24.2ZM651.601 34.5H640.801V24.3H651.601V34.5ZM651.601 34.6V34.8H640.801V34.6H651.601ZM661.601 24.2H650.801V24H661.601V24.2ZM661.601 34.5H650.801V24.3H661.601V34.5ZM661.601 34.6V34.8H650.801V34.6H661.601ZM671.601 24.2H660.801V24H671.601V24.2ZM671.601 34.5H660.801V24.3H671.601V34.5ZM671.601 34.6V34.8H660.801V34.6H671.601ZM11.6012 36.2H0.801172V36H11.6012V36.2ZM11.6012 46.5H0.801172V36.3H11.6012V46.5ZM11.6012 46.6V46.8H0.801172V46.6H11.6012ZM21.6012 36.2H10.8012V36H21.6012V36.2ZM21.6012 46.5H10.8012V36.3H21.6012V46.5ZM21.6012 46.6V46.8H10.8012V46.6H21.6012ZM51.6012 36.2H40.8012V36H51.6012V36.2ZM51.6012 46.5H40.8012V36.3H51.6012V46.5ZM51.6012 46.6V46.8H40.8012V46.6H51.6012ZM61.6012 36.2H50.8012V36H61.6012V36.2ZM61.6012 46.5H50.8012V36.3H61.6012V46.5ZM61.6012 46.6V46.8H50.8012V46.6H61.6012ZM91.6012 36.2H80.8012V36H91.6012V36.2ZM91.6012 46.5H80.8012V36.3H91.6012V46.5ZM91.6012 46.6V46.8H80.8012V46.6H91.6012ZM101.601 36.2H90.8012V36H101.601V36.2ZM101.601 46.5H90.8012V36.3H101.601V46.5ZM101.601 46.6V46.8H90.8012V46.6H101.601ZM151.601 36.2H140.801V36H151.601V36.2ZM151.601 46.5H140.801V36.3H151.601V46.5ZM151.601 46.6V46.8H140.801V46.6H151.601ZM161.601 36.2H150.801V36H161.601V36.2ZM161.601 46.5H150.801V36.3H161.601V46.5ZM161.601 46.6V46.8H150.801V46.6H161.601ZM201.601 36.2H190.801V36H201.601V36.2ZM201.601 46.5H190.801V36.3H201.601V46.5ZM201.601 46.6V46.8H190.801V46.6H201.601ZM211.601 36.2H200.801V36H211.601V36.2ZM211.601 46.5H200.801V36.3H211.601V46.5ZM211.601 46.6V46.8H200.801V46.6H211.601ZM231.601 36.2H220.801V36H231.601V36.2ZM231.601 46.5H220.801V36.3H231.601V46.5ZM231.601 46.6V46.8H220.801V46.6H231.601ZM241.601 36.2H230.801V36H241.601V36.2ZM241.601 46.5H230.801V36.3H241.601V46.5ZM241.601 46.6V46.8H230.801V46.6H241.601ZM311.601 36.2H300.801V36H311.601V36.2ZM311.601 46.5H300.801V36.3H311.601V46.5ZM311.601 46.6V46.8H300.801V46.6H311.601ZM321.601 36.2H310.801V36H321.601V36.2ZM321.601 46.5H310.801V36.3H321.601V46.5ZM321.601 46.6V46.8H310.801V46.6H321.601ZM391.601 36.2H380.801V36H391.601V36.2ZM391.601 46.5H380.801V36.3H391.601V46.5ZM391.601 46.6V46.8H380.801V46.6H391.601ZM401.601 36.2H390.801V36H401.601V36.2ZM401.601 46.5H390.801V36.3H401.601V46.5ZM401.601 46.6V46.8H390.801V46.6H401.601ZM471.601 36.2H460.801V36H471.601V36.2ZM471.601 46.5H460.801V36.3H471.601V46.5ZM471.601 46.6V46.8H460.801V46.6H471.601ZM481.601 36.2H470.801V36H481.601V36.2ZM481.601 46.5H470.801V36.3H481.601V46.5ZM481.601 46.6V46.8H470.801V46.6H481.601ZM551.601 36.2H540.801V36H551.601V36.2ZM551.601 46.5H540.801V36.3H551.601V46.5ZM551.601 46.6V46.8H540.801V46.6H551.601ZM561.601 36.2H550.801V36H561.601V36.2ZM561.601 46.5H550.801V36.3H561.601V46.5ZM561.601 46.6V46.8H550.801V46.6H561.601ZM631.601 36.2H620.801V36H631.601V36.2ZM631.601 46.5H620.801V36.3H631.601V46.5ZM631.601 46.6V46.8H620.801V46.6H631.601ZM641.601 36.2H630.801V36H641.601V36.2ZM641.601 46.5H630.801V36.3H641.601V46.5ZM641.601 46.6V46.8H630.801V46.6H641.601ZM11.6012 48.2H0.801172V48H11.6012V48.2ZM11.6012 58.5H0.801172V48.3H11.6012V58.5ZM11.6012 58.6V58.8H0.801172V58.6H11.6012ZM21.6012 48.2H10.8012V48H21.6012V48.2ZM21.6012 58.5H10.8012V48.3H21.6012V58.5ZM21.6012 58.6V58.8H10.8012V58.6H21.6012ZM91.6012 48.2H80.8012V48H91.6012V48.2ZM91.6012 58.5H80.8012V48.3H91.6012V58.5ZM91.6012 58.6V58.8H80.8012V58.6H91.6012ZM101.601 48.2H90.8012V48H101.601V48.2ZM101.601 58.5H90.8012V48.3H101.601V58.5ZM101.601 58.6V58.8H90.8012V58.6H101.601ZM151.601 48.2H140.801V48H151.601V48.2ZM151.601 58.5H140.801V48.3H151.601V58.5ZM151.601 58.6V58.8H140.801V58.6H151.601ZM161.601 48.2H150.801V48H161.601V48.2ZM161.601 58.5H150.801V48.3H161.601V58.5ZM161.601 58.6V58.8H150.801V58.6H161.601ZM201.601 48.2H190.801V48H201.601V48.2ZM201.601 58.5H190.801V48.3H201.601V58.5ZM201.601 58.6V58.8H190.801V58.6H201.601ZM211.601 48.2H200.801V48H211.601V48.2ZM211.601 58.5H200.801V48.3H211.601V58.5ZM211.601 58.6V58.8H200.801V58.6H211.601ZM231.601 48.2H220.801V48H231.601V48.2ZM231.601 58.5H220.801V48.3H231.601V58.5ZM231.601 58.6V58.8H220.801V58.6H231.601ZM241.601 48.2H230.801V48H241.601V48.2ZM241.601 58.5H230.801V48.3H241.601V58.5ZM241.601 58.6V58.8H230.801V58.6H241.601ZM311.601 48.2H300.801V48H311.601V48.2ZM311.601 58.5H300.801V48.3H311.601V58.5ZM311.601 58.6V58.8H300.801V58.6H311.601ZM321.601 48.2H310.801V48H321.601V48.2ZM321.601 58.5H310.801V48.3H321.601V58.5ZM321.601 58.6V58.8H310.801V58.6H321.601ZM391.601 48.2H380.801V48H391.601V48.2ZM391.601 58.5H380.801V48.3H391.601V58.5ZM391.601 58.6V58.8H380.801V58.6H391.601ZM401.601 48.2H390.801V48H401.601V48.2ZM401.601 58.5H390.801V48.3H401.601V58.5ZM401.601 58.6V58.8H390.801V58.6H401.601ZM411.601 48.2H400.801V48H411.601V48.2ZM411.601 58.5H400.801V48.3H411.601V58.5ZM411.601 58.6V58.8H400.801V58.6H411.601ZM421.601 48.2H410.801V48H421.601V48.2ZM421.601 58.5H410.801V48.3H421.601V58.5ZM421.601 58.6V58.8H410.801V58.6H421.601ZM431.601 48.2H420.801V48H431.601V48.2ZM431.601 58.5H420.801V48.3H431.601V58.5ZM431.601 58.6V58.8H420.801V58.6H431.601ZM441.601 48.2H430.801V48H441.601V48.2ZM441.601 58.5H430.801V48.3H441.601V58.5ZM441.601 58.6V58.8H430.801V58.6H441.601ZM451.601 48.2H440.801V48H451.601V48.2ZM451.601 58.5H440.801V48.3H451.601V58.5ZM451.601 58.6V58.8H440.801V58.6H451.601ZM471.601 48.2H460.801V48H471.601V48.2ZM471.601 58.5H460.801V48.3H471.601V58.5ZM471.601 58.6V58.8H460.801V58.6H471.601ZM481.601 48.2H470.801V48H481.601V48.2ZM481.601 58.5H470.801V48.3H481.601V58.5ZM481.601 58.6V58.8H470.801V58.6H481.601ZM491.601 48.2H480.801V48H491.601V48.2ZM491.601 58.5H480.801V48.3H491.601V58.5ZM491.601 58.6V58.8H480.801V58.6H491.601ZM501.601 48.2H490.801V48H501.601V48.2ZM501.601 58.5H490.801V48.3H501.601V58.5ZM501.601 58.6V58.8H490.801V58.6H501.601ZM511.601 48.2H500.801V48H511.601V48.2ZM511.601 58.5H500.801V48.3H511.601V58.5ZM511.601 58.6V58.8H500.801V58.6H511.601ZM521.601 48.2H510.801V48H521.601V48.2ZM521.601 58.5H510.801V48.3H521.601V58.5ZM521.601 58.6V58.8H510.801V58.6H521.601ZM531.601 48.2H520.801V48H531.601V48.2ZM531.601 58.5H520.801V48.3H531.601V58.5ZM531.601 58.6V58.8H520.801V58.6H531.601ZM551.601 48.2H540.801V48H551.601V48.2ZM551.601 58.5H540.801V48.3H551.601V58.5ZM551.601 58.6V58.8H540.801V58.6H551.601ZM561.601 48.2H550.801V48H561.601V48.2ZM561.601 58.5H550.801V48.3H561.601V58.5ZM561.601 58.6V58.8H550.801V58.6H561.601ZM571.601 48.2H560.801V48H571.601V48.2ZM571.601 58.5H560.801V48.3H571.601V58.5ZM571.601 58.6V58.8H560.801V58.6H571.601ZM581.601 48.2H570.801V48H581.601V48.2ZM581.601 58.5H570.801V48.3H581.601V58.5ZM581.601 58.6V58.8H570.801V58.6H581.601ZM591.601 48.2H580.801V48H591.601V48.2ZM591.601 58.5H580.801V48.3H591.601V58.5ZM591.601 58.6V58.8H580.801V58.6H591.601ZM601.601 48.2H590.801V48H601.601V48.2ZM601.601 58.5H590.801V48.3H601.601V58.5ZM601.601 58.6V58.8H590.801V58.6H601.601ZM611.601 48.2H600.801V48H611.601V48.2ZM611.601 58.5H600.801V48.3H611.601V58.5ZM611.601 58.6V58.8H600.801V58.6H611.601ZM631.601 48.2H620.801V48H631.601V48.2ZM631.601 58.5H620.801V48.3H631.601V58.5ZM631.601 58.6V58.8H620.801V58.6H631.601ZM641.601 48.2H630.801V48H641.601V48.2ZM641.601 58.5H630.801V48.3H641.601V58.5ZM641.601 58.6V58.8H630.801V58.6H641.601ZM651.601 48.2H640.801V48H651.601V48.2ZM651.601 58.5H640.801V48.3H651.601V58.5ZM651.601 58.6V58.8H640.801V58.6H651.601ZM661.601 48.2H650.801V48H661.601V48.2ZM661.601 58.5H650.801V48.3H661.601V58.5ZM661.601 58.6V58.8H650.801V58.6H661.601ZM671.601 48.2H660.801V48H671.601V48.2ZM671.601 58.5H660.801V48.3H671.601V58.5ZM671.601 58.6V58.8H660.801V58.6H671.601ZM681.601 48.2H670.801V48H681.601V48.2ZM681.601 58.5H670.801V48.3H681.601V58.5ZM681.601 58.6V58.8H670.801V58.6H681.601ZM691.601 48.2H680.801V48H691.601V48.2ZM691.601 58.5H680.801V48.3H691.601V58.5ZM691.601 58.6V58.8H680.801V58.6H691.601Z" fill="white"/>
</svg>
